<?xml version="1.0" encoding="UTF-8" standalone="no"?><svg xmlns="http://www.w3.org/2000/svg" xmlns:xlink="http://www.w3.org/1999/xlink" contentStyleType="text/css" height="2624px" preserveAspectRatio="none" style="width:810px;height:2624px;background:#FFFFFF;" version="1.1" viewBox="0 0 810 2624" width="810px" zoomAndPan="magnify"><defs/><g><!--MD5=[8fc3522a43f8c7199df5e09e5bb0188e]
entity user--><g id="elem_user"><ellipse cx="67" cy="2404.5" fill="#F1F1F1" rx="8" ry="8" style="stroke:#181818;stroke-width:0.5;"/><path d="M67,2412.5 L67,2439.5 M54,2420.5 L80,2420.5 M67,2439.5 L54,2454.5 M67,2439.5 L80,2454.5 " fill="none" style="stroke:#181818;stroke-width:0.5;"/><text fill="#000000" font-family="sans-serif" font-size="14" lengthAdjust="spacing" textLength="60" x="37" y="2470.5332">SNS User</text></g><!--MD5=[87d66015e0fe95d70bf3fa68103252e8]
entity nurse--><g id="elem_nurse"><ellipse cx="67" cy="1857.5" fill="#F1F1F1" rx="8" ry="8" style="stroke:#181818;stroke-width:0.5;"/><path d="M67,1865.5 L67,1892.5 M54,1873.5 L80,1873.5 M67,1892.5 L54,1907.5 M67,1892.5 L80,1907.5 " fill="none" style="stroke:#181818;stroke-width:0.5;"/><text fill="#000000" font-family="sans-serif" font-size="14" lengthAdjust="spacing" textLength="37" x="48.5" y="1923.5332">Nurse</text></g><!--MD5=[4d302acd527bc9f790d99ea65b823e73]
entity coordinator--><g id="elem_coordinator"><ellipse cx="67" cy="1263.5" fill="#F1F1F1" rx="8" ry="8" style="stroke:#181818;stroke-width:0.5;"/><path d="M67,1271.5 L67,1298.5 M54,1279.5 L80,1279.5 M67,1298.5 L54,1313.5 M67,1298.5 L80,1313.5 " fill="none" style="stroke:#181818;stroke-width:0.5;"/><text fill="#000000" font-family="sans-serif" font-size="14" lengthAdjust="spacing" textLength="122" x="6" y="1329.5332">Center Coordinator</text></g><!--MD5=[8df531fd36edad519192f49b4d80bdb0]
entity receptionist--><g id="elem_receptionist"><ellipse cx="67" cy="889.5" fill="#F1F1F1" rx="8" ry="8" style="stroke:#181818;stroke-width:0.5;"/><path d="M67,897.5 L67,924.5 M54,905.5 L80,905.5 M67,924.5 L54,939.5 M67,924.5 L80,939.5 " fill="none" style="stroke:#181818;stroke-width:0.5;"/><text fill="#000000" font-family="sans-serif" font-size="14" lengthAdjust="spacing" textLength="78" x="28" y="955.5332">Receptionist</text></g><!--MD5=[65a041cd1922b3dee6e64063a2213939]
entity administrator--><g id="elem_administrator"><ellipse cx="67" cy="310.5" fill="#F1F1F1" rx="8" ry="8" style="stroke:#181818;stroke-width:0.5;"/><path d="M67,318.5 L67,345.5 M54,326.5 L80,326.5 M67,345.5 L54,360.5 M67,345.5 L80,360.5 " fill="none" style="stroke:#181818;stroke-width:0.5;"/><text fill="#000000" font-family="sans-serif" font-size="14" lengthAdjust="spacing" textLength="83" x="25.5" y="376.5332">Administrator</text></g><g id="elem_UC3"><ellipse cx="496.1237" cy="752.0247" fill="#A9DCDF" rx="178.1237" ry="38.0247" style="stroke:#181818;stroke-width:0.5;"/><text fill="#000000" font-family="sans-serif" font-size="14" lengthAdjust="spacing" textLength="327" x="332.6237" y="755.7533">UC3: As a receptionist, I want to register a SNS user</text></g><g id="elem_UC9"><ellipse cx="496.1918" cy="70.0384" fill="#F1F1F1" rx="308.1918" ry="64.0384" style="stroke:#181818;stroke-width:0.5;"/><text fill="#000000" font-family="sans-serif" font-size="14" lengthAdjust="spacing" textLength="592" x="200.1918" y="73.7669">UC9: As a administrator, I want to register a vaccination center to respond to certain pandemic</text></g><g id="elem_UC10"><ellipse cx="495.8197" cy="208.9639" fill="#A9DCDF" rx="187.8197" ry="39.9639" style="stroke:#181818;stroke-width:0.5;"/><text fill="#000000" font-family="sans-serif" font-size="14" lengthAdjust="spacing" textLength="347" x="322.3197" y="212.6925">UC10: As a administrator, I want to register a Employee</text></g><g id="elem_UC11"><ellipse cx="496.0983" cy="341.2197" fill="#F1F1F1" rx="274.0983" ry="57.2197" style="stroke:#181818;stroke-width:0.5;"/><text fill="#000000" font-family="sans-serif" font-size="14" lengthAdjust="spacing" textLength="523" x="234.5983" y="344.9482">UC11: As a administrator, I want to get a list of Employees with a given function/role</text></g><g id="elem_UC12"><ellipse cx="496.2074" cy="478.1415" fill="#F1F1F1" rx="211.2074" ry="44.6415" style="stroke:#181818;stroke-width:0.5;"/><text fill="#000000" font-family="sans-serif" font-size="14" lengthAdjust="spacing" textLength="395" x="298.7074" y="481.87">UC12: As a administrator, I intent to specify a new vaccine type</text></g><g id="elem_UC13"><ellipse cx="495.8918" cy="617.9784" fill="#F1F1F1" rx="290.3918" ry="60.4784" style="stroke:#181818;stroke-width:0.5;"/><text fill="#000000" font-family="sans-serif" font-size="14" lengthAdjust="spacing" textLength="556" x="217.8918" y="621.7069">UC13: As a administrator, I intent to specify a new vaccine and its administration process</text></g><g id="elem_UC1"><ellipse cx="496.1395" cy="2344.1279" fill="#F1F1F1" rx="103.6395" ry="23.1279" style="stroke:#181818;stroke-width:0.5;"/><text fill="#000000" font-family="sans-serif" font-size="14" lengthAdjust="spacing" textLength="169" x="411.6395" y="2347.8564">UC1: Schedule vaccination</text></g><g id="elem_UC2"><ellipse cx="495.7585" cy="2434.8517" fill="#F1F1F1" rx="149.7585" ry="32.3517" style="stroke:#181818;stroke-width:0.5;"/><text fill="#000000" font-family="sans-serif" font-size="14" lengthAdjust="spacing" textLength="268" x="361.7585" y="2438.5802">UC2: Request EU COVID Digital Certificate</text></g><g id="elem_UC14"><ellipse cx="496.059" cy="2560.8118" fill="#F1F1F1" rx="277.059" ry="57.8118" style="stroke:#181818;stroke-width:0.5;"/><text fill="#000000" font-family="sans-serif" font-size="14" lengthAdjust="spacing" textLength="529" x="231.559" y="2564.5403">UC14: Authorize the DGS to send SMS message with information about appointment</text></g><g id="elem_UC4"><ellipse cx="496.0206" cy="867.1041" fill="#F1F1F1" rx="198.5206" ry="42.1041" style="stroke:#181818;stroke-width:0.5;"/><text fill="#000000" font-family="sans-serif" font-size="14" lengthAdjust="spacing" textLength="369" x="311.5206" y="870.8326">UC4: Register the arrival of a SNS user to take the vaccine</text></g><g id="elem_UC5"><ellipse cx="495.9763" cy="972.0953" fill="#F1F1F1" rx="128.4763" ry="28.0953" style="stroke:#181818;stroke-width:0.5;"/><text fill="#000000" font-family="sans-serif" font-size="14" lengthAdjust="spacing" textLength="223" x="384.4763" y="975.8238">UC5: Schedule a vaccine for a user</text></g><g id="elem_UC6"><ellipse cx="495.9951" cy="1077.799" fill="#F1F1F1" rx="199.4951" ry="42.299" style="stroke:#181818;stroke-width:0.5;"/><text fill="#000000" font-family="sans-serif" font-size="14" lengthAdjust="spacing" textLength="371" x="310.4951" y="1081.5275">UC6: Confirm that the SNS user has the vaccine scheduled</text></g><g id="elem_UC7"><ellipse cx="495.8066" cy="1521.8613" fill="#F1F1F1" rx="159.8066" ry="34.3613" style="stroke:#181818;stroke-width:0.5;"/><text fill="#000000" font-family="sans-serif" font-size="14" lengthAdjust="spacing" textLength="289" x="351.3066" y="1525.5898">UC7: Record adverse reactions of a SNS user</text></g><g id="elem_UC8"><ellipse cx="496.0335" cy="1634.0067" fill="#F1F1F1" rx="198.0335" ry="42.0067" style="stroke:#181818;stroke-width:0.5;"/><text fill="#000000" font-family="sans-serif" font-size="14" lengthAdjust="spacing" textLength="368" x="312.0335" y="1637.7352">UC8: Record the administration of a vaccine to a SNS user</text></g><g id="elem_UC20"><ellipse cx="495.9317" cy="1764.1863" fill="#F1F1F1" rx="251.4317" ry="52.6863" style="stroke:#181818;stroke-width:0.5;"/><text fill="#000000" font-family="sans-serif" font-size="14" lengthAdjust="spacing" textLength="477" x="257.4317" y="1767.9149">UC20: Check the list of SNS users that are present in the vaccination center</text></g><g id="elem_UC21"><ellipse cx="496.0002" cy="1887.9" fill="#F1F1F1" rx="167.5002" ry="35.9" style="stroke:#181818;stroke-width:0.5;"/><text fill="#000000" font-family="sans-serif" font-size="14" lengthAdjust="spacing" textLength="305" x="343.5002" y="1891.6286">UC21: Check the user info and health conditions</text></g><g id="elem_UC23"><ellipse cx="495.9572" cy="2002.0914" fill="#F1F1F1" rx="200.9572" ry="42.5914" style="stroke:#181818;stroke-width:0.5;"/><text fill="#000000" font-family="sans-serif" font-size="14" lengthAdjust="spacing" textLength="374" x="308.9572" y="2005.82">UC23: Issue and deliver vaccination certificate for SNS user</text></g><g id="elem_UC22"><ellipse cx="496.1078" cy="2125.0216" fill="#F1F1F1" rx="215.6078" ry="45.5216" style="stroke:#181818;stroke-width:0.5;"/><text fill="#000000" font-family="sans-serif" font-size="14" lengthAdjust="spacing" textLength="404" x="294.1078" y="2128.7501">UC22: Get instructions regarding the vaccine to be administered</text></g><g id="elem_UC16"><ellipse cx="495.8197" cy="2245.9639" fill="#F1F1F1" rx="187.8197" ry="39.9639" style="stroke:#181818;stroke-width:0.5;"/><text fill="#000000" font-family="sans-serif" font-size="14" lengthAdjust="spacing" textLength="347" x="322.3197" y="2249.6925">UC16: Register the vaccine type, brand and lot number</text></g><g id="elem_UC17"><ellipse cx="495.8863" cy="1185.9773" fill="#F1F1F1" rx="137.8863" ry="29.9773" style="stroke:#181818;stroke-width:0.5;"/><text fill="#000000" font-family="sans-serif" font-size="14" lengthAdjust="spacing" textLength="243" x="374.3863" y="1189.7058">UC17: Monitor the vaccination process</text></g><g id="elem_UC18"><ellipse cx="495.9447" cy="1294.1889" fill="#F1F1F1" rx="201.4447" ry="42.6889" style="stroke:#181818;stroke-width:0.5;"/><text fill="#000000" font-family="sans-serif" font-size="14" lengthAdjust="spacing" textLength="375" x="308.4447" y="1297.9175">UC18: Evaluate the performance of the vaccination process</text></g><g id="elem_UC19"><ellipse cx="495.8486" cy="1411.7697" fill="#F1F1F1" rx="186.8486" ry="39.7697" style="stroke:#181818;stroke-width:0.5;"/><text fill="#000000" font-family="sans-serif" font-size="14" lengthAdjust="spacing" textLength="345" x="323.3486" y="1415.4982">UC19: Analyse reports concerning vaccination process</text></g><!--MD5=[e71913910ae60f5842a843a20d6ecd39]
link user to UC1--><g id="link_user_UC1"><path d="M97.32,2420.23 C121.16,2408.85 155.97,2393.65 188,2385 C254.52,2367.03 331.37,2356.78 391.54,2351.02 " fill="none" id="user-to-UC1" style="stroke:#181818;stroke-width:1.0;"/><polygon fill="#181818" points="396.58,2350.55,387.2524,2347.3885,391.6009,2351.0065,387.9828,2355.3551,396.58,2350.55" style="stroke:#181818;stroke-width:1.0;"/></g><!--MD5=[20aeaa20d1880359803c0703a4b24425]
link user to UC2--><g id="link_user_UC2"><path d="M97.01,2435 C146.66,2435 251.23,2435 340.72,2435 " fill="none" id="user-to-UC2" style="stroke:#181818;stroke-width:1.0;"/><polygon fill="#181818" points="345.78,2435,336.78,2431,340.78,2435,336.78,2439,345.78,2435" style="stroke:#181818;stroke-width:1.0;"/></g><!--MD5=[2f33897b158a8c25bcfcc46a215695d0]
link user to UC14--><g id="link_user_UC14"><path d="M97.12,2448.6 C121.13,2459.46 156.28,2474.53 188,2485 C223.93,2496.86 262.76,2507.84 300.32,2517.55 " fill="none" id="user-to-UC14" style="stroke:#181818;stroke-width:1.0;"/><polygon fill="#181818" points="305.38,2518.85,297.6568,2512.7383,300.5369,2517.6071,295.6682,2520.4872,305.38,2518.85" style="stroke:#181818;stroke-width:1.0;"/></g><!--MD5=[96fde1d2e0b1291cb173a973fcca5e0c]
link receptionist to UC4--><g id="link_receptionist_UC4"><path d="M106.27,915.25 C154.39,909.28 240.28,898.62 319.1,888.83 " fill="none" id="receptionist-to-UC4" style="stroke:#181818;stroke-width:1.0;"/><polygon fill="#181818" points="324.28,888.19,314.8564,885.3272,319.318,888.8049,315.8402,893.2664,324.28,888.19" style="stroke:#181818;stroke-width:1.0;"/></g><!--MD5=[870700a179d39c5354006a176d0faf92]
link receptionist to UC5--><g id="link_receptionist_UC5"><path d="M106.27,924.66 C166.84,932.04 287.24,946.7 378.08,957.76 " fill="none" id="receptionist-to-UC5" style="stroke:#181818;stroke-width:1.0;"/><polygon fill="#181818" points="383.2,958.39,374.7441,953.3404,378.236,957.7909,373.7856,961.2828,383.2,958.39" style="stroke:#181818;stroke-width:1.0;"/></g><!--MD5=[89a6090b69f39a9c381d512423ab3f04]
link receptionist to UC6--><g id="link_receptionist_UC6"><path d="M105.67,959.01 C127.77,979.63 157.32,1003.6 188,1018 C226.62,1036.13 270.44,1048.78 312.64,1057.61 " fill="none" id="receptionist-to-UC6" style="stroke:#181818;stroke-width:1.0;"/><polygon fill="#181818" points="317.78,1058.67,309.7776,1052.9287,312.8838,1057.6565,308.156,1060.7627,317.78,1058.67" style="stroke:#181818;stroke-width:1.0;"/></g><!--MD5=[e623d35dd041d64a849fc0d6ed7bba7e]
link receptionist to UC3--><g id="link_receptionist_UC3"><path d="M99.31,880.99 C121.43,856.15 153.24,825.47 188,808 C229.45,787.17 277.52,774.01 323.15,765.72 " fill="none" id="receptionist-to-UC3" style="stroke:#181818;stroke-width:1.0;"/><polygon fill="#181818" points="328.12,764.83,318.5544,762.485,323.1988,765.7144,319.9694,770.3588,328.12,764.83" style="stroke:#181818;stroke-width:1.0;"/></g><!--MD5=[5f468418e2d96549bbc39db60ad4584f]
link nurse to UC7--><g id="link_nurse_UC7"><path d="M70.92,1848.99 C78.18,1781.79 103.13,1644.74 188,1575 C227.9,1542.22 280.73,1526.52 331.31,1519.71 " fill="none" id="nurse-to-UC7" style="stroke:#181818;stroke-width:1.0;"/><polygon fill="#181818" points="336.51,1519.04,327.0703,1516.2307,331.5515,1519.683,328.0992,1524.1642,336.51,1519.04" style="stroke:#181818;stroke-width:1.0;"/></g><!--MD5=[6ee096a9f7aadf14d5e1aae46ec92742]
link nurse to UC8--><g id="link_nurse_UC8"><path d="M81.24,1848.8 C98.49,1803.99 133.11,1731.95 188,1694 C221.13,1671.09 260.84,1656.42 300.52,1647.14 " fill="none" id="nurse-to-UC8" style="stroke:#181818;stroke-width:1.0;"/><polygon fill="#181818" points="305.87,1645.92,296.2047,1644.0275,300.9959,1647.0349,297.9885,1651.8261,305.87,1645.92" style="stroke:#181818;stroke-width:1.0;"/></g><!--MD5=[023c018432a12d31d9b28dcbfd022059]
link nurse to UC20--><g id="link_nurse_UC20"><path d="M85.87,1878.83 C108.96,1867.28 150.62,1847.45 188,1835 C226.4,1822.21 268.25,1810.88 308.35,1801.23 " fill="none" id="nurse-to-UC20" style="stroke:#181818;stroke-width:1.0;"/><polygon fill="#181818" points="313.23,1800.07,303.548,1798.2646,308.3661,1801.2287,305.402,1806.0468,313.23,1800.07" style="stroke:#181818;stroke-width:1.0;"/></g><!--MD5=[273862cdd49d0668aaaeac8d3a26b956]
link nurse to UC21--><g id="link_nurse_UC21"><path d="M85.53,1888 C126.12,1888 230.17,1888 323.22,1888 " fill="none" id="nurse-to-UC21" style="stroke:#181818;stroke-width:1.0;"/><polygon fill="#181818" points="328.49,1888,319.49,1884,323.49,1888,319.49,1892,328.49,1888" style="stroke:#181818;stroke-width:1.0;"/></g><!--MD5=[456f4ec90f669dcddadf85b825b0f01b]
link nurse to UC22--><g id="link_nurse_UC22"><path d="M84.26,1927.13 C103.11,1967.47 138.12,2028.98 188,2062 C219.05,2082.55 255.43,2096.62 292.08,2106.19 " fill="none" id="nurse-to-UC22" style="stroke:#181818;stroke-width:1.0;"/><polygon fill="#181818" points="297.02,2107.46,289.2968,2101.3483,292.1769,2106.2171,287.3082,2109.0972,297.02,2107.46" style="stroke:#181818;stroke-width:1.0;"/></g><!--MD5=[955352bf3b430edd010152a7e7437cf3]
link nurse to UC23--><g id="link_nurse_UC23"><path d="M85.79,1897.57 C108.78,1909.57 150.34,1930.02 188,1942 C232.32,1956.09 281.33,1967.47 326.95,1976.38 " fill="none" id="nurse-to-UC23" style="stroke:#181818;stroke-width:1.0;"/><polygon fill="#181818" points="331.92,1977.34,323.8507,1971.6932,327.0122,1976.3841,322.3213,1979.5456,331.92,1977.34" style="stroke:#181818;stroke-width:1.0;"/></g><!--MD5=[8e816a5a5733e4dae3a01dcb2aa36471]
link nurse to UC16--><g id="link_nurse_UC16"><path d="M71.8,1927.11 C80.3,1992 107,2121.35 188,2188 C220.8,2214.99 262.27,2230.9 304.02,2239.97 " fill="none" id="nurse-to-UC16" style="stroke:#181818;stroke-width:1.0;"/><polygon fill="#181818" points="309.12,2241.04,301.1498,2235.2541,304.2295,2239.9992,299.4845,2243.0789,309.12,2241.04" style="stroke:#181818;stroke-width:1.0;"/></g><!--MD5=[d9012bb0cef5070ee831f89a594a22f1]
link administrator to UC9--><g id="link_administrator_UC9"><path d="M82.54,301.65 C100.61,258.23 135.62,189.41 188,151 C208.63,135.87 231.87,123.57 256.09,113.56 " fill="none" id="administrator-to-UC9" style="stroke:#181818;stroke-width:1.0;"/><polygon fill="#181818" points="260.95,111.59,251.1068,111.2552,256.3146,113.4642,254.1056,118.6719,260.95,111.59" style="stroke:#181818;stroke-width:1.0;"/></g><!--MD5=[5fa0fab07c45da8c719f21062a94a6fc]
link administrator to UC10--><g id="link_administrator_UC10"><path d="M108.71,310.18 C131.04,294.7 159.84,276.96 188,266 C231.14,249.21 279.65,237.28 325.16,228.84 " fill="none" id="administrator-to-UC10" style="stroke:#181818;stroke-width:1.0;"/><polygon fill="#181818" points="330.12,227.93,320.5467,225.6167,325.2018,228.8307,321.9878,233.4859,330.12,227.93" style="stroke:#181818;stroke-width:1.0;"/></g><!--MD5=[6d2b8b7acfa9a8c91f7e3a119f8d30cd]
link administrator to UC11--><g id="link_administrator_UC11"><path d="M108.56,341 C135.76,341 174.26,341 216.51,341 " fill="none" id="administrator-to-UC11" style="stroke:#181818;stroke-width:1.0;"/><polygon fill="#181818" points="221.68,341,212.68,337,216.68,341,212.68,345,221.68,341" style="stroke:#181818;stroke-width:1.0;"/></g><!--MD5=[1b921a34c06a5672f1b9290a71eff6b8]
link administrator to UC12--><g id="link_administrator_UC12"><path d="M108.58,371 C130.98,386.24 159.9,403.86 188,415 C228.18,430.93 272.98,443.04 315.67,452.17 " fill="none" id="administrator-to-UC12" style="stroke:#181818;stroke-width:1.0;"/><polygon fill="#181818" points="320.6,453.21,312.6137,447.4464,315.7066,452.1828,310.9702,455.2758,320.6,453.21" style="stroke:#181818;stroke-width:1.0;"/></g><!--MD5=[858b134996c0d875d6e563c1f7308d70]
link administrator to UC13--><g id="link_administrator_UC13"><path d="M81.19,380.25 C98.49,425.66 133.25,499.37 188,540 C209.82,556.2 234.67,569.05 260.54,579.24 " fill="none" id="administrator-to-UC13" style="stroke:#181818;stroke-width:1.0;"/><polygon fill="#181818" points="265.39,581.11,258.4373,574.1344,260.7262,579.3074,255.5532,581.5964,265.39,581.11" style="stroke:#181818;stroke-width:1.0;"/></g><!--MD5=[dc829bc32b289998eb4c97fb6caef881]
link coordinator to UC17--><g id="link_coordinator_UC17"><path d="M128.13,1259.4 C146.81,1249.9 167.81,1240.45 188,1234 C243.75,1216.18 307.39,1204.84 362.22,1197.69 " fill="none" id="coordinator-to-UC17" style="stroke:#181818;stroke-width:1.0;"/><polygon fill="#181818" points="367.5,1197.02,358.0603,1194.2107,362.5415,1197.663,359.0892,1202.1442,367.5,1197.02" style="stroke:#181818;stroke-width:1.0;"/></g><!--MD5=[ceedcd86907d982e68a98fcbde707650]
link coordinator to UC18--><g id="link_coordinator_UC18"><path d="M128.27,1294 C170.67,1294 230.11,1294 288.81,1294 " fill="none" id="coordinator-to-UC18" style="stroke:#181818;stroke-width:1.0;"/><polygon fill="#181818" points="294.13,1294,285.13,1290,289.13,1294,285.13,1298,294.13,1294" style="stroke:#181818;stroke-width:1.0;"/></g><!--MD5=[60dec685cb8c65457641ae9c0dbdc30a]
link coordinator to UC19--><g id="link_coordinator_UC19"><path d="M128.26,1328.21 C146.95,1337.69 167.91,1347.23 188,1354 C233.75,1369.42 284.8,1381.13 331.93,1389.85 " fill="none" id="coordinator-to-UC19" style="stroke:#181818;stroke-width:1.0;"/><polygon fill="#181818" points="337.06,1390.79,328.9278,1385.2341,332.1418,1389.8893,327.4867,1393.1033,337.06,1390.79" style="stroke:#181818;stroke-width:1.0;"/></g><!--MD5=[5f80af705d79da9d3f3434d7189ef24b]
@startuml
left to right direction

actor :SNS User: as user
actor :Nurse: as nurse
actor :Center Coordinator: as coordinator
actor :Receptionist: as receptionist
actor :Administrator: as administrator

usecase UC3 as "UC3: As a receptionist, I want to register a SNS user" #A9DCDF
usecase UC9 as "UC9: As a administrator, I want to register a vaccination center to respond to certain pandemic"
usecase UC10 as "UC10: As a administrator, I want to register a Employee" #A9DCDF
usecase UC11 as "UC11: As a administrator, I want to get a list of Employees with a given function/role"
usecase UC12 as "UC12: As a administrator, I intent to specify a new vaccine type"
usecase UC13 as "UC13: As a administrator, I intent to specify a new vaccine and its administration process"

usecase (UC1: Schedule vaccination) as UC1
usecase (UC2: Request EU COVID Digital Certificate) as UC2
usecase (UC14: Authorize the DGS to send SMS message with information about appointment) as UC14
usecase (UC4: Register the arrival of a SNS user to take the vaccine) as UC4
usecase (UC5: Schedule a vaccine for a user) as UC5
usecase (UC6: Confirm that the SNS user has the vaccine scheduled) as UC6
usecase (UC7: Record adverse reactions of a SNS user) as UC7
usecase (UC8: Record the administration of a vaccine to a SNS user) as UC8
usecase (UC20: Check the list of SNS users that are present in the vaccination center) as UC20
usecase (UC21: Check the user info and health conditions) as UC21
usecase (UC23: Issue and deliver vaccination certificate for SNS user) as UC23
usecase (UC22: Get instructions regarding the vaccine to be administered) as UC22
usecase (UC16: Register the vaccine type, brand and lot number) as UC16
usecase (UC17: Monitor the vaccination process) as UC17
usecase (UC18: Evaluate the performance of the vaccination process) as UC18
usecase UC19 as "UC19: Analyse reports concerning vaccination process"



user - -> UC1
user - -> UC2
user - -> UC14

receptionist - -> UC4
receptionist - -> UC5
receptionist - -> UC6
receptionist - -> UC3

nurse - -> UC7
nurse - -> UC8
nurse - -> UC20
nurse - -> UC21
nurse - -> UC22
nurse - -> UC23
nurse - -> UC16

administrator - -> UC9
administrator - -> UC10
administrator - -> UC11
administrator - -> UC12
administrator - -> UC13




coordinator - -> UC17
coordinator - -> UC18
coordinator - -> UC19

@enduml

PlantUML version 1.2022.4(Sat Apr 09 14:29:17 BST 2022)
(GPL source distribution)
Java Runtime: OpenJDK Runtime Environment
JVM: OpenJDK 64-Bit Server VM
Default Encoding: Cp1252
Language: en
Country: GB
--></g></svg>