<?xml version="1.0" encoding="UTF-8" standalone="no"?><svg xmlns="http://www.w3.org/2000/svg" xmlns:xlink="http://www.w3.org/1999/xlink" contentStyleType="text/css" height="366px" preserveAspectRatio="none" style="width:502px;height:366px;background:#FFFFFF;" version="1.1" viewBox="0 0 502 366" width="502px" zoomAndPan="magnify"><defs/><g><rect fill="#FFFFFF" height="183.1094" style="stroke:#181818;stroke-width:1.0;" width="10" x="62" y="92.6094"/><rect fill="#FFFFFF" height="30.3516" style="stroke:#181818;stroke-width:1.0;" width="10" x="459" y="114.9609"/><rect fill="#FFFFFF" height="30.3516" style="stroke:#181818;stroke-width:1.0;" width="10" x="459" y="175.6641"/><rect fill="#FFFFFF" height="30.3516" style="stroke:#181818;stroke-width:1.0;" width="10" x="459" y="236.3672"/><line style="stroke:#181818;stroke-width:0.5;stroke-dasharray:5.0,5.0;" x1="67" x2="67" y1="82.6094" y2="284.7188"/><line style="stroke:#181818;stroke-width:0.5;stroke-dasharray:5.0,5.0;" x1="464" x2="464" y1="82.6094" y2="284.7188"/><text fill="#000000" font-family="sans-serif" font-size="14" lengthAdjust="spacing" textLength="118" x="5" y="79.5332">CenterCoordinator</text><ellipse cx="67" cy="13.5" fill="#E2E2F0" rx="8" ry="8" style="stroke:#181818;stroke-width:0.5;"/><path d="M67,21.5 L67,48.5 M54,29.5 L80,29.5 M67,48.5 L54,63.5 M67,48.5 L80,63.5 " fill="none" style="stroke:#181818;stroke-width:0.5;"/><text fill="#000000" font-family="sans-serif" font-size="14" lengthAdjust="spacing" textLength="118" x="5" y="298.252">CenterCoordinator</text><ellipse cx="67" cy="309.8281" fill="#E2E2F0" rx="8" ry="8" style="stroke:#181818;stroke-width:0.5;"/><path d="M67,317.8281 L67,344.8281 M54,325.8281 L80,325.8281 M67,344.8281 L54,359.8281 M67,344.8281 L80,359.8281 " fill="none" style="stroke:#181818;stroke-width:0.5;"/><rect fill="#E2E2F0" height="31.6094" rx="2.5" ry="2.5" style="stroke:#181818;stroke-width:0.5;" width="64" x="432" y="50"/><text fill="#000000" font-family="sans-serif" font-size="14" lengthAdjust="spacing" textLength="50" x="439" y="71.5332">:System</text><rect fill="#E2E2F0" height="31.6094" rx="2.5" ry="2.5" style="stroke:#181818;stroke-width:0.5;" width="64" x="432" y="283.7188"/><text fill="#000000" font-family="sans-serif" font-size="14" lengthAdjust="spacing" textLength="50" x="439" y="305.252">:System</text><rect fill="#FFFFFF" height="183.1094" style="stroke:#181818;stroke-width:1.0;" width="10" x="62" y="92.6094"/><rect fill="#FFFFFF" height="30.3516" style="stroke:#181818;stroke-width:1.0;" width="10" x="459" y="114.9609"/><rect fill="#FFFFFF" height="30.3516" style="stroke:#181818;stroke-width:1.0;" width="10" x="459" y="175.6641"/><rect fill="#FFFFFF" height="30.3516" style="stroke:#181818;stroke-width:1.0;" width="10" x="459" y="236.3672"/><polygon fill="#181818" points="447,110.9609,457,114.9609,447,118.9609,451,114.9609" style="stroke:#181818;stroke-width:1.0;"/><line style="stroke:#181818;stroke-width:1.0;" x1="72" x2="453" y1="114.9609" y2="114.9609"/><text fill="#000000" font-family="sans-serif" font-size="13" font-weight="bold" lengthAdjust="spacing" textLength="7" x="79" y="110.1045">1</text><text fill="#000000" font-family="sans-serif" font-size="13" lengthAdjust="spacing" textLength="237" x="90" y="110.1045">starts importing data from legacy system</text><polygon fill="#181818" points="83,141.3125,73,145.3125,83,149.3125,79,145.3125" style="stroke:#181818;stroke-width:1.0;"/><line style="stroke:#181818;stroke-width:1.0;stroke-dasharray:2.0,2.0;" x1="77" x2="463" y1="145.3125" y2="145.3125"/><text fill="#000000" font-family="sans-serif" font-size="13" font-weight="bold" lengthAdjust="spacing" textLength="7" x="89" y="140.4561">2</text><text fill="#000000" font-family="sans-serif" font-size="13" lengthAdjust="spacing" textLength="183" x="100" y="140.4561">request path of the file to import</text><polygon fill="#181818" points="447,171.6641,457,175.6641,447,179.6641,451,175.6641" style="stroke:#181818;stroke-width:1.0;"/><line style="stroke:#181818;stroke-width:1.0;" x1="72" x2="453" y1="175.6641" y2="175.6641"/><text fill="#000000" font-family="sans-serif" font-size="13" font-weight="bold" lengthAdjust="spacing" textLength="7" x="79" y="170.8076">3</text><text fill="#000000" font-family="sans-serif" font-size="13" lengthAdjust="spacing" textLength="197" x="90" y="170.8076">types requested file path (filePath)</text><polygon fill="#181818" points="83,202.0156,73,206.0156,83,210.0156,79,206.0156" style="stroke:#181818;stroke-width:1.0;"/><line style="stroke:#181818;stroke-width:1.0;stroke-dasharray:2.0,2.0;" x1="77" x2="463" y1="206.0156" y2="206.0156"/><text fill="#000000" font-family="sans-serif" font-size="13" font-weight="bold" lengthAdjust="spacing" textLength="7" x="89" y="201.1592">4</text><text fill="#000000" font-family="sans-serif" font-size="13" lengthAdjust="spacing" textLength="290" x="100" y="201.1592">shows data sorting options and requests selection</text><polygon fill="#181818" points="447,232.3672,457,236.3672,447,240.3672,451,236.3672" style="stroke:#181818;stroke-width:1.0;"/><line style="stroke:#181818;stroke-width:1.0;" x1="72" x2="453" y1="236.3672" y2="236.3672"/><text fill="#000000" font-family="sans-serif" font-size="13" font-weight="bold" lengthAdjust="spacing" textLength="7" x="79" y="231.5107">5</text><text fill="#000000" font-family="sans-serif" font-size="13" lengthAdjust="spacing" textLength="153" x="90" y="231.5107">selects data sorting option</text><polygon fill="#181818" points="83,262.7188,73,266.7188,83,270.7188,79,266.7188" style="stroke:#181818;stroke-width:1.0;"/><line style="stroke:#181818;stroke-width:1.0;stroke-dasharray:2.0,2.0;" x1="77" x2="463" y1="266.7188" y2="266.7188"/><text fill="#000000" font-family="sans-serif" font-size="13" font-weight="bold" lengthAdjust="spacing" textLength="7" x="89" y="261.8623">6</text><text fill="#000000" font-family="sans-serif" font-size="13" lengthAdjust="spacing" textLength="352" x="100" y="261.8623">shows imported data according to the selected sorting option</text><!--MD5=[5a78ec1096b6a762ed6db80896b23cfa]
@startuml
autonumber
autoactivate on
scale 1
actor "CenterCoordinator" as coordinator
participant ":System" as system

'1
activate coordinator
coordinator -> system : starts importing data from legacy system
return request path of the file to import

coordinator -> system : types requested file path (filePath)
return shows data sorting options and requests selection

coordinator -> system :  selects data sorting option
return shows imported data according to the selected sorting option

@enduml

@startuml
autonumber
autoactivate on
scale 1
actor "CenterCoordinator" as coordinator
participant ":System" as system

activate coordinator
coordinator -> system : starts importing data from legacy system
return request path of the file to import

coordinator -> system : types requested file path (filePath)
return shows data sorting options and requests selection

coordinator -> system :  selects data sorting option
return shows imported data according to the selected sorting option

@enduml

PlantUML version 1.2022.4(Sat Apr 09 14:29:17 BST 2022)
(GPL source distribution)
Java Runtime: OpenJDK Runtime Environment
JVM: OpenJDK 64-Bit Server VM
Default Encoding: Cp1252
Language: en
Country: GB
--></g></svg>