<?xml version="1.0" encoding="UTF-8" standalone="no"?><svg xmlns="http://www.w3.org/2000/svg" xmlns:xlink="http://www.w3.org/1999/xlink" contentStyleType="text/css" height="1130px" preserveAspectRatio="none" style="width:643px;height:1130px;background:#FFFFFF;" version="1.1" viewBox="0 0 643 1130" width="643px" zoomAndPan="magnify"><defs/><g><!--MD5=[02e4b9b7573f1156f41e60aa5b4e25a4]
class Company--><g id="elem_Company"><rect codeLine="5" fill="#F1F1F1" height="75.2188" id="Company" rx="2.5" ry="2.5" style="stroke:#181818;stroke-width:0.5;" width="92" x="280.43" y="7"/><ellipse cx="295.43" cy="23" fill="#ADD1B2" rx="11" ry="11" style="stroke:#181818;stroke-width:1.0;"/><path d="M297.43,19.5 Q297.6331,19 297.8675,18.75 Q298.1019,18.5 298.3675,18.5 Q298.8363,18.5 299.1331,18.7813 Q299.43,19.0625 299.43,19.7188 L299.43,21.2813 Q299.43,21.9375 299.1488,22.2188 Q298.8675,22.5 298.43,22.5 Q298.0394,22.5 297.7894,22.3281 Q297.5394,22.1563 297.43,21.7031 Q297.3831,21.3906 297.2113,21.2188 Q296.8988,20.8906 296.3363,20.7031 Q295.7738,20.5 295.2113,20.5 Q294.5081,20.5 293.9144,20.7813 Q293.3363,21.0625 292.8831,21.6875 Q292.43,22.3125 292.43,23.1719 L292.43,24.0938 Q292.43,25.125 293.2738,25.8125 Q294.1175,26.5 295.6175,26.5 Q296.5081,26.5 297.1331,26.2969 Q297.4925,26.1875 297.8988,25.8281 Q298.1644,25.625 298.305,25.5625 Q298.4456,25.5 298.6175,25.5 Q298.9456,25.5 299.18,25.7656 Q299.43,26.0156 299.43,26.375 Q299.43,26.7188 299.0863,27.125 Q298.5863,27.7188 297.7894,28.0469 Q296.7425,28.5 295.4613,28.5 Q293.9613,28.5 292.7581,27.9063 Q291.7894,27.4375 291.1019,26.4219 Q290.43,25.4063 290.43,24.2031 L290.43,23.1094 Q290.43,21.8594 291.0238,20.7656 Q291.6331,19.6719 292.68,19.0938 Q293.7425,18.5 294.93,18.5 Q295.6488,18.5 296.2738,18.75 Q296.8988,19 297.43,19.5 Z " fill="#000000"/><text fill="#000000" font-family="sans-serif" font-size="14" lengthAdjust="spacing" textLength="60" x="309.43" y="28.7285">Company</text><line style="stroke:#181818;stroke-width:0.5;" x1="281.43" x2="371.43" y1="39" y2="39"/><text fill="#000000" font-family="sans-serif" font-size="14" lengthAdjust="spacing" textLength="4" x="286.43" y="57.5332"> </text><text fill="#000000" font-family="sans-serif" font-size="14" lengthAdjust="spacing" textLength="4" x="286.43" y="75.1426"> </text></g><!--MD5=[2d935fd2dd068a13da1ae531f9857c4f]
class CenterCoordinator--><g id="elem_CenterCoordinator"><rect codeLine="10" fill="#F1F1F1" height="75.2188" id="CenterCoordinator" rx="2.5" ry="2.5" style="stroke:#181818;stroke-width:0.5;" width="150" x="251.43" y="348"/><ellipse cx="266.43" cy="364" fill="#ADD1B2" rx="11" ry="11" style="stroke:#181818;stroke-width:1.0;"/><path d="M268.43,360.5 Q268.6331,360 268.8675,359.75 Q269.1019,359.5 269.3675,359.5 Q269.8363,359.5 270.1331,359.7813 Q270.43,360.0625 270.43,360.7188 L270.43,362.2813 Q270.43,362.9375 270.1488,363.2188 Q269.8675,363.5 269.43,363.5 Q269.0394,363.5 268.7894,363.3281 Q268.5394,363.1563 268.43,362.7031 Q268.3831,362.3906 268.2113,362.2188 Q267.8988,361.8906 267.3363,361.7031 Q266.7738,361.5 266.2113,361.5 Q265.5081,361.5 264.9144,361.7813 Q264.3363,362.0625 263.8831,362.6875 Q263.43,363.3125 263.43,364.1719 L263.43,365.0938 Q263.43,366.125 264.2738,366.8125 Q265.1175,367.5 266.6175,367.5 Q267.5081,367.5 268.1331,367.2969 Q268.4925,367.1875 268.8988,366.8281 Q269.1644,366.625 269.305,366.5625 Q269.4456,366.5 269.6175,366.5 Q269.9456,366.5 270.18,366.7656 Q270.43,367.0156 270.43,367.375 Q270.43,367.7188 270.0863,368.125 Q269.5863,368.7188 268.7894,369.0469 Q267.7425,369.5 266.4613,369.5 Q264.9613,369.5 263.7581,368.9063 Q262.7894,368.4375 262.1019,367.4219 Q261.43,366.4063 261.43,365.2031 L261.43,364.1094 Q261.43,362.8594 262.0238,361.7656 Q262.6331,360.6719 263.68,360.0938 Q264.7425,359.5 265.93,359.5 Q266.6488,359.5 267.2738,359.75 Q267.8988,360 268.43,360.5 Z " fill="#000000"/><text fill="#000000" font-family="sans-serif" font-size="14" lengthAdjust="spacing" textLength="118" x="280.43" y="369.7285">CenterCoordinator</text><line style="stroke:#181818;stroke-width:0.5;" x1="252.43" x2="400.43" y1="380" y2="380"/><text fill="#000000" font-family="sans-serif" font-size="14" lengthAdjust="spacing" textLength="4" x="257.43" y="398.5332"> </text><text fill="#000000" font-family="sans-serif" font-size="14" lengthAdjust="spacing" textLength="4" x="257.43" y="416.1426"> </text></g><!--MD5=[7421f545a0d8420c5bec41e74b387d9c]
class Employee--><g id="elem_Employee"><rect codeLine="14" fill="#F1F1F1" height="75.2188" id="Employee" rx="2.5" ry="2.5" style="stroke:#181818;stroke-width:0.5;" width="94" x="279.43" y="177.5"/><ellipse cx="294.43" cy="193.5" fill="#ADD1B2" rx="11" ry="11" style="stroke:#181818;stroke-width:1.0;"/><path d="M296.43,190 Q296.6331,189.5 296.8675,189.25 Q297.1019,189 297.3675,189 Q297.8363,189 298.1331,189.2813 Q298.43,189.5625 298.43,190.2188 L298.43,191.7813 Q298.43,192.4375 298.1488,192.7188 Q297.8675,193 297.43,193 Q297.0394,193 296.7894,192.8281 Q296.5394,192.6563 296.43,192.2031 Q296.3831,191.8906 296.2113,191.7188 Q295.8988,191.3906 295.3363,191.2031 Q294.7738,191 294.2113,191 Q293.5081,191 292.9144,191.2813 Q292.3363,191.5625 291.8831,192.1875 Q291.43,192.8125 291.43,193.6719 L291.43,194.5938 Q291.43,195.625 292.2738,196.3125 Q293.1175,197 294.6175,197 Q295.5081,197 296.1331,196.7969 Q296.4925,196.6875 296.8988,196.3281 Q297.1644,196.125 297.305,196.0625 Q297.4456,196 297.6175,196 Q297.9456,196 298.18,196.2656 Q298.43,196.5156 298.43,196.875 Q298.43,197.2188 298.0863,197.625 Q297.5863,198.2188 296.7894,198.5469 Q295.7425,199 294.4613,199 Q292.9613,199 291.7581,198.4063 Q290.7894,197.9375 290.1019,196.9219 Q289.43,195.9063 289.43,194.7031 L289.43,193.6094 Q289.43,192.3594 290.0238,191.2656 Q290.6331,190.1719 291.68,189.5938 Q292.7425,189 293.93,189 Q294.6488,189 295.2738,189.25 Q295.8988,189.5 296.43,190 Z " fill="#000000"/><text fill="#000000" font-family="sans-serif" font-size="14" lengthAdjust="spacing" textLength="62" x="308.43" y="199.2285">Employee</text><line style="stroke:#181818;stroke-width:0.5;" x1="280.43" x2="372.43" y1="209.5" y2="209.5"/><text fill="#000000" font-family="sans-serif" font-size="14" lengthAdjust="spacing" textLength="4" x="285.43" y="228.0332"> </text><text fill="#000000" font-family="sans-serif" font-size="14" lengthAdjust="spacing" textLength="4" x="285.43" y="245.6426"> </text></g><!--MD5=[de60e6d4f424ae4d0522096f76a59010]
class VaccinationCenter--><g id="elem_VaccinationCenter"><rect codeLine="18" fill="#F1F1F1" height="198.4844" id="VaccinationCenter" rx="2.5" ry="2.5" style="stroke:#181818;stroke-width:0.5;" width="148" x="369.43" y="501"/><ellipse cx="384.43" cy="517" fill="#ADD1B2" rx="11" ry="11" style="stroke:#181818;stroke-width:1.0;"/><path d="M386.43,513.5 Q386.6331,513 386.8675,512.75 Q387.1019,512.5 387.3675,512.5 Q387.8363,512.5 388.1331,512.7813 Q388.43,513.0625 388.43,513.7188 L388.43,515.2813 Q388.43,515.9375 388.1488,516.2188 Q387.8675,516.5 387.43,516.5 Q387.0394,516.5 386.7894,516.3281 Q386.5394,516.1563 386.43,515.7031 Q386.3831,515.3906 386.2113,515.2188 Q385.8988,514.8906 385.3363,514.7031 Q384.7738,514.5 384.2113,514.5 Q383.5081,514.5 382.9144,514.7813 Q382.3363,515.0625 381.8831,515.6875 Q381.43,516.3125 381.43,517.1719 L381.43,518.0938 Q381.43,519.125 382.2738,519.8125 Q383.1175,520.5 384.6175,520.5 Q385.5081,520.5 386.1331,520.2969 Q386.4925,520.1875 386.8988,519.8281 Q387.1644,519.625 387.305,519.5625 Q387.4456,519.5 387.6175,519.5 Q387.9456,519.5 388.18,519.7656 Q388.43,520.0156 388.43,520.375 Q388.43,520.7188 388.0863,521.125 Q387.5863,521.7188 386.7894,522.0469 Q385.7425,522.5 384.4613,522.5 Q382.9613,522.5 381.7581,521.9063 Q380.7894,521.4375 380.1019,520.4219 Q379.43,519.4063 379.43,518.2031 L379.43,517.1094 Q379.43,515.8594 380.0238,514.7656 Q380.6331,513.6719 381.68,513.0938 Q382.7425,512.5 383.93,512.5 Q384.6488,512.5 385.2738,512.75 Q385.8988,513 386.43,513.5 Z " fill="#000000"/><text fill="#000000" font-family="sans-serif" font-size="14" lengthAdjust="spacing" textLength="116" x="398.43" y="522.7285">VaccinationCenter</text><line style="stroke:#181818;stroke-width:0.5;" x1="370.43" x2="516.43" y1="533" y2="533"/><rect fill="none" height="6" style="stroke:#C82930;stroke-width:1.0;" width="6" x="377.43" y="541"/><text fill="#000000" font-family="sans-serif" font-size="14" lengthAdjust="spacing" textLength="35" x="389.43" y="551.5332">name</text><rect fill="none" height="6" style="stroke:#C82930;stroke-width:1.0;" width="6" x="377.43" y="558.6094"/><text fill="#000000" font-family="sans-serif" font-size="14" lengthAdjust="spacing" textLength="89" x="389.43" y="569.1426">phoneNumber</text><rect fill="none" height="6" style="stroke:#C82930;stroke-width:1.0;" width="6" x="377.43" y="576.2188"/><text fill="#000000" font-family="sans-serif" font-size="14" lengthAdjust="spacing" textLength="85" x="389.43" y="586.752">emailAddress</text><rect fill="none" height="6" style="stroke:#C82930;stroke-width:1.0;" width="6" x="377.43" y="593.8281"/><text fill="#000000" font-family="sans-serif" font-size="14" lengthAdjust="spacing" textLength="67" x="389.43" y="604.3613">faxNumber</text><rect fill="none" height="6" style="stroke:#C82930;stroke-width:1.0;" width="6" x="377.43" y="611.4375"/><text fill="#000000" font-family="sans-serif" font-size="14" lengthAdjust="spacing" textLength="99" x="389.43" y="621.9707">websiteAddress</text><rect fill="none" height="6" style="stroke:#C82930;stroke-width:1.0;" width="6" x="377.43" y="629.0469"/><text fill="#000000" font-family="sans-serif" font-size="14" lengthAdjust="spacing" textLength="88" x="389.43" y="639.5801">openingHours</text><rect fill="none" height="6" style="stroke:#C82930;stroke-width:1.0;" width="6" x="377.43" y="646.6563"/><text fill="#000000" font-family="sans-serif" font-size="14" lengthAdjust="spacing" textLength="81" x="389.43" y="657.1895">closingHours</text><rect fill="none" height="6" style="stroke:#C82930;stroke-width:1.0;" width="6" x="377.43" y="664.2656"/><text fill="#000000" font-family="sans-serif" font-size="14" lengthAdjust="spacing" textLength="76" x="389.43" y="674.7988">slotDuration</text><rect fill="none" height="6" style="stroke:#C82930;stroke-width:1.0;" width="6" x="377.43" y="681.875"/><text fill="#000000" font-family="sans-serif" font-size="14" lengthAdjust="spacing" textLength="110" x="389.43" y="692.4082">maxNumVaccines</text></g><!--MD5=[cd4ce1c0d44638ff9f42448de30e6b92]
class VaccineSchedule--><g id="elem_VaccineSchedule"><rect codeLine="33" fill="#F1F1F1" height="75.2188" id="VaccineSchedule" rx="2.5" ry="2.5" style="stroke:#181818;stroke-width:0.5;" width="141" x="186.93" y="930"/><ellipse cx="201.93" cy="946" fill="#ADD1B2" rx="11" ry="11" style="stroke:#181818;stroke-width:1.0;"/><path d="M203.93,942.5 Q204.1331,942 204.3675,941.75 Q204.6019,941.5 204.8675,941.5 Q205.3363,941.5 205.6331,941.7813 Q205.93,942.0625 205.93,942.7188 L205.93,944.2813 Q205.93,944.9375 205.6488,945.2188 Q205.3675,945.5 204.93,945.5 Q204.5394,945.5 204.2894,945.3281 Q204.0394,945.1563 203.93,944.7031 Q203.8831,944.3906 203.7113,944.2188 Q203.3988,943.8906 202.8363,943.7031 Q202.2738,943.5 201.7113,943.5 Q201.0081,943.5 200.4144,943.7813 Q199.8363,944.0625 199.3831,944.6875 Q198.93,945.3125 198.93,946.1719 L198.93,947.0938 Q198.93,948.125 199.7738,948.8125 Q200.6175,949.5 202.1175,949.5 Q203.0081,949.5 203.6331,949.2969 Q203.9925,949.1875 204.3988,948.8281 Q204.6644,948.625 204.805,948.5625 Q204.9456,948.5 205.1175,948.5 Q205.4456,948.5 205.68,948.7656 Q205.93,949.0156 205.93,949.375 Q205.93,949.7188 205.5863,950.125 Q205.0863,950.7188 204.2894,951.0469 Q203.2425,951.5 201.9613,951.5 Q200.4613,951.5 199.2581,950.9063 Q198.2894,950.4375 197.6019,949.4219 Q196.93,948.4063 196.93,947.2031 L196.93,946.1094 Q196.93,944.8594 197.5238,943.7656 Q198.1331,942.6719 199.18,942.0938 Q200.2425,941.5 201.43,941.5 Q202.1488,941.5 202.7738,941.75 Q203.3988,942 203.93,942.5 Z " fill="#000000"/><text fill="#000000" font-family="sans-serif" font-size="14" lengthAdjust="spacing" textLength="109" x="215.93" y="951.7285">VaccineSchedule</text><line style="stroke:#181818;stroke-width:0.5;" x1="187.93" x2="326.93" y1="962" y2="962"/><rect fill="none" height="6" style="stroke:#C82930;stroke-width:1.0;" width="6" x="194.93" y="970"/><text fill="#000000" font-family="sans-serif" font-size="14" lengthAdjust="spacing" textLength="30" x="206.93" y="980.5332">Date</text><rect fill="none" height="6" style="stroke:#C82930;stroke-width:1.0;" width="6" x="194.93" y="987.6094"/><text fill="#000000" font-family="sans-serif" font-size="14" lengthAdjust="spacing" textLength="31" x="206.93" y="998.1426">Time</text></g><!--MD5=[107cfa23aa516ff83d0cf17a6f9fe7ba]
class VaccineAdministration--><g id="elem_VaccineAdministration"><rect codeLine="50" fill="#F1F1F1" height="75.2188" id="VaccineAdministration" rx="2.5" ry="2.5" style="stroke:#181818;stroke-width:0.5;" width="171" x="128.93" y="777"/><ellipse cx="143.93" cy="793" fill="#ADD1B2" rx="11" ry="11" style="stroke:#181818;stroke-width:1.0;"/><path d="M145.93,789.5 Q146.1331,789 146.3675,788.75 Q146.6019,788.5 146.8675,788.5 Q147.3363,788.5 147.6331,788.7813 Q147.93,789.0625 147.93,789.7188 L147.93,791.2813 Q147.93,791.9375 147.6488,792.2188 Q147.3675,792.5 146.93,792.5 Q146.5394,792.5 146.2894,792.3281 Q146.0394,792.1563 145.93,791.7031 Q145.8831,791.3906 145.7113,791.2188 Q145.3988,790.8906 144.8363,790.7031 Q144.2738,790.5 143.7113,790.5 Q143.0081,790.5 142.4144,790.7813 Q141.8363,791.0625 141.3831,791.6875 Q140.93,792.3125 140.93,793.1719 L140.93,794.0938 Q140.93,795.125 141.7738,795.8125 Q142.6175,796.5 144.1175,796.5 Q145.0081,796.5 145.6331,796.2969 Q145.9925,796.1875 146.3988,795.8281 Q146.6644,795.625 146.805,795.5625 Q146.9456,795.5 147.1175,795.5 Q147.4456,795.5 147.68,795.7656 Q147.93,796.0156 147.93,796.375 Q147.93,796.7188 147.5863,797.125 Q147.0863,797.7188 146.2894,798.0469 Q145.2425,798.5 143.9613,798.5 Q142.4613,798.5 141.2581,797.9063 Q140.2894,797.4375 139.6019,796.4219 Q138.93,795.4063 138.93,794.2031 L138.93,793.1094 Q138.93,791.8594 139.5238,790.7656 Q140.1331,789.6719 141.18,789.0938 Q142.2425,788.5 143.43,788.5 Q144.1488,788.5 144.7738,788.75 Q145.3988,789 145.93,789.5 Z " fill="#000000"/><text fill="#000000" font-family="sans-serif" font-size="14" lengthAdjust="spacing" textLength="139" x="157.93" y="798.7285">VaccineAdministration</text><line style="stroke:#181818;stroke-width:0.5;" x1="129.93" x2="298.93" y1="809" y2="809"/><text fill="#000000" font-family="sans-serif" font-size="14" lengthAdjust="spacing" textLength="4" x="134.93" y="827.5332"> </text><text fill="#000000" font-family="sans-serif" font-size="14" lengthAdjust="spacing" textLength="4" x="134.93" y="845.1426"> </text></g><!--MD5=[3fd616f346a44cd59a91eb10b19e157c]
class User--><g id="elem_User"><rect codeLine="43" fill="#F1F1F1" height="110.4375" id="User" rx="2.5" ry="2.5" style="stroke:#181818;stroke-width:0.5;" width="86" x="477.43" y="160"/><ellipse cx="503.68" cy="176" fill="#ADD1B2" rx="11" ry="11" style="stroke:#181818;stroke-width:1.0;"/><path d="M505.68,172.5 Q505.8831,172 506.1175,171.75 Q506.3519,171.5 506.6175,171.5 Q507.0863,171.5 507.3831,171.7813 Q507.68,172.0625 507.68,172.7188 L507.68,174.2813 Q507.68,174.9375 507.3988,175.2188 Q507.1175,175.5 506.68,175.5 Q506.2894,175.5 506.0394,175.3281 Q505.7894,175.1563 505.68,174.7031 Q505.6331,174.3906 505.4613,174.2188 Q505.1488,173.8906 504.5863,173.7031 Q504.0238,173.5 503.4613,173.5 Q502.7581,173.5 502.1644,173.7813 Q501.5863,174.0625 501.1331,174.6875 Q500.68,175.3125 500.68,176.1719 L500.68,177.0938 Q500.68,178.125 501.5238,178.8125 Q502.3675,179.5 503.8675,179.5 Q504.7581,179.5 505.3831,179.2969 Q505.7425,179.1875 506.1488,178.8281 Q506.4144,178.625 506.555,178.5625 Q506.6956,178.5 506.8675,178.5 Q507.1956,178.5 507.43,178.7656 Q507.68,179.0156 507.68,179.375 Q507.68,179.7188 507.3363,180.125 Q506.8363,180.7188 506.0394,181.0469 Q504.9925,181.5 503.7113,181.5 Q502.2113,181.5 501.0081,180.9063 Q500.0394,180.4375 499.3519,179.4219 Q498.68,178.4063 498.68,177.2031 L498.68,176.1094 Q498.68,174.8594 499.2738,173.7656 Q499.8831,172.6719 500.93,172.0938 Q501.9925,171.5 503.18,171.5 Q503.8988,171.5 504.5238,171.75 Q505.1488,172 505.68,172.5 Z " fill="#000000"/><text fill="#000000" font-family="sans-serif" font-size="14" lengthAdjust="spacing" textLength="29" x="520.18" y="181.7285">User</text><line style="stroke:#181818;stroke-width:0.5;" x1="478.43" x2="562.43" y1="192" y2="192"/><rect fill="none" height="6" style="stroke:#C82930;stroke-width:1.0;" width="6" x="485.43" y="200"/><text fill="#000000" font-family="sans-serif" font-size="14" lengthAdjust="spacing" textLength="35" x="497.43" y="210.5332">name</text><rect fill="none" height="6" style="stroke:#C82930;stroke-width:1.0;" width="6" x="485.43" y="217.6094"/><text fill="#000000" font-family="sans-serif" font-size="14" lengthAdjust="spacing" textLength="33" x="497.43" y="228.1426">email</text><rect fill="none" height="6" style="stroke:#C82930;stroke-width:1.0;" width="6" x="485.43" y="235.2188"/><text fill="#000000" font-family="sans-serif" font-size="14" lengthAdjust="spacing" textLength="60" x="497.43" y="245.752">password</text><rect fill="none" height="6" style="stroke:#C82930;stroke-width:1.0;" width="6" x="485.43" y="252.8281"/><text fill="#000000" font-family="sans-serif" font-size="14" lengthAdjust="spacing" textLength="24" x="497.43" y="263.3613">role</text></g><!--MD5=[8f188b89eff49accb0f38c057b38a9f2]
class ExternalModule--><g id="elem_ExternalModule"><rect codeLine="53" fill="#F1F1F1" height="75.2188" id="ExternalModule" rx="2.5" ry="2.5" style="stroke:#181818;stroke-width:0.5;" width="129" x="175.93" y="562.5"/><ellipse cx="190.93" cy="578.5" fill="#ADD1B2" rx="11" ry="11" style="stroke:#181818;stroke-width:1.0;"/><path d="M192.93,575 Q193.1331,574.5 193.3675,574.25 Q193.6019,574 193.8675,574 Q194.3363,574 194.6331,574.2813 Q194.93,574.5625 194.93,575.2188 L194.93,576.7813 Q194.93,577.4375 194.6488,577.7188 Q194.3675,578 193.93,578 Q193.5394,578 193.2894,577.8281 Q193.0394,577.6563 192.93,577.2031 Q192.8831,576.8906 192.7113,576.7188 Q192.3988,576.3906 191.8363,576.2031 Q191.2738,576 190.7113,576 Q190.0081,576 189.4144,576.2813 Q188.8363,576.5625 188.3831,577.1875 Q187.93,577.8125 187.93,578.6719 L187.93,579.5938 Q187.93,580.625 188.7738,581.3125 Q189.6175,582 191.1175,582 Q192.0081,582 192.6331,581.7969 Q192.9925,581.6875 193.3988,581.3281 Q193.6644,581.125 193.805,581.0625 Q193.9456,581 194.1175,581 Q194.4456,581 194.68,581.2656 Q194.93,581.5156 194.93,581.875 Q194.93,582.2188 194.5863,582.625 Q194.0863,583.2188 193.2894,583.5469 Q192.2425,584 190.9613,584 Q189.4613,584 188.2581,583.4063 Q187.2894,582.9375 186.6019,581.9219 Q185.93,580.9063 185.93,579.7031 L185.93,578.6094 Q185.93,577.3594 186.5238,576.2656 Q187.1331,575.1719 188.18,574.5938 Q189.2425,574 190.43,574 Q191.1488,574 191.7738,574.25 Q192.3988,574.5 192.93,575 Z " fill="#000000"/><text fill="#000000" font-family="sans-serif" font-size="14" lengthAdjust="spacing" textLength="97" x="204.93" y="584.2285">ExternalModule</text><line style="stroke:#181818;stroke-width:0.5;" x1="176.93" x2="303.93" y1="594.5" y2="594.5"/><text fill="#000000" font-family="sans-serif" font-size="14" lengthAdjust="spacing" textLength="4" x="181.93" y="613.0332"> </text><text fill="#000000" font-family="sans-serif" font-size="14" lengthAdjust="spacing" textLength="4" x="181.93" y="630.6426"> </text></g><!--MD5=[8ea030988e0993d4bdfdfcfff4938282]
class UserArrival--><g id="elem_UserArrival"><rect codeLine="57" fill="#F1F1F1" height="40" id="UserArrival" rx="2.5" ry="2.5" style="stroke:#181818;stroke-width:0.5;" width="101" x="334.93" y="1083"/><ellipse cx="349.93" cy="1099" fill="#ADD1B2" rx="11" ry="11" style="stroke:#181818;stroke-width:1.0;"/><path d="M351.93,1095.5 Q352.1331,1095 352.3675,1094.75 Q352.6019,1094.5 352.8675,1094.5 Q353.3363,1094.5 353.6331,1094.7813 Q353.93,1095.0625 353.93,1095.7188 L353.93,1097.2813 Q353.93,1097.9375 353.6488,1098.2188 Q353.3675,1098.5 352.93,1098.5 Q352.5394,1098.5 352.2894,1098.3281 Q352.0394,1098.1563 351.93,1097.7031 Q351.8831,1097.3906 351.7113,1097.2188 Q351.3988,1096.8906 350.8363,1096.7031 Q350.2738,1096.5 349.7113,1096.5 Q349.0081,1096.5 348.4144,1096.7813 Q347.8363,1097.0625 347.3831,1097.6875 Q346.93,1098.3125 346.93,1099.1719 L346.93,1100.0938 Q346.93,1101.125 347.7738,1101.8125 Q348.6175,1102.5 350.1175,1102.5 Q351.0081,1102.5 351.6331,1102.2969 Q351.9925,1102.1875 352.3988,1101.8281 Q352.6644,1101.625 352.805,1101.5625 Q352.9456,1101.5 353.1175,1101.5 Q353.4456,1101.5 353.68,1101.7656 Q353.93,1102.0156 353.93,1102.375 Q353.93,1102.7188 353.5863,1103.125 Q353.0863,1103.7188 352.2894,1104.0469 Q351.2425,1104.5 349.9613,1104.5 Q348.4613,1104.5 347.2581,1103.9063 Q346.2894,1103.4375 345.6019,1102.4219 Q344.93,1101.4063 344.93,1100.2031 L344.93,1099.1094 Q344.93,1097.8594 345.5238,1096.7656 Q346.1331,1095.6719 347.18,1095.0938 Q348.2425,1094.5 349.43,1094.5 Q350.1488,1094.5 350.7738,1094.75 Q351.3988,1095 351.93,1095.5 Z " fill="#000000"/><text fill="#000000" font-family="sans-serif" font-size="14" lengthAdjust="spacing" textLength="69" x="363.93" y="1104.7285">UserArrival</text><line style="stroke:#181818;stroke-width:0.5;" x1="335.93" x2="434.93" y1="1115" y2="1115"/></g><!--MD5=[0e501da62322464167c8ec4d233a6b7e]
class VaccineType--><g id="elem_VaccineType"><rect fill="#F1F1F1" height="40" id="VaccineType" rx="2.5" ry="2.5" style="stroke:#181818;stroke-width:0.5;" width="114" x="161.43" y="1083"/><ellipse cx="176.43" cy="1099" fill="#ADD1B2" rx="11" ry="11" style="stroke:#181818;stroke-width:1.0;"/><path d="M178.43,1095.5 Q178.6331,1095 178.8675,1094.75 Q179.1019,1094.5 179.3675,1094.5 Q179.8363,1094.5 180.1331,1094.7813 Q180.43,1095.0625 180.43,1095.7188 L180.43,1097.2813 Q180.43,1097.9375 180.1488,1098.2188 Q179.8675,1098.5 179.43,1098.5 Q179.0394,1098.5 178.7894,1098.3281 Q178.5394,1098.1563 178.43,1097.7031 Q178.3831,1097.3906 178.2113,1097.2188 Q177.8988,1096.8906 177.3363,1096.7031 Q176.7738,1096.5 176.2113,1096.5 Q175.5081,1096.5 174.9144,1096.7813 Q174.3363,1097.0625 173.8831,1097.6875 Q173.43,1098.3125 173.43,1099.1719 L173.43,1100.0938 Q173.43,1101.125 174.2738,1101.8125 Q175.1175,1102.5 176.6175,1102.5 Q177.5081,1102.5 178.1331,1102.2969 Q178.4925,1102.1875 178.8988,1101.8281 Q179.1644,1101.625 179.305,1101.5625 Q179.4456,1101.5 179.6175,1101.5 Q179.9456,1101.5 180.18,1101.7656 Q180.43,1102.0156 180.43,1102.375 Q180.43,1102.7188 180.0863,1103.125 Q179.5863,1103.7188 178.7894,1104.0469 Q177.7425,1104.5 176.4613,1104.5 Q174.9613,1104.5 173.7581,1103.9063 Q172.7894,1103.4375 172.1019,1102.4219 Q171.43,1101.4063 171.43,1100.2031 L171.43,1099.1094 Q171.43,1097.8594 172.0238,1096.7656 Q172.6331,1095.6719 173.68,1095.0938 Q174.7425,1094.5 175.93,1094.5 Q176.6488,1094.5 177.2738,1094.75 Q177.8988,1095 178.43,1095.5 Z " fill="#000000"/><text fill="#000000" font-family="sans-serif" font-size="14" lengthAdjust="spacing" textLength="82" x="190.43" y="1104.7285">VaccineType</text><line style="stroke:#181818;stroke-width:0.5;" x1="162.43" x2="274.43" y1="1115" y2="1115"/></g><!--MD5=[72be06cc7ae02ccc98efe28a50e62246]
class SNSUser--><g id="elem_SNSUser"><rect fill="#F1F1F1" height="40" id="SNSUser" rx="2.5" ry="2.5" style="stroke:#181818;stroke-width:0.5;" width="88" x="19.43" y="1083"/><ellipse cx="34.43" cy="1099" fill="#ADD1B2" rx="11" ry="11" style="stroke:#181818;stroke-width:1.0;"/><path d="M36.43,1095.5 Q36.6331,1095 36.8675,1094.75 Q37.1019,1094.5 37.3675,1094.5 Q37.8363,1094.5 38.1331,1094.7813 Q38.43,1095.0625 38.43,1095.7188 L38.43,1097.2813 Q38.43,1097.9375 38.1488,1098.2188 Q37.8675,1098.5 37.43,1098.5 Q37.0394,1098.5 36.7894,1098.3281 Q36.5394,1098.1563 36.43,1097.7031 Q36.3831,1097.3906 36.2113,1097.2188 Q35.8988,1096.8906 35.3363,1096.7031 Q34.7738,1096.5 34.2113,1096.5 Q33.5081,1096.5 32.9144,1096.7813 Q32.3363,1097.0625 31.8831,1097.6875 Q31.43,1098.3125 31.43,1099.1719 L31.43,1100.0938 Q31.43,1101.125 32.2738,1101.8125 Q33.1175,1102.5 34.6175,1102.5 Q35.5081,1102.5 36.1331,1102.2969 Q36.4925,1102.1875 36.8988,1101.8281 Q37.1644,1101.625 37.305,1101.5625 Q37.4456,1101.5 37.6175,1101.5 Q37.9456,1101.5 38.18,1101.7656 Q38.43,1102.0156 38.43,1102.375 Q38.43,1102.7188 38.0863,1103.125 Q37.5863,1103.7188 36.7894,1104.0469 Q35.7425,1104.5 34.4613,1104.5 Q32.9613,1104.5 31.7581,1103.9063 Q30.7894,1103.4375 30.1019,1102.4219 Q29.43,1101.4063 29.43,1100.2031 L29.43,1099.1094 Q29.43,1097.8594 30.0238,1096.7656 Q30.6331,1095.6719 31.68,1095.0938 Q32.7425,1094.5 33.93,1094.5 Q34.6488,1094.5 35.2738,1094.75 Q35.8988,1095 36.43,1095.5 Z " fill="#000000"/><text fill="#000000" font-family="sans-serif" font-size="14" lengthAdjust="spacing" textLength="56" x="48.43" y="1104.7285">SNSUser</text><line style="stroke:#181818;stroke-width:0.5;" x1="20.43" x2="106.43" y1="1115" y2="1115"/></g><!--MD5=[09366576ee87d48d594df10cacc83f45]
link Company to Employee--><g id="link_Company_Employee"><path codeLine="61" d="M326.43,82.06 C326.43,110.23 326.43,149 326.43,177.22 " fill="none" id="Company-Employee" style="stroke:#181818;stroke-width:1.0;"/><polygon fill="#000000" points="331.43,126.1758,334.3689,117.1307,328.4911,117.1307,331.43,126.1758" style="stroke:#000000;stroke-width:1.0;"/><text fill="#000000" font-family="sans-serif" font-size="13" lengthAdjust="spacing" textLength="49" x="340.43" y="126.4951">employs</text><text fill="#000000" font-family="sans-serif" font-size="13" lengthAdjust="spacing" textLength="7" x="318.8066" y="103.6823">1</text><text fill="#000000" font-family="sans-serif" font-size="13" lengthAdjust="spacing" textLength="5" x="320.9847" y="166.5724">*</text></g><!--MD5=[f97181852e6b5af60387612f468bcaff]
link Employee to CenterCoordinator--><g id="link_Employee_CenterCoordinator"><path codeLine="62" d="M326.43,252.56 C326.43,280.73 326.43,319.5 326.43,347.72 " fill="none" id="Employee-CenterCoordinator" style="stroke:#181818;stroke-width:1.0;"/><polygon fill="#000000" points="331.43,314.1758,334.3689,305.1307,328.4911,305.1307,331.43,314.1758" style="stroke:#000000;stroke-width:1.0;"/><text fill="#000000" font-family="sans-serif" font-size="13" lengthAdjust="spacing" textLength="24" x="340.43" y="314.4951">is of</text><text fill="#000000" font-family="sans-serif" font-size="13" lengthAdjust="spacing" textLength="5" x="320.9847" y="274.1823">*</text><text fill="#000000" font-family="sans-serif" font-size="13" lengthAdjust="spacing" textLength="7" x="318.8066" y="337.0724">1</text></g><!--MD5=[d5cf03d886352995267197dc535618ec]
link CenterCoordinator to VaccinationCenter--><g id="link_CenterCoordinator_VaccinationCenter"><path codeLine="63" d="M358.48,423.24 C365.86,432.6 373.33,442.89 379.43,453 C388.44,467.93 396.89,484.35 404.51,500.63 " fill="none" id="CenterCoordinator-VaccinationCenter" style="stroke:#181818;stroke-width:1.0;"/><polygon fill="#000000" points="390.874,457.8785,392.9719,467.1548,398.0237,464.15,390.874,457.8785" style="stroke:#000000;stroke-width:1.0;"/><text fill="#000000" font-family="sans-serif" font-size="13" lengthAdjust="spacing" textLength="21" x="402.43" y="467.4951">has</text><text fill="#000000" font-family="sans-serif" font-size="13" lengthAdjust="spacing" textLength="7" x="356.387" y="444.6081">1</text><text fill="#000000" font-family="sans-serif" font-size="13" lengthAdjust="spacing" textLength="7" x="394.3948" y="490.2353">1</text></g><!--MD5=[22fb9506fac029fc1d2ae00f0eb8d606]
link Employee to User--><g id="link_Employee_User"><path codeLine="64" d="M373.89,215 C405.41,215 446.47,215 477.11,215 " fill="none" id="Employee-User" style="stroke:#181818;stroke-width:1.0;"/><polygon fill="#000000" points="400.93,203.1758,391.8849,200.2369,391.8849,206.1147,400.93,203.1758" style="stroke:#000000;stroke-width:1.0;"/><text fill="#000000" font-family="sans-serif" font-size="13" lengthAdjust="spacing" textLength="54" x="404.93" y="208.4951">relates to</text><text fill="#000000" font-family="sans-serif" font-size="13" lengthAdjust="spacing" textLength="20" x="381.2521" y="229.5286">0..*</text><text fill="#000000" font-family="sans-serif" font-size="13" lengthAdjust="spacing" textLength="7" x="462.3554" y="211.163">1</text></g><!--MD5=[58a7f89859e4960c06ec5aa43a0116b6]
link VaccinationCenter to VaccineAdministration--><g id="link_VaccinationCenter_VaccineAdministration"><path codeLine="65" d="M369.4,669.7 C330.98,705.35 285.58,747.47 253.89,776.88 " fill="none" id="VaccinationCenter-VaccineAdministration" style="stroke:#808080;stroke-width:1.0;"/><polygon fill="#000000" points="303.7648,741.5767,312.3942,737.5788,308.3962,733.27,303.7648,741.5767" style="stroke:#000000;stroke-width:1.0;"/><text fill="#000000" font-family="sans-serif" font-size="13" lengthAdjust="spacing" textLength="67" x="316.43" y="743.4951">implements</text><text fill="#000000" font-family="sans-serif" font-size="13" lengthAdjust="spacing" textLength="5" x="356.5078" y="673.5511">*</text><text fill="#000000" font-family="sans-serif" font-size="13" lengthAdjust="spacing" textLength="5" x="255.4735" y="766.2609">*</text></g><!--MD5=[583bfa6fb13aeb8cd804c1c829ea9f0f]
link VaccinationCenter to UserArrival--><g id="link_VaccinationCenter_UserArrival"><path codeLine="66" d="M517.48,673.78 C557.81,722.48 595.57,788.97 574.43,852 C540.86,952.07 449.63,1044.04 407.41,1082.72 " fill="none" id="VaccinationCenter-UserArrival" style="stroke:#808080;stroke-width:1.0;"/><polygon fill="#000000" points="569.7295,886.3476,564.5407,894.318,570.2166,895.8457,569.7295,886.3476" style="stroke:#000000;stroke-width:1.0;"/><text fill="#000000" font-family="sans-serif" font-size="13" lengthAdjust="spacing" textLength="58" x="577.43" y="896.4951">for a given</text><text fill="#000000" font-family="sans-serif" font-size="13" lengthAdjust="spacing" textLength="7" x="525.4773" y="678.0518">1</text><text fill="#000000" font-family="sans-serif" font-size="13" lengthAdjust="spacing" textLength="5" x="407.8888" y="1072.3108">*</text></g><!--MD5=[f556a5f0187be69d600c2c6564df9967]
link CenterCoordinator to ExternalModule--><g id="link_CenterCoordinator_ExternalModule"><path codeLine="68" d="M299.21,423.32 C293.11,432.68 287.07,442.94 282.43,453 C266.02,488.56 254.52,532 247.75,562.2 " fill="none" id="CenterCoordinator-ExternalModule" style="stroke:#181818;stroke-width:1.0;"/><polygon fill="#000000" points="285.6927,466.8643,291.5913,459.4038,286.0796,457.3616,285.6927,466.8643" style="stroke:#000000;stroke-width:1.0;"/><text fill="#000000" font-family="sans-serif" font-size="13" lengthAdjust="spacing" textLength="78" x="296.43" y="467.4951">makes use of</text><text fill="#000000" font-family="sans-serif" font-size="13" lengthAdjust="spacing" textLength="7" x="286.93" y="444.7018">1</text><text fill="#000000" font-family="sans-serif" font-size="13" lengthAdjust="spacing" textLength="7" x="241.4304" y="551.5488">1</text></g><!--MD5=[0627282f411ece888f894017ff17802b]
link VaccineSchedule to VaccineType--><g id="link_VaccineSchedule_VaccineType"><path codeLine="70" d="M229.26,1005.05 C223.58,1014.34 218.43,1024.64 215.43,1035 C210.9,1050.66 212.22,1069.23 214.35,1082.84 " fill="none" id="VaccineSchedule-VaccineType" style="stroke:#808080;stroke-width:1.0;"/><polygon fill="#000000" points="219.4888,1049.0864,224.0778,1040.7562,218.3051,1039.6498,219.4888,1049.0864" style="stroke:#000000;stroke-width:1.0;"/><text fill="#000000" font-family="sans-serif" font-size="13" lengthAdjust="spacing" textLength="53" x="229.43" y="1049.4951">for taking</text><text fill="#000000" font-family="sans-serif" font-size="13" lengthAdjust="spacing" textLength="20" x="202.461" y="1026.6705">1..*</text><text fill="#000000" font-family="sans-serif" font-size="13" lengthAdjust="spacing" textLength="7" x="205.1234" y="1072.1148">1</text></g><!--MD5=[8e51fd2526d7ed1449c2aa4f1c32bf49]
link VaccineSchedule to SNSUser--><g id="link_VaccineSchedule_SNSUser"><path codeLine="71" d="M186.65,1000.26 C167.35,1010.23 146.96,1022.06 129.43,1035 C110.52,1048.97 92,1068.42 79.41,1082.77 " fill="none" id="VaccineSchedule-SNSUser" style="stroke:#808080;stroke-width:1.0;"/><polygon fill="#000000" points="130.4672,1047.2247,139.4281,1044.0384,135.8438,1039.3798,130.4672,1047.2247" style="stroke:#000000;stroke-width:1.0;"/><text fill="#000000" font-family="sans-serif" font-size="13" lengthAdjust="spacing" textLength="61" x="143.43" y="1049.4951">created for</text><text fill="#000000" font-family="sans-serif" font-size="13" lengthAdjust="spacing" textLength="20" x="158.9507" y="1000.1214">1..*</text><text fill="#000000" font-family="sans-serif" font-size="13" lengthAdjust="spacing" textLength="7" x="76.076" y="1072.0242">1</text></g><!--MD5=[18968283628c2f508e56f30aee4bc691]
link VaccineSchedule to VaccinationCenter--><g id="link_VaccineSchedule_VaccinationCenter"><path codeLine="72" d="M328.24,962.11 C371.46,955.34 423.59,938.97 451.43,900 C492.33,842.74 487.69,762.33 474.26,699.32 " fill="none" id="VaccineSchedule-VaccinationCenter" style="stroke:#808080;stroke-width:1.0;"/><polygon fill="#000000" points="491.8585,810.3052,484.8963,816.7842,490.0342,819.6391,491.8585,810.3052" style="stroke:#000000;stroke-width:1.0;"/><text fill="#000000" font-family="sans-serif" font-size="13" lengthAdjust="spacing" textLength="67" x="498.43" y="819.9951">allocated to</text><text fill="#000000" font-family="sans-serif" font-size="13" lengthAdjust="spacing" textLength="20" x="335.9422" y="958.3352">1..*</text><text fill="#000000" font-family="sans-serif" font-size="13" lengthAdjust="spacing" textLength="7" x="469.3525" y="721.0267">1</text></g><!--MD5=[1a3a264115dbf0816ef04d9d4fcca20a]
link VaccineSchedule to UserArrival--><g id="link_VaccineSchedule_UserArrival"><path codeLine="73" d="M282.94,1005.02 C294.52,1020.52 308.86,1038.35 323.43,1053 C334.07,1063.7 347.01,1074.25 358.32,1082.81 " fill="none" id="VaccineSchedule-UserArrival" style="stroke:#808080;stroke-width:1.0;"/><polygon fill="#000000" points="331.9095,1047.7665,327.7256,1039.2256,323.5045,1043.316,331.9095,1047.7665" style="stroke:#000000;stroke-width:1.0;"/><text fill="#000000" font-family="sans-serif" font-size="13" lengthAdjust="spacing" textLength="21" x="337.43" y="1049.4951">has</text><text fill="#000000" font-family="sans-serif" font-size="13" lengthAdjust="spacing" textLength="7" x="279.8605" y="1026.6352">1</text><text fill="#000000" font-family="sans-serif" font-size="13" lengthAdjust="spacing" textLength="7" x="342.3283" y="1072.0759">1</text></g><!--MD5=[26d93bb3364bc68050d04ccdf39ce109]
link VaccineAdministration to VaccineSchedule--><g id="link_VaccineAdministration_VaccineSchedule"><path codeLine="74" d="M224.84,852.05 C231.55,875.62 240.25,906.16 246.97,929.76 " fill="none" id="VaccineAdministration-VaccineSchedule" style="stroke:#808080;stroke-width:1.0;"/><polygon fill="#000000" points="243.7994,895.9846,244.1486,886.4804,238.4956,888.0903,243.7994,895.9846" style="stroke:#000000;stroke-width:1.0;"/><text fill="#000000" font-family="sans-serif" font-size="13" lengthAdjust="spacing" textLength="42" x="251.43" y="896.4951">fulfilling</text><text fill="#000000" font-family="sans-serif" font-size="13" lengthAdjust="spacing" textLength="7" x="219.0708" y="873.6705">1</text><text fill="#000000" font-family="sans-serif" font-size="13" lengthAdjust="spacing" textLength="7" x="237.4834" y="919.1195">1</text></g><!--MD5=[951a07871a6512bd4f8e62baa1d062ce]
link VaccineAdministration to SNSUser--><g id="link_VaccineAdministration_SNSUser"><path codeLine="75" d="M139.53,852.25 C109.82,871.06 78.87,897.03 62.43,930 C37.31,980.37 49.73,1049.82 58.02,1082.94 " fill="none" id="VaccineAdministration-SNSUser" style="stroke:#808080;stroke-width:1.0;"/><polygon fill="#000000" points="65.7643,972.3902,71.5486,964.8409,66.0066,962.8827,65.7643,972.3902" style="stroke:#000000;stroke-width:1.0;"/><text fill="#000000" font-family="sans-serif" font-size="13" lengthAdjust="spacing" textLength="92" x="76.43" y="972.9951">administered on</text><text fill="#000000" font-family="sans-serif" font-size="13" lengthAdjust="spacing" textLength="20" x="104.9378" y="873.6198">1..*</text><text fill="#000000" font-family="sans-serif" font-size="13" lengthAdjust="spacing" textLength="7" x="48.4027" y="1072.2441">1</text></g><!--MD5=[3e035137bdd6b5fb13a969034746e7c9]
link ExternalModule to VaccineSchedule--><g id="link_ExternalModule_VaccineSchedule"><path codeLine="76" d="M178.92,637.67 C107.74,685.02 6,770.99 53.43,852 C68.56,877.85 133.98,911.92 186.71,936.16 " fill="none" id="ExternalModule-VaccineSchedule" style="stroke:#808080;stroke-width:1.0;"/><polygon fill="#000000" points="58.5604,819.6741,61.2624,810.5554,55.3865,810.7087,58.5604,819.6741" style="stroke:#000000;stroke-width:1.0;"/><text fill="#000000" font-family="sans-serif" font-size="13" lengthAdjust="spacing" textLength="43" x="67.43" y="819.9951">imports</text><text fill="#000000" font-family="sans-serif" font-size="13" lengthAdjust="spacing" textLength="7" x="160.7464" y="659.0261">1</text><text fill="#000000" font-family="sans-serif" font-size="13" lengthAdjust="spacing" textLength="5" x="173.7016" y="929.3596">*</text></g><!--MD5=[2ed278e387b4ccf66f1d082e85e3863c]
link ExternalModule to VaccineAdministration--><g id="link_ExternalModule_VaccineAdministration"><path codeLine="77" d="M217.5,637.76 C203.44,662.51 186.79,696.47 179.43,729 C175.75,745.26 180.98,762.4 188.43,776.96 " fill="none" id="ExternalModule-VaccineAdministration" style="stroke:#808080;stroke-width:1.0;"/><polygon fill="#000000" points="183.4079,743.0702,188.1338,734.8169,182.3801,733.6153,183.4079,743.0702" style="stroke:#000000;stroke-width:1.0;"/><text fill="#000000" font-family="sans-serif" font-size="13" lengthAdjust="spacing" textLength="43" x="193.43" y="743.4951">imports</text><text fill="#000000" font-family="sans-serif" font-size="13" lengthAdjust="spacing" textLength="7" x="205.9573" y="659.1315">1</text><text fill="#000000" font-family="sans-serif" font-size="13" lengthAdjust="spacing" textLength="5" x="178.1753" y="766.0709">*</text></g><!--MD5=[dcd03b0519b56f00df534da01984a894]
link ExternalModule to UserArrival--><g id="link_ExternalModule_UserArrival"><path codeLine="78" d="M289.76,637.62 C316.64,660.61 347.56,692.71 363.43,729 C418.14,854.11 397.75,1025.67 388.78,1082.7 " fill="none" id="ExternalModule-UserArrival" style="stroke:#808080;stroke-width:1.0;"/><polygon fill="#000000" points="405.5158,896.0565,406.4203,886.589,400.6828,887.8655,405.5158,896.0565" style="stroke:#000000;stroke-width:1.0;"/><text fill="#000000" font-family="sans-serif" font-size="13" lengthAdjust="spacing" textLength="43" x="413.43" y="896.4951">imports</text><text fill="#000000" font-family="sans-serif" font-size="13" lengthAdjust="spacing" textLength="7" x="290.9235" y="659.253">1</text><text fill="#000000" font-family="sans-serif" font-size="13" lengthAdjust="spacing" textLength="5" x="384.0191" y="1072.2852">*</text></g><!--MD5=[51cd32572f37a2dbf9a1ff887766cf91]
@startuml
hide methods
'left to right direction
scale 1

class Company {
\n
}


class CenterCoordinator {
\n
}

class Employee {
\n
}

class VaccinationCenter {
    -name
    -phoneNumber
    -emailAddress
    -faxNumber
    -websiteAddress
    -openingHours
    -closingHours
    -slotDuration
    -maxNumVaccines
}




class VaccineSchedule {
    -Date
    -Time
}

class VaccineAdministration {
    \n
}


class User {
 -name
 -email
 -password
 -role
}

class VaccineAdministration {
}

class ExternalModule {
\n
}

class UserArrival {
}


Company "1" -d- "*" Employee : employs >
Employee "*" -d- "1" CenterCoordinator : is of >
VaccinationCenter "1"  -u- "1" CenterCoordinator : has >
Employee "0..*" - "1" User : relates to >
VaccinationCenter "*" -[#grey]- "*" VaccineAdministration : implements >
VaccinationCenter "1" -[#grey]- "*" UserArrival : for a given <

CenterCoordinator "1" - - "1" ExternalModule : makes use of >

VaccineSchedule "1..*" -[#grey]- "1" VaccineType : for taking >
VaccineSchedule "1..*" -[#grey]- "1" SNSUser : created for >
VaccineSchedule "1..*" -[#grey]- "1" VaccinationCenter : allocated to >
VaccineSchedule "1" -[#grey]- "1" UserArrival :  has >
VaccineAdministration "1" -[#grey]- "1" VaccineSchedule : fulfilling >
VaccineAdministration "1..*" -[#grey]- "1" SNSUser :  administered on >
ExternalModule "1" -[#grey]- "*" VaccineSchedule : imports >
ExternalModule "1" -[#grey]- "*" VaccineAdministration : imports >
ExternalModule "1" -[#grey]- "*" UserArrival : imports >

@enduml

@startuml
hide methods
scale 1

class Company {
\n
}


class CenterCoordinator {
\n
}

class Employee {
\n
}

class VaccinationCenter {
    -name
    -phoneNumber
    -emailAddress
    -faxNumber
    -websiteAddress
    -openingHours
    -closingHours
    -slotDuration
    -maxNumVaccines
}




class VaccineSchedule {
    -Date
    -Time
}

class VaccineAdministration {
    \n
}


class User {
 -name
 -email
 -password
 -role
}

class VaccineAdministration {
}

class ExternalModule {
\n
}

class UserArrival {
}


Company "1" -d- "*" Employee : employs >
Employee "*" -d- "1" CenterCoordinator : is of >
VaccinationCenter "1"  -u- "1" CenterCoordinator : has >
Employee "0..*" - "1" User : relates to >
VaccinationCenter "*" -[#grey]- "*" VaccineAdministration : implements >
VaccinationCenter "1" -[#grey]- "*" UserArrival : for a given <

CenterCoordinator "1" - - "1" ExternalModule : makes use of >

VaccineSchedule "1..*" -[#grey]- "1" VaccineType : for taking >
VaccineSchedule "1..*" -[#grey]- "1" SNSUser : created for >
VaccineSchedule "1..*" -[#grey]- "1" VaccinationCenter : allocated to >
VaccineSchedule "1" -[#grey]- "1" UserArrival :  has >
VaccineAdministration "1" -[#grey]- "1" VaccineSchedule : fulfilling >
VaccineAdministration "1..*" -[#grey]- "1" SNSUser :  administered on >
ExternalModule "1" -[#grey]- "*" VaccineSchedule : imports >
ExternalModule "1" -[#grey]- "*" VaccineAdministration : imports >
ExternalModule "1" -[#grey]- "*" UserArrival : imports >

@enduml

PlantUML version 1.2022.4(Sat Apr 09 14:29:17 BST 2022)
(GPL source distribution)
Java Runtime: OpenJDK Runtime Environment
JVM: OpenJDK 64-Bit Server VM
Default Encoding: Cp1252
Language: en
Country: GB
--></g></svg>