<?xml version="1.0" encoding="UTF-8" standalone="no"?><svg xmlns="http://www.w3.org/2000/svg" xmlns:xlink="http://www.w3.org/1999/xlink" contentStyleType="text/css" height="1077px" preserveAspectRatio="none" style="width:1565px;height:1077px;background:#FFFFFF;" version="1.1" viewBox="0 0 1565 1077" width="1565px" zoomAndPan="magnify"><defs/><g><rect height="41.4453" style="stroke:#00000000;stroke-width:1.0;fill:none;" width="461" x="553.5" y="10"/><text fill="#000000" font-family="sans-serif" font-size="25" font-weight="bold" lengthAdjust="spacing" textLength="451" x="558.5" y="40.9521">US17_SD_ImportLegacyDataDTO_List</text><rect fill="#FFFFFF" height="865.4141" style="stroke:#181818;stroke-width:1.0;" width="10" x="313" y="140.0156"/><rect fill="#FFFFFF" height="804.7109" style="stroke:#181818;stroke-width:1.0;" width="10" x="569" y="170.3672"/><rect fill="#FFFFFF" height="744.0078" style="stroke:#181818;stroke-width:1.0;" width="10" x="804" y="200.7188"/><rect fill="#FFFFFF" height="28" style="stroke:#181818;stroke-width:1.0;" width="10" x="809" y="239.0703"/><rect fill="#FFFFFF" height="28" style="stroke:#181818;stroke-width:1.0;" width="10" x="809" y="493.2109"/><rect fill="#FFFFFF" height="134.4063" style="stroke:#181818;stroke-width:1.0;" width="10" x="809" y="652.2656"/><rect fill="#FFFFFF" height="30" style="stroke:#181818;stroke-width:1.0;" width="10" x="1219" y="817.0234"/><rect fill="#FFFFFF" height="30" style="stroke:#181818;stroke-width:1.0;" width="10" x="1351" y="424.8594"/><rect fill="#FFFFFF" height="30" style="stroke:#181818;stroke-width:1.0;" width="10" x="1351" y="583.9141"/><rect fill="#FFFFFF" height="30" style="stroke:#181818;stroke-width:1.0;" width="10" x="1351" y="884.375"/><rect fill="#FFFFFF" height="30" style="stroke:#181818;stroke-width:1.0;" width="10" x="1473" y="756.6719"/><rect height="311.8125" style="stroke:#000000;stroke-width:1.5;fill:none;" width="880.5" x="678.5" y="543.2109"/><line style="stroke:#181818;stroke-width:0.5;fill:none;stroke-dasharray:5.0,5.0;" x1="318" x2="318" y1="107.6641" y2="1023.4297"/><line style="stroke:#181818;stroke-width:0.5;fill:none;stroke-dasharray:5.0,5.0;" x1="573.5" x2="573.5" y1="107.6641" y2="1023.4297"/><line style="stroke:#181818;stroke-width:0.5;fill:none;stroke-dasharray:5.0,5.0;" x1="808.5" x2="808.5" y1="107.6641" y2="1023.4297"/><line style="stroke:#181818;stroke-width:0.5;fill:none;stroke-dasharray:5.0,5.0;" x1="1224" x2="1224" y1="382.3984" y2="1023.4297"/><line style="stroke:#181818;stroke-width:0.5;fill:none;stroke-dasharray:5.0,5.0;" x1="1356" x2="1356" y1="322.1797" y2="1023.4297"/><line style="stroke:#181818;stroke-width:0.5;fill:none;stroke-dasharray:5.0,5.0;" x1="1478" x2="1478" y1="107.6641" y2="1023.4297"/><rect fill="#E2E2F0" height="49.2188" rx="2.5" ry="2.5" style="stroke:#181818;stroke-width:0.5;" width="128" x="254" y="57.4453"/><text fill="#000000" font-family="sans-serif" font-size="14" lengthAdjust="spacing" textLength="105" x="265.5" y="78.9785">legacyDataStore</text><text fill="#000000" font-family="sans-serif" font-size="14" lengthAdjust="spacing" textLength="114" x="261" y="96.5879">:LegacyDataStore</text><rect fill="#E2E2F0" height="49.2188" rx="2.5" ry="2.5" style="stroke:#181818;stroke-width:0.5;" width="128" x="254" y="1022.4297"/><text fill="#000000" font-family="sans-serif" font-size="14" lengthAdjust="spacing" textLength="105" x="265.5" y="1043.9629">legacyDataStore</text><text fill="#000000" font-family="sans-serif" font-size="14" lengthAdjust="spacing" textLength="114" x="261" y="1061.5723">:LegacyDataStore</text><rect fill="#E2E2F0" height="49.2188" rx="2.5" ry="2.5" style="stroke:#181818;stroke-width:0.5;" width="209" x="469.5" y="57.4453"/><text fill="#000000" font-family="sans-serif" font-size="14" lengthAdjust="spacing" textLength="87" x="530.5" y="78.9785">&lt;&lt;interface&gt;&gt;</text><text fill="#000000" font-family="sans-serif" font-size="14" lengthAdjust="spacing" textLength="195" x="476.5" y="96.5879">:LoadDataFromExternalSource</text><rect fill="#E2E2F0" height="49.2188" rx="2.5" ry="2.5" style="stroke:#181818;stroke-width:0.5;" width="209" x="469.5" y="1022.4297"/><text fill="#000000" font-family="sans-serif" font-size="14" lengthAdjust="spacing" textLength="87" x="530.5" y="1043.9629">&lt;&lt;interface&gt;&gt;</text><text fill="#000000" font-family="sans-serif" font-size="14" lengthAdjust="spacing" textLength="195" x="476.5" y="1061.5723">:LoadDataFromExternalSource</text><rect fill="#E2E2F0" height="49.2188" rx="2.5" ry="2.5" style="stroke:#181818;stroke-width:0.5;" width="241" x="688.5" y="57.4453"/><text fill="#000000" font-family="sans-serif" font-size="14" lengthAdjust="spacing" textLength="220" x="699" y="78.9785">csvFileReaderLegacyDataAdaptee</text><text fill="#000000" font-family="sans-serif" font-size="14" lengthAdjust="spacing" textLength="227" x="695.5" y="96.5879">:CsvFileReaderLegacyDataAdaptee</text><rect fill="#E2E2F0" height="49.2188" rx="2.5" ry="2.5" style="stroke:#181818;stroke-width:0.5;" width="241" x="688.5" y="1022.4297"/><text fill="#000000" font-family="sans-serif" font-size="14" lengthAdjust="spacing" textLength="220" x="699" y="1043.9629">csvFileReaderLegacyDataAdaptee</text><text fill="#000000" font-family="sans-serif" font-size="14" lengthAdjust="spacing" textLength="227" x="695.5" y="1061.5723">:CsvFileReaderLegacyDataAdaptee</text><rect fill="#E2E2F0" height="49.2188" rx="2.5" ry="2.5" style="stroke:#181818;stroke-width:0.5;" width="162" x="1143" y="1022.4297"/><text fill="#000000" font-family="sans-serif" font-size="14" lengthAdjust="spacing" textLength="123" x="1162.5" y="1043.9629">legacyDataDTOList</text><text fill="#000000" font-family="sans-serif" font-size="14" lengthAdjust="spacing" textLength="148" x="1150" y="1061.5723">:List&lt;LegacyDataDTO&gt;</text><rect fill="#E2E2F0" height="49.2188" rx="2.5" ry="2.5" style="stroke:#181818;stroke-width:0.5;" width="82" x="1315" y="1022.4297"/><text fill="#000000" font-family="sans-serif" font-size="14" lengthAdjust="spacing" textLength="68" x="1322" y="1043.9629">csvReader</text><text fill="#000000" font-family="sans-serif" font-size="14" lengthAdjust="spacing" textLength="57" x="1327.5" y="1061.5723">:Scanner</text><rect fill="#E2E2F0" height="49.2188" rx="2.5" ry="2.5" style="stroke:#181818;stroke-width:0.5;" width="142" x="1407" y="57.4453"/><text fill="#000000" font-family="sans-serif" font-size="14" lengthAdjust="spacing" textLength="119" x="1418.5" y="78.9785">legacyDataMapper</text><text fill="#000000" font-family="sans-serif" font-size="14" lengthAdjust="spacing" textLength="128" x="1414" y="96.5879">:LegacyDataMapper</text><rect fill="#E2E2F0" height="49.2188" rx="2.5" ry="2.5" style="stroke:#181818;stroke-width:0.5;" width="142" x="1407" y="1022.4297"/><text fill="#000000" font-family="sans-serif" font-size="14" lengthAdjust="spacing" textLength="119" x="1418.5" y="1043.9629">legacyDataMapper</text><text fill="#000000" font-family="sans-serif" font-size="14" lengthAdjust="spacing" textLength="128" x="1414" y="1061.5723">:LegacyDataMapper</text><rect fill="#FFFFFF" height="865.4141" style="stroke:#181818;stroke-width:1.0;" width="10" x="313" y="140.0156"/><rect fill="#FFFFFF" height="804.7109" style="stroke:#181818;stroke-width:1.0;" width="10" x="569" y="170.3672"/><rect fill="#FFFFFF" height="744.0078" style="stroke:#181818;stroke-width:1.0;" width="10" x="804" y="200.7188"/><rect fill="#FFFFFF" height="28" style="stroke:#181818;stroke-width:1.0;" width="10" x="809" y="239.0703"/><rect fill="#FFFFFF" height="28" style="stroke:#181818;stroke-width:1.0;" width="10" x="809" y="493.2109"/><rect fill="#FFFFFF" height="134.4063" style="stroke:#181818;stroke-width:1.0;" width="10" x="809" y="652.2656"/><rect fill="#FFFFFF" height="30" style="stroke:#181818;stroke-width:1.0;" width="10" x="1219" y="817.0234"/><rect fill="#FFFFFF" height="30" style="stroke:#181818;stroke-width:1.0;" width="10" x="1351" y="424.8594"/><rect fill="#FFFFFF" height="30" style="stroke:#181818;stroke-width:1.0;" width="10" x="1351" y="583.9141"/><rect fill="#FFFFFF" height="30" style="stroke:#181818;stroke-width:1.0;" width="10" x="1351" y="884.375"/><rect fill="#FFFFFF" height="30" style="stroke:#181818;stroke-width:1.0;" width="10" x="1473" y="756.6719"/><ellipse cx="7.5" cy="139.2656" fill="none" rx="4" ry="4" style="stroke:#181818;stroke-width:1.5;"/><polygon fill="#181818" points="301,136.0156,311,140.0156,301,144.0156,305,140.0156" style="stroke:#181818;stroke-width:1.0;"/><line style="stroke:#181818;stroke-width:1.0;" x1="12" x2="307" y1="140.0156" y2="140.0156"/><text fill="#000000" font-family="sans-serif" font-size="13" font-weight="bold" lengthAdjust="spacing" textLength="7" x="15" y="135.1592">1</text><text fill="#000000" font-family="sans-serif" font-size="13" lengthAdjust="spacing" textLength="275" x="26" y="135.1592">importLegacyDataFromExternalSource(filePath)</text><polygon fill="#181818" points="557,166.3672,567,170.3672,557,174.3672,561,170.3672" style="stroke:#181818;stroke-width:1.0;"/><line style="stroke:#181818;stroke-width:1.0;" x1="323" x2="563" y1="170.3672" y2="170.3672"/><text fill="#000000" font-family="sans-serif" font-size="13" font-weight="bold" lengthAdjust="spacing" textLength="7" x="330" y="165.5107">2</text><text fill="#000000" font-family="sans-serif" font-size="13" lengthAdjust="spacing" textLength="216" x="341" y="165.5107">readFileFromExternalSource(filePath)</text><polygon fill="#181818" points="792,196.7188,802,200.7188,792,204.7188,796,200.7188" style="stroke:#181818;stroke-width:1.0;"/><line style="stroke:#181818;stroke-width:1.0;" x1="579" x2="798" y1="200.7188" y2="200.7188"/><text fill="#000000" font-family="sans-serif" font-size="13" font-weight="bold" lengthAdjust="spacing" textLength="7" x="586" y="195.8623">3</text><text fill="#000000" font-family="sans-serif" font-size="13" lengthAdjust="spacing" textLength="186" x="597" y="195.8623">importDataFromCsvFile(filePath)</text><line style="stroke:#181818;stroke-width:1.0;" x1="819" x2="861" y1="231.0703" y2="231.0703"/><line style="stroke:#181818;stroke-width:1.0;" x1="861" x2="861" y1="231.0703" y2="244.0703"/><line style="stroke:#181818;stroke-width:1.0;" x1="820" x2="861" y1="244.0703" y2="244.0703"/><polygon fill="#181818" points="830,240.0703,820,244.0703,830,248.0703,826,244.0703" style="stroke:#181818;stroke-width:1.0;"/><text fill="#000000" font-family="sans-serif" font-size="13" font-weight="bold" lengthAdjust="spacing" textLength="7" x="826" y="226.2139">4</text><text fill="#000000" font-family="sans-serif" font-size="13" lengthAdjust="spacing" textLength="173" x="837" y="226.2139">validateFileExtension(filePath)</text><polygon fill="#181818" points="1303,300.4219,1313,304.4219,1303,308.4219,1307,304.4219" style="stroke:#181818;stroke-width:1.0;"/><line style="stroke:#181818;stroke-width:1.0;stroke-dasharray:2.0,2.0;" x1="814" x2="1309" y1="304.4219" y2="304.4219"/><text fill="#000000" font-family="sans-serif" font-size="13" font-weight="bold" lengthAdjust="spacing" textLength="7" x="821" y="299.5654">5</text><text fill="#000000" font-family="sans-serif" font-size="13" lengthAdjust="spacing" textLength="44" x="832" y="299.5654">create()</text><rect fill="#E2E2F0" height="49.2188" rx="2.5" ry="2.5" style="stroke:#181818;stroke-width:0.5;" width="82" x="1315" y="282.0703"/><text fill="#000000" font-family="sans-serif" font-size="14" lengthAdjust="spacing" textLength="68" x="1322" y="303.6035">csvReader</text><text fill="#000000" font-family="sans-serif" font-size="14" lengthAdjust="spacing" textLength="57" x="1327.5" y="321.2129">:Scanner</text><polygon fill="#181818" points="1131,360.6406,1141,364.6406,1131,368.6406,1135,364.6406" style="stroke:#181818;stroke-width:1.0;"/><line style="stroke:#181818;stroke-width:1.0;stroke-dasharray:2.0,2.0;" x1="814" x2="1137" y1="364.6406" y2="364.6406"/><text fill="#000000" font-family="sans-serif" font-size="13" font-weight="bold" lengthAdjust="spacing" textLength="7" x="821" y="359.7842">6</text><text fill="#000000" font-family="sans-serif" font-size="13" lengthAdjust="spacing" textLength="44" x="832" y="359.7842">create()</text><rect fill="#E2E2F0" height="49.2188" rx="2.5" ry="2.5" style="stroke:#181818;stroke-width:0.5;" width="162" x="1143" y="342.2891"/><text fill="#000000" font-family="sans-serif" font-size="14" lengthAdjust="spacing" textLength="123" x="1162.5" y="363.8223">legacyDataDTOList</text><text fill="#000000" font-family="sans-serif" font-size="14" lengthAdjust="spacing" textLength="148" x="1150" y="381.4316">:List&lt;LegacyDataDTO&gt;</text><polygon fill="#181818" points="1339,420.8594,1349,424.8594,1339,428.8594,1343,424.8594" style="stroke:#181818;stroke-width:1.0;"/><line style="stroke:#181818;stroke-width:1.0;" x1="814" x2="1345" y1="424.8594" y2="424.8594"/><text fill="#000000" font-family="sans-serif" font-size="13" font-weight="bold" lengthAdjust="spacing" textLength="7" x="821" y="420.0029">7</text><text fill="#000000" font-family="sans-serif" font-size="13" lengthAdjust="spacing" textLength="175" x="832" y="420.0029">lineItems = nextLine().split(";")</text><line style="stroke:#181818;stroke-width:1.0;" x1="819" x2="861" y1="485.2109" y2="485.2109"/><line style="stroke:#181818;stroke-width:1.0;" x1="861" x2="861" y1="485.2109" y2="498.2109"/><line style="stroke:#181818;stroke-width:1.0;" x1="820" x2="861" y1="498.2109" y2="498.2109"/><polygon fill="#181818" points="830,494.2109,820,498.2109,830,502.2109,826,498.2109" style="stroke:#181818;stroke-width:1.0;"/><text fill="#000000" font-family="sans-serif" font-size="13" font-weight="bold" lengthAdjust="spacing" textLength="7" x="826" y="480.3545">8</text><text fill="#000000" font-family="sans-serif" font-size="13" lengthAdjust="spacing" textLength="144" x="837" y="480.3545">validateHeader(lineItems)</text><path d="M678.5,543.2109 L751.5,543.2109 L751.5,551.5625 L741.5,561.5625 L678.5,561.5625 L678.5,543.2109 " fill="#EEEEEE" style="stroke:#000000;stroke-width:1.5;"/><rect fill="none" height="311.8125" style="stroke:#000000;stroke-width:1.5;" width="880.5" x="678.5" y="543.2109"/><text fill="#000000" font-family="sans-serif" font-size="13" font-weight="bold" lengthAdjust="spacing" textLength="28" x="693.5" y="557.7061">loop</text><text fill="#000000" font-family="sans-serif" font-size="11" font-weight="bold" lengthAdjust="spacing" textLength="153" x="766.5" y="556.6299">[while file has lines to read]</text><polygon fill="#181818" points="1339,579.9141,1349,583.9141,1339,587.9141,1343,583.9141" style="stroke:#181818;stroke-width:1.0;"/><line style="stroke:#181818;stroke-width:1.0;" x1="814" x2="1345" y1="583.9141" y2="583.9141"/><text fill="#000000" font-family="sans-serif" font-size="13" font-weight="bold" lengthAdjust="spacing" textLength="7" x="821" y="579.0576">9</text><text fill="#000000" font-family="sans-serif" font-size="13" lengthAdjust="spacing" textLength="175" x="832" y="579.0576">lineItems = nextLine().split(";")</text><line style="stroke:#181818;stroke-width:1.0;" x1="814" x2="861" y1="639.2656" y2="639.2656"/><line style="stroke:#181818;stroke-width:1.0;" x1="861" x2="861" y1="639.2656" y2="652.2656"/><line style="stroke:#181818;stroke-width:1.0;" x1="820" x2="861" y1="652.2656" y2="652.2656"/><polygon fill="#181818" points="830,648.2656,820,652.2656,830,656.2656,826,652.2656" style="stroke:#181818;stroke-width:1.0;"/><text fill="#000000" font-family="sans-serif" font-size="13" font-weight="bold" lengthAdjust="spacing" textLength="14" x="826" y="634.4092">10</text><text fill="#000000" font-family="sans-serif" font-size="13" lengthAdjust="spacing" textLength="373" x="844" y="634.4092">legacyDataDTO = createLegacyDataDTOFromCsvLine(lineItems)</text><path d="M711,670.2656 L711,712.2656 L907,712.2656 L907,680.2656 L897,670.2656 L711,670.2656 " fill="#FEFFDD" style="stroke:#181818;stroke-width:0.5;"/><path d="M897,670.2656 L897,680.2656 L907,680.2656 L897,670.2656 " fill="#FEFFDD" style="stroke:#181818;stroke-width:0.5;"/><text fill="#000000" font-family="sans-serif" font-size="13" lengthAdjust="spacing" textLength="175" x="717" y="688.7607">multiple interactions to extract</text><text fill="#000000" font-family="sans-serif" font-size="13" lengthAdjust="spacing" textLength="54" x="717" y="705.1123">data from</text><text fill="#000000" font-family="sans-serif" font-size="13" font-weight="bold" lengthAdjust="spacing" textLength="58" x="775" y="705.1123">lineItems</text><text fill="#000000" font-family="sans-serif" font-size="13" lengthAdjust="spacing" textLength="29" x="837" y="705.1123">array</text><polygon fill="#181818" points="1461,752.6719,1471,756.6719,1461,760.6719,1465,756.6719" style="stroke:#181818;stroke-width:1.0;"/><line style="stroke:#181818;stroke-width:1.0;" x1="819" x2="1467" y1="756.6719" y2="756.6719"/><text fill="#000000" font-family="sans-serif" font-size="13" font-weight="bold" lengthAdjust="spacing" textLength="14" x="826" y="743.6396">11</text><text fill="#000000" font-family="sans-serif" font-size="13" lengthAdjust="spacing" textLength="531" x="844" y="735.4639">toDTO(snsUserNumber, vaccineName, vaccineDose, lotNumber, vaccineScheduleDateTime,</text><text fill="#000000" font-family="sans-serif" font-size="13" lengthAdjust="spacing" textLength="375" x="888" y="751.8154">arrivalDateTime,vaccineAdministrationDateTime,leavingDateTime)</text><polygon fill="#181818" points="1207,813.0234,1217,817.0234,1207,821.0234,1211,817.0234" style="stroke:#181818;stroke-width:1.0;"/><line style="stroke:#181818;stroke-width:1.0;" x1="814" x2="1213" y1="817.0234" y2="817.0234"/><text fill="#000000" font-family="sans-serif" font-size="13" font-weight="bold" lengthAdjust="spacing" textLength="14" x="821" y="812.167">12</text><text fill="#000000" font-family="sans-serif" font-size="13" lengthAdjust="spacing" textLength="120" x="839" y="812.167">add(legacyDataDTO)</text><polygon fill="#181818" points="1339,880.375,1349,884.375,1339,888.375,1343,884.375" style="stroke:#181818;stroke-width:1.0;"/><line style="stroke:#181818;stroke-width:1.0;" x1="814" x2="1345" y1="884.375" y2="884.375"/><text fill="#000000" font-family="sans-serif" font-size="13" font-weight="bold" lengthAdjust="spacing" textLength="14" x="821" y="879.5186">13</text><text fill="#000000" font-family="sans-serif" font-size="13" lengthAdjust="spacing" textLength="39" x="839" y="879.5186">close()</text><polygon fill="#181818" points="590,940.7266,580,944.7266,590,948.7266,586,944.7266" style="stroke:#181818;stroke-width:1.0;"/><line style="stroke:#181818;stroke-width:1.0;stroke-dasharray:2.0,2.0;" x1="584" x2="808" y1="944.7266" y2="944.7266"/><text fill="#000000" font-family="sans-serif" font-size="13" font-weight="bold" lengthAdjust="spacing" textLength="14" x="596" y="939.8701">14</text><text fill="#000000" font-family="sans-serif" font-size="13" lengthAdjust="spacing" textLength="112" x="614" y="939.8701">legacyDataDTOList</text><polygon fill="#181818" points="334,971.0781,324,975.0781,334,979.0781,330,975.0781" style="stroke:#181818;stroke-width:1.0;"/><line style="stroke:#181818;stroke-width:1.0;stroke-dasharray:2.0,2.0;" x1="328" x2="573" y1="975.0781" y2="975.0781"/><text fill="#000000" font-family="sans-serif" font-size="13" font-weight="bold" lengthAdjust="spacing" textLength="14" x="340" y="970.2217">15</text><text fill="#000000" font-family="sans-serif" font-size="13" lengthAdjust="spacing" textLength="112" x="358" y="970.2217">legacyDataDTOList</text><polygon fill="#181818" points="11,1001.4297,1,1005.4297,11,1009.4297,7,1005.4297" style="stroke:#181818;stroke-width:1.0;"/><line style="stroke:#181818;stroke-width:1.0;stroke-dasharray:2.0,2.0;" x1="5" x2="317" y1="1005.4297" y2="1005.4297"/><text fill="#000000" font-family="sans-serif" font-size="13" font-weight="bold" lengthAdjust="spacing" textLength="14" x="17" y="1000.5732">16</text><text fill="#000000" font-family="sans-serif" font-size="13" lengthAdjust="spacing" textLength="112" x="35" y="1000.5732">legacyDataDTOList</text><!--MD5=[692059b6900dbab3aad7a562f792ddd6]
@startuml
autonumber
autoactivate on
scale 1
skinparam titleFontSize 25

title US17_SD_ImportLegacyDataDTO_List

participant "legacyDataStore\n:LegacyDataStore" as store
participant "<<interface>>\n:LoadDataFromExternalSource" as interface
participant "csvFileReaderLegacyDataAdaptee\n:CsvFileReaderLegacyDataAdaptee" as adaptee
participant "legacyDataDTOList\n:List<LegacyDataDTO>" as dtoList
participant "csvReader\n:Scanner" as scanner
participant "legacyDataMapper\n:LegacyDataMapper" as mapper


[o-> store : importLegacyDataFromExternalSource(filePath)

store -> interface : readFileFromExternalSource(filePath)

interface -> adaptee : importDataFromCsvFile(filePath)
adaptee -> adaptee : validateFileExtension(filePath)
deactivate adaptee
adaptee - -> scanner** : create()
adaptee - -> dtoList** : create()

adaptee -> scanner : lineItems = nextLine().split(";")
deactivate scanner

adaptee -> adaptee : validateHeader(lineItems)
deactivate adaptee

loop while file has lines to read
adaptee -> scanner : lineItems = nextLine().split(";")
deactivate scanner
adaptee -> adaptee : legacyDataDTO = createLegacyDataDTOFromCsvLine(lineItems)
note over adaptee
 multiple interactions to extract
 data from **lineItems** array
end note
adaptee -> mapper : toDTO(snsUserNumber, vaccineName, vaccineDose, lotNumber, vaccineScheduleDateTime, \n           arrivalDateTime,vaccineAdministrationDateTime,leavingDateTime)
deactivate mapper
deactivate adaptee
adaptee -> dtoList : add(legacyDataDTO)
deactivate dtoList

end

adaptee -> scanner : close()
deactivate scanner

return legacyDataDTOList
return legacyDataDTOList
[<- - store : legacyDataDTOList
@enduml

PlantUML version 1.2022.4(Sat Apr 09 14:29:17 BST 2022)
(GPL source distribution)
Java Runtime: OpenJDK Runtime Environment
JVM: OpenJDK 64-Bit Server VM
Default Encoding: Cp1252
Language: en
Country: GB
--></g></svg>