<?xml version="1.0" encoding="UTF-8" standalone="no"?><svg xmlns="http://www.w3.org/2000/svg" xmlns:xlink="http://www.w3.org/1999/xlink" contentStyleType="text/css" height="699px" preserveAspectRatio="none" style="width:1234px;height:699px;background:#FFFFFF;" version="1.1" viewBox="0 0 1234 699" width="1234px" zoomAndPan="magnify"><defs/><g><rect height="41.4453" style="stroke:#00000000;stroke-width:1.0;fill:none;" width="500" x="364.75" y="10"/><text fill="#000000" font-family="sans-serif" font-size="25" font-weight="bold" lengthAdjust="spacing" textLength="490" x="369.75" y="40.9521">SD: Record daily vaccination center stats</text><rect fill="#FFFFFF" height="565.6094" style="stroke:#181818;stroke-width:1.0;" width="10" x="98" y="117.6641"/><rect fill="#FFFFFF" height="30" style="stroke:#181818;stroke-width:1.0;" width="10" x="605" y="170.3672"/><rect fill="#FFFFFF" height="30" style="stroke:#181818;stroke-width:1.0;" width="10" x="672" y="230.7188"/><rect fill="#FFFFFF" height="30" style="stroke:#181818;stroke-width:1.0;" width="10" x="754" y="291.0703"/><rect fill="#FFFFFF" height="30" style="stroke:#181818;stroke-width:1.0;" width="10" x="754" y="351.4219"/><rect fill="#FFFFFF" height="30" style="stroke:#181818;stroke-width:1.0;" width="10" x="884.5" y="411.7734"/><rect fill="#FFFFFF" height="30" style="stroke:#181818;stroke-width:1.0;" width="10" x="1068.5" y="522.4766"/><rect height="218.5" style="stroke:#000000;stroke-width:1.5;fill:none;" width="1164.5" x="10" y="456.7734"/><line style="stroke:#181818;stroke-width:0.5;fill:none;stroke-dasharray:5.0,5.0;" x1="103" x2="103" y1="107.6641" y2="692.2734"/><line style="stroke:#181818;stroke-width:0.5;fill:none;stroke-dasharray:5.0,5.0;" x1="609.5" x2="609.5" y1="107.6641" y2="692.2734"/><line style="stroke:#181818;stroke-width:0.5;fill:none;stroke-dasharray:5.0,5.0;" x1="676.5" x2="676.5" y1="107.6641" y2="692.2734"/><line style="stroke:#181818;stroke-width:0.5;fill:none;stroke-dasharray:5.0,5.0;" x1="758.5" x2="758.5" y1="107.6641" y2="692.2734"/><line style="stroke:#181818;stroke-width:0.5;fill:none;stroke-dasharray:5.0,5.0;" x1="889.5" x2="889.5" y1="107.6641" y2="692.2734"/><line style="stroke:#181818;stroke-width:0.5;fill:none;stroke-dasharray:5.0,5.0;" x1="1073.5" x2="1073.5" y1="107.6641" y2="692.2734"/><rect fill="#A9DCDF" height="49.2188" rx="2.5" ry="2.5" style="stroke:#181818;stroke-width:0.5;" width="166" x="20" y="57.4453"/><text fill="#000000" font-family="sans-serif" font-size="14" lengthAdjust="spacing" textLength="152" x="27" y="78.9785">:VaccinationCenterStats</text><text fill="#000000" font-family="sans-serif" font-size="14" lengthAdjust="spacing" textLength="140" x="33" y="96.5879">DailyRecorderAdapter</text><rect fill="#A9DCDF" height="31.6094" rx="2.5" ry="2.5" style="stroke:#181818;stroke-width:0.5;" width="45" x="587.5" y="75.0547"/><text fill="#000000" font-family="sans-serif" font-size="14" lengthAdjust="spacing" textLength="31" x="594.5" y="96.5879">:APP</text><rect fill="#A9DCDF" height="31.6094" rx="2.5" ry="2.5" style="stroke:#181818;stroke-width:0.5;" width="69" x="642.5" y="75.0547"/><text fill="#000000" font-family="sans-serif" font-size="14" lengthAdjust="spacing" textLength="55" x="649.5" y="96.5879">app:APP</text><rect fill="#A9DCDF" height="49.2188" rx="2.5" ry="2.5" style="stroke:#181818;stroke-width:0.5;" width="75" x="721.5" y="57.4453"/><text fill="#000000" font-family="sans-serif" font-size="14" lengthAdjust="spacing" textLength="61" x="728.5" y="78.9785">company:</text><text fill="#000000" font-family="sans-serif" font-size="14" lengthAdjust="spacing" textLength="60" x="729" y="96.5879">Company</text><rect fill="#A9DCDF" height="49.2188" rx="2.5" ry="2.5" style="stroke:#181818;stroke-width:0.5;" width="166" x="806.5" y="57.4453"/><text fill="#000000" font-family="sans-serif" font-size="14" lengthAdjust="spacing" textLength="152" x="813.5" y="78.9785">vaccinationCenterStore:</text><text fill="#000000" font-family="sans-serif" font-size="14" lengthAdjust="spacing" textLength="150" x="814.5" y="96.5879">VaccinationCenterStore</text><rect fill="#A9DCDF" height="49.2188" rx="2.5" ry="2.5" style="stroke:#181818;stroke-width:0.5;" width="182" x="982.5" y="57.4453"/><text fill="#000000" font-family="sans-serif" font-size="14" lengthAdjust="spacing" textLength="168" x="989.5" y="78.9785">vaccinationScheduleStore:</text><text fill="#000000" font-family="sans-serif" font-size="14" lengthAdjust="spacing" textLength="166" x="990.5" y="96.5879">VaccinationScheduleStore</text><rect fill="#FFFFFF" height="565.6094" style="stroke:#181818;stroke-width:1.0;" width="10" x="98" y="117.6641"/><rect fill="#FFFFFF" height="30" style="stroke:#181818;stroke-width:1.0;" width="10" x="605" y="170.3672"/><rect fill="#FFFFFF" height="30" style="stroke:#181818;stroke-width:1.0;" width="10" x="672" y="230.7188"/><rect fill="#FFFFFF" height="30" style="stroke:#181818;stroke-width:1.0;" width="10" x="754" y="291.0703"/><rect fill="#FFFFFF" height="30" style="stroke:#181818;stroke-width:1.0;" width="10" x="754" y="351.4219"/><rect fill="#FFFFFF" height="30" style="stroke:#181818;stroke-width:1.0;" width="10" x="884.5" y="411.7734"/><rect fill="#FFFFFF" height="30" style="stroke:#181818;stroke-width:1.0;" width="10" x="1068.5" y="522.4766"/><ellipse cx="7.5" cy="139.2656" fill="none" rx="4" ry="4" style="stroke:#181818;stroke-width:1.5;"/><polygon fill="#181818" points="86,136.0156,96,140.0156,86,144.0156,90,140.0156" style="stroke:#181818;stroke-width:1.0;"/><line style="stroke:#181818;stroke-width:1.0;" x1="12" x2="92" y1="140.0156" y2="140.0156"/><text fill="#000000" font-family="sans-serif" font-size="13" font-weight="bold" lengthAdjust="spacing" textLength="7" x="15" y="135.1592">1</text><text fill="#000000" font-family="sans-serif" font-size="13" lengthAdjust="spacing" textLength="26" x="26" y="135.1592">run()</text><polygon fill="#181818" points="593,166.3672,603,170.3672,593,174.3672,597,170.3672" style="stroke:#181818;stroke-width:1.0;"/><line style="stroke:#181818;stroke-width:1.0;" x1="108" x2="599" y1="170.3672" y2="170.3672"/><text fill="#000000" font-family="sans-serif" font-size="13" font-weight="bold" lengthAdjust="spacing" textLength="7" x="115" y="165.5107">2</text><text fill="#000000" font-family="sans-serif" font-size="13" lengthAdjust="spacing" textLength="112" x="126" y="165.5107">app = getInstance()</text><polygon fill="#181818" points="660,226.7188,670,230.7188,660,234.7188,664,230.7188" style="stroke:#181818;stroke-width:1.0;"/><line style="stroke:#181818;stroke-width:1.0;" x1="108" x2="666" y1="230.7188" y2="230.7188"/><text fill="#000000" font-family="sans-serif" font-size="13" font-weight="bold" lengthAdjust="spacing" textLength="7" x="115" y="225.8623">3</text><text fill="#000000" font-family="sans-serif" font-size="13" lengthAdjust="spacing" textLength="150" x="126" y="225.8623">company = getCompany()</text><polygon fill="#181818" points="742,287.0703,752,291.0703,742,295.0703,746,291.0703" style="stroke:#181818;stroke-width:1.0;"/><line style="stroke:#181818;stroke-width:1.0;" x1="108" x2="748" y1="291.0703" y2="291.0703"/><text fill="#000000" font-family="sans-serif" font-size="13" font-weight="bold" lengthAdjust="spacing" textLength="7" x="115" y="286.2139">4</text><text fill="#000000" font-family="sans-serif" font-size="13" lengthAdjust="spacing" textLength="312" x="126" y="286.2139">vaccinationCenterStore = getVaccinationCenterStore()</text><polygon fill="#181818" points="742,347.4219,752,351.4219,742,355.4219,746,351.4219" style="stroke:#181818;stroke-width:1.0;"/><line style="stroke:#181818;stroke-width:1.0;" x1="108" x2="748" y1="351.4219" y2="351.4219"/><text fill="#000000" font-family="sans-serif" font-size="13" font-weight="bold" lengthAdjust="spacing" textLength="7" x="115" y="346.5654">5</text><text fill="#000000" font-family="sans-serif" font-size="13" lengthAdjust="spacing" textLength="344" x="126" y="346.5654">vaccinationScheduleStore = getVaccinationScheduleStore()</text><polygon fill="#181818" points="872.5,407.7734,882.5,411.7734,872.5,415.7734,876.5,411.7734" style="stroke:#181818;stroke-width:1.0;"/><line style="stroke:#181818;stroke-width:1.0;" x1="108" x2="878.5" y1="411.7734" y2="411.7734"/><text fill="#000000" font-family="sans-serif" font-size="13" font-weight="bold" lengthAdjust="spacing" textLength="7" x="115" y="406.917">6</text><text fill="#000000" font-family="sans-serif" font-size="13" lengthAdjust="spacing" textLength="409" x="126" y="406.917">vaccinationCenters = vaccinationCenterStore.getAllVaccinationCenter()</text><path d="M10,456.7734 L83,456.7734 L83,465.125 L73,475.125 L10,475.125 L10,456.7734 " fill="#EEEEEE" style="stroke:#000000;stroke-width:1.5;"/><rect fill="none" height="218.5" style="stroke:#000000;stroke-width:1.5;" width="1164.5" x="10" y="456.7734"/><text fill="#000000" font-family="sans-serif" font-size="13" font-weight="bold" lengthAdjust="spacing" textLength="28" x="25" y="471.2686">loop</text><text fill="#000000" font-family="sans-serif" font-size="11" font-weight="bold" lengthAdjust="spacing" textLength="160" x="98" y="470.1924">[for each Vaccination Center]</text><polygon fill="#181818" points="1056.5,518.4766,1066.5,522.4766,1056.5,526.4766,1060.5,522.4766" style="stroke:#181818;stroke-width:1.0;"/><line style="stroke:#181818;stroke-width:1.0;" x1="108" x2="1062.5" y1="522.4766" y2="522.4766"/><text fill="#000000" font-family="sans-serif" font-size="13" font-weight="bold" lengthAdjust="spacing" textLength="7" x="115" y="517.6201">7</text><text fill="#000000" font-family="sans-serif" font-size="13" lengthAdjust="spacing" textLength="498" x="126" y="517.6201">totalNumberOfVaccinations = vaccinationScheduleStore.getNumberOfVaccinations(vc)</text><rect height="41.4453" style="stroke:#000000;stroke-width:1.5;fill:none;" width="249" x="979.5" y="560.4766"/><path d="M979.5,560.4766 L1041.5,560.4766 L1041.5,568.4766 L1031.5,578.4766 L979.5,578.4766 L979.5,560.4766 " fill="#E6E6FA" style="stroke:#000000;stroke-width:2.0;"/><text fill="#000000" font-family="sans-serif" font-size="13" font-weight="bold" lengthAdjust="spacing" textLength="17" x="992.5" y="575.9717">ref</text><text fill="#000000" font-family="sans-serif" font-size="12" lengthAdjust="spacing" textLength="241" x="983.5" y="594.9336">US06_Get number of completed vaccination</text><line style="stroke:#181818;stroke-width:1.0;" x1="108" x2="150" y1="629.2734" y2="629.2734"/><line style="stroke:#181818;stroke-width:1.0;" x1="150" x2="150" y1="629.2734" y2="642.2734"/><line style="stroke:#181818;stroke-width:1.0;" x1="109" x2="150" y1="642.2734" y2="642.2734"/><polygon fill="#181818" points="119,638.2734,109,642.2734,119,646.2734,115,642.2734" style="stroke:#181818;stroke-width:1.0;"/><text fill="#000000" font-family="sans-serif" font-size="13" font-weight="bold" lengthAdjust="spacing" textLength="7" x="115" y="624.417">8</text><text fill="#000000" font-family="sans-serif" font-size="13" lengthAdjust="spacing" textLength="472" x="126" y="624.417">writeAndAppendToFile(vaccinationCenterName, date, totalNumberOfVaccinations)</text><!--MD5=[5dae4a85496a194702f1b4db182551ba]
@startuml
autonumber
hide footbox
skinparam titleFontSize 25
skinparam classFontSize 18


participant ":VaccinationCenterStats\nDailyRecorderAdapter" as adapter #A9DCDF
participant ":APP" as App#A9DCDF
participant "app:APP" as app#A9DCDF
participant "company:\nCompany" as COMP #A9DCDF
participant "vaccinationCenterStore:\nVaccinationCenterStore" as VCStore#A9DCDF
participant "vaccinationScheduleStore:\nVaccinationScheduleStore" as VSStore#A9DCDF


title SD: Record daily vaccination center stats


activate adapter
[o-> adapter : run()
adapter -> App : app = getInstance()
activate App
deactivate App

adapter -> app : company = getCompany()
activate app
deactivate app

adapter -> COMP : vaccinationCenterStore = getVaccinationCenterStore()
activate COMP
deactivate COMP
adapter -> COMP : vaccinationScheduleStore = getVaccinationScheduleStore()
activate COMP
deactivate COMP

adapter -> VCStore#A9DCDF: vaccinationCenters = vaccinationCenterStore.getAllVaccinationCenter()
activate VCStore
deactivate VCStore

 loop for each Vaccination Center
|||
adapter -> VSStore#A9DCDF: totalNumberOfVaccinations = vaccinationScheduleStore.getNumberOfVaccinations(vc)

ref#E6E6FA  over VSStore: US06_Get number of completed vaccination
activate VSStore
deactivate VSStore

adapter -> adapter: writeAndAppendToFile(vaccinationCenterName, date, totalNumberOfVaccinations)
|||
end
@enduml

PlantUML version 1.2022.5(Sat Apr 30 11:55:52 BST 2022)
(GPL source distribution)
Java Runtime: OpenJDK Runtime Environment
JVM: OpenJDK 64-Bit Server VM
Default Encoding: Cp1252
Language: en
Country: GB
--></g></svg>