<?xml version="1.0" encoding="UTF-8" standalone="no"?><svg xmlns="http://www.w3.org/2000/svg" xmlns:xlink="http://www.w3.org/1999/xlink" contentStyleType="text/css" height="497px" preserveAspectRatio="none" style="width:890px;height:497px;background:#FFFFFF;" version="1.1" viewBox="0 0 890 497" width="890px" zoomAndPan="magnify"><defs/><g><rect height="41.4453" style="stroke:#00000000;stroke-width:1.0;fill:none;" width="631" x="131" y="10"/><text fill="#000000" font-family="sans-serif" font-size="25" font-weight="bold" lengthAdjust="spacing" textLength="621" x="136" y="40.9521">SD: Get number of completed vaccination schedules</text><rect fill="#FFFFFF" height="341.9688" style="stroke:#181818;stroke-width:1.0;" width="10" x="299" y="140.0156"/><rect height="275.6172" style="stroke:#000000;stroke-width:1.5;fill:none;" width="691" x="193" y="198.3672"/><rect height="113.2109" style="stroke:#000000;stroke-width:1.5;fill:none;" width="408" x="203" y="353.7734"/><line style="stroke:#181818;stroke-width:0.5;fill:none;stroke-dasharray:5.0,5.0;" x1="304" x2="304" y1="107.6641" y2="490.9844"/><rect fill="#A9DCDF" height="49.2188" rx="2.5" ry="2.5" style="stroke:#181818;stroke-width:0.5;" width="182" x="213" y="57.4453"/><text fill="#000000" font-family="sans-serif" font-size="14" lengthAdjust="spacing" textLength="168" x="220" y="78.9785">vaccinationScheduleStore:</text><text fill="#000000" font-family="sans-serif" font-size="14" lengthAdjust="spacing" textLength="166" x="221" y="96.5879">VaccinationScheduleStore</text><rect fill="#FFFFFF" height="341.9688" style="stroke:#181818;stroke-width:1.0;" width="10" x="299" y="140.0156"/><ellipse cx="7.5" cy="139.2656" fill="none" rx="4" ry="4" style="stroke:#181818;stroke-width:1.5;"/><polygon fill="#181818" points="287,136.0156,297,140.0156,287,144.0156,291,140.0156" style="stroke:#181818;stroke-width:1.0;"/><line style="stroke:#181818;stroke-width:1.0;" x1="12" x2="293" y1="140.0156" y2="140.0156"/><text fill="#000000" font-family="sans-serif" font-size="13" font-weight="bold" lengthAdjust="spacing" textLength="7" x="15" y="135.1592">1</text><text fill="#000000" font-family="sans-serif" font-size="13" lengthAdjust="spacing" textLength="261" x="26" y="135.1592">getNumberOfVaccinations(vaccinationCenter)</text><line style="stroke:#181818;stroke-width:1.0;" x1="309" x2="351" y1="170.3672" y2="170.3672"/><line style="stroke:#181818;stroke-width:1.0;" x1="351" x2="351" y1="170.3672" y2="183.3672"/><line style="stroke:#181818;stroke-width:1.0;" x1="310" x2="351" y1="183.3672" y2="183.3672"/><polygon fill="#181818" points="320,179.3672,310,183.3672,320,187.3672,316,183.3672" style="stroke:#181818;stroke-width:1.0;"/><text fill="#000000" font-family="sans-serif" font-size="13" font-weight="bold" lengthAdjust="spacing" textLength="7" x="316" y="165.5107">2</text><text fill="#000000" font-family="sans-serif" font-size="13" lengthAdjust="spacing" textLength="190" x="327" y="165.5107">vaccinationScheduleCounter  = 0</text><path d="M193,198.3672 L266,198.3672 L266,206.7188 L256,216.7188 L193,216.7188 L193,198.3672 " fill="#EEEEEE" style="stroke:#000000;stroke-width:1.5;"/><rect fill="none" height="275.6172" style="stroke:#000000;stroke-width:1.5;" width="691" x="193" y="198.3672"/><text fill="#000000" font-family="sans-serif" font-size="13" font-weight="bold" lengthAdjust="spacing" textLength="28" x="208" y="212.8623">loop</text><text fill="#000000" font-family="sans-serif" font-size="11" font-weight="bold" lengthAdjust="spacing" textLength="353" x="281" y="211.7861">[for each vaccination schedule (vs) in vaccinationScheduleStore]</text><line style="stroke:#181818;stroke-width:1.0;" x1="309" x2="351" y1="239.0703" y2="239.0703"/><line style="stroke:#181818;stroke-width:1.0;" x1="351" x2="351" y1="239.0703" y2="252.0703"/><line style="stroke:#181818;stroke-width:1.0;" x1="310" x2="351" y1="252.0703" y2="252.0703"/><polygon fill="#181818" points="320,248.0703,310,252.0703,320,256.0703,316,252.0703" style="stroke:#181818;stroke-width:1.0;"/><text fill="#000000" font-family="sans-serif" font-size="13" font-weight="bold" lengthAdjust="spacing" textLength="7" x="316" y="234.2139">3</text><text fill="#000000" font-family="sans-serif" font-size="13" lengthAdjust="spacing" textLength="238" x="327" y="234.2139">vaccinationScheduleState = vs.getState()</text><line style="stroke:#181818;stroke-width:1.0;" x1="309" x2="351" y1="282.4219" y2="282.4219"/><line style="stroke:#181818;stroke-width:1.0;" x1="351" x2="351" y1="282.4219" y2="295.4219"/><line style="stroke:#181818;stroke-width:1.0;" x1="310" x2="351" y1="295.4219" y2="295.4219"/><polygon fill="#181818" points="320,291.4219,310,295.4219,320,299.4219,316,295.4219" style="stroke:#181818;stroke-width:1.0;"/><text fill="#000000" font-family="sans-serif" font-size="13" font-weight="bold" lengthAdjust="spacing" textLength="7" x="316" y="277.5654">4</text><text fill="#000000" font-family="sans-serif" font-size="13" lengthAdjust="spacing" textLength="470" x="327" y="277.5654">vaccinationCenterName = vs.getVaccinationCenter().getVaccinationCenterName()</text><line style="stroke:#181818;stroke-width:1.0;" x1="309" x2="351" y1="325.7734" y2="325.7734"/><line style="stroke:#181818;stroke-width:1.0;" x1="351" x2="351" y1="325.7734" y2="338.7734"/><line style="stroke:#181818;stroke-width:1.0;" x1="310" x2="351" y1="338.7734" y2="338.7734"/><polygon fill="#181818" points="320,334.7734,310,338.7734,320,342.7734,316,338.7734" style="stroke:#181818;stroke-width:1.0;"/><text fill="#000000" font-family="sans-serif" font-size="13" font-weight="bold" lengthAdjust="spacing" textLength="7" x="316" y="320.917">5</text><text fill="#000000" font-family="sans-serif" font-size="13" lengthAdjust="spacing" textLength="230" x="327" y="320.917">vaccinationScheduleDate = vs.getDate()</text><path d="M203,353.7734 L268,353.7734 L268,362.125 L258,372.125 L203,372.125 L203,353.7734 " fill="#EEEEEE" style="stroke:#000000;stroke-width:1.5;"/><rect fill="none" height="113.2109" style="stroke:#000000;stroke-width:1.5;" width="408" x="203" y="353.7734"/><text fill="#000000" font-family="sans-serif" font-size="13" font-weight="bold" lengthAdjust="spacing" textLength="20" x="218" y="368.2686">opt</text><text fill="#000000" font-family="sans-serif" font-size="11" font-weight="bold" lengthAdjust="spacing" textLength="210" x="283" y="367.1924">[vaccinationScheduleState = FINALIZED</text><text fill="#000000" font-family="sans-serif" font-size="11" font-weight="bold" lengthAdjust="spacing" textLength="320" x="286" y="381.0283">&amp;&amp; vaccinationCenterName = vaccinationCenter.getName()</text><text fill="#000000" font-family="sans-serif" font-size="11" font-weight="bold" lengthAdjust="spacing" textLength="201" x="286" y="394.8643">&amp;&amp; vaccinationScheduleDate = today]</text><path d="M616,358.7734 L616,417.7734 L869,417.7734 L869,368.7734 L859,358.7734 L616,358.7734 " fill="#FEFFDD" style="stroke:#181818;stroke-width:0.5;"/><path d="M859,358.7734 L859,368.7734 L869,368.7734 L859,358.7734 " fill="#FEFFDD" style="stroke:#181818;stroke-width:0.5;"/><text fill="#000000" font-family="sans-serif" font-size="13" lengthAdjust="spacing" textLength="167" x="622" y="377.2686">Consult life cycle diagram for</text><text fill="#000000" font-family="sans-serif" font-size="13" lengthAdjust="spacing" textLength="232" x="622" y="393.6201">clarification of vaccinationScheduleState</text><text fill="#000000" font-family="sans-serif" font-size="13" lengthAdjust="spacing" textLength="86" x="622" y="409.9717">state transition</text><line style="stroke:#181818;stroke-width:1.0;" x1="309" x2="351" y1="445.9844" y2="445.9844"/><line style="stroke:#181818;stroke-width:1.0;" x1="351" x2="351" y1="445.9844" y2="458.9844"/><line style="stroke:#181818;stroke-width:1.0;" x1="310" x2="351" y1="458.9844" y2="458.9844"/><polygon fill="#181818" points="320,454.9844,310,458.9844,320,462.9844,316,458.9844" style="stroke:#181818;stroke-width:1.0;"/><text fill="#000000" font-family="sans-serif" font-size="13" font-weight="bold" lengthAdjust="spacing" textLength="7" x="316" y="441.1279">6</text><text fill="#000000" font-family="sans-serif" font-size="13" lengthAdjust="spacing" textLength="183" x="327" y="441.1279">vaccinationScheduleCounter ++</text><!--MD5=[caf9c5198fb0f72d25d665387e61d60a]
@startuml
autonumber
hide footbox
skinparam titleFontSize 25
skinparam classFontSize 18
skinparam SequenceReferenceBackgroundColor  white
skinparam OptBackgroundColor #A9DCDF

participant "vaccinationScheduleStore:\nVaccinationScheduleStore" as VSStore#A9DCDF

participant "vaccinationScheduleStore:\nVaccinationScheduleStore" as VSStore#A9DCDF


title SD: Get number of completed vaccination schedules


[o-> VSStore : getNumberOfVaccinations(vaccinationCenter)
activate VSStore
VSStore -> VSStore #A9DCDF: vaccinationScheduleCounter  = 0

loop for each vaccination schedule (vs) in vaccinationScheduleStore

VSStore -> VSStore #A9DCDF: vaccinationScheduleState = vs.getState()
VSStore -> VSStore #A9DCDF: vaccinationCenterName = vs.getVaccinationCenter().getVaccinationCenterName()
VSStore -> VSStore #A9DCDF: vaccinationScheduleDate = vs.getDate()
opt vaccinationScheduleState = FINALIZED \n && vaccinationCenterName = vaccinationCenter.getName()\n && vaccinationScheduleDate = today
|||
VSStore -> VSStore #A9DCDF: vaccinationScheduleCounter ++
end
note right
   Consult life cycle diagram for
   clarification of vaccinationScheduleState
   state transition
end note
end

@enduml

PlantUML version 1.2022.5(Sat Apr 30 11:55:52 BST 2022)
(GPL source distribution)
Java Runtime: OpenJDK Runtime Environment
JVM: OpenJDK 64-Bit Server VM
Default Encoding: Cp1252
Language: en
Country: GB
--></g></svg>