<?xml version="1.0" encoding="UTF-8" standalone="no"?><svg xmlns="http://www.w3.org/2000/svg" xmlns:xlink="http://www.w3.org/1999/xlink" contentScriptType="application/ecmascript" contentStyleType="text/css" height="500.4206px" preserveAspectRatio="none" style="width:295px;height:500px;background:#FFFFFF;" version="1.1" viewBox="0 0 295 500" width="295.663px" zoomAndPan="magnify"><defs><filter height="300%" id="fkjykue1pjlox" width="300%" x="-1" y="-1"><feGaussianBlur result="blurOut" stdDeviation="1.7651520375094807"/><feColorMatrix in="blurOut" result="blurOut2" type="matrix" values="0 0 0 0 0 0 0 0 0 0 0 0 0 0 0 0 0 0 .4 0"/><feOffset dx="3.5303040750189614" dy="3.5303040750189614" in="blurOut2" result="blurOut3"/><feBlend in="SourceGraphic" in2="blurOut3" mode="normal"/></filter></defs><g><!--MD5=[72be06cc7ae02ccc98efe28a50e62246]
class SNSUser--><rect codeLine="5" fill="#FEFECE" filter="url(#fkjykue1pjlox)" height="47.5143" id="SNSUser" style="stroke:#A80036;stroke-width:1.3238640281321106;" width="91.7879" x="159.7463" y="392.305"/><ellipse cx="180.9281" cy="406.4263" fill="#ADD1B2" rx="9.7083" ry="9.7083" style="stroke:#A80036;stroke-width:0.8825760187547403;"/><path d="M183.369,402.7856 Q183.5069,402.5926 183.6723,402.496 Q183.8378,402.3995 184.0309,402.3995 Q184.3619,402.3995 184.5687,402.6339 Q184.7756,402.8546 184.7756,403.3924 L184.7756,404.6749 Q184.7756,405.2127 184.5687,405.4471 Q184.3619,405.6816 184.0309,405.6816 Q183.7275,405.6816 183.5482,405.5023 Q183.369,405.3368 183.2724,404.8817 Q183.2311,404.5646 183.0656,404.3991 Q182.776,404.0681 182.2382,403.8751 Q181.7003,403.682 181.1487,403.682 Q180.473,403.682 179.9076,403.9716 Q179.356,404.2612 178.9147,404.9231 Q178.4872,405.5851 178.4872,406.4952 L178.4872,407.4605 Q178.4872,408.55 179.2733,409.2808 Q180.0593,409.9979 181.4659,409.9979 Q182.2933,409.9979 182.8725,409.7773 Q183.2173,409.6394 183.5896,409.2533 Q183.824,409.0188 183.9481,408.9499 Q184.0861,408.8809 184.2653,408.8809 Q184.5549,408.8809 184.7756,409.1154 Q185.01,409.336 185.01,409.6394 Q185.01,409.9428 184.7066,410.3013 Q184.2653,410.8116 183.562,411.1012 Q182.6105,411.5011 181.4659,411.5011 Q180.1282,411.5011 179.0664,410.9495 Q178.1976,410.5082 177.5908,409.5704 Q176.9841,408.6189 176.9841,407.4881 L176.9841,406.4676 Q176.9841,405.2955 177.5219,404.2888 Q178.0735,403.2683 179.0388,402.7305 Q180.0041,402.1789 181.0936,402.1789 Q181.7417,402.1789 182.3071,402.3306 Q182.8863,402.4685 183.369,402.7856 Z " fill="#000000"/><text fill="#000000" font-family="sans-serif" font-size="10.5909" lengthAdjust="spacing" textLength="45.894" x="195.0493" y="410.7598">SNSUser</text><line style="stroke:#A80036;stroke-width:1.3238640281321106;" x1="160.6288" x2="250.6516" y1="420.5475" y2="420.5475"/><rect fill="none" height="5.2955" style="stroke:#C82930;stroke-width:0.8825760187547403;" width="5.2955" x="166.8069" y="427.6081"/><text fill="#000000" font-family="sans-serif" font-size="9.7083" lengthAdjust="spacing" textLength="68.8409" x="177.3978" y="434.1559">snsUserNumber</text><!--MD5=[de60e6d4f424ae4d0522096f76a59010]
class VaccinationCenter--><rect codeLine="9" fill="#FEFECE" filter="url(#fkjykue1pjlox)" height="145.2044" id="VaccinationCenter" style="stroke:#A80036;stroke-width:1.3238640281321106;" width="116.5" x="6.178" y="343.3221"/><ellipse cx="19.4167" cy="357.4433" fill="#ADD1B2" rx="9.7083" ry="9.7083" style="stroke:#A80036;stroke-width:0.8825760187547403;"/><path d="M21.8575,353.8027 Q21.9954,353.6096 22.1609,353.5131 Q22.3264,353.4165 22.5195,353.4165 Q22.8504,353.4165 23.0573,353.651 Q23.2642,353.8716 23.2642,354.4094 L23.2642,355.6919 Q23.2642,356.2297 23.0573,356.4642 Q22.8504,356.6986 22.5195,356.6986 Q22.2161,356.6986 22.0368,356.5193 Q21.8575,356.3539 21.761,355.8988 Q21.7196,355.5816 21.5542,355.4161 Q21.2646,355.0852 20.7267,354.8921 Q20.1889,354.699 19.6373,354.699 Q18.9616,354.699 18.3962,354.9886 Q17.8446,355.2782 17.4033,355.9402 Q16.9758,356.6021 16.9758,357.5122 L16.9758,358.4776 Q16.9758,359.567 17.7618,360.2979 Q18.5479,361.015 19.9545,361.015 Q20.7819,361.015 21.3611,360.7943 Q21.7059,360.6564 22.0782,360.2703 Q22.3126,360.0359 22.4367,359.9669 Q22.5746,359.898 22.7539,359.898 Q23.0435,359.898 23.2642,360.1324 Q23.4986,360.353 23.4986,360.6564 Q23.4986,360.9598 23.1952,361.3183 Q22.7539,361.8286 22.0506,362.1182 Q21.0991,362.5181 19.9545,362.5181 Q18.6168,362.5181 17.555,361.9665 Q16.6862,361.5252 16.0794,360.5875 Q15.4727,359.6359 15.4727,358.5051 L15.4727,357.4847 Q15.4727,356.3125 16.0105,355.3058 Q16.5621,354.2853 17.5274,353.7475 Q18.4927,353.1959 19.5822,353.1959 Q20.2303,353.1959 20.7957,353.3476 Q21.3749,353.4855 21.8575,353.8027 Z " fill="#000000"/><text fill="#000000" font-family="sans-serif" font-size="10.5909" lengthAdjust="spacing" textLength="88.2576" x="31.7727" y="361.7769">VaccinationCenter</text><line style="stroke:#A80036;stroke-width:1.3238640281321106;" x1="7.0606" x2="121.7955" y1="371.5645" y2="371.5645"/><rect fill="none" height="5.2955" style="stroke:#C82930;stroke-width:0.8825760187547403;" width="5.2955" x="13.2386" y="378.6251"/><text fill="#000000" font-family="sans-serif" font-size="9.7083" lengthAdjust="spacing" textLength="22.947" x="23.8296" y="385.1729">name</text><rect fill="none" height="5.2955" style="stroke:#C82930;stroke-width:0.8825760187547403;" width="5.2955" x="13.2386" y="390.8364"/><text fill="#000000" font-family="sans-serif" font-size="9.7083" lengthAdjust="spacing" textLength="59.1326" x="23.8296" y="397.3842">phoneNumber</text><rect fill="none" height="5.2955" style="stroke:#C82930;stroke-width:0.8825760187547403;" width="5.2955" x="13.2386" y="403.0476"/><text fill="#000000" font-family="sans-serif" font-size="9.7083" lengthAdjust="spacing" textLength="58.25" x="23.8296" y="409.5954">emailAddress</text><rect fill="none" height="5.2955" style="stroke:#C82930;stroke-width:0.8825760187547403;" width="5.2955" x="13.2386" y="415.2589"/><text fill="#000000" font-family="sans-serif" font-size="9.7083" lengthAdjust="spacing" textLength="46.7765" x="23.8296" y="421.8067">faxNumber</text><rect fill="none" height="5.2955" style="stroke:#C82930;stroke-width:0.8825760187547403;" width="5.2955" x="13.2386" y="427.4702"/><text fill="#000000" font-family="sans-serif" font-size="9.7083" lengthAdjust="spacing" textLength="71.4887" x="23.8296" y="434.018">websiteAddress</text><rect fill="none" height="5.2955" style="stroke:#C82930;stroke-width:0.8825760187547403;" width="5.2955" x="13.2386" y="439.6814"/><text fill="#000000" font-family="sans-serif" font-size="9.7083" lengthAdjust="spacing" textLength="59.1326" x="23.8296" y="446.2292">openingHours</text><rect fill="none" height="5.2955" style="stroke:#C82930;stroke-width:0.8825760187547403;" width="5.2955" x="13.2386" y="451.8927"/><text fill="#000000" font-family="sans-serif" font-size="9.7083" lengthAdjust="spacing" textLength="55.6023" x="23.8296" y="458.4405">closingHours</text><rect fill="none" height="5.2955" style="stroke:#C82930;stroke-width:0.8825760187547403;" width="5.2955" x="13.2386" y="464.104"/><text fill="#000000" font-family="sans-serif" font-size="9.7083" lengthAdjust="spacing" textLength="50.3068" x="23.8296" y="470.6518">slotDuration</text><rect fill="none" height="5.2955" style="stroke:#C82930;stroke-width:0.8825760187547403;" width="5.2955" x="13.2386" y="476.3152"/><text fill="#000000" font-family="sans-serif" font-size="9.7083" lengthAdjust="spacing" textLength="76.7841" x="23.8296" y="482.863">maxNumVaccines</text><!--MD5=[7421f545a0d8420c5bec41e74b387d9c]
class Employee--><rect codeLine="21" fill="#FEFECE" filter="url(#fkjykue1pjlox)" height="35.303" id="Employee" style="stroke:#A80036;stroke-width:1.3238640281321106;" width="76.7841" x="14.5625" y="6.178"/><ellipse cx="27.8011" cy="20.2992" fill="#ADD1B2" rx="9.7083" ry="9.7083" style="stroke:#A80036;stroke-width:0.8825760187547403;"/><path d="M30.242,16.6586 Q30.3799,16.4656 30.5454,16.369 Q30.7109,16.2725 30.904,16.2725 Q31.2349,16.2725 31.4418,16.5069 Q31.6486,16.7276 31.6486,17.2654 L31.6486,18.5479 Q31.6486,19.0857 31.4418,19.3201 Q31.2349,19.5546 30.904,19.5546 Q30.6006,19.5546 30.4213,19.3753 Q30.242,19.2098 30.1455,18.7547 Q30.1041,18.4376 29.9386,18.2721 Q29.649,17.9411 29.1112,17.7481 Q28.5734,17.555 28.0218,17.555 Q27.3461,17.555 26.7807,17.8446 Q26.2291,18.1342 25.7878,18.7961 Q25.3603,19.458 25.3603,20.3682 L25.3603,21.3335 Q25.3603,22.4229 26.1463,23.1538 Q26.9324,23.8709 28.339,23.8709 Q29.1664,23.8709 29.7456,23.6503 Q30.0903,23.5124 30.4627,23.1262 Q30.6971,22.8918 30.8212,22.8229 Q30.9591,22.7539 31.1384,22.7539 Q31.428,22.7539 31.6486,22.9883 Q31.8831,23.209 31.8831,23.5124 Q31.8831,23.8158 31.5797,24.1743 Q31.1384,24.6845 30.4351,24.9741 Q29.4836,25.3741 28.339,25.3741 Q27.0013,25.3741 25.9395,24.8225 Q25.0707,24.3812 24.4639,23.4434 Q23.8571,22.4919 23.8571,21.3611 L23.8571,20.3406 Q23.8571,19.1684 24.395,18.1618 Q24.9466,17.1413 25.9119,16.6035 Q26.8772,16.0519 27.9666,16.0519 Q28.6148,16.0519 29.1802,16.2035 Q29.7594,16.3414 30.242,16.6586 Z " fill="#000000"/><text fill="#000000" font-family="sans-serif" font-size="10.5909" lengthAdjust="spacing" textLength="48.5417" x="40.1572" y="24.6328">Employee</text><line style="stroke:#A80036;stroke-width:1.3238640281321106;" x1="15.4451" x2="90.464" y1="34.4205" y2="34.4205"/><!--MD5=[03960189e81aa2c066c762ffabbee709]
class Receptionist--><rect codeLine="25" fill="#FEFECE" filter="url(#fkjykue1pjlox)" height="35.303" id="Receptionist" style="stroke:#A80036;stroke-width:1.3238640281321106;" width="89.1402" x="109.8807" y="110.322"/><ellipse cx="123.1194" cy="124.4432" fill="#ADD1B2" rx="9.7083" ry="9.7083" style="stroke:#A80036;stroke-width:0.8825760187547403;"/><path d="M125.5602,120.8026 Q125.6981,120.6095 125.8636,120.513 Q126.0291,120.4165 126.2222,120.4165 Q126.5531,120.4165 126.76,120.6509 Q126.9668,120.8715 126.9668,121.4094 L126.9668,122.6919 Q126.9668,123.2297 126.76,123.4641 Q126.5531,123.6985 126.2222,123.6985 Q125.9188,123.6985 125.7395,123.5193 Q125.5602,123.3538 125.4637,122.8987 Q125.4223,122.5815 125.2568,122.4161 Q124.9672,122.0851 124.4294,121.892 Q123.8916,121.699 123.34,121.699 Q122.6643,121.699 122.0989,121.9886 Q121.5473,122.2781 121.106,122.9401 Q120.6785,123.602 120.6785,124.5122 L120.6785,125.4775 Q120.6785,126.5669 121.4645,127.2978 Q122.2506,128.0149 123.6572,128.0149 Q124.4846,128.0149 125.0638,127.7942 Q125.4085,127.6563 125.7809,127.2702 Q126.0153,127.0358 126.1394,126.9668 Q126.2773,126.8979 126.4566,126.8979 Q126.7462,126.8979 126.9668,127.1323 Q127.2013,127.353 127.2013,127.6563 Q127.2013,127.9597 126.8979,128.3183 Q126.4566,128.8285 125.7533,129.1181 Q124.8018,129.518 123.6572,129.518 Q122.3195,129.518 121.2577,128.9664 Q120.3889,128.5251 119.7821,127.5874 Q119.1753,126.6359 119.1753,125.5051 L119.1753,124.4846 Q119.1753,123.3124 119.7132,122.3057 Q120.2648,121.2853 121.2301,120.7474 Q122.1954,120.1958 123.2848,120.1958 Q123.933,120.1958 124.4984,120.3475 Q125.0776,120.4854 125.5602,120.8026 Z " fill="#000000"/><text fill="#000000" font-family="sans-serif" font-size="10.5909" lengthAdjust="spacing" textLength="60.8977" x="135.4754" y="128.7768">Receptionist</text><line style="stroke:#A80036;stroke-width:1.3238640281321106;" x1="110.7633" x2="198.1383" y1="138.5644" y2="138.5644"/><!--MD5=[cd4ce1c0d44638ff9f42448de30e6b92]
class VaccineSchedule--><rect codeLine="29" fill="#FEFECE" filter="url(#fkjykue1pjlox)" height="59.7256" id="VaccineSchedule" style="stroke:#A80036;stroke-width:1.3238640281321106;" width="112.0872" x="82.5209" y="214.466"/><ellipse cx="95.7595" cy="228.5872" fill="#ADD1B2" rx="9.7083" ry="9.7083" style="stroke:#A80036;stroke-width:0.8825760187547403;"/><path d="M98.2004,224.9466 Q98.3383,224.7535 98.5038,224.657 Q98.6692,224.5604 98.8623,224.5604 Q99.1933,224.5604 99.4001,224.7949 Q99.607,225.0155 99.607,225.5533 L99.607,226.8358 Q99.607,227.3736 99.4001,227.6081 Q99.1933,227.8425 98.8623,227.8425 Q98.5589,227.8425 98.3796,227.6632 Q98.2004,227.4978 98.1038,227.0427 Q98.0625,226.7255 97.897,226.56 Q97.6074,226.2291 97.0696,226.036 Q96.5318,225.8429 95.9801,225.8429 Q95.3044,225.8429 94.739,226.1325 Q94.1874,226.4221 93.7461,227.0841 Q93.3186,227.746 93.3186,228.6561 L93.3186,229.6215 Q93.3186,230.7109 94.1047,231.4418 Q94.8907,232.1589 96.2973,232.1589 Q97.1247,232.1589 97.7039,231.9382 Q98.0487,231.8003 98.421,231.4142 Q98.6555,231.1798 98.7796,231.1108 Q98.9175,231.0419 99.0967,231.0419 Q99.3863,231.0419 99.607,231.2763 Q99.8414,231.4969 99.8414,231.8003 Q99.8414,232.1037 99.538,232.4622 Q99.0967,232.9725 98.3934,233.2621 Q97.4419,233.662 96.2973,233.662 Q94.9597,233.662 93.8978,233.1104 Q93.029,232.6691 92.4223,231.7314 Q91.8155,230.7798 91.8155,229.649 L91.8155,228.6286 Q91.8155,227.4564 92.3533,226.4497 Q92.9049,225.4292 93.8702,224.8914 Q94.8356,224.3398 95.925,224.3398 Q96.5731,224.3398 97.1385,224.4915 Q97.7177,224.6294 98.2004,224.9466 Z " fill="#000000"/><text fill="#000000" font-family="sans-serif" font-size="10.5909" lengthAdjust="spacing" textLength="83.8447" x="108.1156" y="232.9208">VaccineSchedule</text><line style="stroke:#A80036;stroke-width:1.3238640281321106;" x1="83.4034" x2="193.7254" y1="242.7084" y2="242.7084"/><rect fill="none" height="5.2955" style="stroke:#C82930;stroke-width:0.8825760187547403;" width="5.2955" x="89.5815" y="249.769"/><text fill="#000000" font-family="sans-serif" font-size="9.7083" lengthAdjust="spacing" textLength="18.5341" x="100.1724" y="256.3168">date</text><rect fill="none" height="5.2955" style="stroke:#C82930;stroke-width:0.8825760187547403;" width="5.2955" x="89.5815" y="261.9803"/><text fill="#000000" font-family="sans-serif" font-size="9.7083" lengthAdjust="spacing" textLength="16.7689" x="100.1724" y="268.5281">time</text><!--MD5=[1da12df22706e73e1def33b218b7f412]
link Employee to Receptionist--><path codeLine="35" d="M69.7147,41.6223 C88.5224,60.5888 118.8477,91.1789 137.6642,110.1631 " fill="none" id="Employee-Receptionist" style="stroke:#A80036;stroke-width:0.8825760187547403;"/><text fill="#000000" font-family="sans-serif" font-size="11.4735" lengthAdjust="spacing" textLength="21.1818" x="110.322" y="80.7514">is of</text><text fill="#000000" font-family="sans-serif" font-size="11.4735" lengthAdjust="spacing" textLength="4.4129" x="69.395" y="60.5664">*</text><text fill="#000000" font-family="sans-serif" font-size="11.4735" lengthAdjust="spacing" textLength="6.178" x="125.6477" y="100.6921">1</text><!--MD5=[7454cd36f47ee2c1597ee5b79ae5e9ce]
link Employee to VaccinationCenter--><path codeLine="36" d="M52.425,41.5076 C51.5866,68.8674 49.9891,124.7521 49.4243,172.1023 C48.7358,229.7257 53.0252,294.8863 57.1998,343.2426 " fill="none" id="Employee-VaccinationCenter" style="stroke:#A80036;stroke-width:0.8825760187547403;"/><text fill="#000000" font-family="sans-serif" font-size="11.4735" lengthAdjust="spacing" textLength="45.894" x="50.3068" y="184.8954">works on</text><text fill="#000000" font-family="sans-serif" font-size="11.4735" lengthAdjust="spacing" textLength="17.6515" x="32.1423" y="60.4194">1..*</text><text fill="#000000" font-family="sans-serif" font-size="11.4735" lengthAdjust="spacing" textLength="6.178" x="50.0706" y="333.695">1</text><!--MD5=[7690a4971bd8576b261a40a0340b8203]
link Receptionist to SNSUser--><path codeLine="37" d="M190.1245,145.7839 C200.5301,152.5003 210.7856,161.2555 217.1137,172.1023 C258.5065,243.1144 230.3788,346.5788 214.4748,392.1903 " fill="none" id="Receptionist-SNSUser" style="stroke:#A80036;stroke-width:0.8825760187547403;"/><text fill="#000000" font-family="sans-serif" font-size="11.4735" lengthAdjust="spacing" textLength="49.4243" x="239.1781" y="249.3234">checks in</text><text fill="#000000" font-family="sans-serif" font-size="11.4735" lengthAdjust="spacing" textLength="6.178" x="193.1109" y="164.733">1</text><text fill="#000000" font-family="sans-serif" font-size="11.4735" lengthAdjust="spacing" textLength="17.6515" x="196.8253" y="382.8623">1..*</text><!--MD5=[4b1cbd5f2b82fe473c8138e32680fa60]
link Receptionist to VaccineSchedule--><path codeLine="38" d="M128.9444,145.7574 C120.5422,152.8004 112.1931,161.7674 107.6743,172.1023 C101.6022,185.9764 106.7564,201.395 114.4789,214.3512 " fill="none" id="Receptionist-VaccineSchedule" style="stroke:#A80036;stroke-width:0.8825760187547403;"/><text fill="#000000" font-family="sans-serif" font-size="11.4735" lengthAdjust="spacing" textLength="43.2462" x="108.5569" y="184.8954">confirms</text><text fill="#000000" font-family="sans-serif" font-size="11.4735" lengthAdjust="spacing" textLength="6.178" x="114.7239" y="164.699">1</text><text fill="#000000" font-family="sans-serif" font-size="11.4735" lengthAdjust="spacing" textLength="17.6515" x="90.348" y="204.8791">1..*</text><!--MD5=[4b1cbd5f2b82fe473c8138e32680fa60]
link Receptionist to VaccineSchedule--><path codeLine="39" d="M155.2981,145.6956 C155.6599,153.6918 156.0394,163.3913 156.216,172.1023 C156.3572,179.1629 157.2927,181.0075 156.216,187.9887 C154.8656,196.6997 152.3944,205.905 149.7202,214.2718 " fill="none" id="Receptionist-VaccineSchedule-1" style="stroke:#A80036;stroke-width:0.8825760187547403;"/><text fill="#000000" font-family="sans-serif" font-size="11.4735" lengthAdjust="spacing" textLength="52.072" x="157.0985" y="184.8954">schedules</text><text fill="#000000" font-family="sans-serif" font-size="11.4735" lengthAdjust="spacing" textLength="6.178" x="148.4896" y="164.6199">1</text><text fill="#000000" font-family="sans-serif" font-size="11.4735" lengthAdjust="spacing" textLength="4.4129" x="147.0692" y="204.7841">*</text><!--MD5=[8e51fd2526d7ed1449c2aa4f1c32bf49]
link VaccineSchedule to SNSUser--><path codeLine="40" d="M150.0909,274.5606 C163.2413,307.8602 184.4672,361.6267 196.5144,392.1462 " fill="none" id="VaccineSchedule-SNSUser" style="stroke:#A80036;stroke-width:0.8825760187547403;"/><text fill="#000000" font-family="sans-serif" font-size="11.4735" lengthAdjust="spacing" textLength="53.8371" x="166.8069" y="313.7515">created for</text><text fill="#000000" font-family="sans-serif" font-size="11.4735" lengthAdjust="spacing" textLength="17.6515" x="132.9204" y="293.1414">1..*</text><text fill="#000000" font-family="sans-serif" font-size="11.4735" lengthAdjust="spacing" textLength="6.178" x="187.5117" y="382.808">1</text><!--MD5=[18968283628c2f508e56f30aee4bc691]
link VaccineSchedule to VaccinationCenter--><path codeLine="41" d="M111.0104,274.5871 C104.5323,282.6626 98.1778,291.7443 93.5531,300.9584 C86.9867,314.047 81.8148,328.7331 77.7726,343.1191 " fill="none" id="VaccineSchedule-VaccinationCenter" style="stroke:#A80036;stroke-width:0.8825760187547403;"/><text fill="#000000" font-family="sans-serif" font-size="11.4735" lengthAdjust="spacing" textLength="59.1326" x="94.4356" y="313.7515">allocated to</text><text fill="#000000" font-family="sans-serif" font-size="11.4735" lengthAdjust="spacing" textLength="17.6515" x="86.8787" y="293.1726">1..*</text><text fill="#000000" font-family="sans-serif" font-size="11.4735" lengthAdjust="spacing" textLength="6.178" x="72.508" y="333.8091">1</text><!--MD5=[5556fed0acbdef54c2ec1bd637a2aba0]
@startuml US04_MD
hide methods

scale 500 height

class SNSUser {
    -snsUserNumber
}

class VaccinationCenter {
    -name
    -phoneNumber
    -emailAddress
    -faxNumber
    -websiteAddress
    -openingHours
    -closingHours
    -slotDuration
    -maxNumVaccines
}

class Employee {

}

class Receptionist {

}

class VaccineSchedule {
    -date
    -time
}


Employee "*" - - "1" Receptionist : is of
Employee "1..*" - - "1" VaccinationCenter : works on
Receptionist "1" - - "1..*" SNSUser : checks in
Receptionist "1" - - "1..*" VaccineSchedule : confirms 
Receptionist "1" - - "*" VaccineSchedule : schedules 
VaccineSchedule "1..*" - - "1" SNSUser :  created for 
VaccineSchedule "1..*" - - "1" VaccinationCenter :  allocated to 

@enduml

PlantUML version 1.2022.0(Tue Jan 11 16:16:42 WET 2022)
(GPL source distribution)
Java Runtime: Java(TM) SE Runtime Environment
JVM: Java HotSpot(TM) 64-Bit Server VM
Default Encoding: Cp1252
Language: pt
Country: PT
--></g></svg>