<?xml version="1.0" encoding="UTF-8" standalone="no"?><svg xmlns="http://www.w3.org/2000/svg" xmlns:xlink="http://www.w3.org/1999/xlink" contentScriptType="application/ecmascript" contentStyleType="text/css" height="438px" preserveAspectRatio="none" style="width:584px;height:438px;background:#FFFFFF;" version="1.1" viewBox="0 0 584 438" width="584px" zoomAndPan="magnify"><defs><filter height="300%" id="f11w26da2e8eqh" width="300%" x="-1" y="-1"><feGaussianBlur result="blurOut" stdDeviation="2.0"/><feColorMatrix in="blurOut" result="blurOut2" type="matrix" values="0 0 0 0 0 0 0 0 0 0 0 0 0 0 0 0 0 0 .4 0"/><feOffset dx="4.0" dy="4.0" in="blurOut2" result="blurOut3"/><feBlend in="SourceGraphic" in2="blurOut3" mode="normal"/></filter></defs><g><rect fill="#FFFFFF" filter="url(#f11w26da2e8eqh)" height="234.8125" style="stroke:#A80036;stroke-width:1.0;" width="10" x="42" y="99.6094"/><rect fill="#FFFFFF" filter="url(#f11w26da2e8eqh)" height="30.3516" style="stroke:#A80036;stroke-width:1.0;" width="10" x="535" y="121.9609"/><rect fill="#FFFFFF" filter="url(#f11w26da2e8eqh)" height="30.3516" style="stroke:#A80036;stroke-width:1.0;" width="10" x="535" y="182.6641"/><rect fill="#FFFFFF" filter="url(#f11w26da2e8eqh)" height="30.3516" style="stroke:#A80036;stroke-width:1.0;" width="10" x="535" y="243.3672"/><rect fill="#FFFFFF" filter="url(#f11w26da2e8eqh)" height="30.3516" style="stroke:#A80036;stroke-width:1.0;" width="10" x="535" y="304.0703"/><line style="stroke:#A80036;stroke-width:1.0;stroke-dasharray:5.0,5.0;" x1="47" x2="47" y1="89.6094" y2="352.4219"/><line style="stroke:#A80036;stroke-width:1.0;stroke-dasharray:5.0,5.0;" x1="540" x2="540" y1="89.6094" y2="352.4219"/><text fill="#000000" font-family="sans-serif" font-size="14" lengthAdjust="spacing" textLength="78" x="5" y="86.5332">Receptionist</text><ellipse cx="47" cy="15" fill="#FEFECE" filter="url(#f11w26da2e8eqh)" rx="8" ry="8" style="stroke:#A80036;stroke-width:2.0;"/><path d="M47,23 L47,50 M34,31 L60,31 M47,50 L34,65 M47,50 L60,65 " fill="none" filter="url(#f11w26da2e8eqh)" style="stroke:#A80036;stroke-width:2.0;"/><text fill="#000000" font-family="sans-serif" font-size="14" lengthAdjust="spacing" textLength="78" x="5" y="365.9551">Receptionist</text><ellipse cx="47" cy="379.0313" fill="#FEFECE" filter="url(#f11w26da2e8eqh)" rx="8" ry="8" style="stroke:#A80036;stroke-width:2.0;"/><path d="M47,387.0313 L47,414.0313 M34,395.0313 L60,395.0313 M47,414.0313 L34,429.0313 M47,414.0313 L60,429.0313 " fill="none" filter="url(#f11w26da2e8eqh)" style="stroke:#A80036;stroke-width:2.0;"/><rect fill="#FEFECE" filter="url(#f11w26da2e8eqh)" height="31.6094" style="stroke:#A80036;stroke-width:1.5;" width="64" x="506" y="53"/><text fill="#000000" font-family="sans-serif" font-size="14" lengthAdjust="spacing" textLength="50" x="513" y="74.5332">:System</text><rect fill="#FEFECE" filter="url(#f11w26da2e8eqh)" height="31.6094" style="stroke:#A80036;stroke-width:1.5;" width="64" x="506" y="351.4219"/><text fill="#000000" font-family="sans-serif" font-size="14" lengthAdjust="spacing" textLength="50" x="513" y="372.9551">:System</text><rect fill="#FFFFFF" filter="url(#f11w26da2e8eqh)" height="234.8125" style="stroke:#A80036;stroke-width:1.0;" width="10" x="42" y="99.6094"/><rect fill="#FFFFFF" filter="url(#f11w26da2e8eqh)" height="30.3516" style="stroke:#A80036;stroke-width:1.0;" width="10" x="535" y="121.9609"/><rect fill="#FFFFFF" filter="url(#f11w26da2e8eqh)" height="30.3516" style="stroke:#A80036;stroke-width:1.0;" width="10" x="535" y="182.6641"/><rect fill="#FFFFFF" filter="url(#f11w26da2e8eqh)" height="30.3516" style="stroke:#A80036;stroke-width:1.0;" width="10" x="535" y="243.3672"/><rect fill="#FFFFFF" filter="url(#f11w26da2e8eqh)" height="30.3516" style="stroke:#A80036;stroke-width:1.0;" width="10" x="535" y="304.0703"/><polygon fill="#A80036" points="523,117.9609,533,121.9609,523,125.9609,527,121.9609" style="stroke:#A80036;stroke-width:1.0;"/><line style="stroke:#A80036;stroke-width:1.0;" x1="52" x2="529" y1="121.9609" y2="121.9609"/><text fill="#000000" font-family="sans-serif" font-size="13" font-weight="bold" lengthAdjust="spacing" textLength="7" x="59" y="117.1045">1</text><text fill="#000000" font-family="sans-serif" font-size="13" lengthAdjust="spacing" textLength="232" x="70" y="117.1045">starts registering the arrivel of SNS User</text><polygon fill="#A80036" points="63,148.3125,53,152.3125,63,156.3125,59,152.3125" style="stroke:#A80036;stroke-width:1.0;"/><line style="stroke:#A80036;stroke-width:1.0;stroke-dasharray:2.0,2.0;" x1="57" x2="539" y1="152.3125" y2="152.3125"/><text fill="#000000" font-family="sans-serif" font-size="13" font-weight="bold" lengthAdjust="spacing" textLength="7" x="69" y="147.4561">2</text><text fill="#000000" font-family="sans-serif" font-size="13" lengthAdjust="spacing" textLength="234" x="80" y="147.4561">requests to select the vaccination center</text><polygon fill="#A80036" points="523,178.6641,533,182.6641,523,186.6641,527,182.6641" style="stroke:#A80036;stroke-width:1.0;"/><line style="stroke:#A80036;stroke-width:1.0;" x1="52" x2="529" y1="182.6641" y2="182.6641"/><text fill="#000000" font-family="sans-serif" font-size="13" font-weight="bold" lengthAdjust="spacing" textLength="7" x="59" y="177.8076">3</text><text fill="#000000" font-family="sans-serif" font-size="13" lengthAdjust="spacing" textLength="165" x="70" y="177.8076">select the vaccination center</text><polygon fill="#A80036" points="63,209.0156,53,213.0156,63,217.0156,59,213.0156" style="stroke:#A80036;stroke-width:1.0;"/><line style="stroke:#A80036;stroke-width:1.0;stroke-dasharray:2.0,2.0;" x1="57" x2="539" y1="213.0156" y2="213.0156"/><text fill="#000000" font-family="sans-serif" font-size="13" font-weight="bold" lengthAdjust="spacing" textLength="7" x="69" y="208.1592">4</text><text fill="#000000" font-family="sans-serif" font-size="13" lengthAdjust="spacing" textLength="246" x="80" y="208.1592">request data (snsUserNumber, arrivalTime)</text><polygon fill="#A80036" points="523,239.3672,533,243.3672,523,247.3672,527,243.3672" style="stroke:#A80036;stroke-width:1.0;"/><line style="stroke:#A80036;stroke-width:1.0;" x1="52" x2="529" y1="243.3672" y2="243.3672"/><text fill="#000000" font-family="sans-serif" font-size="13" font-weight="bold" lengthAdjust="spacing" textLength="7" x="59" y="238.5107">5</text><text fill="#000000" font-family="sans-serif" font-size="13" lengthAdjust="spacing" textLength="122" x="70" y="238.5107">types requested data</text><polygon fill="#A80036" points="63,269.7188,53,273.7188,63,277.7188,59,273.7188" style="stroke:#A80036;stroke-width:1.0;"/><line style="stroke:#A80036;stroke-width:1.0;stroke-dasharray:2.0,2.0;" x1="57" x2="539" y1="273.7188" y2="273.7188"/><text fill="#000000" font-family="sans-serif" font-size="13" font-weight="bold" lengthAdjust="spacing" textLength="7" x="69" y="268.8623">6</text><text fill="#000000" font-family="sans-serif" font-size="13" lengthAdjust="spacing" textLength="448" x="80" y="268.8623">shows the SNS User has an Vaccine Schedule s and requests a confirmation</text><polygon fill="#A80036" points="523,300.0703,533,304.0703,523,308.0703,527,304.0703" style="stroke:#A80036;stroke-width:1.0;"/><line style="stroke:#A80036;stroke-width:1.0;" x1="52" x2="529" y1="304.0703" y2="304.0703"/><text fill="#000000" font-family="sans-serif" font-size="13" font-weight="bold" lengthAdjust="spacing" textLength="7" x="59" y="299.2139">7</text><text fill="#000000" font-family="sans-serif" font-size="13" lengthAdjust="spacing" textLength="100" x="70" y="299.2139">confirms the data</text><polygon fill="#A80036" points="58,330.4219,48,334.4219,58,338.4219,54,334.4219" style="stroke:#A80036;stroke-width:1.0;"/><line style="stroke:#A80036;stroke-width:1.0;stroke-dasharray:2.0,2.0;" x1="52" x2="539" y1="334.4219" y2="334.4219"/><text fill="#000000" font-family="sans-serif" font-size="13" font-weight="bold" lengthAdjust="spacing" textLength="7" x="64" y="329.5654">8</text><text fill="#000000" font-family="sans-serif" font-size="13" lengthAdjust="spacing" textLength="152" x="75" y="329.5654">informs operation success</text><!--MD5=[aa85baa4b95275e12cfbe4276623499b]
@startuml US04_SSD
autonumber
actor "Receptionist" as Recp

activate Recp
Recp -> ":System" : starts registering the arrivel of SNS User
activate ":System"
":System" - -> Recp : requests to select the vaccination center
deactivate ":System"

Recp -> ":System" : select the vaccination center
activate ":System"
":System" - -> Recp : request data (snsUserNumber, arrivalTime)
deactivate ":System"

Recp -> ":System" : types requested data
activate ":System"
":System" - -> Recp : shows the SNS User has an Vaccine Schedule s and requests a confirmation
deactivate ":System"

Recp -> ":System" : confirms the data
activate ":System"
":System" - -> Recp : informs operation success
deactivate ":System"

deactivate Recp

@enduml

PlantUML version 1.2022.0(Tue Jan 11 16:16:42 WET 2022)
(GPL source distribution)
Java Runtime: Java(TM) SE Runtime Environment
JVM: Java HotSpot(TM) 64-Bit Server VM
Default Encoding: Cp1252
Language: pt
Country: PT
--></g></svg>