<?xml version="1.0" encoding="UTF-8" standalone="no"?><svg xmlns="http://www.w3.org/2000/svg" xmlns:xlink="http://www.w3.org/1999/xlink" contentScriptType="application/ecmascript" contentStyleType="text/css" height="709px" preserveAspectRatio="none" style="width:1017px;height:709px;background:#FFFFFF;" version="1.1" viewBox="0 0 1017 709" width="1017px" zoomAndPan="magnify"><defs><filter height="300%" id="f1asb16rh3rtly" width="300%" x="-1" y="-1"><feGaussianBlur result="blurOut" stdDeviation="2.0"/><feColorMatrix in="blurOut" result="blurOut2" type="matrix" values="0 0 0 0 0 0 0 0 0 0 0 0 0 0 0 0 0 0 .4 0"/><feOffset dx="4.0" dy="4.0" in="blurOut2" result="blurOut3"/><feBlend in="SourceGraphic" in2="blurOut3" mode="normal"/></filter></defs><g><!--MD5=[8824b6aaccc15e34c58b514197f6f874]
class RegisterSNSUserArrivalUI--><rect codeLine="3" fill="#FEFECE" filter="url(#f1asb16rh3rtly)" height="48" id="RegisterSNSUserArrivalUI" style="stroke:#A80036;stroke-width:1.5;" width="176" x="55.5" y="133"/><ellipse cx="70.5" cy="149" fill="#ADD1B2" rx="11" ry="11" style="stroke:#A80036;stroke-width:1.0;"/><path d="M73.2656,144.875 Q73.4219,144.6563 73.6094,144.5469 Q73.7969,144.4375 74.0156,144.4375 Q74.3906,144.4375 74.625,144.7031 Q74.8594,144.9531 74.8594,145.5625 L74.8594,147.0156 Q74.8594,147.625 74.625,147.8906 Q74.3906,148.1563 74.0156,148.1563 Q73.6719,148.1563 73.4688,147.9531 Q73.2656,147.7656 73.1563,147.25 Q73.1094,146.8906 72.9219,146.7031 Q72.5938,146.3281 71.9844,146.1094 Q71.375,145.8906 70.75,145.8906 Q69.9844,145.8906 69.3438,146.2188 Q68.7188,146.5469 68.2188,147.2969 Q67.7344,148.0469 67.7344,149.0781 L67.7344,150.1719 Q67.7344,151.4063 68.625,152.2344 Q69.5156,153.0469 71.1094,153.0469 Q72.0469,153.0469 72.7031,152.7969 Q73.0938,152.6406 73.5156,152.2031 Q73.7813,151.9375 73.9219,151.8594 Q74.0781,151.7813 74.2813,151.7813 Q74.6094,151.7813 74.8594,152.0469 Q75.125,152.2969 75.125,152.6406 Q75.125,152.9844 74.7813,153.3906 Q74.2813,153.9688 73.4844,154.2969 Q72.4063,154.75 71.1094,154.75 Q69.5938,154.75 68.3906,154.125 Q67.4063,153.625 66.7188,152.5625 Q66.0313,151.4844 66.0313,150.2031 L66.0313,149.0469 Q66.0313,147.7188 66.6406,146.5781 Q67.2656,145.4219 68.3594,144.8125 Q69.4531,144.1875 70.6875,144.1875 Q71.4219,144.1875 72.0625,144.3594 Q72.7188,144.5156 73.2656,144.875 Z " fill="#000000"/><text fill="#000000" font-family="sans-serif" font-size="12" lengthAdjust="spacing" textLength="144" x="84.5" y="153.9102">RegisterSNSUserArrivalUI</text><line style="stroke:#A80036;stroke-width:1.5;" x1="56.5" x2="230.5" y1="165" y2="165"/><line style="stroke:#A80036;stroke-width:1.5;" x1="56.5" x2="230.5" y1="173" y2="173"/><!--MD5=[40e02fac8cc8accf59031f5c8e3a0fb4]
class RegisterSNSUserArrivalController--><rect codeLine="7" fill="#FEFECE" filter="url(#f1asb16rh3rtly)" height="117.1797" id="RegisterSNSUserArrivalController" style="stroke:#A80036;stroke-width:1.5;" width="273" x="7" y="259"/><ellipse cx="46.75" cy="275" fill="#ADD1B2" rx="11" ry="11" style="stroke:#A80036;stroke-width:1.0;"/><path d="M49.5156,270.875 Q49.6719,270.6563 49.8594,270.5469 Q50.0469,270.4375 50.2656,270.4375 Q50.6406,270.4375 50.875,270.7031 Q51.1094,270.9531 51.1094,271.5625 L51.1094,273.0156 Q51.1094,273.625 50.875,273.8906 Q50.6406,274.1563 50.2656,274.1563 Q49.9219,274.1563 49.7188,273.9531 Q49.5156,273.7656 49.4063,273.25 Q49.3594,272.8906 49.1719,272.7031 Q48.8438,272.3281 48.2344,272.1094 Q47.625,271.8906 47,271.8906 Q46.2344,271.8906 45.5938,272.2188 Q44.9688,272.5469 44.4688,273.2969 Q43.9844,274.0469 43.9844,275.0781 L43.9844,276.1719 Q43.9844,277.4063 44.875,278.2344 Q45.7656,279.0469 47.3594,279.0469 Q48.2969,279.0469 48.9531,278.7969 Q49.3438,278.6406 49.7656,278.2031 Q50.0313,277.9375 50.1719,277.8594 Q50.3281,277.7813 50.5313,277.7813 Q50.8594,277.7813 51.1094,278.0469 Q51.375,278.2969 51.375,278.6406 Q51.375,278.9844 51.0313,279.3906 Q50.5313,279.9688 49.7344,280.2969 Q48.6563,280.75 47.3594,280.75 Q45.8438,280.75 44.6406,280.125 Q43.6563,279.625 42.9688,278.5625 Q42.2813,277.4844 42.2813,276.2031 L42.2813,275.0469 Q42.2813,273.7188 42.8906,272.5781 Q43.5156,271.4219 44.6094,270.8125 Q45.7031,270.1875 46.9375,270.1875 Q47.6719,270.1875 48.3125,270.3594 Q48.9688,270.5156 49.5156,270.875 Z " fill="#000000"/><text fill="#000000" font-family="sans-serif" font-size="12" lengthAdjust="spacing" textLength="186" x="66.25" y="279.9102">RegisterSNSUserArrivalController</text><line style="stroke:#A80036;stroke-width:1.5;" x1="8" x2="279" y1="291" y2="291"/><line style="stroke:#A80036;stroke-width:1.5;" x1="8" x2="279" y1="299" y2="299"/><text fill="#000000" font-family="sans-serif" font-size="11" lengthAdjust="spacing" textLength="261" x="13" y="314.4189">+registerSnsUserArrival(snsUserNumber, arrivelTime)</text><text fill="#000000" font-family="sans-serif" font-size="11" lengthAdjust="spacing" textLength="135" x="13" y="328.2549">+getVaccinationCenterList()</text><text fill="#000000" font-family="sans-serif" font-size="11" lengthAdjust="spacing" textLength="112" x="13" y="342.0908">+saveSnsUserArrival()</text><text fill="#000000" font-family="sans-serif" font-size="11" lengthAdjust="spacing" textLength="125" x="13" y="355.9268">+validateSnsUserArrival()</text><text fill="#000000" font-family="sans-serif" font-size="11" lengthAdjust="spacing" textLength="250" x="13" y="369.7627">+validateSnsUserVacineSchedule(snsUserNumber)</text><!--MD5=[72be06cc7ae02ccc98efe28a50e62246]
class SNSUser--><rect codeLine="15" fill="#FEFECE" filter="url(#f1asb16rh3rtly)" height="61.8359" id="SNSUser" style="stroke:#A80036;stroke-width:1.5;" width="108" x="863.5" y="544"/><ellipse cx="889.3" cy="560" fill="#ADD1B2" rx="11" ry="11" style="stroke:#A80036;stroke-width:1.0;"/><path d="M892.0656,555.875 Q892.2219,555.6563 892.4094,555.5469 Q892.5969,555.4375 892.8156,555.4375 Q893.1906,555.4375 893.425,555.7031 Q893.6594,555.9531 893.6594,556.5625 L893.6594,558.0156 Q893.6594,558.625 893.425,558.8906 Q893.1906,559.1563 892.8156,559.1563 Q892.4719,559.1563 892.2688,558.9531 Q892.0656,558.7656 891.9563,558.25 Q891.9094,557.8906 891.7219,557.7031 Q891.3938,557.3281 890.7844,557.1094 Q890.175,556.8906 889.55,556.8906 Q888.7844,556.8906 888.1438,557.2188 Q887.5188,557.5469 887.0188,558.2969 Q886.5344,559.0469 886.5344,560.0781 L886.5344,561.1719 Q886.5344,562.4063 887.425,563.2344 Q888.3156,564.0469 889.9094,564.0469 Q890.8469,564.0469 891.5031,563.7969 Q891.8938,563.6406 892.3156,563.2031 Q892.5813,562.9375 892.7219,562.8594 Q892.8781,562.7813 893.0813,562.7813 Q893.4094,562.7813 893.6594,563.0469 Q893.925,563.2969 893.925,563.6406 Q893.925,563.9844 893.5813,564.3906 Q893.0813,564.9688 892.2844,565.2969 Q891.2063,565.75 889.9094,565.75 Q888.3938,565.75 887.1906,565.125 Q886.2063,564.625 885.5188,563.5625 Q884.8313,562.4844 884.8313,561.2031 L884.8313,560.0469 Q884.8313,558.7188 885.4406,557.5781 Q886.0656,556.4219 887.1594,555.8125 Q888.2531,555.1875 889.4875,555.1875 Q890.2219,555.1875 890.8625,555.3594 Q891.5188,555.5156 892.0656,555.875 Z " fill="#000000"/><text fill="#000000" font-family="sans-serif" font-size="12" lengthAdjust="spacing" textLength="52" x="905.7" y="564.9102">SNSUser</text><line style="stroke:#A80036;stroke-width:1.5;" x1="864.5" x2="970.5" y1="576" y2="576"/><text fill="#000000" font-family="sans-serif" font-size="11" lengthAdjust="spacing" textLength="96" x="869.5" y="591.4189">-Int snsUserNumber</text><line style="stroke:#A80036;stroke-width:1.5;" x1="864.5" x2="970.5" y1="597.8359" y2="597.8359"/><!--MD5=[de60e6d4f424ae4d0522096f76a59010]
class VaccinationCenter--><rect codeLine="19" fill="#FEFECE" filter="url(#f1asb16rh3rtly)" height="241.7031" id="VaccinationCenter" style="stroke:#A80036;stroke-width:1.5;" width="273" x="264" y="454"/><ellipse cx="346.25" cy="470" fill="#ADD1B2" rx="11" ry="11" style="stroke:#A80036;stroke-width:1.0;"/><path d="M349.0156,465.875 Q349.1719,465.6563 349.3594,465.5469 Q349.5469,465.4375 349.7656,465.4375 Q350.1406,465.4375 350.375,465.7031 Q350.6094,465.9531 350.6094,466.5625 L350.6094,468.0156 Q350.6094,468.625 350.375,468.8906 Q350.1406,469.1563 349.7656,469.1563 Q349.4219,469.1563 349.2188,468.9531 Q349.0156,468.7656 348.9063,468.25 Q348.8594,467.8906 348.6719,467.7031 Q348.3438,467.3281 347.7344,467.1094 Q347.125,466.8906 346.5,466.8906 Q345.7344,466.8906 345.0938,467.2188 Q344.4688,467.5469 343.9688,468.2969 Q343.4844,469.0469 343.4844,470.0781 L343.4844,471.1719 Q343.4844,472.4063 344.375,473.2344 Q345.2656,474.0469 346.8594,474.0469 Q347.7969,474.0469 348.4531,473.7969 Q348.8438,473.6406 349.2656,473.2031 Q349.5313,472.9375 349.6719,472.8594 Q349.8281,472.7813 350.0313,472.7813 Q350.3594,472.7813 350.6094,473.0469 Q350.875,473.2969 350.875,473.6406 Q350.875,473.9844 350.5313,474.3906 Q350.0313,474.9688 349.2344,475.2969 Q348.1563,475.75 346.8594,475.75 Q345.3438,475.75 344.1406,475.125 Q343.1563,474.625 342.4688,473.5625 Q341.7813,472.4844 341.7813,471.2031 L341.7813,470.0469 Q341.7813,468.7188 342.3906,467.5781 Q343.0156,466.4219 344.1094,465.8125 Q345.2031,465.1875 346.4375,465.1875 Q347.1719,465.1875 347.8125,465.3594 Q348.4688,465.5156 349.0156,465.875 Z " fill="#000000"/><text fill="#000000" font-family="sans-serif" font-size="12" lengthAdjust="spacing" textLength="100" x="366.75" y="474.9102">VaccinationCenter</text><line style="stroke:#A80036;stroke-width:1.5;" x1="265" x2="536" y1="486" y2="486"/><text fill="#000000" font-family="sans-serif" font-size="11" lengthAdjust="spacing" textLength="61" x="270" y="501.4189">-String name</text><text fill="#000000" font-family="sans-serif" font-size="11" lengthAdjust="spacing" textLength="102" x="270" y="515.2549">-String phoneNumber</text><text fill="#000000" font-family="sans-serif" font-size="11" lengthAdjust="spacing" textLength="101" x="270" y="529.0908">-String emailAddress</text><text fill="#000000" font-family="sans-serif" font-size="11" lengthAdjust="spacing" textLength="88" x="270" y="542.9268">-String faxNumber</text><text fill="#000000" font-family="sans-serif" font-size="11" lengthAdjust="spacing" textLength="116" x="270" y="556.7627">-String websiteAddress</text><text fill="#000000" font-family="sans-serif" font-size="11" lengthAdjust="spacing" textLength="90" x="270" y="570.5986">-Time openingHour</text><text fill="#000000" font-family="sans-serif" font-size="11" lengthAdjust="spacing" textLength="86" x="270" y="584.4346">-Time closingHour</text><text fill="#000000" font-family="sans-serif" font-size="11" lengthAdjust="spacing" textLength="75" x="270" y="598.2705">-Int slotDuration</text><text fill="#000000" font-family="sans-serif" font-size="11" lengthAdjust="spacing" textLength="105" x="270" y="612.1064">-Int maxNumVaccines</text><text fill="#000000" font-family="sans-serif" font-size="11" lengthAdjust="spacing" textLength="122" x="270" y="625.9424">-String centerCoordinator</text><text fill="#000000" font-family="sans-serif" font-size="11" lengthAdjust="spacing" textLength="89" x="270" y="639.7783">-Address address</text><line style="stroke:#A80036;stroke-width:1.5;" x1="265" x2="536" y1="646.1953" y2="646.1953"/><text fill="#000000" font-family="sans-serif" font-size="11" lengthAdjust="spacing" textLength="261" x="270" y="661.6143">+registerSnsUserArrival(snsUserNumber, arrivelTime)</text><text fill="#000000" font-family="sans-serif" font-size="11" lengthAdjust="spacing" textLength="112" x="270" y="675.4502">+saveSnsUserArrival()</text><text fill="#000000" font-family="sans-serif" font-size="11" lengthAdjust="spacing" textLength="125" x="270" y="689.2861">+validateSnsUserArrival()</text><!--MD5=[7421f545a0d8420c5bec41e74b387d9c]
class Employee--><rect codeLine="36" fill="#FEFECE" filter="url(#f1asb16rh3rtly)" height="48" id="Employee" style="stroke:#A80036;stroke-width:1.5;" width="87" x="319" y="7"/><ellipse cx="334" cy="23" fill="#ADD1B2" rx="11" ry="11" style="stroke:#A80036;stroke-width:1.0;"/><path d="M336.7656,18.875 Q336.9219,18.6563 337.1094,18.5469 Q337.2969,18.4375 337.5156,18.4375 Q337.8906,18.4375 338.125,18.7031 Q338.3594,18.9531 338.3594,19.5625 L338.3594,21.0156 Q338.3594,21.625 338.125,21.8906 Q337.8906,22.1563 337.5156,22.1563 Q337.1719,22.1563 336.9688,21.9531 Q336.7656,21.7656 336.6563,21.25 Q336.6094,20.8906 336.4219,20.7031 Q336.0938,20.3281 335.4844,20.1094 Q334.875,19.8906 334.25,19.8906 Q333.4844,19.8906 332.8438,20.2188 Q332.2188,20.5469 331.7188,21.2969 Q331.2344,22.0469 331.2344,23.0781 L331.2344,24.1719 Q331.2344,25.4063 332.125,26.2344 Q333.0156,27.0469 334.6094,27.0469 Q335.5469,27.0469 336.2031,26.7969 Q336.5938,26.6406 337.0156,26.2031 Q337.2813,25.9375 337.4219,25.8594 Q337.5781,25.7813 337.7813,25.7813 Q338.1094,25.7813 338.3594,26.0469 Q338.625,26.2969 338.625,26.6406 Q338.625,26.9844 338.2813,27.3906 Q337.7813,27.9688 336.9844,28.2969 Q335.9063,28.75 334.6094,28.75 Q333.0938,28.75 331.8906,28.125 Q330.9063,27.625 330.2188,26.5625 Q329.5313,25.4844 329.5313,24.2031 L329.5313,23.0469 Q329.5313,21.7188 330.1406,20.5781 Q330.7656,19.4219 331.8594,18.8125 Q332.9531,18.1875 334.1875,18.1875 Q334.9219,18.1875 335.5625,18.3594 Q336.2188,18.5156 336.7656,18.875 Z " fill="#000000"/><text fill="#000000" font-family="sans-serif" font-size="12" lengthAdjust="spacing" textLength="55" x="348" y="27.9102">Employee</text><line style="stroke:#A80036;stroke-width:1.5;" x1="320" x2="405" y1="39" y2="39"/><line style="stroke:#A80036;stroke-width:1.5;" x1="320" x2="405" y1="47" y2="47"/><!--MD5=[03960189e81aa2c066c762ffabbee709]
class Receptionist--><rect codeLine="40" fill="#FEFECE" filter="url(#f1asb16rh3rtly)" height="48" id="Receptionist" style="stroke:#A80036;stroke-width:1.5;" width="101" x="694" y="133"/><ellipse cx="709" cy="149" fill="#ADD1B2" rx="11" ry="11" style="stroke:#A80036;stroke-width:1.0;"/><path d="M711.7656,144.875 Q711.9219,144.6563 712.1094,144.5469 Q712.2969,144.4375 712.5156,144.4375 Q712.8906,144.4375 713.125,144.7031 Q713.3594,144.9531 713.3594,145.5625 L713.3594,147.0156 Q713.3594,147.625 713.125,147.8906 Q712.8906,148.1563 712.5156,148.1563 Q712.1719,148.1563 711.9688,147.9531 Q711.7656,147.7656 711.6563,147.25 Q711.6094,146.8906 711.4219,146.7031 Q711.0938,146.3281 710.4844,146.1094 Q709.875,145.8906 709.25,145.8906 Q708.4844,145.8906 707.8438,146.2188 Q707.2188,146.5469 706.7188,147.2969 Q706.2344,148.0469 706.2344,149.0781 L706.2344,150.1719 Q706.2344,151.4063 707.125,152.2344 Q708.0156,153.0469 709.6094,153.0469 Q710.5469,153.0469 711.2031,152.7969 Q711.5938,152.6406 712.0156,152.2031 Q712.2813,151.9375 712.4219,151.8594 Q712.5781,151.7813 712.7813,151.7813 Q713.1094,151.7813 713.3594,152.0469 Q713.625,152.2969 713.625,152.6406 Q713.625,152.9844 713.2813,153.3906 Q712.7813,153.9688 711.9844,154.2969 Q710.9063,154.75 709.6094,154.75 Q708.0938,154.75 706.8906,154.125 Q705.9063,153.625 705.2188,152.5625 Q704.5313,151.4844 704.5313,150.2031 L704.5313,149.0469 Q704.5313,147.7188 705.1406,146.5781 Q705.7656,145.4219 706.8594,144.8125 Q707.9531,144.1875 709.1875,144.1875 Q709.9219,144.1875 710.5625,144.3594 Q711.2188,144.5156 711.7656,144.875 Z " fill="#000000"/><text fill="#000000" font-family="sans-serif" font-size="12" lengthAdjust="spacing" textLength="69" x="723" y="153.9102">Receptionist</text><line style="stroke:#A80036;stroke-width:1.5;" x1="695" x2="794" y1="165" y2="165"/><line style="stroke:#A80036;stroke-width:1.5;" x1="695" x2="794" y1="173" y2="173"/><!--MD5=[a29876ea2f21a6ca48ea477740122fd8]
class VaccinationCenterStore--><rect codeLine="44" fill="#FEFECE" filter="url(#f1asb16rh3rtly)" height="61.8359" id="VaccinationCenterStore" style="stroke:#A80036;stroke-width:1.5;" width="161" x="387" y="286.5"/><ellipse cx="402" cy="302.5" fill="#ADD1B2" rx="11" ry="11" style="stroke:#A80036;stroke-width:1.0;"/><path d="M404.7656,298.375 Q404.9219,298.1563 405.1094,298.0469 Q405.2969,297.9375 405.5156,297.9375 Q405.8906,297.9375 406.125,298.2031 Q406.3594,298.4531 406.3594,299.0625 L406.3594,300.5156 Q406.3594,301.125 406.125,301.3906 Q405.8906,301.6563 405.5156,301.6563 Q405.1719,301.6563 404.9688,301.4531 Q404.7656,301.2656 404.6563,300.75 Q404.6094,300.3906 404.4219,300.2031 Q404.0938,299.8281 403.4844,299.6094 Q402.875,299.3906 402.25,299.3906 Q401.4844,299.3906 400.8438,299.7188 Q400.2188,300.0469 399.7188,300.7969 Q399.2344,301.5469 399.2344,302.5781 L399.2344,303.6719 Q399.2344,304.9063 400.125,305.7344 Q401.0156,306.5469 402.6094,306.5469 Q403.5469,306.5469 404.2031,306.2969 Q404.5938,306.1406 405.0156,305.7031 Q405.2813,305.4375 405.4219,305.3594 Q405.5781,305.2813 405.7813,305.2813 Q406.1094,305.2813 406.3594,305.5469 Q406.625,305.7969 406.625,306.1406 Q406.625,306.4844 406.2813,306.8906 Q405.7813,307.4688 404.9844,307.7969 Q403.9063,308.25 402.6094,308.25 Q401.0938,308.25 399.8906,307.625 Q398.9063,307.125 398.2188,306.0625 Q397.5313,304.9844 397.5313,303.7031 L397.5313,302.5469 Q397.5313,301.2188 398.1406,300.0781 Q398.7656,298.9219 399.8594,298.3125 Q400.9531,297.6875 402.1875,297.6875 Q402.9219,297.6875 403.5625,297.8594 Q404.2188,298.0156 404.7656,298.375 Z " fill="#000000"/><text fill="#000000" font-family="sans-serif" font-size="12" lengthAdjust="spacing" textLength="129" x="416" y="307.4102">VaccinationCenterStore</text><line style="stroke:#A80036;stroke-width:1.5;" x1="388" x2="547" y1="318.5" y2="318.5"/><line style="stroke:#A80036;stroke-width:1.5;" x1="388" x2="547" y1="326.5" y2="326.5"/><text fill="#000000" font-family="sans-serif" font-size="11" lengthAdjust="spacing" textLength="135" x="393" y="341.9189">+getVaccinationCenterList()</text><!--MD5=[cd4ce1c0d44638ff9f42448de30e6b92]
class VaccineSchedule--><rect codeLine="48" fill="#FEFECE" filter="url(#f1asb16rh3rtly)" height="89.5078" id="VaccineSchedule" style="stroke:#A80036;stroke-width:1.5;" width="322" x="583.5" y="272.5"/><ellipse cx="692.75" cy="288.5" fill="#ADD1B2" rx="11" ry="11" style="stroke:#A80036;stroke-width:1.0;"/><path d="M695.5156,284.375 Q695.6719,284.1563 695.8594,284.0469 Q696.0469,283.9375 696.2656,283.9375 Q696.6406,283.9375 696.875,284.2031 Q697.1094,284.4531 697.1094,285.0625 L697.1094,286.5156 Q697.1094,287.125 696.875,287.3906 Q696.6406,287.6563 696.2656,287.6563 Q695.9219,287.6563 695.7188,287.4531 Q695.5156,287.2656 695.4063,286.75 Q695.3594,286.3906 695.1719,286.2031 Q694.8438,285.8281 694.2344,285.6094 Q693.625,285.3906 693,285.3906 Q692.2344,285.3906 691.5938,285.7188 Q690.9688,286.0469 690.4688,286.7969 Q689.9844,287.5469 689.9844,288.5781 L689.9844,289.6719 Q689.9844,290.9063 690.875,291.7344 Q691.7656,292.5469 693.3594,292.5469 Q694.2969,292.5469 694.9531,292.2969 Q695.3438,292.1406 695.7656,291.7031 Q696.0313,291.4375 696.1719,291.3594 Q696.3281,291.2813 696.5313,291.2813 Q696.8594,291.2813 697.1094,291.5469 Q697.375,291.7969 697.375,292.1406 Q697.375,292.4844 697.0313,292.8906 Q696.5313,293.4688 695.7344,293.7969 Q694.6563,294.25 693.3594,294.25 Q691.8438,294.25 690.6406,293.625 Q689.6563,293.125 688.9688,292.0625 Q688.2813,290.9844 688.2813,289.7031 L688.2813,288.5469 Q688.2813,287.2188 688.8906,286.0781 Q689.5156,284.9219 690.6094,284.3125 Q691.7031,283.6875 692.9375,283.6875 Q693.6719,283.6875 694.3125,283.8594 Q694.9688,284.0156 695.5156,284.375 Z " fill="#000000"/><text fill="#000000" font-family="sans-serif" font-size="12" lengthAdjust="spacing" textLength="95" x="713.25" y="293.4102">VaccineSchedule</text><line style="stroke:#A80036;stroke-width:1.5;" x1="584.5" x2="904.5" y1="304.5" y2="304.5"/><text fill="#000000" font-family="sans-serif" font-size="11" lengthAdjust="spacing" textLength="76" x="589.5" y="319.9189">-LocalDate date</text><text fill="#000000" font-family="sans-serif" font-size="11" lengthAdjust="spacing" textLength="48" x="589.5" y="333.7549">-Time time</text><line style="stroke:#A80036;stroke-width:1.5;" x1="584.5" x2="904.5" y1="340.1719" y2="340.1719"/><text fill="#000000" font-family="sans-serif" font-size="11" lengthAdjust="spacing" textLength="310" x="589.5" y="355.5908">+validateSnsUserVacineSchedule(scheduleDate, scheduleTime)</text><!--MD5=[27947440cc9afdf8522ce84f95d7987e]
link RegisterSNSUserArrivalUI to RegisterSNSUserArrivalController--><path codeLine="54" d="M143.5,181.05 C143.5,200.12 143.5,228.15 143.5,253.77 " fill="none" id="RegisterSNSUserArrivalUI-to-RegisterSNSUserArrivalController" style="stroke:#A80036;stroke-width:1.0;stroke-dasharray:7.0,7.0;"/><polygon fill="#A80036" points="143.5,258.86,147.5,249.86,143.5,253.86,139.5,249.86,143.5,258.86" style="stroke:#A80036;stroke-width:1.0;"/><!--MD5=[9f91c19b7c5a4bc75fd677720e2d189d]
link RegisterSNSUserArrivalController to VaccinationCenter--><path codeLine="55" d="M201.5,376.16 C223.65,398.18 249.85,424.23 275.85,450.07 " fill="none" id="RegisterSNSUserArrivalController-to-VaccinationCenter" style="stroke:#A80036;stroke-width:1.0;stroke-dasharray:7.0,7.0;"/><polygon fill="#A80036" points="279.68,453.88,276.1259,444.6948,276.1373,450.3516,270.4805,450.363,279.68,453.88" style="stroke:#A80036;stroke-width:1.0;"/><!--MD5=[8c304936b446fd8cea914e03fbadd4b7]
link VaccinationCenterStore to VaccinationCenter--><path codeLine="57" d="M459.62,348.56 C452.72,374.88 442.22,414.91 431.97,453.98 " fill="none" id="VaccinationCenterStore-VaccinationCenter" style="stroke:#A80036;stroke-width:1.0;"/><polygon fill="#000000" points="447.2315,420.0122,452.369,412.0087,446.6835,410.5174,447.2315,420.0122" style="stroke:#000000;stroke-width:1.0;"/><text fill="#000000" font-family="sans-serif" font-size="13" lengthAdjust="spacing" textLength="21" x="457.5" y="420.4951">has</text><text fill="#000000" font-family="sans-serif" font-size="13" lengthAdjust="spacing" textLength="7" x="450.3796" y="369.7958">1</text><text fill="#000000" font-family="sans-serif" font-size="13" lengthAdjust="spacing" textLength="5" x="428.8259" y="443.2305">*</text><!--MD5=[1da12df22706e73e1def33b218b7f412]
link Employee to Receptionist--><path codeLine="59" d="M406.32,46.22 C477.66,69.38 618.49,115.1 693.95,139.59 " fill="none" id="Employee-Receptionist" style="stroke:#A80036;stroke-width:1.0;"/><text fill="#000000" font-family="sans-serif" font-size="13" lengthAdjust="spacing" textLength="24" x="576.5" y="99.4951">is of</text><text fill="#000000" font-family="sans-serif" font-size="13" lengthAdjust="spacing" textLength="5" x="413.9917" y="44.94">*</text><text fill="#000000" font-family="sans-serif" font-size="13" lengthAdjust="spacing" textLength="7" x="679.0114" y="133.3788">1</text><!--MD5=[7454cd36f47ee2c1597ee5b79ae5e9ce]
link Employee to VaccinationCenter--><path codeLine="60" d="M361.9,55 C360.69,110.39 358.89,255.5 369.5,376 C371.73,401.3 375.21,428.27 379.04,453.91 " fill="none" id="Employee-VaccinationCenter" style="stroke:#A80036;stroke-width:1.0;"/><text fill="#000000" font-family="sans-serif" font-size="13" lengthAdjust="spacing" textLength="52" x="363.5" y="225.4951">works on</text><text fill="#000000" font-family="sans-serif" font-size="13" lengthAdjust="spacing" textLength="20" x="339.3162" y="76.338">1..*</text><text fill="#000000" font-family="sans-serif" font-size="13" lengthAdjust="spacing" textLength="7" x="370.441" y="443.1561">1</text><!--MD5=[7690a4971bd8576b261a40a0340b8203]
link Receptionist to SNSUser--><path codeLine="61" d="M795.16,171.14 C837.79,185.16 896.06,212.01 923.5,259 C977.01,350.63 945.97,484.28 927.8,543.64 " fill="none" id="Receptionist-SNSUser" style="stroke:#A80036;stroke-width:1.0;"/><text fill="#000000" font-family="sans-serif" font-size="13" lengthAdjust="spacing" textLength="56" x="953.5" y="322.9951">checks in</text><text fill="#000000" font-family="sans-serif" font-size="13" lengthAdjust="spacing" textLength="7" x="803.1148" y="169.5627">1</text><text fill="#000000" font-family="sans-serif" font-size="13" lengthAdjust="spacing" textLength="20" x="907.8619" y="533.0703">1..*</text><!--MD5=[4b1cbd5f2b82fe473c8138e32680fa60]
link Receptionist to VaccineSchedule--><path codeLine="62" d="M716.14,181.1 C707.87,189.54 699.89,199.8 695.5,211 C687.48,231.5 695.17,253.67 706.65,272.37 " fill="none" id="Receptionist-VaccineSchedule" style="stroke:#A80036;stroke-width:1.0;"/><text fill="#000000" font-family="sans-serif" font-size="13" lengthAdjust="spacing" textLength="49" x="696.5" y="225.4951">confirms</text><text fill="#000000" font-family="sans-serif" font-size="13" lengthAdjust="spacing" textLength="7" x="701.3741" y="202.4623">1</text><text fill="#000000" font-family="sans-serif" font-size="13" lengthAdjust="spacing" textLength="20" x="679.323" y="261.7942">1..*</text><!--MD5=[4b1cbd5f2b82fe473c8138e32680fa60]
link Receptionist to VaccineSchedule--><path codeLine="63" d="M747.7,181.17 C748.82,190.43 749.95,201.2 750.5,211 C751.64,231.15 750.69,253.46 749.24,272.36 " fill="none" id="Receptionist-VaccineSchedule-1" style="stroke:#A80036;stroke-width:1.0;"/><text fill="#000000" font-family="sans-serif" font-size="13" lengthAdjust="spacing" textLength="59" x="751.5" y="225.4951">schedules</text><text fill="#000000" font-family="sans-serif" font-size="13" lengthAdjust="spacing" textLength="7" x="740.6269" y="202.5494">1</text><text fill="#000000" font-family="sans-serif" font-size="13" lengthAdjust="spacing" textLength="5" x="744.583" y="261.7827">*</text><!--MD5=[8e51fd2526d7ed1449c2aa4f1c32bf49]
link VaccineSchedule to SNSUser--><path codeLine="64" d="M774.44,362.71 C809.54,414.56 866.78,499.09 897.12,543.91 " fill="none" id="VaccineSchedule-SNSUser" style="stroke:#A80036;stroke-width:1.0;"/><text fill="#000000" font-family="sans-serif" font-size="13" lengthAdjust="spacing" textLength="61" x="816.5" y="420.4951">created for</text><text fill="#000000" font-family="sans-serif" font-size="13" lengthAdjust="spacing" textLength="20" x="757.1194" y="383.4119">1..*</text><text fill="#000000" font-family="sans-serif" font-size="13" lengthAdjust="spacing" textLength="7" x="884.8963" y="532.9106">1</text><!--MD5=[18968283628c2f508e56f30aee4bc691]
link VaccineSchedule to VaccinationCenter--><path codeLine="65" d="M684.97,362.71 C644.21,392.99 588.43,434.42 537.06,472.58 " fill="none" id="VaccineSchedule-VaccinationCenter" style="stroke:#A80036;stroke-width:1.0;"/><text fill="#000000" font-family="sans-serif" font-size="13" lengthAdjust="spacing" textLength="67" x="623.5" y="420.4951">allocated to</text><text fill="#000000" font-family="sans-serif" font-size="13" lengthAdjust="spacing" textLength="20" x="655.6269" y="383.4119">1..*</text><text fill="#000000" font-family="sans-serif" font-size="13" lengthAdjust="spacing" textLength="7" x="545.1572" y="463.7102">1</text><!--MD5=[e34c76a6e56373960c01b4d72bb67815]
@startuml US04_CD
skinparam classAttributeIconSize 0

class RegisterSNSUserArrivalUI {
  
}

class RegisterSNSUserArrivalController {
  +registerSnsUserArrival(snsUserNumber, arrivelTime)
  +getVaccinationCenterList()
  +saveSnsUserArrival()
  +validateSnsUserArrival()
  +validateSnsUserVacineSchedule(snsUserNumber)
}

class SNSUser {
    -Int snsUserNumber
}

class VaccinationCenter {
    -String name
    -String phoneNumber
    -String emailAddress
    -String faxNumber
    -String websiteAddress
    -Time openingHour
    -Time closingHour
    -Int slotDuration
    -Int maxNumVaccines
    -String centerCoordinator
    -Address address
    +registerSnsUserArrival(snsUserNumber, arrivelTime)
    +saveSnsUserArrival()
    +validateSnsUserArrival()
}

class Employee {

}

class Receptionist {

}

Class VaccinationCenterStore{
    +getVaccinationCenterList()
}

class VaccineSchedule {
    -LocalDate date
    -Time time
    +validateSnsUserVacineSchedule(scheduleDate, scheduleTime)
}

RegisterSNSUserArrivalUI ..> RegisterSNSUserArrivalController
RegisterSNSUserArrivalController ..> VaccinationCenter

VaccinationCenterStore "1" - - "*" VaccinationCenter : has >

Employee "*" - - "1" Receptionist : is of
Employee "1..*" - - "1" VaccinationCenter : works on
Receptionist "1" - - "1..*" SNSUser : checks in
Receptionist "1" - - "1..*" VaccineSchedule : confirms 
Receptionist "1" - - "*" VaccineSchedule : schedules 
VaccineSchedule "1..*" - - "1" SNSUser :  created for 
VaccineSchedule "1..*" - - "1" VaccinationCenter :  allocated to 

@enduml

PlantUML version 1.2022.0(Tue Jan 11 16:16:42 WET 2022)
(GPL source distribution)
Java Runtime: Java(TM) SE Runtime Environment
JVM: Java HotSpot(TM) 64-Bit Server VM
Default Encoding: Cp1252
Language: pt
Country: PT
--></g></svg>