<?xml version="1.0" encoding="UTF-8" standalone="no"?><svg xmlns="http://www.w3.org/2000/svg" xmlns:xlink="http://www.w3.org/1999/xlink" contentStyleType="text/css" height="288px" preserveAspectRatio="none" style="width:1036px;height:288px;background:#FFFFFF;" version="1.1" viewBox="0 0 1036 288" width="1036px" zoomAndPan="magnify"><defs/><g><!--MD5=[02e4b9b7573f1156f41e60aa5b4e25a4]
class Company--><g id="elem_Company"><rect codeLine="5" fill="#F1F1F1" height="57.6094" id="Company" rx="2.5" ry="2.5" style="stroke:#181818;stroke-width:0.5;" width="139" x="7" y="150.5"/><ellipse cx="43.15" cy="166.5" fill="#ADD1B2" rx="11" ry="11" style="stroke:#181818;stroke-width:1.0;"/><path d="M45.15,163 Q45.3531,162.5 45.5875,162.25 Q45.8219,162 46.0875,162 Q46.5563,162 46.8531,162.2813 Q47.15,162.5625 47.15,163.2188 L47.15,164.7813 Q47.15,165.4375 46.8688,165.7188 Q46.5875,166 46.15,166 Q45.7594,166 45.5094,165.8281 Q45.2594,165.6563 45.15,165.2031 Q45.1031,164.8906 44.9313,164.7188 Q44.6188,164.3906 44.0563,164.2031 Q43.4938,164 42.9313,164 Q42.2281,164 41.6344,164.2813 Q41.0563,164.5625 40.6031,165.1875 Q40.15,165.8125 40.15,166.6719 L40.15,167.5938 Q40.15,168.625 40.9938,169.3125 Q41.8375,170 43.3375,170 Q44.2281,170 44.8531,169.7969 Q45.2125,169.6875 45.6188,169.3281 Q45.8844,169.125 46.025,169.0625 Q46.1656,169 46.3375,169 Q46.6656,169 46.9,169.2656 Q47.15,169.5156 47.15,169.875 Q47.15,170.2188 46.8063,170.625 Q46.3063,171.2188 45.5094,171.5469 Q44.4625,172 43.1813,172 Q41.6813,172 40.4781,171.4063 Q39.5094,170.9375 38.8219,169.9219 Q38.15,168.9063 38.15,167.7031 L38.15,166.6094 Q38.15,165.3594 38.7438,164.2656 Q39.3531,163.1719 40.4,162.5938 Q41.4625,162 42.65,162 Q43.3688,162 43.9938,162.25 Q44.6188,162.5 45.15,163 Z " fill="#000000"/><text fill="#000000" font-family="sans-serif" font-size="14" lengthAdjust="spacing" textLength="60" x="61.85" y="172.2285">Company</text><line style="stroke:#181818;stroke-width:0.5;" x1="8" x2="145" y1="182.5" y2="182.5"/><text fill="#000000" font-family="sans-serif" font-size="14" lengthAdjust="spacing" textLength="127" x="13" y="201.0332">-designation : String</text></g><!--MD5=[19e445fc4d3b48519cbe33da05496394]
class Vaccine--><g id="elem_Vaccine"><rect codeLine="9" fill="#F1F1F1" height="128.0469" id="Vaccine" rx="2.5" ry="2.5" style="stroke:#181818;stroke-width:0.5;" width="308" x="463" y="27.5"/><ellipse cx="587.75" cy="43.5" fill="#ADD1B2" rx="11" ry="11" style="stroke:#181818;stroke-width:1.0;"/><path d="M589.75,40 Q589.9531,39.5 590.1875,39.25 Q590.4219,39 590.6875,39 Q591.1563,39 591.4531,39.2813 Q591.75,39.5625 591.75,40.2188 L591.75,41.7813 Q591.75,42.4375 591.4688,42.7188 Q591.1875,43 590.75,43 Q590.3594,43 590.1094,42.8281 Q589.8594,42.6563 589.75,42.2031 Q589.7031,41.8906 589.5313,41.7188 Q589.2188,41.3906 588.6563,41.2031 Q588.0938,41 587.5313,41 Q586.8281,41 586.2344,41.2813 Q585.6563,41.5625 585.2031,42.1875 Q584.75,42.8125 584.75,43.6719 L584.75,44.5938 Q584.75,45.625 585.5938,46.3125 Q586.4375,47 587.9375,47 Q588.8281,47 589.4531,46.7969 Q589.8125,46.6875 590.2188,46.3281 Q590.4844,46.125 590.625,46.0625 Q590.7656,46 590.9375,46 Q591.2656,46 591.5,46.2656 Q591.75,46.5156 591.75,46.875 Q591.75,47.2188 591.4063,47.625 Q590.9063,48.2188 590.1094,48.5469 Q589.0625,49 587.7813,49 Q586.2813,49 585.0781,48.4063 Q584.1094,47.9375 583.4219,46.9219 Q582.75,45.9063 582.75,44.7031 L582.75,43.6094 Q582.75,42.3594 583.3438,41.2656 Q583.9531,40.1719 585,39.5938 Q586.0625,39 587.25,39 Q587.9688,39 588.5938,39.25 Q589.2188,39.5 589.75,40 Z " fill="#000000"/><text fill="#000000" font-family="sans-serif" font-size="14" lengthAdjust="spacing" textLength="50" x="608.25" y="49.2285">Vaccine</text><line style="stroke:#181818;stroke-width:0.5;" x1="464" x2="770" y1="59.5" y2="59.5"/><text fill="#000000" font-family="sans-serif" font-size="14" lengthAdjust="spacing" textLength="43" x="469" y="78.0332">-id : int</text><text fill="#000000" font-family="sans-serif" font-size="14" lengthAdjust="spacing" textLength="89" x="469" y="95.6426">-name : String</text><text fill="#000000" font-family="sans-serif" font-size="14" lengthAdjust="spacing" textLength="138" x="469" y="113.252">-manufacturer : String</text><text fill="#000000" font-family="sans-serif" font-size="14" lengthAdjust="spacing" textLength="126" x="469" y="130.8613">-type : VaccineType</text><text fill="#000000" font-family="sans-serif" font-size="14" lengthAdjust="spacing" textLength="296" x="469" y="148.4707">-administrationProcess : AdministrationProcess</text></g><!--MD5=[0e501da62322464167c8ec4d233a6b7e]
class VaccineType--><g id="elem_VaccineType"><rect codeLine="17" fill="#F1F1F1" height="92.8281" id="VaccineType" rx="2.5" ry="2.5" style="stroke:#181818;stroke-width:0.5;" width="139" x="873.5" y="7"/><ellipse cx="899.75" cy="23" fill="#ADD1B2" rx="11" ry="11" style="stroke:#181818;stroke-width:1.0;"/><path d="M901.75,19.5 Q901.9531,19 902.1875,18.75 Q902.4219,18.5 902.6875,18.5 Q903.1563,18.5 903.4531,18.7813 Q903.75,19.0625 903.75,19.7188 L903.75,21.2813 Q903.75,21.9375 903.4688,22.2188 Q903.1875,22.5 902.75,22.5 Q902.3594,22.5 902.1094,22.3281 Q901.8594,22.1563 901.75,21.7031 Q901.7031,21.3906 901.5313,21.2188 Q901.2188,20.8906 900.6563,20.7031 Q900.0938,20.5 899.5313,20.5 Q898.8281,20.5 898.2344,20.7813 Q897.6563,21.0625 897.2031,21.6875 Q896.75,22.3125 896.75,23.1719 L896.75,24.0938 Q896.75,25.125 897.5938,25.8125 Q898.4375,26.5 899.9375,26.5 Q900.8281,26.5 901.4531,26.2969 Q901.8125,26.1875 902.2188,25.8281 Q902.4844,25.625 902.625,25.5625 Q902.7656,25.5 902.9375,25.5 Q903.2656,25.5 903.5,25.7656 Q903.75,26.0156 903.75,26.375 Q903.75,26.7188 903.4063,27.125 Q902.9063,27.7188 902.1094,28.0469 Q901.0625,28.5 899.7813,28.5 Q898.2813,28.5 897.0781,27.9063 Q896.1094,27.4375 895.4219,26.4219 Q894.75,25.4063 894.75,24.2031 L894.75,23.1094 Q894.75,21.8594 895.3438,20.7656 Q895.9531,19.6719 897,19.0938 Q898.0625,18.5 899.25,18.5 Q899.9688,18.5 900.5938,18.75 Q901.2188,19 901.75,19.5 Z " fill="#000000"/><text fill="#000000" font-family="sans-serif" font-size="14" lengthAdjust="spacing" textLength="82" x="916.25" y="28.7285">VaccineType</text><line style="stroke:#181818;stroke-width:0.5;" x1="874.5" x2="1011.5" y1="39" y2="39"/><text fill="#000000" font-family="sans-serif" font-size="14" lengthAdjust="spacing" textLength="63" x="879.5" y="57.5332">-code : int</text><text fill="#000000" font-family="sans-serif" font-size="14" lengthAdjust="spacing" textLength="127" x="879.5" y="75.1426">-designation : String</text><text fill="#000000" font-family="sans-serif" font-size="14" lengthAdjust="spacing" textLength="70" x="879.5" y="92.752">-whoID : int</text></g><!--MD5=[a2530d24bafc45bb45314d96545aa194]
class AdministrationProcess--><g id="elem_AdministrationProcess"><rect codeLine="23" fill="#F1F1F1" height="145.6563" id="AdministrationProcess" rx="2.5" ry="2.5" style="stroke:#181818;stroke-width:0.5;" width="172" x="857" y="135.5"/><ellipse cx="872" cy="151.5" fill="#ADD1B2" rx="11" ry="11" style="stroke:#181818;stroke-width:1.0;"/><path d="M874,148 Q874.2031,147.5 874.4375,147.25 Q874.6719,147 874.9375,147 Q875.4063,147 875.7031,147.2813 Q876,147.5625 876,148.2188 L876,149.7813 Q876,150.4375 875.7188,150.7188 Q875.4375,151 875,151 Q874.6094,151 874.3594,150.8281 Q874.1094,150.6563 874,150.2031 Q873.9531,149.8906 873.7813,149.7188 Q873.4688,149.3906 872.9063,149.2031 Q872.3438,149 871.7813,149 Q871.0781,149 870.4844,149.2813 Q869.9063,149.5625 869.4531,150.1875 Q869,150.8125 869,151.6719 L869,152.5938 Q869,153.625 869.8438,154.3125 Q870.6875,155 872.1875,155 Q873.0781,155 873.7031,154.7969 Q874.0625,154.6875 874.4688,154.3281 Q874.7344,154.125 874.875,154.0625 Q875.0156,154 875.1875,154 Q875.5156,154 875.75,154.2656 Q876,154.5156 876,154.875 Q876,155.2188 875.6563,155.625 Q875.1563,156.2188 874.3594,156.5469 Q873.3125,157 872.0313,157 Q870.5313,157 869.3281,156.4063 Q868.3594,155.9375 867.6719,154.9219 Q867,153.9063 867,152.7031 L867,151.6094 Q867,150.3594 867.5938,149.2656 Q868.2031,148.1719 869.25,147.5938 Q870.3125,147 871.5,147 Q872.2188,147 872.8438,147.25 Q873.4688,147.5 874,148 Z " fill="#000000"/><text fill="#000000" font-family="sans-serif" font-size="14" lengthAdjust="spacing" textLength="140" x="886" y="157.2285">AdministrationProcess</text><line style="stroke:#181818;stroke-width:0.5;" x1="858" x2="1028" y1="167.5" y2="167.5"/><text fill="#000000" font-family="sans-serif" font-size="14" lengthAdjust="spacing" textLength="43" x="863" y="186.0332">-id : int</text><text fill="#000000" font-family="sans-serif" font-size="14" lengthAdjust="spacing" textLength="79" x="863" y="203.6426">-minAge : int</text><text fill="#000000" font-family="sans-serif" font-size="14" lengthAdjust="spacing" textLength="82" x="863" y="221.252">-maxAge : int</text><text fill="#000000" font-family="sans-serif" font-size="14" lengthAdjust="spacing" textLength="135" x="863" y="238.8613">-numberOfDoses : int</text><text fill="#000000" font-family="sans-serif" font-size="14" lengthAdjust="spacing" textLength="107" x="863" y="256.4707">-dosage : double</text><text fill="#000000" font-family="sans-serif" font-size="14" lengthAdjust="spacing" textLength="109" x="863" y="274.0801">-timeElapsed : int</text></g><!--MD5=[da547346deef918ea16944ba046651ef]
class Administrator--><g id="elem_Administrator"><rect codeLine="32" fill="#F1F1F1" height="40" id="Administrator" rx="2.5" ry="2.5" style="stroke:#181818;stroke-width:0.5;" width="115" x="245" y="159.5"/><ellipse cx="260" cy="175.5" fill="#ADD1B2" rx="11" ry="11" style="stroke:#181818;stroke-width:1.0;"/><path d="M262,172 Q262.2031,171.5 262.4375,171.25 Q262.6719,171 262.9375,171 Q263.4063,171 263.7031,171.2813 Q264,171.5625 264,172.2188 L264,173.7813 Q264,174.4375 263.7188,174.7188 Q263.4375,175 263,175 Q262.6094,175 262.3594,174.8281 Q262.1094,174.6563 262,174.2031 Q261.9531,173.8906 261.7813,173.7188 Q261.4688,173.3906 260.9063,173.2031 Q260.3438,173 259.7813,173 Q259.0781,173 258.4844,173.2813 Q257.9063,173.5625 257.4531,174.1875 Q257,174.8125 257,175.6719 L257,176.5938 Q257,177.625 257.8438,178.3125 Q258.6875,179 260.1875,179 Q261.0781,179 261.7031,178.7969 Q262.0625,178.6875 262.4688,178.3281 Q262.7344,178.125 262.875,178.0625 Q263.0156,178 263.1875,178 Q263.5156,178 263.75,178.2656 Q264,178.5156 264,178.875 Q264,179.2188 263.6563,179.625 Q263.1563,180.2188 262.3594,180.5469 Q261.3125,181 260.0313,181 Q258.5313,181 257.3281,180.4063 Q256.3594,179.9375 255.6719,178.9219 Q255,177.9063 255,176.7031 L255,175.6094 Q255,174.3594 255.5938,173.2656 Q256.2031,172.1719 257.25,171.5938 Q258.3125,171 259.5,171 Q260.2188,171 260.8438,171.25 Q261.4688,171.5 262,172 Z " fill="#000000"/><text fill="#000000" font-family="sans-serif" font-size="14" lengthAdjust="spacing" textLength="83" x="274" y="181.2285">Administrator</text><line style="stroke:#181818;stroke-width:0.5;" x1="246" x2="359" y1="191.5" y2="191.5"/></g><!--MD5=[eaea43e34e45c5b9d20b595fc78f1f20]
link Company to Administrator--><g id="link_Company_Administrator"><path codeLine="35" d="M146.23,179.5 C177.87,179.5 214.95,179.5 244.94,179.5 " fill="none" id="Company-Administrator" style="stroke:#181818;stroke-width:1.0;"/><text fill="#000000" font-family="sans-serif" font-size="13" lengthAdjust="spacing" textLength="37" x="177" y="175.9951">knows</text><text fill="#000000" font-family="sans-serif" font-size="13" lengthAdjust="spacing" textLength="7" x="153.7818" y="193.8584">1</text><text fill="#000000" font-family="sans-serif" font-size="13" lengthAdjust="spacing" textLength="5" x="231.8694" y="194.0937">*</text></g><!--MD5=[0e439f75a3d966f965fe5f237a1bacbe]
link Administrator to Vaccine--><g id="link_Administrator_Vaccine"><path codeLine="37" d="M360.09,163.56 C389.11,155.39 426.01,145 462.68,134.67 " fill="none" id="Administrator-Vaccine" style="stroke:#181818;stroke-width:1.0;"/><text fill="#000000" font-family="sans-serif" font-size="13" lengthAdjust="spacing" textLength="41" x="391" y="138.9951">defines</text><text fill="#000000" font-family="sans-serif" font-size="13" lengthAdjust="spacing" textLength="7" x="367.9172" y="176.0603">1</text><text fill="#000000" font-family="sans-serif" font-size="13" lengthAdjust="spacing" textLength="5" x="450.084" y="150.651">*</text></g><!--MD5=[25a400ed2d8aa756bd4209cb2645d428]
link Administrator to AdministrationProcess--><g id="link_Administrator_AdministrationProcess"><path codeLine="38" d="M360.31,184.32 C390.74,186.77 428.9,189.61 463,191.5 C600.71,199.12 760.9,204 856.73,206.49 " fill="none" id="Administrator-AdministrationProcess" style="stroke:#181818;stroke-width:1.0;"/><text fill="#000000" font-family="sans-serif" font-size="13" lengthAdjust="spacing" textLength="41" x="596.5" y="187.9951">defines</text><text fill="#000000" font-family="sans-serif" font-size="13" lengthAdjust="spacing" textLength="7" x="368.1653" y="199.4802">1</text><text fill="#000000" font-family="sans-serif" font-size="13" lengthAdjust="spacing" textLength="5" x="844.1013" y="220.5298">*</text></g><!--MD5=[a98252b7739f22b1ddec3651c1c3aaea]
link Vaccine to AdministrationProcess--><g id="link_Vaccine_AdministrationProcess"><path codeLine="40" d="M771.46,146.92 C800.74,157.49 830.39,168.2 856.57,177.65 " fill="none" id="Vaccine-AdministrationProcess" style="stroke:#181818;stroke-width:1.0;"/><text fill="#000000" font-family="sans-serif" font-size="13" lengthAdjust="spacing" textLength="21" x="803.5" y="155.9951">has</text><text fill="#000000" font-family="sans-serif" font-size="13" lengthAdjust="spacing" textLength="7" x="779.1112" y="163.4944">1</text><text fill="#000000" font-family="sans-serif" font-size="13" lengthAdjust="spacing" textLength="7" x="842.1227" y="189.2816">1</text></g><!--MD5=[3568623adf67b2630dce9e60c05bd02a]
link Vaccine to VaccineType--><g id="link_Vaccine_VaccineType"><path codeLine="41" d="M771.46,73.5 C807.12,69.32 843.33,65.07 873.15,61.57 " fill="none" id="Vaccine-VaccineType" style="stroke:#181818;stroke-width:1.0;"/><text fill="#000000" font-family="sans-serif" font-size="13" lengthAdjust="spacing" textLength="24" x="802" y="64.9951">is of</text><text fill="#000000" font-family="sans-serif" font-size="13" lengthAdjust="spacing" textLength="5" x="779.0628" y="86.5181">*</text><text fill="#000000" font-family="sans-serif" font-size="13" lengthAdjust="spacing" textLength="5" x="860.6889" y="76.7493">*</text></g><!--MD5=[2344ee721f5334b1606dde4cf95f3662]
@startuml
hide methods
left to right direction
skinparam classAttributeIconSize 0

class Company {
-designation : String
}

class Vaccine {
-id : int
-name : String
-manufacturer : String
-type : VaccineType
-administrationProcess : AdministrationProcess
}

class VaccineType {
-code : int
-designation : String
-whoID : int
}

class AdministrationProcess {
-id : int
-minAge : int
-maxAge : int
-numberOfDoses : int
-dosage : double
-timeElapsed : int
}

class Administrator {
}

Company "1" - - "*" Administrator : knows

Administrator "1" - - "*" Vaccine : defines
Administrator "1" - - "*" AdministrationProcess : defines

Vaccine "1" - - "1" AdministrationProcess : has
Vaccine "*" - - "*" VaccineType : is of

@enduml

PlantUML version 1.2022.4(Sat Apr 09 14:29:17 BST 2022)
(GPL source distribution)
Java Runtime: OpenJDK Runtime Environment
JVM: OpenJDK 64-Bit Server VM
Default Encoding: Cp1252
Language: en
Country: GB
--></g></svg>