<?xml version="1.0" encoding="UTF-8" standalone="no"?><svg xmlns="http://www.w3.org/2000/svg" xmlns:xlink="http://www.w3.org/1999/xlink" contentStyleType="text/css" height="722px" preserveAspectRatio="none" style="width:1877px;height:722px;background:#FFFFFF;" version="1.1" viewBox="0 0 1877 722" width="1877px" zoomAndPan="magnify"><defs/><g><!--MD5=[0e7c043a007ff36ee83ae1d805ce7932]
class SpecifyNewVaccineUI--><g id="elem_SpecifyNewVaccineUI"><rect codeLine="6" fill="#F1F1F1" height="32" id="SpecifyNewVaccineUI" rx="2.5" ry="2.5" style="stroke:#181818;stroke-width:0.5;" width="166" x="7" y="28.5"/><ellipse cx="22" cy="44.5" fill="#ADD1B2" rx="11" ry="11" style="stroke:#181818;stroke-width:1.0;"/><path d="M24,41 Q24.2031,40.5 24.4375,40.25 Q24.6719,40 24.9375,40 Q25.4063,40 25.7031,40.2813 Q26,40.5625 26,41.2188 L26,42.7813 Q26,43.4375 25.7188,43.7188 Q25.4375,44 25,44 Q24.6094,44 24.3594,43.8281 Q24.1094,43.6563 24,43.2031 Q23.9531,42.8906 23.7813,42.7188 Q23.4688,42.3906 22.9063,42.2031 Q22.3438,42 21.7813,42 Q21.0781,42 20.4844,42.2813 Q19.9063,42.5625 19.4531,43.1875 Q19,43.8125 19,44.6719 L19,45.5938 Q19,46.625 19.8438,47.3125 Q20.6875,48 22.1875,48 Q23.0781,48 23.7031,47.7969 Q24.0625,47.6875 24.4688,47.3281 Q24.7344,47.125 24.875,47.0625 Q25.0156,47 25.1875,47 Q25.5156,47 25.75,47.2656 Q26,47.5156 26,47.875 Q26,48.2188 25.6563,48.625 Q25.1563,49.2188 24.3594,49.5469 Q23.3125,50 22.0313,50 Q20.5313,50 19.3281,49.4063 Q18.3594,48.9375 17.6719,47.9219 Q17,46.9063 17,45.7031 L17,44.6094 Q17,43.3594 17.5938,42.2656 Q18.2031,41.1719 19.25,40.5938 Q20.3125,40 21.5,40 Q22.2188,40 22.8438,40.25 Q23.4688,40.5 24,41 Z " fill="#000000"/><text fill="#000000" font-family="sans-serif" font-size="14" lengthAdjust="spacing" textLength="134" x="36" y="50.2285">SpecifyNewVaccineUI</text></g><!--MD5=[5ff29b2a06d9bf6e3716314822b7d56c]
class SpecifyNewVaccineController--><g id="elem_SpecifyNewVaccineController"><rect codeLine="10" fill="#F1F1F1" height="75.2188" id="SpecifyNewVaccineController" rx="2.5" ry="2.5" style="stroke:#181818;stroke-width:0.5;" width="432" x="245" y="7"/><ellipse cx="364.75" cy="23" fill="#ADD1B2" rx="11" ry="11" style="stroke:#181818;stroke-width:1.0;"/><path d="M366.75,19.5 Q366.9531,19 367.1875,18.75 Q367.4219,18.5 367.6875,18.5 Q368.1563,18.5 368.4531,18.7813 Q368.75,19.0625 368.75,19.7188 L368.75,21.2813 Q368.75,21.9375 368.4688,22.2188 Q368.1875,22.5 367.75,22.5 Q367.3594,22.5 367.1094,22.3281 Q366.8594,22.1563 366.75,21.7031 Q366.7031,21.3906 366.5313,21.2188 Q366.2188,20.8906 365.6563,20.7031 Q365.0938,20.5 364.5313,20.5 Q363.8281,20.5 363.2344,20.7813 Q362.6563,21.0625 362.2031,21.6875 Q361.75,22.3125 361.75,23.1719 L361.75,24.0938 Q361.75,25.125 362.5938,25.8125 Q363.4375,26.5 364.9375,26.5 Q365.8281,26.5 366.4531,26.2969 Q366.8125,26.1875 367.2188,25.8281 Q367.4844,25.625 367.625,25.5625 Q367.7656,25.5 367.9375,25.5 Q368.2656,25.5 368.5,25.7656 Q368.75,26.0156 368.75,26.375 Q368.75,26.7188 368.4063,27.125 Q367.9063,27.7188 367.1094,28.0469 Q366.0625,28.5 364.7813,28.5 Q363.2813,28.5 362.0781,27.9063 Q361.1094,27.4375 360.4219,26.4219 Q359.75,25.4063 359.75,24.2031 L359.75,23.1094 Q359.75,21.8594 360.3438,20.7656 Q360.9531,19.6719 362,19.0938 Q363.0625,18.5 364.25,18.5 Q364.9688,18.5 365.5938,18.75 Q366.2188,19 366.75,19.5 Z " fill="#000000"/><text fill="#000000" font-family="sans-serif" font-size="14" lengthAdjust="spacing" textLength="184" x="385.25" y="28.7285">SpecifyNewVaccineController</text><line style="stroke:#181818;stroke-width:0.5;" x1="246" x2="676" y1="39" y2="39"/><text fill="#000000" font-family="sans-serif" font-size="14" lengthAdjust="spacing" textLength="420" x="251" y="57.5332">+createVaccine(id,name,manufacturer,type,administrationProcess)</text><text fill="#000000" font-family="sans-serif" font-size="14" lengthAdjust="spacing" textLength="142" x="251" y="75.1426">+getVaccineTypeList()</text></g><!--MD5=[02e4b9b7573f1156f41e60aa5b4e25a4]
class Company--><g id="elem_Company"><rect codeLine="16" fill="#F1F1F1" height="118.4375" id="Company" rx="2.5" ry="2.5" style="stroke:#181818;stroke-width:0.5;" width="494" x="214" y="186.5"/><ellipse cx="426.75" cy="202.5" fill="#ADD1B2" rx="11" ry="11" style="stroke:#181818;stroke-width:1.0;"/><path d="M428.75,199 Q428.9531,198.5 429.1875,198.25 Q429.4219,198 429.6875,198 Q430.1563,198 430.4531,198.2813 Q430.75,198.5625 430.75,199.2188 L430.75,200.7813 Q430.75,201.4375 430.4688,201.7188 Q430.1875,202 429.75,202 Q429.3594,202 429.1094,201.8281 Q428.8594,201.6563 428.75,201.2031 Q428.7031,200.8906 428.5313,200.7188 Q428.2188,200.3906 427.6563,200.2031 Q427.0938,200 426.5313,200 Q425.8281,200 425.2344,200.2813 Q424.6563,200.5625 424.2031,201.1875 Q423.75,201.8125 423.75,202.6719 L423.75,203.5938 Q423.75,204.625 424.5938,205.3125 Q425.4375,206 426.9375,206 Q427.8281,206 428.4531,205.7969 Q428.8125,205.6875 429.2188,205.3281 Q429.4844,205.125 429.625,205.0625 Q429.7656,205 429.9375,205 Q430.2656,205 430.5,205.2656 Q430.75,205.5156 430.75,205.875 Q430.75,206.2188 430.4063,206.625 Q429.9063,207.2188 429.1094,207.5469 Q428.0625,208 426.7813,208 Q425.2813,208 424.0781,207.4063 Q423.1094,206.9375 422.4219,205.9219 Q421.75,204.9063 421.75,203.7031 L421.75,202.6094 Q421.75,201.3594 422.3438,200.2656 Q422.9531,199.1719 424,198.5938 Q425.0625,198 426.25,198 Q426.9688,198 427.5938,198.25 Q428.2188,198.5 428.75,199 Z " fill="#000000"/><text fill="#000000" font-family="sans-serif" font-size="14" lengthAdjust="spacing" textLength="60" x="447.25" y="208.2285">Company</text><line style="stroke:#181818;stroke-width:0.5;" x1="215" x2="707" y1="218.5" y2="218.5"/><text fill="#000000" font-family="sans-serif" font-size="14" lengthAdjust="spacing" textLength="127" x="220" y="237.0332">-designation : String</text><line style="stroke:#181818;stroke-width:0.5;" x1="215" x2="707" y1="244.1094" y2="244.1094"/><text fill="#000000" font-family="sans-serif" font-size="14" lengthAdjust="spacing" textLength="258" x="220" y="262.6426">+getVaccineTypeList() : VaccineTypeList</text><text fill="#000000" font-family="sans-serif" font-size="14" lengthAdjust="spacing" textLength="482" x="220" y="280.252">+createVaccine(id,name,manufacturer,type,administrationProcess) : Vaccine</text><text fill="#000000" font-family="sans-serif" font-size="14" lengthAdjust="spacing" textLength="187" x="220" y="297.8613">+saveVaccine(Vaccine) : bool</text></g><!--MD5=[16e898dea44373438d7a6991ca77efa0]
class VaccineStore--><g id="elem_VaccineStore"><rect codeLine="24" fill="#F1F1F1" height="92.8281" id="VaccineStore" rx="2.5" ry="2.5" style="stroke:#181818;stroke-width:0.5;" width="494" x="766" y="199"/><ellipse cx="966.75" cy="215" fill="#ADD1B2" rx="11" ry="11" style="stroke:#181818;stroke-width:1.0;"/><path d="M968.75,211.5 Q968.9531,211 969.1875,210.75 Q969.4219,210.5 969.6875,210.5 Q970.1563,210.5 970.4531,210.7813 Q970.75,211.0625 970.75,211.7188 L970.75,213.2813 Q970.75,213.9375 970.4688,214.2188 Q970.1875,214.5 969.75,214.5 Q969.3594,214.5 969.1094,214.3281 Q968.8594,214.1563 968.75,213.7031 Q968.7031,213.3906 968.5313,213.2188 Q968.2188,212.8906 967.6563,212.7031 Q967.0938,212.5 966.5313,212.5 Q965.8281,212.5 965.2344,212.7813 Q964.6563,213.0625 964.2031,213.6875 Q963.75,214.3125 963.75,215.1719 L963.75,216.0938 Q963.75,217.125 964.5938,217.8125 Q965.4375,218.5 966.9375,218.5 Q967.8281,218.5 968.4531,218.2969 Q968.8125,218.1875 969.2188,217.8281 Q969.4844,217.625 969.625,217.5625 Q969.7656,217.5 969.9375,217.5 Q970.2656,217.5 970.5,217.7656 Q970.75,218.0156 970.75,218.375 Q970.75,218.7188 970.4063,219.125 Q969.9063,219.7188 969.1094,220.0469 Q968.0625,220.5 966.7813,220.5 Q965.2813,220.5 964.0781,219.9063 Q963.1094,219.4375 962.4219,218.4219 Q961.75,217.4063 961.75,216.2031 L961.75,215.1094 Q961.75,213.8594 962.3438,212.7656 Q962.9531,211.6719 964,211.0938 Q965.0625,210.5 966.25,210.5 Q966.9688,210.5 967.5938,210.75 Q968.2188,211 968.75,211.5 Z " fill="#000000"/><text fill="#000000" font-family="sans-serif" font-size="14" lengthAdjust="spacing" textLength="84" x="987.25" y="220.7285">VaccineStore</text><line style="stroke:#181818;stroke-width:0.5;" x1="767" x2="1259" y1="231" y2="231"/><text fill="#000000" font-family="sans-serif" font-size="14" lengthAdjust="spacing" textLength="482" x="772" y="249.5332">+createVaccine(id,name,manufacturer,type,administrationProcess) : Vaccine</text><text fill="#000000" font-family="sans-serif" font-size="14" lengthAdjust="spacing" textLength="167" x="772" y="267.1426">-validateVaccine(vc) : bool</text><text fill="#000000" font-family="sans-serif" font-size="14" lengthAdjust="spacing" textLength="145" x="772" y="284.752">+addVaccine(vc) : bool</text></g><!--MD5=[19e445fc4d3b48519cbe33da05496394]
class Vaccine--><g id="elem_Vaccine"><rect codeLine="31" fill="#F1F1F1" height="171.2656" id="Vaccine" rx="2.5" ry="2.5" style="stroke:#181818;stroke-width:0.5;" width="392" x="1336" y="160"/><ellipse cx="1502.75" cy="176" fill="#ADD1B2" rx="11" ry="11" style="stroke:#181818;stroke-width:1.0;"/><path d="M1504.75,172.5 Q1504.9531,172 1505.1875,171.75 Q1505.4219,171.5 1505.6875,171.5 Q1506.1563,171.5 1506.4531,171.7813 Q1506.75,172.0625 1506.75,172.7188 L1506.75,174.2813 Q1506.75,174.9375 1506.4688,175.2188 Q1506.1875,175.5 1505.75,175.5 Q1505.3594,175.5 1505.1094,175.3281 Q1504.8594,175.1563 1504.75,174.7031 Q1504.7031,174.3906 1504.5313,174.2188 Q1504.2188,173.8906 1503.6563,173.7031 Q1503.0938,173.5 1502.5313,173.5 Q1501.8281,173.5 1501.2344,173.7813 Q1500.6563,174.0625 1500.2031,174.6875 Q1499.75,175.3125 1499.75,176.1719 L1499.75,177.0938 Q1499.75,178.125 1500.5938,178.8125 Q1501.4375,179.5 1502.9375,179.5 Q1503.8281,179.5 1504.4531,179.2969 Q1504.8125,179.1875 1505.2188,178.8281 Q1505.4844,178.625 1505.625,178.5625 Q1505.7656,178.5 1505.9375,178.5 Q1506.2656,178.5 1506.5,178.7656 Q1506.75,179.0156 1506.75,179.375 Q1506.75,179.7188 1506.4063,180.125 Q1505.9063,180.7188 1505.1094,181.0469 Q1504.0625,181.5 1502.7813,181.5 Q1501.2813,181.5 1500.0781,180.9063 Q1499.1094,180.4375 1498.4219,179.4219 Q1497.75,178.4063 1497.75,177.2031 L1497.75,176.1094 Q1497.75,174.8594 1498.3438,173.7656 Q1498.9531,172.6719 1500,172.0938 Q1501.0625,171.5 1502.25,171.5 Q1502.9688,171.5 1503.5938,171.75 Q1504.2188,172 1504.75,172.5 Z " fill="#000000"/><text fill="#000000" font-family="sans-serif" font-size="14" lengthAdjust="spacing" textLength="50" x="1523.25" y="181.7285">Vaccine</text><line style="stroke:#181818;stroke-width:0.5;" x1="1337" x2="1727" y1="192" y2="192"/><text fill="#000000" font-family="sans-serif" font-size="14" lengthAdjust="spacing" textLength="43" x="1342" y="210.5332">-id : int</text><text fill="#000000" font-family="sans-serif" font-size="14" lengthAdjust="spacing" textLength="89" x="1342" y="228.1426">-name : String</text><text fill="#000000" font-family="sans-serif" font-size="14" lengthAdjust="spacing" textLength="138" x="1342" y="245.752">-manufacturer : String</text><text fill="#000000" font-family="sans-serif" font-size="14" lengthAdjust="spacing" textLength="126" x="1342" y="263.3613">-type : VaccineType</text><text fill="#000000" font-family="sans-serif" font-size="14" lengthAdjust="spacing" textLength="296" x="1342" y="280.9707">-administrationProcess : AdministrationProcess</text><line style="stroke:#181818;stroke-width:0.5;" x1="1337" x2="1727" y1="288.0469" y2="288.0469"/><text fill="#000000" font-family="sans-serif" font-size="14" lengthAdjust="spacing" textLength="380" x="1342" y="306.5801">+Vaccine(name,brand,type,administrationProcess) : Vaccine</text><text fill="#000000" font-family="sans-serif" font-size="14" lengthAdjust="spacing" textLength="157" x="1342" y="324.1895">-validadeVaccine() : bool</text></g><!--MD5=[0e501da62322464167c8ec4d233a6b7e]
class VaccineType--><g id="elem_VaccineType"><rect codeLine="42" fill="#F1F1F1" height="136.0469" id="VaccineType" rx="2.5" ry="2.5" style="stroke:#181818;stroke-width:0.5;" width="354" x="735" y="426.5"/><ellipse cx="866.75" cy="442.5" fill="#ADD1B2" rx="11" ry="11" style="stroke:#181818;stroke-width:1.0;"/><path d="M868.75,439 Q868.9531,438.5 869.1875,438.25 Q869.4219,438 869.6875,438 Q870.1563,438 870.4531,438.2813 Q870.75,438.5625 870.75,439.2188 L870.75,440.7813 Q870.75,441.4375 870.4688,441.7188 Q870.1875,442 869.75,442 Q869.3594,442 869.1094,441.8281 Q868.8594,441.6563 868.75,441.2031 Q868.7031,440.8906 868.5313,440.7188 Q868.2188,440.3906 867.6563,440.2031 Q867.0938,440 866.5313,440 Q865.8281,440 865.2344,440.2813 Q864.6563,440.5625 864.2031,441.1875 Q863.75,441.8125 863.75,442.6719 L863.75,443.5938 Q863.75,444.625 864.5938,445.3125 Q865.4375,446 866.9375,446 Q867.8281,446 868.4531,445.7969 Q868.8125,445.6875 869.2188,445.3281 Q869.4844,445.125 869.625,445.0625 Q869.7656,445 869.9375,445 Q870.2656,445 870.5,445.2656 Q870.75,445.5156 870.75,445.875 Q870.75,446.2188 870.4063,446.625 Q869.9063,447.2188 869.1094,447.5469 Q868.0625,448 866.7813,448 Q865.2813,448 864.0781,447.4063 Q863.1094,446.9375 862.4219,445.9219 Q861.75,444.9063 861.75,443.7031 L861.75,442.6094 Q861.75,441.3594 862.3438,440.2656 Q862.9531,439.1719 864,438.5938 Q865.0625,438 866.25,438 Q866.9688,438 867.5938,438.25 Q868.2188,438.5 868.75,439 Z " fill="#000000"/><text fill="#000000" font-family="sans-serif" font-size="14" lengthAdjust="spacing" textLength="82" x="887.25" y="448.2285">VaccineType</text><line style="stroke:#181818;stroke-width:0.5;" x1="736" x2="1088" y1="458.5" y2="458.5"/><text fill="#000000" font-family="sans-serif" font-size="14" lengthAdjust="spacing" textLength="63" x="741" y="477.0332">-code : int</text><text fill="#000000" font-family="sans-serif" font-size="14" lengthAdjust="spacing" textLength="127" x="741" y="494.6426">-designation : String</text><text fill="#000000" font-family="sans-serif" font-size="14" lengthAdjust="spacing" textLength="90" x="741" y="512.252">-whoId : String</text><line style="stroke:#181818;stroke-width:0.5;" x1="736" x2="1088" y1="519.3281" y2="519.3281"/><text fill="#000000" font-family="sans-serif" font-size="14" lengthAdjust="spacing" textLength="342" x="741" y="537.8613">+VaccineType(code,designation,whoId) : VaccineType</text><text fill="#000000" font-family="sans-serif" font-size="14" lengthAdjust="spacing" textLength="185" x="741" y="555.4707">-validateVaccineType() : bool</text></g><!--MD5=[a2530d24bafc45bb45314d96545aa194]
class AdministrationProcess--><g id="elem_AdministrationProcess"><rect codeLine="52" fill="#F1F1F1" height="171.2656" id="AdministrationProcess" rx="2.5" ry="2.5" style="stroke:#181818;stroke-width:0.5;" width="677" x="1193.5" y="409"/><ellipse cx="1457.75" cy="425" fill="#ADD1B2" rx="11" ry="11" style="stroke:#181818;stroke-width:1.0;"/><path d="M1459.75,421.5 Q1459.9531,421 1460.1875,420.75 Q1460.4219,420.5 1460.6875,420.5 Q1461.1563,420.5 1461.4531,420.7813 Q1461.75,421.0625 1461.75,421.7188 L1461.75,423.2813 Q1461.75,423.9375 1461.4688,424.2188 Q1461.1875,424.5 1460.75,424.5 Q1460.3594,424.5 1460.1094,424.3281 Q1459.8594,424.1563 1459.75,423.7031 Q1459.7031,423.3906 1459.5313,423.2188 Q1459.2188,422.8906 1458.6563,422.7031 Q1458.0938,422.5 1457.5313,422.5 Q1456.8281,422.5 1456.2344,422.7813 Q1455.6563,423.0625 1455.2031,423.6875 Q1454.75,424.3125 1454.75,425.1719 L1454.75,426.0938 Q1454.75,427.125 1455.5938,427.8125 Q1456.4375,428.5 1457.9375,428.5 Q1458.8281,428.5 1459.4531,428.2969 Q1459.8125,428.1875 1460.2188,427.8281 Q1460.4844,427.625 1460.625,427.5625 Q1460.7656,427.5 1460.9375,427.5 Q1461.2656,427.5 1461.5,427.7656 Q1461.75,428.0156 1461.75,428.375 Q1461.75,428.7188 1461.4063,429.125 Q1460.9063,429.7188 1460.1094,430.0469 Q1459.0625,430.5 1457.7813,430.5 Q1456.2813,430.5 1455.0781,429.9063 Q1454.1094,429.4375 1453.4219,428.4219 Q1452.75,427.4063 1452.75,426.2031 L1452.75,425.1094 Q1452.75,423.8594 1453.3438,422.7656 Q1453.9531,421.6719 1455,421.0938 Q1456.0625,420.5 1457.25,420.5 Q1457.9688,420.5 1458.5938,420.75 Q1459.2188,421 1459.75,421.5 Z " fill="#000000"/><text fill="#000000" font-family="sans-serif" font-size="14" lengthAdjust="spacing" textLength="140" x="1478.25" y="430.7285">AdministrationProcess</text><line style="stroke:#181818;stroke-width:0.5;" x1="1194.5" x2="1869.5" y1="441" y2="441"/><text fill="#000000" font-family="sans-serif" font-size="14" lengthAdjust="spacing" textLength="43" x="1199.5" y="459.5332">-id : int</text><text fill="#000000" font-family="sans-serif" font-size="14" lengthAdjust="spacing" textLength="79" x="1199.5" y="477.1426">-minAge : int</text><text fill="#000000" font-family="sans-serif" font-size="14" lengthAdjust="spacing" textLength="82" x="1199.5" y="494.752">-maxAge : int</text><text fill="#000000" font-family="sans-serif" font-size="14" lengthAdjust="spacing" textLength="135" x="1199.5" y="512.3613">-numberOfDoses : int</text><text fill="#000000" font-family="sans-serif" font-size="14" lengthAdjust="spacing" textLength="107" x="1199.5" y="529.9707">-dosage : double</text><text fill="#000000" font-family="sans-serif" font-size="14" lengthAdjust="spacing" textLength="109" x="1199.5" y="547.5801">-timeElapsed : int</text><line style="stroke:#181818;stroke-width:0.5;" x1="1194.5" x2="1869.5" y1="554.6563" y2="554.6563"/><text fill="#000000" font-family="sans-serif" font-size="14" lengthAdjust="spacing" textLength="665" x="1199.5" y="573.1895">+AdministrationProcess(id,minAge,maxAge,numberOfDoses,dosage,timeElapsed) : AdministrationProcess</text></g><!--MD5=[9532c95099058dfe385d7270fd32fc0d]
class VaccineTypeStore--><g id="elem_VaccineTypeStore"><rect codeLine="63" fill="#F1F1F1" height="57.6094" id="VaccineTypeStore" rx="2.5" ry="2.5" style="stroke:#181818;stroke-width:0.5;" width="248" x="436" y="658"/><ellipse cx="497.75" cy="674" fill="#ADD1B2" rx="11" ry="11" style="stroke:#181818;stroke-width:1.0;"/><path d="M499.75,670.5 Q499.9531,670 500.1875,669.75 Q500.4219,669.5 500.6875,669.5 Q501.1563,669.5 501.4531,669.7813 Q501.75,670.0625 501.75,670.7188 L501.75,672.2813 Q501.75,672.9375 501.4688,673.2188 Q501.1875,673.5 500.75,673.5 Q500.3594,673.5 500.1094,673.3281 Q499.8594,673.1563 499.75,672.7031 Q499.7031,672.3906 499.5313,672.2188 Q499.2188,671.8906 498.6563,671.7031 Q498.0938,671.5 497.5313,671.5 Q496.8281,671.5 496.2344,671.7813 Q495.6563,672.0625 495.2031,672.6875 Q494.75,673.3125 494.75,674.1719 L494.75,675.0938 Q494.75,676.125 495.5938,676.8125 Q496.4375,677.5 497.9375,677.5 Q498.8281,677.5 499.4531,677.2969 Q499.8125,677.1875 500.2188,676.8281 Q500.4844,676.625 500.625,676.5625 Q500.7656,676.5 500.9375,676.5 Q501.2656,676.5 501.5,676.7656 Q501.75,677.0156 501.75,677.375 Q501.75,677.7188 501.4063,678.125 Q500.9063,678.7188 500.1094,679.0469 Q499.0625,679.5 497.7813,679.5 Q496.2813,679.5 495.0781,678.9063 Q494.1094,678.4375 493.4219,677.4219 Q492.75,676.4063 492.75,675.2031 L492.75,674.1094 Q492.75,672.8594 493.3438,671.7656 Q493.9531,670.6719 495,670.0938 Q496.0625,669.5 497.25,669.5 Q497.9688,669.5 498.5938,669.75 Q499.2188,670 499.75,670.5 Z " fill="#000000"/><text fill="#000000" font-family="sans-serif" font-size="14" lengthAdjust="spacing" textLength="116" x="518.25" y="679.7285">VaccineTypeStore</text><line style="stroke:#181818;stroke-width:0.5;" x1="437" x2="683" y1="690" y2="690"/><text fill="#000000" font-family="sans-serif" font-size="14" lengthAdjust="spacing" textLength="236" x="442" y="708.5332">+getVaccineTypeList() : VaccineType</text></g><!--MD5=[acf82daadde07daa2d8eb34bfd9d97b1]
link SpecifyNewVaccineUI to SpecifyNewVaccineController--><g id="link_SpecifyNewVaccineUI_SpecifyNewVaccineController"><path codeLine="69" d="M173.26,44.5 C193.6,44.5 216.33,44.5 239.86,44.5 " fill="none" id="SpecifyNewVaccineUI-to-SpecifyNewVaccineController" style="stroke:#181818;stroke-width:1.0;stroke-dasharray:7.0,7.0;"/><polygon fill="#181818" points="244.89,44.5,235.89,40.5,239.89,44.5,235.89,48.5,244.89,44.5" style="stroke:#181818;stroke-width:1.0;"/><text fill="#000000" font-family="sans-serif" font-size="13" lengthAdjust="spacing" textLength="35" x="191.5" y="37.9951">«use»</text></g><!--MD5=[e00d3c25701aaa035dc03376dce43328]
link SpecifyNewVaccineController to Company--><g id="link_SpecifyNewVaccineController_Company"><path codeLine="70" d="M461,82.46 C461,110.1 461,148.55 461,181.07 " fill="none" id="SpecifyNewVaccineController-to-Company" style="stroke:#181818;stroke-width:1.0;stroke-dasharray:7.0,7.0;"/><polygon fill="#181818" points="461,186.23,465,177.23,461,181.23,457,177.23,461,186.23" style="stroke:#181818;stroke-width:1.0;"/><text fill="#000000" font-family="sans-serif" font-size="13" lengthAdjust="spacing" textLength="35" x="462" y="126.4951">«use»</text></g><!--MD5=[f2e0045a3c67c0696cf082af1b4c8493]
link Company to VaccineStore--><g id="link_Company_VaccineStore"><path codeLine="71" d="M708.34,245.5 C727.42,245.5 746.67,245.5 765.75,245.5 " fill="none" id="Company-VaccineStore" style="stroke:#181818;stroke-width:1.0;"/><text fill="#000000" font-family="sans-serif" font-size="13" lengthAdjust="spacing" textLength="21" x="726.5" y="238.9951">use</text><text fill="#000000" font-family="sans-serif" font-size="13" lengthAdjust="spacing" textLength="7" x="715.7868" y="242.7563">1</text><text fill="#000000" font-family="sans-serif" font-size="13" lengthAdjust="spacing" textLength="7" x="751.3059" y="242.7654">1</text></g><!--MD5=[89791a9cd8c9c78fd39f4b892a053799]
link VaccineStore to Vaccine--><g id="link_VaccineStore_Vaccine"><path codeLine="72" d="M1260.34,245.5 C1285.66,245.5 1311.14,245.5 1335.81,245.5 " fill="none" id="VaccineStore-Vaccine" style="stroke:#181818;stroke-width:1.0;"/><text fill="#000000" font-family="sans-serif" font-size="13" lengthAdjust="spacing" textLength="39" x="1278.5" y="238.9951">adopts</text><text fill="#000000" font-family="sans-serif" font-size="13" lengthAdjust="spacing" textLength="7" x="1267.7868" y="242.7654">1</text><text fill="#000000" font-family="sans-serif" font-size="13" lengthAdjust="spacing" textLength="20" x="1307.7557" y="259.3093">1..*</text></g><!--MD5=[3568623adf67b2630dce9e60c05bd02a]
link Vaccine to VaccineType--><g id="link_Vaccine_VaccineType"><path codeLine="73" d="M1335.83,324.65 C1253.7,357.37 1159.19,395.02 1080.29,426.45 " fill="none" id="Vaccine-VaccineType" style="stroke:#181818;stroke-width:1.0;"/><text fill="#000000" font-family="sans-serif" font-size="13" lengthAdjust="spacing" textLength="21" x="1242" y="375.4951">has</text><text fill="#000000" font-family="sans-serif" font-size="13" lengthAdjust="spacing" textLength="7" x="1321.0304" y="324.9261">1</text><text fill="#000000" font-family="sans-serif" font-size="13" lengthAdjust="spacing" textLength="7" x="1091.3139" y="415.6438">1</text></g><!--MD5=[e8b9eb0db0588a6f2c3f453595800bd3]
reverse link Vaccine to AdministrationProcess--><g id="link_Vaccine_AdministrationProcess"><path codeLine="74" d="M1532,344.31 C1532,365.69 1532,388.14 1532,408.95 " fill="none" id="Vaccine-backto-AdministrationProcess" style="stroke:#181818;stroke-width:1.0;"/><polygon fill="#181818" points="1532,331.16,1528,337.16,1532,343.16,1536,337.16,1532,331.16" style="stroke:#181818;stroke-width:1.0;"/><text fill="#000000" font-family="sans-serif" font-size="13" lengthAdjust="spacing" textLength="49" x="1533" y="375.4951">contains</text><text fill="#000000" font-family="sans-serif" font-size="13" lengthAdjust="spacing" textLength="7" x="1524.6992" y="352.7077">1</text><text fill="#000000" font-family="sans-serif" font-size="13" lengthAdjust="spacing" textLength="7" x="1524.6883" y="398.1171">1</text></g><!--MD5=[7034737bc317f411392370dde4c019f1]
link VaccineTypeStore to Company--><g id="link_VaccineTypeStore_Company"><path codeLine="75" d="M553.64,657.79 C537.69,586.96 495.69,400.48 474.15,304.86 " fill="none" id="VaccineTypeStore-Company" style="stroke:#181818;stroke-width:1.0;"/><text fill="#000000" font-family="sans-serif" font-size="13" lengthAdjust="spacing" textLength="28" x="537" y="499.9951">uses</text><text fill="#000000" font-family="sans-serif" font-size="13" lengthAdjust="spacing" textLength="7" x="544.4831" y="647.2266">1</text><text fill="#000000" font-family="sans-serif" font-size="13" lengthAdjust="spacing" textLength="7" x="468.3261" y="326.5594">1</text></g><!--MD5=[d5009086c9ffce4a9c61175565e764d8]
link VaccineType to VaccineTypeStore--><g id="link_VaccineType_VaccineTypeStore"><path codeLine="76" d="M787.9,562.66 C727.53,595.34 658.21,632.85 612.03,657.84 " fill="none" id="VaccineType-VaccineTypeStore" style="stroke:#181818;stroke-width:1.0;"/><text fill="#000000" font-family="sans-serif" font-size="13" lengthAdjust="spacing" textLength="39" x="696" y="624.4951">adopts</text><text fill="#000000" font-family="sans-serif" font-size="13" lengthAdjust="spacing" textLength="20" x="754.0709" y="584.0248">1..*</text><text fill="#000000" font-family="sans-serif" font-size="13" lengthAdjust="spacing" textLength="7" x="615.6459" y="647.2875">1</text></g><!--MD5=[fc4dca455656f95dd31169a46b7f7e7d]
@startuml
'left to right direction
skinparam classAttributeIconSize 0
hide empty members
hide @unlinked

class SpecifyNewVaccineUI
{
}

class SpecifyNewVaccineController
{
+createVaccine(id,name,manufacturer,type,administrationProcess)
+getVaccineTypeList()
}

class Company
{
-designation : String
+getVaccineTypeList() : VaccineTypeList
+createVaccine(id,name,manufacturer,type,administrationProcess) : Vaccine
+saveVaccine(Vaccine) : bool
}

class VaccineStore
{
+createVaccine(id,name,manufacturer,type,administrationProcess) : Vaccine
-validateVaccine(vc) : bool
+addVaccine(vc) : bool
}

class Vaccine
{
-id : int
-name : String
-manufacturer : String
-type : VaccineType
-administrationProcess : AdministrationProcess
+Vaccine(name,brand,type,administrationProcess) : Vaccine
-validadeVaccine() : bool
}

class VaccineType
{
-code : int
-designation : String
-whoId : String
+VaccineType(code,designation,whoId) : VaccineType
-validateVaccineType() : bool
}


class AdministrationProcess
{
-id : int
-minAge : int
-maxAge : int
-numberOfDoses : int
-dosage : double
-timeElapsed : int
+AdministrationProcess(id,minAge,maxAge,numberOfDoses,dosage,timeElapsed) : AdministrationProcess
}

class VaccineTypeStore
{
+getVaccineTypeList() : VaccineType
}


SpecifyNewVaccineUI .> SpecifyNewVaccineController : <<use>>
SpecifyNewVaccineController ..> Company : <<use>>
Company "1" - "1"VaccineStore : use
VaccineStore "1" - "1..*" Vaccine : adopts
Vaccine "1" - - "1" VaccineType : has
Vaccine "1" *- - "1" AdministrationProcess : contains
VaccineTypeStore "1" - "1" Company : uses
VaccineType "1..*" - - "1"VaccineTypeStore : adopts

@enduml

@startuml
skinparam classAttributeIconSize 0
hide empty members
hide @unlinked

class SpecifyNewVaccineUI
{
}

class SpecifyNewVaccineController
{
+createVaccine(id,name,manufacturer,type,administrationProcess)
+getVaccineTypeList()
}

class Company
{
-designation : String
+getVaccineTypeList() : VaccineTypeList
+createVaccine(id,name,manufacturer,type,administrationProcess) : Vaccine
+saveVaccine(Vaccine) : bool
}

class VaccineStore
{
+createVaccine(id,name,manufacturer,type,administrationProcess) : Vaccine
-validateVaccine(vc) : bool
+addVaccine(vc) : bool
}

class Vaccine
{
-id : int
-name : String
-manufacturer : String
-type : VaccineType
-administrationProcess : AdministrationProcess
+Vaccine(name,brand,type,administrationProcess) : Vaccine
-validadeVaccine() : bool
}

class VaccineType
{
-code : int
-designation : String
-whoId : String
+VaccineType(code,designation,whoId) : VaccineType
-validateVaccineType() : bool
}


class AdministrationProcess
{
-id : int
-minAge : int
-maxAge : int
-numberOfDoses : int
-dosage : double
-timeElapsed : int
+AdministrationProcess(id,minAge,maxAge,numberOfDoses,dosage,timeElapsed) : AdministrationProcess
}

class VaccineTypeStore
{
+getVaccineTypeList() : VaccineType
}


SpecifyNewVaccineUI .> SpecifyNewVaccineController : <<use>>
SpecifyNewVaccineController ..> Company : <<use>>
Company "1" - "1"VaccineStore : use
VaccineStore "1" - "1..*" Vaccine : adopts
Vaccine "1" - - "1" VaccineType : has
Vaccine "1" *- - "1" AdministrationProcess : contains
VaccineTypeStore "1" - "1" Company : uses
VaccineType "1..*" - - "1"VaccineTypeStore : adopts

@enduml

PlantUML version 1.2022.4(Sat Apr 09 14:29:17 BST 2022)
(GPL source distribution)
Java Runtime: OpenJDK Runtime Environment
JVM: OpenJDK 64-Bit Server VM
Default Encoding: Cp1252
Language: en
Country: GB
--></g></svg>