<?xml version="1.0" encoding="UTF-8" standalone="no"?><svg xmlns="http://www.w3.org/2000/svg" xmlns:xlink="http://www.w3.org/1999/xlink" contentScriptType="application/ecmascript" contentStyleType="text/css" height="956px" preserveAspectRatio="none" style="width:915px;height:956px;background:#FFFFFF;" version="1.1" viewBox="0 0 915 956" width="915px" zoomAndPan="magnify"><defs><filter height="300%" id="f1xv80n9psegal" width="300%" x="-1" y="-1"><feGaussianBlur result="blurOut" stdDeviation="2.0"/><feColorMatrix in="blurOut" result="blurOut2" type="matrix" values="0 0 0 0 0 0 0 0 0 0 0 0 0 0 0 0 0 0 .4 0"/><feOffset dx="4.0" dy="4.0" in="blurOut2" result="blurOut3"/><feBlend in="SourceGraphic" in2="blurOut3" mode="normal"/></filter></defs><g><!--MD5=[9f8be421555ef40f73d73ab9e5726964]
class RegisterVaccinationCenterUI--><rect codeLine="3" fill="#FEFECE" filter="url(#f1xv80n9psegal)" height="48" id="RegisterVaccinationCenterUI" style="stroke:#A80036;stroke-width:1.5;" width="191" x="358.5" y="7"/><ellipse cx="373.5" cy="23" fill="#ADD1B2" rx="11" ry="11" style="stroke:#A80036;stroke-width:1.0;"/><path d="M376.2656,18.875 Q376.4219,18.6563 376.6094,18.5469 Q376.7969,18.4375 377.0156,18.4375 Q377.3906,18.4375 377.625,18.7031 Q377.8594,18.9531 377.8594,19.5625 L377.8594,21.0156 Q377.8594,21.625 377.625,21.8906 Q377.3906,22.1563 377.0156,22.1563 Q376.6719,22.1563 376.4688,21.9531 Q376.2656,21.7656 376.1563,21.25 Q376.1094,20.8906 375.9219,20.7031 Q375.5938,20.3281 374.9844,20.1094 Q374.375,19.8906 373.75,19.8906 Q372.9844,19.8906 372.3438,20.2188 Q371.7188,20.5469 371.2188,21.2969 Q370.7344,22.0469 370.7344,23.0781 L370.7344,24.1719 Q370.7344,25.4063 371.625,26.2344 Q372.5156,27.0469 374.1094,27.0469 Q375.0469,27.0469 375.7031,26.7969 Q376.0938,26.6406 376.5156,26.2031 Q376.7813,25.9375 376.9219,25.8594 Q377.0781,25.7813 377.2813,25.7813 Q377.6094,25.7813 377.8594,26.0469 Q378.125,26.2969 378.125,26.6406 Q378.125,26.9844 377.7813,27.3906 Q377.2813,27.9688 376.4844,28.2969 Q375.4063,28.75 374.1094,28.75 Q372.5938,28.75 371.3906,28.125 Q370.4063,27.625 369.7188,26.5625 Q369.0313,25.4844 369.0313,24.2031 L369.0313,23.0469 Q369.0313,21.7188 369.6406,20.5781 Q370.2656,19.4219 371.3594,18.8125 Q372.4531,18.1875 373.6875,18.1875 Q374.4219,18.1875 375.0625,18.3594 Q375.7188,18.5156 376.2656,18.875 Z " fill="#000000"/><text fill="#000000" font-family="sans-serif" font-size="12" lengthAdjust="spacing" textLength="159" x="387.5" y="27.9102">RegisterVaccinationCenterUI</text><line style="stroke:#A80036;stroke-width:1.5;" x1="359.5" x2="548.5" y1="39" y2="39"/><line style="stroke:#A80036;stroke-width:1.5;" x1="359.5" x2="548.5" y1="47" y2="47"/><!--MD5=[839d5397894ca7c2829f7ab2dfdd9d6b]
class RegisterVaccinationCenterController--><rect codeLine="7" fill="#FEFECE" filter="url(#f1xv80n9psegal)" height="117.1797" id="RegisterVaccinationCenterController" style="stroke:#A80036;stroke-width:1.5;" width="894" x="7" y="116"/><ellipse cx="349.25" cy="132" fill="#ADD1B2" rx="11" ry="11" style="stroke:#A80036;stroke-width:1.0;"/><path d="M352.0156,127.875 Q352.1719,127.6563 352.3594,127.5469 Q352.5469,127.4375 352.7656,127.4375 Q353.1406,127.4375 353.375,127.7031 Q353.6094,127.9531 353.6094,128.5625 L353.6094,130.0156 Q353.6094,130.625 353.375,130.8906 Q353.1406,131.1563 352.7656,131.1563 Q352.4219,131.1563 352.2188,130.9531 Q352.0156,130.7656 351.9063,130.25 Q351.8594,129.8906 351.6719,129.7031 Q351.3438,129.3281 350.7344,129.1094 Q350.125,128.8906 349.5,128.8906 Q348.7344,128.8906 348.0938,129.2188 Q347.4688,129.5469 346.9688,130.2969 Q346.4844,131.0469 346.4844,132.0781 L346.4844,133.1719 Q346.4844,134.4063 347.375,135.2344 Q348.2656,136.0469 349.8594,136.0469 Q350.7969,136.0469 351.4531,135.7969 Q351.8438,135.6406 352.2656,135.2031 Q352.5313,134.9375 352.6719,134.8594 Q352.8281,134.7813 353.0313,134.7813 Q353.3594,134.7813 353.6094,135.0469 Q353.875,135.2969 353.875,135.6406 Q353.875,135.9844 353.5313,136.3906 Q353.0313,136.9688 352.2344,137.2969 Q351.1563,137.75 349.8594,137.75 Q348.3438,137.75 347.1406,137.125 Q346.1563,136.625 345.4688,135.5625 Q344.7813,134.4844 344.7813,133.2031 L344.7813,132.0469 Q344.7813,130.7188 345.3906,129.5781 Q346.0156,128.4219 347.1094,127.8125 Q348.2031,127.1875 349.4375,127.1875 Q350.1719,127.1875 350.8125,127.3594 Q351.4688,127.5156 352.0156,127.875 Z " fill="#000000"/><text fill="#000000" font-family="sans-serif" font-size="12" lengthAdjust="spacing" textLength="201" x="369.75" y="136.9102">RegisterVaccinationCenterController</text><line style="stroke:#A80036;stroke-width:1.5;" x1="8" x2="900" y1="148" y2="148"/><line style="stroke:#A80036;stroke-width:1.5;" x1="8" x2="900" y1="156" y2="156"/><text fill="#000000" font-family="sans-serif" font-size="11" lengthAdjust="spacing" textLength="882" x="13" y="171.4189">+registerVaccinationCenter(name, phoneNumber, address, emailAddress, faxNumber, websiteAddress, openingHour, closingHour, slotDuration, maxNumVaccines, centerCoordinator)</text><text fill="#000000" font-family="sans-serif" font-size="11" lengthAdjust="spacing" textLength="120" x="13" y="185.2549">+getListEmployeByRole()</text><text fill="#000000" font-family="sans-serif" font-size="11" lengthAdjust="spacing" textLength="127" x="13" y="199.0908">+saveVaccinationCenter()</text><text fill="#000000" font-family="sans-serif" font-size="11" lengthAdjust="spacing" textLength="140" x="13" y="212.9268">+validateVaccinationCenter()</text><text fill="#000000" font-family="sans-serif" font-size="11" lengthAdjust="spacing" textLength="144" x="13" y="226.7627">+getVaccinationCenterStore()</text><!--MD5=[02e4b9b7573f1156f41e60aa5b4e25a4]
class Company--><rect codeLine="15" fill="#FEFECE" filter="url(#f1xv80n9psegal)" height="61.8359" id="Company" style="stroke:#A80036;stroke-width:1.5;" width="156" x="376" y="294"/><ellipse cx="423.25" cy="310" fill="#ADD1B2" rx="11" ry="11" style="stroke:#A80036;stroke-width:1.0;"/><path d="M426.0156,305.875 Q426.1719,305.6563 426.3594,305.5469 Q426.5469,305.4375 426.7656,305.4375 Q427.1406,305.4375 427.375,305.7031 Q427.6094,305.9531 427.6094,306.5625 L427.6094,308.0156 Q427.6094,308.625 427.375,308.8906 Q427.1406,309.1563 426.7656,309.1563 Q426.4219,309.1563 426.2188,308.9531 Q426.0156,308.7656 425.9063,308.25 Q425.8594,307.8906 425.6719,307.7031 Q425.3438,307.3281 424.7344,307.1094 Q424.125,306.8906 423.5,306.8906 Q422.7344,306.8906 422.0938,307.2188 Q421.4688,307.5469 420.9688,308.2969 Q420.4844,309.0469 420.4844,310.0781 L420.4844,311.1719 Q420.4844,312.4063 421.375,313.2344 Q422.2656,314.0469 423.8594,314.0469 Q424.7969,314.0469 425.4531,313.7969 Q425.8438,313.6406 426.2656,313.2031 Q426.5313,312.9375 426.6719,312.8594 Q426.8281,312.7813 427.0313,312.7813 Q427.3594,312.7813 427.6094,313.0469 Q427.875,313.2969 427.875,313.6406 Q427.875,313.9844 427.5313,314.3906 Q427.0313,314.9688 426.2344,315.2969 Q425.1563,315.75 423.8594,315.75 Q422.3438,315.75 421.1406,315.125 Q420.1563,314.625 419.4688,313.5625 Q418.7813,312.4844 418.7813,311.2031 L418.7813,310.0469 Q418.7813,308.7188 419.3906,307.5781 Q420.0156,306.4219 421.1094,305.8125 Q422.2031,305.1875 423.4375,305.1875 Q424.1719,305.1875 424.8125,305.3594 Q425.4688,305.5156 426.0156,305.875 Z " fill="#000000"/><text fill="#000000" font-family="sans-serif" font-size="12" lengthAdjust="spacing" textLength="53" x="443.75" y="314.9102">Company</text><line style="stroke:#A80036;stroke-width:1.5;" x1="377" x2="531" y1="326" y2="326"/><line style="stroke:#A80036;stroke-width:1.5;" x1="377" x2="531" y1="334" y2="334"/><text fill="#000000" font-family="sans-serif" font-size="11" lengthAdjust="spacing" textLength="144" x="382" y="349.4189">+getVaccinationCenterStore()</text><!--MD5=[a29876ea2f21a6ca48ea477740122fd8]
class VaccinationCenterStore--><rect codeLine="19" fill="#FEFECE" filter="url(#f1xv80n9psegal)" height="89.5078" id="VaccinationCenterStore" style="stroke:#A80036;stroke-width:1.5;" width="894" x="7" y="434"/><ellipse cx="385.25" cy="450" fill="#ADD1B2" rx="11" ry="11" style="stroke:#A80036;stroke-width:1.0;"/><path d="M388.0156,445.875 Q388.1719,445.6563 388.3594,445.5469 Q388.5469,445.4375 388.7656,445.4375 Q389.1406,445.4375 389.375,445.7031 Q389.6094,445.9531 389.6094,446.5625 L389.6094,448.0156 Q389.6094,448.625 389.375,448.8906 Q389.1406,449.1563 388.7656,449.1563 Q388.4219,449.1563 388.2188,448.9531 Q388.0156,448.7656 387.9063,448.25 Q387.8594,447.8906 387.6719,447.7031 Q387.3438,447.3281 386.7344,447.1094 Q386.125,446.8906 385.5,446.8906 Q384.7344,446.8906 384.0938,447.2188 Q383.4688,447.5469 382.9688,448.2969 Q382.4844,449.0469 382.4844,450.0781 L382.4844,451.1719 Q382.4844,452.4063 383.375,453.2344 Q384.2656,454.0469 385.8594,454.0469 Q386.7969,454.0469 387.4531,453.7969 Q387.8438,453.6406 388.2656,453.2031 Q388.5313,452.9375 388.6719,452.8594 Q388.8281,452.7813 389.0313,452.7813 Q389.3594,452.7813 389.6094,453.0469 Q389.875,453.2969 389.875,453.6406 Q389.875,453.9844 389.5313,454.3906 Q389.0313,454.9688 388.2344,455.2969 Q387.1563,455.75 385.8594,455.75 Q384.3438,455.75 383.1406,455.125 Q382.1563,454.625 381.4688,453.5625 Q380.7813,452.4844 380.7813,451.2031 L380.7813,450.0469 Q380.7813,448.7188 381.3906,447.5781 Q382.0156,446.4219 383.1094,445.8125 Q384.2031,445.1875 385.4375,445.1875 Q386.1719,445.1875 386.8125,445.3594 Q387.4688,445.5156 388.0156,445.875 Z " fill="#000000"/><text fill="#000000" font-family="sans-serif" font-size="12" lengthAdjust="spacing" textLength="129" x="405.75" y="454.9102">VaccinationCenterStore</text><line style="stroke:#A80036;stroke-width:1.5;" x1="8" x2="900" y1="466" y2="466"/><line style="stroke:#A80036;stroke-width:1.5;" x1="8" x2="900" y1="474" y2="474"/><text fill="#000000" font-family="sans-serif" font-size="11" lengthAdjust="spacing" textLength="882" x="13" y="489.4189">+registerVaccinationCenter(name, phoneNumber, address, emailAddress, faxNumber, websiteAddress, openingHour, closingHour, slotDuration, maxNumVaccines, centerCoordinator)</text><text fill="#000000" font-family="sans-serif" font-size="11" lengthAdjust="spacing" textLength="127" x="13" y="503.2549">+saveVaccinationCenter()</text><text fill="#000000" font-family="sans-serif" font-size="11" lengthAdjust="spacing" textLength="140" x="13" y="517.0908">+validateVaccinationCenter()</text><!--MD5=[de60e6d4f424ae4d0522096f76a59010]
class VaccinationCenter--><rect codeLine="25" fill="#FEFECE" filter="url(#f1xv80n9psegal)" height="214.0313" id="VaccinationCenter" style="stroke:#A80036;stroke-width:1.5;" width="857" x="25.5" y="602"/><ellipse cx="399.75" cy="618" fill="#ADD1B2" rx="11" ry="11" style="stroke:#A80036;stroke-width:1.0;"/><path d="M402.5156,613.875 Q402.6719,613.6563 402.8594,613.5469 Q403.0469,613.4375 403.2656,613.4375 Q403.6406,613.4375 403.875,613.7031 Q404.1094,613.9531 404.1094,614.5625 L404.1094,616.0156 Q404.1094,616.625 403.875,616.8906 Q403.6406,617.1563 403.2656,617.1563 Q402.9219,617.1563 402.7188,616.9531 Q402.5156,616.7656 402.4063,616.25 Q402.3594,615.8906 402.1719,615.7031 Q401.8438,615.3281 401.2344,615.1094 Q400.625,614.8906 400,614.8906 Q399.2344,614.8906 398.5938,615.2188 Q397.9688,615.5469 397.4688,616.2969 Q396.9844,617.0469 396.9844,618.0781 L396.9844,619.1719 Q396.9844,620.4063 397.875,621.2344 Q398.7656,622.0469 400.3594,622.0469 Q401.2969,622.0469 401.9531,621.7969 Q402.3438,621.6406 402.7656,621.2031 Q403.0313,620.9375 403.1719,620.8594 Q403.3281,620.7813 403.5313,620.7813 Q403.8594,620.7813 404.1094,621.0469 Q404.375,621.2969 404.375,621.6406 Q404.375,621.9844 404.0313,622.3906 Q403.5313,622.9688 402.7344,623.2969 Q401.6563,623.75 400.3594,623.75 Q398.8438,623.75 397.6406,623.125 Q396.6563,622.625 395.9688,621.5625 Q395.2813,620.4844 395.2813,619.2031 L395.2813,618.0469 Q395.2813,616.7188 395.8906,615.5781 Q396.5156,614.4219 397.6094,613.8125 Q398.7031,613.1875 399.9375,613.1875 Q400.6719,613.1875 401.3125,613.3594 Q401.9688,613.5156 402.5156,613.875 Z " fill="#000000"/><text fill="#000000" font-family="sans-serif" font-size="12" lengthAdjust="spacing" textLength="100" x="420.25" y="622.9102">VaccinationCenter</text><line style="stroke:#A80036;stroke-width:1.5;" x1="26.5" x2="881.5" y1="634" y2="634"/><text fill="#000000" font-family="sans-serif" font-size="11" lengthAdjust="spacing" textLength="61" x="31.5" y="649.4189">-String name</text><text fill="#000000" font-family="sans-serif" font-size="11" lengthAdjust="spacing" textLength="102" x="31.5" y="663.2549">-String phoneNumber</text><text fill="#000000" font-family="sans-serif" font-size="11" lengthAdjust="spacing" textLength="101" x="31.5" y="677.0908">-String emailAddress</text><text fill="#000000" font-family="sans-serif" font-size="11" lengthAdjust="spacing" textLength="88" x="31.5" y="690.9268">-String faxNumber</text><text fill="#000000" font-family="sans-serif" font-size="11" lengthAdjust="spacing" textLength="116" x="31.5" y="704.7627">-String websiteAddress</text><text fill="#000000" font-family="sans-serif" font-size="11" lengthAdjust="spacing" textLength="90" x="31.5" y="718.5986">-Time openingHour</text><text fill="#000000" font-family="sans-serif" font-size="11" lengthAdjust="spacing" textLength="86" x="31.5" y="732.4346">-Time closingHour</text><text fill="#000000" font-family="sans-serif" font-size="11" lengthAdjust="spacing" textLength="75" x="31.5" y="746.2705">-Int slotDuration</text><text fill="#000000" font-family="sans-serif" font-size="11" lengthAdjust="spacing" textLength="105" x="31.5" y="760.1064">-Int maxNumVaccines</text><text fill="#000000" font-family="sans-serif" font-size="11" lengthAdjust="spacing" textLength="122" x="31.5" y="773.9424">-String centerCoordinator</text><text fill="#000000" font-family="sans-serif" font-size="11" lengthAdjust="spacing" textLength="89" x="31.5" y="787.7783">-Address address</text><line style="stroke:#A80036;stroke-width:1.5;" x1="26.5" x2="881.5" y1="794.1953" y2="794.1953"/><text fill="#000000" font-family="sans-serif" font-size="11" lengthAdjust="spacing" textLength="845" x="31.5" y="809.6143">+VaccinationCenter(name, phoneNumber, address, emailAddress, faxNumber, websiteAddress, openingHour, closingHour, slotDuration, maxNumVaccines, centerCoordinator)</text><!--MD5=[0f39e4cb6f03951afbf6d14bd2505654]
class Address--><rect codeLine="40" fill="#FEFECE" filter="url(#f1xv80n9psegal)" height="48" id="Address" style="stroke:#A80036;stroke-width:1.5;" width="78" x="415" y="894"/><ellipse cx="430" cy="910" fill="#ADD1B2" rx="11" ry="11" style="stroke:#A80036;stroke-width:1.0;"/><path d="M432.7656,905.875 Q432.9219,905.6563 433.1094,905.5469 Q433.2969,905.4375 433.5156,905.4375 Q433.8906,905.4375 434.125,905.7031 Q434.3594,905.9531 434.3594,906.5625 L434.3594,908.0156 Q434.3594,908.625 434.125,908.8906 Q433.8906,909.1563 433.5156,909.1563 Q433.1719,909.1563 432.9688,908.9531 Q432.7656,908.7656 432.6563,908.25 Q432.6094,907.8906 432.4219,907.7031 Q432.0938,907.3281 431.4844,907.1094 Q430.875,906.8906 430.25,906.8906 Q429.4844,906.8906 428.8438,907.2188 Q428.2188,907.5469 427.7188,908.2969 Q427.2344,909.0469 427.2344,910.0781 L427.2344,911.1719 Q427.2344,912.4063 428.125,913.2344 Q429.0156,914.0469 430.6094,914.0469 Q431.5469,914.0469 432.2031,913.7969 Q432.5938,913.6406 433.0156,913.2031 Q433.2813,912.9375 433.4219,912.8594 Q433.5781,912.7813 433.7813,912.7813 Q434.1094,912.7813 434.3594,913.0469 Q434.625,913.2969 434.625,913.6406 Q434.625,913.9844 434.2813,914.3906 Q433.7813,914.9688 432.9844,915.2969 Q431.9063,915.75 430.6094,915.75 Q429.0938,915.75 427.8906,915.125 Q426.9063,914.625 426.2188,913.5625 Q425.5313,912.4844 425.5313,911.2031 L425.5313,910.0469 Q425.5313,908.7188 426.1406,907.5781 Q426.7656,906.4219 427.8594,905.8125 Q428.9531,905.1875 430.1875,905.1875 Q430.9219,905.1875 431.5625,905.3594 Q432.2188,905.5156 432.7656,905.875 Z " fill="#000000"/><text fill="#000000" font-family="sans-serif" font-size="12" lengthAdjust="spacing" textLength="46" x="444" y="914.9102">Address</text><line style="stroke:#A80036;stroke-width:1.5;" x1="416" x2="492" y1="926" y2="926"/><line style="stroke:#A80036;stroke-width:1.5;" x1="416" x2="492" y1="934" y2="934"/><!--MD5=[3707ceef165f033caf0f720e17080648]
link RegisterVaccinationCenterUI to RegisterVaccinationCenterController--><path codeLine="44" d="M454,55.05 C454,70.28 454,91.04 454,110.92 " fill="none" id="RegisterVaccinationCenterUI-to-RegisterVaccinationCenterController" style="stroke:#A80036;stroke-width:1.0;stroke-dasharray:7.0,7.0;"/><polygon fill="#A80036" points="454,115.95,458,106.95,454,110.95,450,106.95,454,115.95" style="stroke:#A80036;stroke-width:1.0;"/><!--MD5=[c9c3cd8f1910cdf41012410901746d61]
link RegisterVaccinationCenterController to Company--><path codeLine="45" d="M454,233.34 C454,252.09 454,272.3 454,288.87 " fill="none" id="RegisterVaccinationCenterController-to-Company" style="stroke:#A80036;stroke-width:1.0;stroke-dasharray:7.0,7.0;"/><polygon fill="#A80036" points="454,293.9,458,284.9,454,288.9,450,284.9,454,293.9" style="stroke:#A80036;stroke-width:1.0;"/><!--MD5=[bc0d5b4bfe6e1bf0a8fced13bc4bdd47]
link Company to VaccinationCenterStore--><path codeLine="47" d="M454,356.03 C454,378.27 454,408.91 454,433.92 " fill="none" id="Company-VaccinationCenterStore" style="stroke:#A80036;stroke-width:1.0;"/><polygon fill="#000000" points="459,400.1758,461.9389,391.1307,456.0611,391.1307,459,400.1758" style="stroke:#000000;stroke-width:1.0;"/><text fill="#000000" font-family="sans-serif" font-size="13" lengthAdjust="spacing" textLength="28" x="468" y="400.4951">uses</text><text fill="#000000" font-family="sans-serif" font-size="13" lengthAdjust="spacing" textLength="7" x="446.3109" y="377.2599">1</text><text fill="#000000" font-family="sans-serif" font-size="13" lengthAdjust="spacing" textLength="7" x="446.4422" y="423.0227">1</text><!--MD5=[8c304936b446fd8cea914e03fbadd4b7]
link VaccinationCenterStore to VaccinationCenter--><path codeLine="48" d="M454,524.23 C454,546.5 454,574.55 454,601.98 " fill="none" id="VaccinationCenterStore-VaccinationCenter" style="stroke:#A80036;stroke-width:1.0;"/><polygon fill="#000000" points="459,568.1758,461.9389,559.1307,456.0611,559.1307,459,568.1758" style="stroke:#000000;stroke-width:1.0;"/><text fill="#000000" font-family="sans-serif" font-size="13" lengthAdjust="spacing" textLength="21" x="468" y="568.4951">has</text><text fill="#000000" font-family="sans-serif" font-size="13" lengthAdjust="spacing" textLength="7" x="446.5297" y="544.9346">1</text><text fill="#000000" font-family="sans-serif" font-size="13" lengthAdjust="spacing" textLength="5" x="448.8164" y="591.0401">*</text><!--MD5=[233a09a91aa8c3856d31bdcfa7c5bcf8]
link VaccinationCenter to Address--><path codeLine="50" d="M454,816.23 C454,845.41 454,874.31 454,893.62 " fill="none" id="VaccinationCenter-Address" style="stroke:#A80036;stroke-width:1.0;"/><polygon fill="#000000" points="459,860.1758,461.9389,851.1307,456.0611,851.1307,459,860.1758" style="stroke:#000000;stroke-width:1.0;"/><text fill="#000000" font-family="sans-serif" font-size="13" lengthAdjust="spacing" textLength="21" x="468" y="860.4951">has</text><text fill="#000000" font-family="sans-serif" font-size="13" lengthAdjust="spacing" textLength="7" x="446.7648" y="837.4779">1</text><text fill="#000000" font-family="sans-serif" font-size="13" lengthAdjust="spacing" textLength="7" x="446.1469" y="883.2653">1</text><!--MD5=[11d81371c5f949a2201a169524052ee0]
@startuml US09_CD
skinparam classAttributeIconSize 0

class RegisterVaccinationCenterUI {
  
}

class RegisterVaccinationCenterController {
  +registerVaccinationCenter(name, phoneNumber, address, emailAddress, faxNumber, websiteAddress, openingHour, closingHour, slotDuration, maxNumVaccines, centerCoordinator)
  +getListEmployeByRole()
  +saveVaccinationCenter()
  +validateVaccinationCenter()
  +getVaccinationCenterStore()
}

class Company {
  +getVaccinationCenterStore()
}

Class VaccinationCenterStore{
  +registerVaccinationCenter(name, phoneNumber, address, emailAddress, faxNumber, websiteAddress, openingHour, closingHour, slotDuration, maxNumVaccines, centerCoordinator)
  +saveVaccinationCenter()
  +validateVaccinationCenter()
}

class VaccinationCenter {
  -String name
  -String phoneNumber
  -String emailAddress
  -String faxNumber
  -String websiteAddress
  -Time openingHour
  -Time closingHour
  -Int slotDuration
  -Int maxNumVaccines
  -String centerCoordinator
  -Address address
  +VaccinationCenter(name, phoneNumber, address, emailAddress, faxNumber, websiteAddress, openingHour, closingHour, slotDuration, maxNumVaccines, centerCoordinator)
}

class Address {

}

RegisterVaccinationCenterUI ..> RegisterVaccinationCenterController
RegisterVaccinationCenterController ..> Company

Company "1" - - "1" VaccinationCenterStore : uses >
VaccinationCenterStore "1" - - "*" VaccinationCenter : has >

VaccinationCenter "1" - - "1" Address : has >



@enduml

PlantUML version 1.2022.0(Tue Jan 11 16:16:42 WET 2022)
(GPL source distribution)
Java Runtime: Java(TM) SE Runtime Environment
JVM: Java HotSpot(TM) 64-Bit Server VM
Default Encoding: Cp1252
Language: pt
Country: PT
--></g></svg>