<?xml version="1.0" encoding="UTF-8" standalone="no"?><svg xmlns="http://www.w3.org/2000/svg" xmlns:xlink="http://www.w3.org/1999/xlink" contentScriptType="application/ecmascript" contentStyleType="text/css" height="500.8834px" preserveAspectRatio="none" style="width:462px;height:500px;background:#FFFFFF;" version="1.1" viewBox="0 0 462 500" width="462.0141px" zoomAndPan="magnify"><defs><filter height="300%" id="f16ayqoocl9vft" width="300%" x="-1" y="-1"><feGaussianBlur result="blurOut" stdDeviation="1.7667844522968197"/><feColorMatrix in="blurOut" result="blurOut2" type="matrix" values="0 0 0 0 0 0 0 0 0 0 0 0 0 0 0 0 0 0 .4 0"/><feOffset dx="3.5335689045936394" dy="3.5335689045936394" in="blurOut2" result="blurOut3"/><feBlend in="SourceGraphic" in2="blurOut3" mode="normal"/></filter></defs><g><!--MD5=[02e4b9b7573f1156f41e60aa5b4e25a4]
class Company--><rect codeLine="5" fill="#FEFECE" filter="url(#f16ayqoocl9vft)" height="35.3357" id="Company" style="stroke:#A80036;stroke-width:1.3250883392226147;" width="75.0883" x="255.3004" y="6.1837"/><ellipse cx="268.5512" cy="20.318" fill="#ADD1B2" rx="9.7173" ry="9.7173" style="stroke:#A80036;stroke-width:0.8833922261484098;"/><path d="M270.9944,16.674 Q271.1324,16.4808 271.298,16.3842 Q271.4637,16.2875 271.6569,16.2875 Q271.9882,16.2875 272.1952,16.5222 Q272.4023,16.743 272.4023,17.2814 L272.4023,18.565 Q272.4023,19.1034 272.1952,19.338 Q271.9882,19.5727 271.6569,19.5727 Q271.3532,19.5727 271.1738,19.3932 Q270.9944,19.2276 270.8977,18.7721 Q270.8563,18.4546 270.6907,18.289 Q270.4008,17.9577 269.8625,17.7645 Q269.3242,17.5712 268.7721,17.5712 Q268.0957,17.5712 267.5298,17.8611 Q266.9777,18.1509 266.536,18.8135 Q266.1081,19.476 266.1081,20.387 L266.1081,21.3532 Q266.1081,22.4437 266.8949,23.1752 Q267.6816,23.893 269.0896,23.893 Q269.9177,23.893 270.4975,23.6722 Q270.8425,23.5341 271.2152,23.1476 Q271.4499,22.913 271.5741,22.844 Q271.7121,22.775 271.8916,22.775 Q272.1814,22.775 272.4023,23.0096 Q272.6369,23.2305 272.6369,23.5341 Q272.6369,23.8378 272.3333,24.1967 Q271.8916,24.7074 271.1876,24.9972 Q270.2352,25.3975 269.0896,25.3975 Q267.7507,25.3975 266.6878,24.8454 Q265.8182,24.4037 265.2109,23.4651 Q264.6036,22.5127 264.6036,21.3809 L264.6036,20.3594 Q264.6036,19.1862 265.1419,18.1786 Q265.694,17.1571 266.6602,16.6188 Q267.6264,16.0667 268.7169,16.0667 Q269.3656,16.0667 269.9315,16.2185 Q270.5113,16.3566 270.9944,16.674 Z " fill="#000000"/><text fill="#000000" font-family="sans-serif" font-size="10.6007" lengthAdjust="spacing" textLength="46.8198" x="280.9187" y="24.6556">Company</text><line style="stroke:#A80036;stroke-width:1.3250883392226147;" x1="256.1837" x2="329.5053" y1="34.4523" y2="34.4523"/><!--MD5=[da547346deef918ea16944ba046651ef]
class Administrator--><rect codeLine="9" fill="#FEFECE" filter="url(#f16ayqoocl9vft)" height="35.3357" id="Administrator" style="stroke:#A80036;stroke-width:1.3250883392226147;" width="92.7562" x="192.5795" y="110.424"/><ellipse cx="205.8304" cy="124.5583" fill="#ADD1B2" rx="9.7173" ry="9.7173" style="stroke:#A80036;stroke-width:0.8833922261484098;"/><path d="M208.2735,120.9143 Q208.4116,120.7211 208.5772,120.6244 Q208.7428,120.5278 208.9361,120.5278 Q209.2673,120.5278 209.4744,120.7625 Q209.6814,120.9833 209.6814,121.5216 L209.6814,122.8053 Q209.6814,123.3436 209.4744,123.5783 Q209.2673,123.8129 208.9361,123.8129 Q208.6324,123.8129 208.453,123.6335 Q208.2735,123.4679 208.1769,123.0124 Q208.1355,122.6949 207.9699,122.5293 Q207.68,122.198 207.1417,122.0047 Q206.6034,121.8115 206.0512,121.8115 Q205.3749,121.8115 204.809,122.1014 Q204.2568,122.3912 203.8152,123.0538 Q203.3873,123.7163 203.3873,124.6273 L203.3873,125.5935 Q203.3873,126.684 204.174,127.4155 Q204.9608,128.1333 206.3687,128.1333 Q207.1969,128.1333 207.7766,127.9124 Q208.1217,127.7744 208.4944,127.3879 Q208.729,127.1533 208.8532,127.0843 Q208.9913,127.0152 209.1707,127.0152 Q209.4606,127.0152 209.6814,127.2499 Q209.9161,127.4707 209.9161,127.7744 Q209.9161,128.0781 209.6124,128.4369 Q209.1707,128.9477 208.4668,129.2375 Q207.5144,129.6378 206.3687,129.6378 Q205.0298,129.6378 203.967,129.0857 Q203.0974,128.644 202.4901,127.7054 Q201.8827,126.753 201.8827,125.6211 L201.8827,124.5997 Q201.8827,123.4265 202.421,122.4188 Q202.9732,121.3974 203.9394,120.8591 Q204.9056,120.307 205.996,120.307 Q206.6448,120.307 207.2107,120.4588 Q207.7904,120.5968 208.2735,120.9143 Z " fill="#000000"/><text fill="#000000" font-family="sans-serif" font-size="10.6007" lengthAdjust="spacing" textLength="64.4876" x="218.1979" y="128.8959">Administrator</text><line style="stroke:#A80036;stroke-width:1.3250883392226147;" x1="193.4629" x2="284.4523" y1="138.6926" y2="138.6926"/><!--MD5=[56872536300a053cf9fd13853ad6ab1e]
class CommunityMassVaccinationCenter--><rect codeLine="14" fill="#FEFECE" filter="url(#f16ayqoocl9vft)" height="35.3357" id="CommunityMassVaccinationCenter" style="stroke:#A80036;stroke-width:1.3250883392226147;" width="198.7633" x="6.1837" y="453.1802"/><ellipse cx="19.4346" cy="467.3145" fill="#ADD1B2" rx="9.7173" ry="9.7173" style="stroke:#A80036;stroke-width:0.8833922261484098;"/><path d="M21.8778,463.6705 Q22.0158,463.4773 22.1814,463.3806 Q22.3471,463.284 22.5403,463.284 Q22.8716,463.284 23.0786,463.5187 Q23.2857,463.7395 23.2857,464.2778 L23.2857,465.5615 Q23.2857,466.0998 23.0786,466.3345 Q22.8716,466.5691 22.5403,466.5691 Q22.2366,466.5691 22.0572,466.3897 Q21.8778,466.2241 21.7811,465.7686 Q21.7397,465.4511 21.5741,465.2854 Q21.2842,464.9542 20.7459,464.7609 Q20.2076,464.5677 19.6555,464.5677 Q18.9791,464.5677 18.4132,464.8576 Q17.8611,465.1474 17.4194,465.81 Q16.9915,466.4725 16.9915,467.3835 L16.9915,468.3497 Q16.9915,469.4402 17.7783,470.1717 Q18.565,470.8895 19.9729,470.8895 Q20.8011,470.8895 21.3809,470.6686 Q21.7259,470.5306 22.0986,470.1441 Q22.3333,469.9095 22.4575,469.8404 Q22.5955,469.7714 22.775,469.7714 Q23.0648,469.7714 23.2857,470.0061 Q23.5203,470.2269 23.5203,470.5306 Q23.5203,470.8343 23.2167,471.1931 Q22.775,471.7038 22.071,471.9937 Q21.1186,472.394 19.9729,472.394 Q18.6341,472.394 17.5712,471.8419 Q16.7016,471.4002 16.0943,470.4616 Q15.487,469.5092 15.487,468.3773 L15.487,467.3559 Q15.487,466.1826 16.0253,465.175 Q16.5774,464.1536 17.5436,463.6153 Q18.5098,463.0632 19.6003,463.0632 Q20.249,463.0632 20.8149,463.215 Q21.3947,463.353 21.8778,463.6705 Z " fill="#000000"/><text fill="#000000" font-family="sans-serif" font-size="10.6007" lengthAdjust="spacing" textLength="170.4947" x="31.8021" y="471.6521">CommunityMassVaccinationCenter</text><line style="stroke:#A80036;stroke-width:1.3250883392226147;" x1="7.0671" x2="204.0636" y1="481.4488" y2="481.4488"/><!--MD5=[0b1ce5251ebf137e6b3550dd84e6af65]
class HealthcareCenter--><rect codeLine="18" fill="#FEFECE" filter="url(#f16ayqoocl9vft)" height="35.3357" id="HealthcareCenter" style="stroke:#A80036;stroke-width:1.3250883392226147;" width="113.9576" x="235.8657" y="453.1802"/><ellipse cx="249.1166" cy="467.3145" fill="#ADD1B2" rx="9.7173" ry="9.7173" style="stroke:#A80036;stroke-width:0.8833922261484098;"/><path d="M251.5597,463.6705 Q251.6978,463.4773 251.8634,463.3806 Q252.029,463.284 252.2223,463.284 Q252.5536,463.284 252.7606,463.5187 Q252.9676,463.7395 252.9676,464.2778 L252.9676,465.5615 Q252.9676,466.0998 252.7606,466.3345 Q252.5536,466.5691 252.2223,466.5691 Q251.9186,466.5691 251.7392,466.3897 Q251.5597,466.2241 251.4631,465.7686 Q251.4217,465.4511 251.2561,465.2854 Q250.9662,464.9542 250.4279,464.7609 Q249.8896,464.5677 249.3375,464.5677 Q248.6611,464.5677 248.0952,464.8576 Q247.5431,465.1474 247.1014,465.81 Q246.6735,466.4725 246.6735,467.3835 L246.6735,468.3497 Q246.6735,469.4402 247.4602,470.1717 Q248.247,470.8895 249.6549,470.8895 Q250.4831,470.8895 251.0628,470.6686 Q251.4079,470.5306 251.7806,470.1441 Q252.0152,469.9095 252.1395,469.8404 Q252.2775,469.7714 252.4569,469.7714 Q252.7468,469.7714 252.9676,470.0061 Q253.2023,470.2269 253.2023,470.5306 Q253.2023,470.8343 252.8986,471.1931 Q252.4569,471.7038 251.753,471.9937 Q250.8006,472.394 249.6549,472.394 Q248.316,472.394 247.2532,471.8419 Q246.3836,471.4002 245.7763,470.4616 Q245.1689,469.5092 245.1689,468.3773 L245.1689,467.3559 Q245.1689,466.1826 245.7073,465.175 Q246.2594,464.1536 247.2256,463.6153 Q248.1918,463.0632 249.2822,463.0632 Q249.931,463.0632 250.4969,463.215 Q251.0766,463.353 251.5597,463.6705 Z " fill="#000000"/><text fill="#000000" font-family="sans-serif" font-size="10.6007" lengthAdjust="spacing" textLength="85.689" x="261.4841" y="471.6521">HealthcareCenter</text><line style="stroke:#A80036;stroke-width:1.3250883392226147;" x1="236.7491" x2="348.9399" y1="481.4488" y2="481.4488"/><!--MD5=[de60e6d4f424ae4d0522096f76a59010]
class VaccinationCenter--><rect codeLine="22" fill="#FEFECE" filter="url(#f16ayqoocl9vft)" height="169.7838" id="VaccinationCenter" style="stroke:#A80036;stroke-width:1.3250883392226147;" width="116.6078" x="234.5406" y="214.6643"/><ellipse cx="247.7915" cy="228.7986" fill="#ADD1B2" rx="9.7173" ry="9.7173" style="stroke:#A80036;stroke-width:0.8833922261484098;"/><path d="M250.2347,225.1546 Q250.3727,224.9614 250.5383,224.8647 Q250.704,224.7681 250.8972,224.7681 Q251.2285,224.7681 251.4355,225.0028 Q251.6426,225.2236 251.6426,225.7619 L251.6426,227.0456 Q251.6426,227.5839 251.4355,227.8186 Q251.2285,228.0532 250.8972,228.0532 Q250.5935,228.0532 250.4141,227.8738 Q250.2347,227.7081 250.138,227.2527 Q250.0966,226.9352 249.931,226.7695 Q249.6411,226.4383 249.1028,226.245 Q248.5645,226.0518 248.0124,226.0518 Q247.336,226.0518 246.7701,226.3417 Q246.218,226.6315 245.7763,227.2941 Q245.3484,227.9566 245.3484,228.8676 L245.3484,229.8338 Q245.3484,230.9242 246.1352,231.6558 Q246.9219,232.3736 248.3298,232.3736 Q249.158,232.3736 249.7377,232.1527 Q250.0828,232.0147 250.4555,231.6282 Q250.6902,231.3936 250.8144,231.3245 Q250.9524,231.2555 251.1318,231.2555 Q251.4217,231.2555 251.6426,231.4902 Q251.8772,231.711 251.8772,232.0147 Q251.8772,232.3184 251.5735,232.6772 Q251.1318,233.1879 250.4279,233.4778 Q249.4755,233.8781 248.3298,233.8781 Q246.9909,233.8781 245.9281,233.326 Q245.0585,232.8843 244.4512,231.9457 Q243.8439,230.9933 243.8439,229.8614 L243.8439,228.84 Q243.8439,227.6667 244.3822,226.6591 Q244.9343,225.6377 245.9005,225.0994 Q246.8667,224.5473 247.9572,224.5473 Q248.6059,224.5473 249.1718,224.6991 Q249.7515,224.8371 250.2347,225.1546 Z " fill="#000000"/><text fill="#000000" font-family="sans-serif" font-size="10.6007" lengthAdjust="spacing" textLength="88.3392" x="260.159" y="233.1362">VaccinationCenter</text><line style="stroke:#A80036;stroke-width:1.3250883392226147;" x1="235.424" x2="350.265" y1="242.9329" y2="242.9329"/><text fill="#000000" font-family="sans-serif" font-size="9.7173" lengthAdjust="spacing" textLength="22.9682" x="239.841" y="256.5538">name</text><text fill="#000000" font-family="sans-serif" font-size="9.7173" lengthAdjust="spacing" textLength="59.1873" x="239.841" y="268.7764">phoneNumber</text><text fill="#000000" font-family="sans-serif" font-size="9.7173" lengthAdjust="spacing" textLength="35.3357" x="239.841" y="280.999">address</text><text fill="#000000" font-family="sans-serif" font-size="9.7173" lengthAdjust="spacing" textLength="58.3039" x="239.841" y="293.2215">emailAddress</text><text fill="#000000" font-family="sans-serif" font-size="9.7173" lengthAdjust="spacing" textLength="46.8198" x="239.841" y="305.4441">faxNumber</text><text fill="#000000" font-family="sans-serif" font-size="9.7173" lengthAdjust="spacing" textLength="71.5548" x="239.841" y="317.6666">websiteAddress</text><text fill="#000000" font-family="sans-serif" font-size="9.7173" lengthAdjust="spacing" textLength="53.8869" x="239.841" y="329.8892">openingHour</text><text fill="#000000" font-family="sans-serif" font-size="9.7173" lengthAdjust="spacing" textLength="50.3534" x="239.841" y="342.1118">closingHour</text><text fill="#000000" font-family="sans-serif" font-size="9.7173" lengthAdjust="spacing" textLength="50.3534" x="239.841" y="354.3343">slotDuration</text><text fill="#000000" font-family="sans-serif" font-size="9.7173" lengthAdjust="spacing" textLength="76.8551" x="239.841" y="366.5569">maxNumVaccines</text><text fill="#000000" font-family="sans-serif" font-size="9.7173" lengthAdjust="spacing" textLength="76.8551" x="239.841" y="378.7794">centerCoordinator</text><!--MD5=[0f39e4cb6f03951afbf6d14bd2505654]
class Address--><rect codeLine="36" fill="#FEFECE" filter="url(#f16ayqoocl9vft)" height="35.3357" id="Address" style="stroke:#A80036;stroke-width:1.3250883392226147;" width="68.9046" x="381.1837" y="453.1802"/><ellipse cx="394.4346" cy="467.3145" fill="#ADD1B2" rx="9.7173" ry="9.7173" style="stroke:#A80036;stroke-width:0.8833922261484098;"/><path d="M396.8778,463.6705 Q397.0158,463.4773 397.1814,463.3806 Q397.3471,463.284 397.5403,463.284 Q397.8716,463.284 398.0786,463.5187 Q398.2857,463.7395 398.2857,464.2778 L398.2857,465.5615 Q398.2857,466.0998 398.0786,466.3345 Q397.8716,466.5691 397.5403,466.5691 Q397.2366,466.5691 397.0572,466.3897 Q396.8778,466.2241 396.7811,465.7686 Q396.7397,465.4511 396.5741,465.2854 Q396.2842,464.9542 395.7459,464.7609 Q395.2076,464.5677 394.6555,464.5677 Q393.9791,464.5677 393.4132,464.8576 Q392.8611,465.1474 392.4194,465.81 Q391.9915,466.4725 391.9915,467.3835 L391.9915,468.3497 Q391.9915,469.4402 392.7783,470.1717 Q393.565,470.8895 394.9729,470.8895 Q395.8011,470.8895 396.3809,470.6686 Q396.7259,470.5306 397.0986,470.1441 Q397.3333,469.9095 397.4575,469.8404 Q397.5955,469.7714 397.775,469.7714 Q398.0648,469.7714 398.2857,470.0061 Q398.5203,470.2269 398.5203,470.5306 Q398.5203,470.8343 398.2167,471.1931 Q397.775,471.7038 397.071,471.9937 Q396.1186,472.394 394.9729,472.394 Q393.6341,472.394 392.5712,471.8419 Q391.7016,471.4002 391.0943,470.4616 Q390.487,469.5092 390.487,468.3773 L390.487,467.3559 Q390.487,466.1826 391.0253,465.175 Q391.5774,464.1536 392.5436,463.6153 Q393.5098,463.0632 394.6003,463.0632 Q395.249,463.0632 395.8149,463.215 Q396.3947,463.353 396.8778,463.6705 Z " fill="#000000"/><text fill="#000000" font-family="sans-serif" font-size="10.6007" lengthAdjust="spacing" textLength="40.636" x="406.8021" y="471.6521">Address</text><line style="stroke:#A80036;stroke-width:1.3250883392226147;" x1="382.0671" x2="449.2049" y1="481.4488" y2="481.4488"/><!--MD5=[eaea43e34e45c5b9d20b595fc78f1f20]
link Company to Administrator--><path codeLine="40" d="M283.9488,41.6608 C273.9576,60.6449 257.8622,91.2633 247.871,110.265 " fill="none" id="Company-Administrator" style="stroke:#A80036;stroke-width:0.8833922261484098;"/><polygon fill="#000000" points="272.2374,80.0364,278.2544,74.1727,273.6587,71.7559,272.2374,80.0364" style="stroke:#000000;stroke-width:0.8833922261484098;"/><text fill="#000000" font-family="sans-serif" font-size="11.4841" lengthAdjust="spacing" textLength="18.5512" x="282.2438" y="80.8261">has</text><text fill="#000000" font-family="sans-serif" font-size="11.4841" lengthAdjust="spacing" textLength="6.1837" x="274.3935" y="60.6224">1</text><text fill="#000000" font-family="sans-serif" font-size="11.4841" lengthAdjust="spacing" textLength="4.417" x="245.4236" y="100.7852">*</text><!--MD5=[eebe9b198877275d05dd12630ed9e401]
link Company to VaccinationCenter--><path codeLine="41" d="M299.7085,41.5813 C310.9099,71.1219 331.1661,134.2403 323.7633,188.1625 C322.5883,196.7403 320.9099,205.5919 318.9488,214.3816 " fill="none" id="Company-VaccinationCenter" style="stroke:#A80036;stroke-width:0.8833922261484098;"/><polygon fill="#000000" points="329.5524,132.637,331.2485,124.4084,326.0879,124.983,329.5524,132.637" style="stroke:#000000;stroke-width:0.8833922261484098;"/><text fill="#000000" font-family="sans-serif" font-size="11.4841" lengthAdjust="spacing" textLength="18.5512" x="337.0141" y="132.9462">has</text><text fill="#000000" font-family="sans-serif" font-size="11.4841" lengthAdjust="spacing" textLength="6.1837" x="294.5856" y="60.5205">1</text><text fill="#000000" font-family="sans-serif" font-size="11.4841" lengthAdjust="spacing" textLength="4.417" x="316.3613" y="205.1185">*</text><!--MD5=[d497e8607f1e7b3d570c70d67196006d]
link Administrator to VaccinationCenter--><path codeLine="43" d="M244.3198,145.8569 C249.5406,162.2792 257.871,188.5159 266.1749,214.6378 " fill="none" id="Administrator-VaccinationCenter" style="stroke:#A80036;stroke-width:0.8833922261484098;"/><polygon fill="#000000" points="262.38,184.5769,262.4346,176.1755,257.486,177.7479,262.38,184.5769" style="stroke:#000000;stroke-width:0.8833922261484098;"/><text fill="#000000" font-family="sans-serif" font-size="11.4841" lengthAdjust="spacing" textLength="46.8198" x="268.9929" y="185.0664">manages</text><text fill="#000000" font-family="sans-serif" font-size="11.4841" lengthAdjust="spacing" textLength="6.1837" x="238.7746" y="164.8061">1</text><text fill="#000000" font-family="sans-serif" font-size="11.4841" lengthAdjust="spacing" textLength="4.417" x="259.4567" y="205.1073">*</text><!--MD5=[233a09a91aa8c3856d31bdcfa7c5bcf8]
link VaccinationCenter to Address--><path codeLine="44" d="M351.1837,380.9364 C370.8569,408.1184 390.9629,435.8746 403.3657,453.0124 " fill="none" id="VaccinationCenter-Address" style="stroke:#A80036;stroke-width:0.8833922261484098;"/><polygon fill="#000000" points="389.0743,422.4609,386.4915,414.4662,382.2856,417.5112,389.0743,422.4609" style="stroke:#000000;stroke-width:0.8833922261484098;"/><text fill="#000000" font-family="sans-serif" font-size="11.4841" lengthAdjust="spacing" textLength="18.5512" x="394.4346" y="423.5823">has</text><text fill="#000000" font-family="sans-serif" font-size="11.4841" lengthAdjust="spacing" textLength="6.1837" x="358.2867" y="387.334">1</text><text fill="#000000" font-family="sans-serif" font-size="11.4841" lengthAdjust="spacing" textLength="6.1837" x="392.6693" y="443.53">1</text><!--MD5=[9c09d1db3efb59cb07492bc4345754ed]
reverse link VaccinationCenter to CommunityMassVaccinationCenter--><path codeLine="46" d="M221.2191,365.2208 C186.2721,396.8728 146.9876,432.4558 124.3728,452.9329 " fill="none" id="VaccinationCenter-backto-CommunityMassVaccinationCenter" style="stroke:#A80036;stroke-width:0.8833922261484098;"/><polygon fill="none" points="217.1113,360.6007,234.3551,353.3216,225.4152,369.7615,217.1113,360.6007" style="stroke:#A80036;stroke-width:0.8833922261484098;"/><!--MD5=[860a319d9f073c66a49856aa2bd7c3ed]
reverse link VaccinationCenter to HealthcareCenter--><path codeLine="47" d="M292.8445,402.2792 C292.8445,421.9081 292.8445,440.265 292.8445,452.8975 " fill="none" id="VaccinationCenter-backto-HealthcareCenter" style="stroke:#A80036;stroke-width:0.8833922261484098;"/><polygon fill="none" points="286.6608,402.0848,292.8445,384.417,299.0283,402.0848,286.6608,402.0848" style="stroke:#A80036;stroke-width:0.8833922261484098;"/><!--MD5=[000783d07a13220faf51534c4be9a1fd]
@startuml US09_MD
hide methods

scale 500 height

class Company {
	
}

class Administrator {

}


class CommunityMassVaccinationCenter {

}

class HealthcareCenter {

}

class VaccinationCenter {
	name
	phoneNumber
	address
	emailAddress
	faxNumber
	websiteAddress
	openingHour
	closingHour
	slotDuration
	maxNumVaccines 
	centerCoordinator
}

class Address{

}

Company "1" - - "*" Administrator : has >
Company "1" - - "*" VaccinationCenter : has >

Administrator "1" - -  "*" VaccinationCenter : manages >
VaccinationCenter "1" - - "1" Address : has >

VaccinationCenter <|- - CommunityMassVaccinationCenter
VaccinationCenter <|- - HealthcareCenter

@enduml

PlantUML version 1.2022.0(Tue Jan 11 16:16:42 WET 2022)
(GPL source distribution)
Java Runtime: Java(TM) SE Runtime Environment
JVM: Java HotSpot(TM) 64-Bit Server VM
Default Encoding: Cp1252
Language: pt
Country: PT
--></g></svg>