<?xml version="1.0" encoding="UTF-8" standalone="no"?><svg xmlns="http://www.w3.org/2000/svg" xmlns:xlink="http://www.w3.org/1999/xlink" contentStyleType="text/css" height="405px" preserveAspectRatio="none" style="width:426px;height:405px;background:#FFFFFF;" version="1.1" viewBox="0 0 426 405" width="426px" zoomAndPan="magnify"><defs/><g><rect height="27.6094" style="stroke:#00000000;stroke-width:1.0;fill:none;" width="375" x="24.5" y="10"/><text fill="#000000" font-family="sans-serif" font-size="14" font-weight="bold" lengthAdjust="spacing" textLength="365" x="29.5" y="29.5332">SSD: Process of scheduling a vaccine by a SNS User</text><rect fill="#F0FFFF" height="174.1094" style="stroke:#181818;stroke-width:1.0;" width="10" x="33" y="131.2188"/><rect fill="#E6E6FA" height="30.3516" style="stroke:#181818;stroke-width:1.0;" width="10" x="383" y="153.5703"/><rect fill="#E6E6FA" height="30.3516" style="stroke:#181818;stroke-width:1.0;" width="10" x="383" y="214.2734"/><rect fill="#E6E6FA" height="30.3516" style="stroke:#181818;stroke-width:1.0;" width="10" x="383" y="274.9766"/><line style="stroke:#181818;stroke-width:0.5;stroke-dasharray:5.0,5.0;" x1="38" x2="38" y1="121.2188" y2="323.3281"/><line style="stroke:#181818;stroke-width:0.5;stroke-dasharray:5.0,5.0;" x1="388" x2="388" y1="121.2188" y2="323.3281"/><text fill="#000000" font-family="sans-serif" font-size="14" lengthAdjust="spacing" textLength="60" x="5" y="118.1426">SNS User</text><ellipse cx="38" cy="52.1094" fill="#A9DCDF" rx="8" ry="8" style="stroke:#181818;stroke-width:0.5;"/><path d="M38,60.1094 L38,87.1094 M25,68.1094 L51,68.1094 M38,87.1094 L25,102.1094 M38,87.1094 L51,102.1094 " fill="none" style="stroke:#181818;stroke-width:0.5;"/><text fill="#000000" font-family="sans-serif" font-size="14" lengthAdjust="spacing" textLength="60" x="5" y="336.8613">SNS User</text><ellipse cx="38" cy="348.4375" fill="#A9DCDF" rx="8" ry="8" style="stroke:#181818;stroke-width:0.5;"/><path d="M38,356.4375 L38,383.4375 M25,364.4375 L51,364.4375 M38,383.4375 L25,398.4375 M38,383.4375 L51,398.4375 " fill="none" style="stroke:#181818;stroke-width:0.5;"/><rect fill="#E2E2F0" height="31.6094" rx="2.5" ry="2.5" style="stroke:#181818;stroke-width:0.5;" width="64" x="356" y="88.6094"/><text fill="#000000" font-family="sans-serif" font-size="14" lengthAdjust="spacing" textLength="50" x="363" y="110.1426">:System</text><rect fill="#E2E2F0" height="31.6094" rx="2.5" ry="2.5" style="stroke:#181818;stroke-width:0.5;" width="64" x="356" y="322.3281"/><text fill="#000000" font-family="sans-serif" font-size="14" lengthAdjust="spacing" textLength="50" x="363" y="343.8613">:System</text><rect fill="#F0FFFF" height="174.1094" style="stroke:#181818;stroke-width:1.0;" width="10" x="33" y="131.2188"/><rect fill="#E6E6FA" height="30.3516" style="stroke:#181818;stroke-width:1.0;" width="10" x="383" y="153.5703"/><rect fill="#E6E6FA" height="30.3516" style="stroke:#181818;stroke-width:1.0;" width="10" x="383" y="214.2734"/><rect fill="#E6E6FA" height="30.3516" style="stroke:#181818;stroke-width:1.0;" width="10" x="383" y="274.9766"/><polygon fill="#181818" points="371,149.5703,381,153.5703,371,157.5703,375,153.5703" style="stroke:#181818;stroke-width:1.0;"/><line style="stroke:#181818;stroke-width:1.0;" x1="43" x2="377" y1="153.5703" y2="153.5703"/><text fill="#000000" font-family="sans-serif" font-size="13" font-weight="bold" lengthAdjust="spacing" textLength="7" x="50" y="148.7139">1</text><text fill="#000000" font-family="sans-serif" font-size="13" lengthAdjust="spacing" textLength="184" x="61" y="148.7139">starts new vaccination schedule</text><polygon fill="#181818" points="54,179.9219,44,183.9219,54,187.9219,50,183.9219" style="stroke:#181818;stroke-width:1.0;"/><line style="stroke:#181818;stroke-width:1.0;stroke-dasharray:2.0,2.0;" x1="48" x2="387" y1="183.9219" y2="183.9219"/><text fill="#000000" font-family="sans-serif" font-size="13" font-weight="bold" lengthAdjust="spacing" textLength="7" x="60" y="179.0654">2</text><text fill="#000000" font-family="sans-serif" font-size="13" lengthAdjust="spacing" textLength="305" x="71" y="179.0654">requests data (date, vaccineType, vaccinationCenter)</text><polygon fill="#181818" points="371,210.2734,381,214.2734,371,218.2734,375,214.2734" style="stroke:#181818;stroke-width:1.0;"/><line style="stroke:#181818;stroke-width:1.0;" x1="43" x2="377" y1="214.2734" y2="214.2734"/><text fill="#000000" font-family="sans-serif" font-size="13" font-weight="bold" lengthAdjust="spacing" textLength="7" x="50" y="209.417">3</text><text fill="#000000" font-family="sans-serif" font-size="13" lengthAdjust="spacing" textLength="122" x="61" y="209.417">types requested data</text><polygon fill="#181818" points="54,240.625,44,244.625,54,248.625,50,244.625" style="stroke:#181818;stroke-width:1.0;"/><line style="stroke:#181818;stroke-width:1.0;stroke-dasharray:2.0,2.0;" x1="48" x2="387" y1="244.625" y2="244.625"/><text fill="#000000" font-family="sans-serif" font-size="13" font-weight="bold" lengthAdjust="spacing" textLength="7" x="60" y="239.7686">4</text><text fill="#000000" font-family="sans-serif" font-size="13" lengthAdjust="spacing" textLength="223" x="71" y="239.7686">show data and requests a confirmation</text><polygon fill="#181818" points="371,270.9766,381,274.9766,371,278.9766,375,274.9766" style="stroke:#181818;stroke-width:1.0;"/><line style="stroke:#181818;stroke-width:1.0;" x1="43" x2="377" y1="274.9766" y2="274.9766"/><text fill="#000000" font-family="sans-serif" font-size="13" font-weight="bold" lengthAdjust="spacing" textLength="7" x="50" y="270.1201">5</text><text fill="#000000" font-family="sans-serif" font-size="13" lengthAdjust="spacing" textLength="147" x="61" y="270.1201">confirms the data entered</text><polygon fill="#181818" points="49,301.3281,39,305.3281,49,309.3281,45,305.3281" style="stroke:#181818;stroke-width:1.0;"/><line style="stroke:#181818;stroke-width:1.0;stroke-dasharray:2.0,2.0;" x1="43" x2="387" y1="305.3281" y2="305.3281"/><text fill="#000000" font-family="sans-serif" font-size="13" font-weight="bold" lengthAdjust="spacing" textLength="7" x="55" y="300.4717">6</text><text fill="#000000" font-family="sans-serif" font-size="13" lengthAdjust="spacing" textLength="152" x="66" y="300.4717">informs operation success</text><!--MD5=[2a508004c6f844f0f0d2b7556baf0938]
@startuml
autonumber
actor "SNS User" as User #A9DCDF


title SSD: Process of scheduling a vaccine by a SNS User

activate "User" #F0FFFF
"User" -> ":System" : starts new vaccination schedule
activate ":System" 	#E6E6FA
":System" - -> "User" : requests data (date, vaccineType, vaccinationCenter)
deactivate ":System"

"User" -> ":System" : types requested data
activate ":System" #E6E6FA
":System" - -> "User" : show data and requests a confirmation
deactivate ":System"

"User" -> ":System" : confirms the data entered
activate ":System" #E6E6FA
":System" - -> "User" : informs operation success
deactivate ":System"

deactivate "User"

'*https://www.w3.org/TR/css-color-4/#hex-notation*'

@enduml

@startuml
autonumber
actor "SNS User" as User #A9DCDF


title SSD: Process of scheduling a vaccine by a SNS User

activate "User" #F0FFFF
"User" -> ":System" : starts new vaccination schedule
activate ":System" 	#E6E6FA
":System" - -> "User" : requests data (date, vaccineType, vaccinationCenter)
deactivate ":System"

"User" -> ":System" : types requested data
activate ":System" #E6E6FA
":System" - -> "User" : show data and requests a confirmation
deactivate ":System"

"User" -> ":System" : confirms the data entered
activate ":System" #E6E6FA
":System" - -> "User" : informs operation success
deactivate ":System"

deactivate "User"


@enduml

PlantUML version 1.2022.4(Sat Apr 09 14:29:17 BST 2022)
(GPL source distribution)
Java Runtime: OpenJDK Runtime Environment
JVM: OpenJDK 64-Bit Server VM
Default Encoding: Cp1252
Language: en
Country: US
--></g></svg>