<?xml version="1.0" encoding="UTF-8" standalone="no"?><svg xmlns="http://www.w3.org/2000/svg" xmlns:xlink="http://www.w3.org/1999/xlink" contentStyleType="text/css" height="2742px" preserveAspectRatio="none" style="width:810px;height:2742px;background:#FFFFFF;" version="1.1" viewBox="0 0 810 2742" width="810px" zoomAndPan="magnify"><defs/><g><!--MD5=[8fc3522a43f8c7199df5e09e5bb0188e]
entity user--><g id="elem_user"><ellipse cx="67" cy="2558.5" fill="#F1F1F1" rx="8" ry="8" style="stroke:#181818;stroke-width:0.5;"/><path d="M67,2566.5 L67,2593.5 M54,2574.5 L80,2574.5 M67,2593.5 L54,2608.5 M67,2593.5 L80,2608.5 " fill="none" style="stroke:#181818;stroke-width:0.5;"/><text fill="#000000" font-family="sans-serif" font-size="14" lengthAdjust="spacing" textLength="60" x="37" y="2624.5332">SNS User</text></g><!--MD5=[87d66015e0fe95d70bf3fa68103252e8]
entity nurse--><g id="elem_nurse"><ellipse cx="67" cy="1977.5" fill="#F1F1F1" rx="8" ry="8" style="stroke:#181818;stroke-width:0.5;"/><path d="M67,1985.5 L67,2012.5 M54,1993.5 L80,1993.5 M67,2012.5 L54,2027.5 M67,2012.5 L80,2027.5 " fill="none" style="stroke:#181818;stroke-width:0.5;"/><text fill="#000000" font-family="sans-serif" font-size="14" lengthAdjust="spacing" textLength="37" x="48.5" y="2043.5332">Nurse</text></g><!--MD5=[4d302acd527bc9f790d99ea65b823e73]
entity coordinator--><g id="elem_coordinator"><ellipse cx="67" cy="1340.5" fill="#F1F1F1" rx="8" ry="8" style="stroke:#181818;stroke-width:0.5;"/><path d="M67,1348.5 L67,1375.5 M54,1356.5 L80,1356.5 M67,1375.5 L54,1390.5 M67,1375.5 L80,1390.5 " fill="none" style="stroke:#181818;stroke-width:0.5;"/><text fill="#000000" font-family="sans-serif" font-size="14" lengthAdjust="spacing" textLength="122" x="6" y="1406.5332">Center Coordinator</text></g><!--MD5=[8df531fd36edad519192f49b4d80bdb0]
entity receptionist--><g id="elem_receptionist"><ellipse cx="67" cy="879.5" fill="#F1F1F1" rx="8" ry="8" style="stroke:#181818;stroke-width:0.5;"/><path d="M67,887.5 L67,914.5 M54,895.5 L80,895.5 M67,914.5 L54,929.5 M67,914.5 L80,929.5 " fill="none" style="stroke:#181818;stroke-width:0.5;"/><text fill="#000000" font-family="sans-serif" font-size="14" lengthAdjust="spacing" textLength="78" x="28" y="945.5332">Receptionist</text></g><!--MD5=[65a041cd1922b3dee6e64063a2213939]
entity administrator--><g id="elem_administrator"><ellipse cx="67" cy="312.5" fill="#F1F1F1" rx="8" ry="8" style="stroke:#181818;stroke-width:0.5;"/><path d="M67,320.5 L67,347.5 M54,328.5 L80,328.5 M67,347.5 L54,362.5 M67,347.5 L80,362.5 " fill="none" style="stroke:#181818;stroke-width:0.5;"/><text fill="#000000" font-family="sans-serif" font-size="14" lengthAdjust="spacing" textLength="83" x="25.5" y="378.5332">Administrator</text></g><g id="elem_UC1"><ellipse cx="496.1395" cy="2485.1279" fill="#A9DCDF" rx="103.6395" ry="23.1279" style="stroke:#181818;stroke-width:0.5;"/><text fill="#000000" font-family="sans-serif" font-size="14" lengthAdjust="spacing" textLength="169" x="411.6395" y="2488.8564">UC1: Schedule vaccination</text></g><g id="elem_UC2"><ellipse cx="496.1395" cy="699.1279" fill="#A9DCDF" rx="103.6395" ry="23.1279" style="stroke:#181818;stroke-width:0.5;"/><text fill="#000000" font-family="sans-serif" font-size="14" lengthAdjust="spacing" textLength="169" x="411.6395" y="702.8564">UC2: Schedule vaccination</text></g><g id="elem_UC3"><ellipse cx="496.1237" cy="795.0247" fill="#F1F1F1" rx="178.1237" ry="38.0247" style="stroke:#181818;stroke-width:0.5;"/><text fill="#000000" font-family="sans-serif" font-size="14" lengthAdjust="spacing" textLength="327" x="332.6237" y="798.7533">UC3: As a receptionist, I want to register a SNS user</text></g><g id="elem_UC4"><ellipse cx="496.0206" cy="910.1041" fill="#A9DCDF" rx="198.5206" ry="42.1041" style="stroke:#181818;stroke-width:0.5;"/><text fill="#000000" font-family="sans-serif" font-size="14" lengthAdjust="spacing" textLength="369" x="311.5206" y="913.8326">UC4: Register the arrival of a SNS user to take the vaccine</text></g><g id="elem_UC5"><ellipse cx="495.9915" cy="1663.0983" fill="#A9DCDF" rx="220.9915" ry="46.5983" style="stroke:#181818;stroke-width:0.5;"/><text fill="#000000" font-family="sans-serif" font-size="14" lengthAdjust="spacing" textLength="415" x="288.4915" y="1666.8268">UC5: Consult the users in the waiting room of a vaccination center</text></g><g id="elem_UC6"><ellipse cx="495.9951" cy="1029.799" fill="#F1F1F1" rx="199.4951" ry="42.299" style="stroke:#181818;stroke-width:0.5;"/><text fill="#000000" font-family="sans-serif" font-size="14" lengthAdjust="spacing" textLength="371" x="310.4951" y="1033.5275">UC6: Confirm that the SNS user has the vaccine scheduled</text></g><g id="elem_UC7"><ellipse cx="495.8066" cy="1778.8613" fill="#F1F1F1" rx="159.8066" ry="34.3613" style="stroke:#181818;stroke-width:0.5;"/><text fill="#000000" font-family="sans-serif" font-size="14" lengthAdjust="spacing" textLength="289" x="351.3066" y="1782.5898">UC7: Record adverse reactions of a SNS user</text></g><g id="elem_UC8"><ellipse cx="496.0335" cy="1891.0067" fill="#F1F1F1" rx="198.0335" ry="42.0067" style="stroke:#181818;stroke-width:0.5;"/><text fill="#000000" font-family="sans-serif" font-size="14" lengthAdjust="spacing" textLength="368" x="312.0335" y="1894.7352">UC8: Record the administration of a vaccine to a SNS user</text></g><g id="elem_UC9"><ellipse cx="496.1918" cy="70.0384" fill="#F1F1F1" rx="308.1918" ry="64.0384" style="stroke:#181818;stroke-width:0.5;"/><text fill="#000000" font-family="sans-serif" font-size="14" lengthAdjust="spacing" textLength="592" x="200.1918" y="73.7669">UC9: As a administrator, I want to register a vaccination center to respond to certain pandemic</text></g><g id="elem_UC10"><ellipse cx="495.8935" cy="193.0787" fill="#F1F1F1" rx="105.8935" ry="23.5787" style="stroke:#181818;stroke-width:0.5;"/><text fill="#000000" font-family="sans-serif" font-size="14" lengthAdjust="spacing" textLength="174" x="408.8935" y="196.8072">UC10: Register a Employee</text></g><g id="elem_UC11"><ellipse cx="495.8053" cy="292.0611" fill="#F1F1F1" rx="188.3053" ry="40.0611" style="stroke:#181818;stroke-width:0.5;"/><text fill="#000000" font-family="sans-serif" font-size="14" lengthAdjust="spacing" textLength="348" x="321.8053" y="295.7896">UC11: Get a list of Employees with a given function/role</text></g><g id="elem_UC12"><ellipse cx="495.8069" cy="394.1614" fill="#F1F1F1" rx="123.8069" ry="27.1614" style="stroke:#181818;stroke-width:0.5;"/><text fill="#000000" font-family="sans-serif" font-size="14" lengthAdjust="spacing" textLength="213" x="389.3069" y="397.8899">UC12: Specify a new vaccine type</text></g><g id="elem_UC13"><ellipse cx="495.9572" cy="499.0914" fill="#F1F1F1" rx="200.9572" ry="42.5914" style="stroke:#181818;stroke-width:0.5;"/><text fill="#000000" font-family="sans-serif" font-size="14" lengthAdjust="spacing" textLength="374" x="308.9572" y="502.82">UC13: Specify a new vaccine and its administration process</text></g><g id="elem_UC14"><ellipse cx="495.8756" cy="608.8751" fill="#A9DCDF" rx="147.3756" ry="31.8751" style="stroke:#181818;stroke-width:0.5;"/><text fill="#000000" font-family="sans-serif" font-size="14" lengthAdjust="spacing" textLength="263" x="364.3756" y="612.6036">UC14: Load a set of users from a CSV file</text></g><g id="elem_UC15"><ellipse cx="496.1078" cy="2589.0216" fill="#F1F1F1" rx="215.6078" ry="45.5216" style="stroke:#181818;stroke-width:0.5;"/><text fill="#000000" font-family="sans-serif" font-size="14" lengthAdjust="spacing" textLength="404" x="294.1078" y="2592.7501">UC15: Get instructions regarding the vaccine to be administered</text></g><g id="elem_UC16"><ellipse cx="495.8197" cy="2007.9639" fill="#F1F1F1" rx="187.8197" ry="39.9639" style="stroke:#181818;stroke-width:0.5;"/><text fill="#000000" font-family="sans-serif" font-size="14" lengthAdjust="spacing" textLength="347" x="322.3197" y="2011.6925">UC16: Register the vaccine type, brand and lot number</text></g><g id="elem_UC17"><ellipse cx="495.8863" cy="1230.9773" fill="#F1F1F1" rx="137.8863" ry="29.9773" style="stroke:#181818;stroke-width:0.5;"/><text fill="#000000" font-family="sans-serif" font-size="14" lengthAdjust="spacing" textLength="243" x="374.3863" y="1234.7058">UC17: Monitor the vaccination process</text></g><g id="elem_UC18"><ellipse cx="496.2192" cy="1320.9438" fill="#A9DCDF" rx="112.7192" ry="24.9438" style="stroke:#181818;stroke-width:0.5;"/><text fill="#000000" font-family="sans-serif" font-size="14" lengthAdjust="spacing" textLength="189" x="401.7192" y="1324.6724">UC18: get a list of all vaccines</text></g><g id="elem_UC19"><ellipse cx="495.8486" cy="1420.7697" fill="#F1F1F1" rx="186.8486" ry="39.7697" style="stroke:#181818;stroke-width:0.5;"/><text fill="#000000" font-family="sans-serif" font-size="14" lengthAdjust="spacing" textLength="345" x="323.3486" y="1424.4982">UC19: Analyse reports concerning vaccination process</text></g><g id="elem_UC20"><ellipse cx="496.2297" cy="1136.8459" fill="#F1F1F1" rx="132.2297" ry="28.8459" style="stroke:#181818;stroke-width:0.5;"/><text fill="#000000" font-family="sans-serif" font-size="14" lengthAdjust="spacing" textLength="231" x="380.7297" y="1140.5745">UC20: Schedule a vaccine for a user</text></g><g id="elem_UC21"><ellipse cx="496.0002" cy="2118.9" fill="#F1F1F1" rx="167.5002" ry="35.9" style="stroke:#181818;stroke-width:0.5;"/><text fill="#000000" font-family="sans-serif" font-size="14" lengthAdjust="spacing" textLength="305" x="343.5002" y="2122.6286">UC21: Check the user info and health conditions</text></g><g id="elem_UC22"><ellipse cx="496.059" cy="2247.8118" fill="#F1F1F1" rx="277.059" ry="57.8118" style="stroke:#181818;stroke-width:0.5;"/><text fill="#000000" font-family="sans-serif" font-size="14" lengthAdjust="spacing" textLength="529" x="231.559" y="2251.5403">UC22: Authorize the DGS to send SMS message with information about appointment</text></g><g id="elem_UC23"><ellipse cx="495.9572" cy="2384.0914" fill="#F1F1F1" rx="200.9572" ry="42.5914" style="stroke:#181818;stroke-width:0.5;"/><text fill="#000000" font-family="sans-serif" font-size="14" lengthAdjust="spacing" textLength="374" x="308.9572" y="2387.82">UC23: Issue and deliver vaccination certificate for SNS user</text></g><g id="elem_UC24"><ellipse cx="496.0791" cy="2703.1158" fill="#F1F1F1" rx="153.5791" ry="33.1158" style="stroke:#181818;stroke-width:0.5;"/><text fill="#000000" font-family="sans-serif" font-size="14" lengthAdjust="spacing" textLength="276" x="358.0791" y="2706.8443">UC24: Request EU COVID Digital Certificate</text></g><g id="elem_UC25"><ellipse cx="495.9447" cy="1539.1889" fill="#F1F1F1" rx="201.4447" ry="42.6889" style="stroke:#181818;stroke-width:0.5;"/><text fill="#000000" font-family="sans-serif" font-size="14" lengthAdjust="spacing" textLength="375" x="308.4447" y="1542.9175">UC25: Evaluate the performance of the vaccination process</text></g><!--MD5=[e71913910ae60f5842a843a20d6ecd39]
link user to UC1--><g id="link_user_UC1"><path d="M97.29,2569.87 C120.84,2555.44 155.26,2536.42 188,2526 C253.04,2505.3 329.06,2495.05 389.18,2489.97 " fill="none" id="user-to-UC1" style="stroke:#181818;stroke-width:1.0;"/><polygon fill="#181818" points="394.21,2489.56,384.9097,2486.319,389.2272,2489.974,385.5721,2494.2915,394.21,2489.56" style="stroke:#181818;stroke-width:1.0;"/></g><!--MD5=[8467409add40a9a1d502757488e91756]
link user to UC15--><g id="link_user_UC15"><path d="M97.01,2589 C134.87,2589 204.64,2589 275.32,2589 " fill="none" id="user-to-UC15" style="stroke:#181818;stroke-width:1.0;"/><polygon fill="#181818" points="280.41,2589,271.41,2585,275.41,2589,271.41,2593,280.41,2589" style="stroke:#181818;stroke-width:1.0;"/></g><!--MD5=[9fd08e6ed139bee4808941debb1a0671]
link user to UC24--><g id="link_user_UC24"><path d="M97.39,2607.84 C120.98,2622.11 155.43,2641.06 188,2652 C239.85,2669.41 298.7,2681.03 350.91,2688.71 " fill="none" id="user-to-UC24" style="stroke:#181818;stroke-width:1.0;"/><polygon fill="#181818" points="355.94,2689.44,347.6025,2684.1973,350.9911,2688.7269,346.4615,2692.1155,355.94,2689.44" style="stroke:#181818;stroke-width:1.0;"/></g><!--MD5=[96fde1d2e0b1291cb173a973fcca5e0c]
link receptionist to UC4--><g id="link_receptionist_UC4"><path d="M106.27,910 C149,910 221.5,910 292.4,910 " fill="none" id="receptionist-to-UC4" style="stroke:#181818;stroke-width:1.0;"/><polygon fill="#181818" points="297.5,910,288.5,906,292.5,910,288.5,914,297.5,910" style="stroke:#181818;stroke-width:1.0;"/></g><!--MD5=[3e2e92835678fc37daa8225e077863b1]
link receptionist to UC20--><g id="link_receptionist_UC20"><path d="M82.73,949.06 C100.78,991.15 135.58,1056.6 188,1090 C238.43,1122.14 302.78,1135.25 359.53,1139.79 " fill="none" id="receptionist-to-UC20" style="stroke:#181818;stroke-width:1.0;"/><polygon fill="#181818" points="364.65,1140.18,355.972,1135.5224,359.6638,1139.8085,355.3777,1143.5003,364.65,1140.18" style="stroke:#181818;stroke-width:1.0;"/></g><!--MD5=[89a6090b69f39a9c381d512423ab3f04]
link receptionist to UC6--><g id="link_receptionist_UC6"><path d="M106.03,932.35 C129.07,945.03 159.45,960.27 188,970 C231.65,984.87 280.11,996.47 325.4,1005.35 " fill="none" id="receptionist-to-UC6" style="stroke:#181818;stroke-width:1.0;"/><polygon fill="#181818" points="330.34,1006.31,322.2707,1000.6632,325.4322,1005.3541,320.7413,1008.5156,330.34,1006.31" style="stroke:#181818;stroke-width:1.0;"/></g><!--MD5=[e623d35dd041d64a849fc0d6ed7bba7e]
link receptionist to UC3--><g id="link_receptionist_UC3"><path d="M106.03,887.92 C129.08,875.41 159.45,860.42 188,851 C235.5,835.33 288.67,823.67 337.25,815.18 " fill="none" id="receptionist-to-UC3" style="stroke:#181818;stroke-width:1.0;"/><polygon fill="#181818" points="342.23,814.32,332.6777,811.9212,337.3039,815.1767,334.0485,819.8029,342.23,814.32" style="stroke:#181818;stroke-width:1.0;"/></g><!--MD5=[c6782c783a77a159b444a1a9f9fb6300]
link receptionist to UC2--><g id="link_receptionist_UC2"><path d="M84.23,870.7 C102.97,830.71 137.78,770.41 188,740 C248.62,703.29 328.19,693.52 391.13,692.67 " fill="none" id="receptionist-to-UC2" style="stroke:#181818;stroke-width:1.0;"/><polygon fill="#181818" points="396.4,692.62,387.366,688.6973,391.4002,692.6629,387.4346,696.697,396.4,692.62" style="stroke:#181818;stroke-width:1.0;"/></g><!--MD5=[5f468418e2d96549bbc39db60ad4584f]
link nurse to UC7--><g id="link_nurse_UC7"><path d="M83.59,1968.86 C102.09,1927.82 136.99,1864.81 188,1832 C230.33,1804.77 282.45,1790.33 331.65,1782.99 " fill="none" id="nurse-to-UC7" style="stroke:#181818;stroke-width:1.0;"/><polygon fill="#181818" points="336.7,1782.25,327.2204,1779.5783,331.7514,1782.9651,328.3646,1787.4961,336.7,1782.25" style="stroke:#181818;stroke-width:1.0;"/></g><!--MD5=[6ee096a9f7aadf14d5e1aae46ec92742]
link nurse to UC8--><g id="link_nurse_UC8"><path d="M85.71,1997.85 C108.62,1985.13 150.1,1963.48 188,1951 C232.54,1936.33 281.97,1924.73 327.91,1915.79 " fill="none" id="nurse-to-UC8" style="stroke:#181818;stroke-width:1.0;"/><polygon fill="#181818" points="332.92,1914.83,323.3263,1912.6026,328.0101,1915.7748,324.8379,1920.4585,332.92,1914.83" style="stroke:#181818;stroke-width:1.0;"/></g><!--MD5=[d68d844c84c5b9178d019b496cb916a6]
link nurse to UC5--><g id="link_nurse_UC5"><path d="M73.14,1969 C83.38,1907.6 112.29,1789.02 188,1727 C215,1704.88 247.72,1689.83 281.61,1679.69 " fill="none" id="nurse-to-UC5" style="stroke:#181818;stroke-width:1.0;"/><polygon fill="#181818" points="286.62,1678.23,276.86,1676.91,281.82,1679.63,279.1,1684.59,286.62,1678.23" style="stroke:#181818;stroke-width:1.0;"/></g><!--MD5=[273862cdd49d0668aaaeac8d3a26b956]
link nurse to UC21--><g id="link_nurse_UC21"><path d="M85.64,2018.48 C108.48,2031.58 149.88,2053.77 188,2066 C237.29,2081.82 292.64,2093.22 342.62,2101.29 " fill="none" id="nurse-to-UC21" style="stroke:#181818;stroke-width:1.0;"/><polygon fill="#181818" points="347.75,2102.11,339.492,2096.743,342.8124,2101.3228,338.2325,2104.6432,347.75,2102.11" style="stroke:#181818;stroke-width:1.0;"/></g><!--MD5=[456f4ec90f669dcddadf85b825b0f01b]
link nurse to UC22--><g id="link_nurse_UC22"><path d="M85.56,2045.83 C105.17,2083.81 140.49,2141.14 188,2173 C212.12,2189.18 239.39,2201.87 267.48,2211.83 " fill="none" id="nurse-to-UC22" style="stroke:#181818;stroke-width:1.0;"/><polygon fill="#181818" points="272.37,2213.53,265.1876,2206.7911,267.6485,2211.8846,262.555,2214.3455,272.37,2213.53" style="stroke:#181818;stroke-width:1.0;"/></g><!--MD5=[955352bf3b430edd010152a7e7437cf3]
link nurse to UC23--><g id="link_nurse_UC23"><path d="M70.96,2047.18 C78.27,2114.71 103.31,2252.61 188,2324 C217.8,2349.12 255.03,2364.88 293.17,2374.54 " fill="none" id="nurse-to-UC23" style="stroke:#181818;stroke-width:1.0;"/><polygon fill="#181818" points="298.31,2375.8,290.5154,2369.7797,293.4526,2374.6142,288.6181,2377.5515,298.31,2375.8" style="stroke:#181818;stroke-width:1.0;"/></g><!--MD5=[8e816a5a5733e4dae3a01dcb2aa36471]
link nurse to UC16--><g id="link_nurse_UC16"><path d="M85.53,2008 C123.16,2008 215.31,2008 302.69,2008 " fill="none" id="nurse-to-UC16" style="stroke:#181818;stroke-width:1.0;"/><polygon fill="#181818" points="307.9,2008,298.9,2004,302.9,2008,298.9,2012,307.9,2008" style="stroke:#181818;stroke-width:1.0;"/></g><!--MD5=[d9012bb0cef5070ee831f89a594a22f1]
link administrator to UC9--><g id="link_administrator_UC9"><path d="M82.34,303.87 C100.34,260.27 135.37,190.82 188,152 C208.92,136.58 232.53,124.05 257.14,113.88 " fill="none" id="administrator-to-UC9" style="stroke:#181818;stroke-width:1.0;"/><polygon fill="#181818" points="262.08,111.88,252.2368,111.5452,257.4446,113.7542,255.2356,118.9619,262.08,111.88" style="stroke:#181818;stroke-width:1.0;"/></g><!--MD5=[5fa0fab07c45da8c719f21062a94a6fc]
link administrator to UC10--><g id="link_administrator_UC10"><path d="M99.75,303.97 C121.82,279.67 153.42,250.07 188,234 C249.3,205.51 324.43,195.11 385.02,191.91 " fill="none" id="administrator-to-UC10" style="stroke:#181818;stroke-width:1.0;"/><polygon fill="#181818" points="390.1,191.66,380.916,188.1026,385.1059,191.9033,381.3053,196.0931,390.1,191.66" style="stroke:#181818;stroke-width:1.0;"/></g><!--MD5=[6d2b8b7acfa9a8c91f7e3a119f8d30cd]
link administrator to UC11--><g id="link_administrator_UC11"><path d="M108.56,338.16 C158.57,332.18 246.72,321.65 326.21,312.16 " fill="none" id="administrator-to-UC11" style="stroke:#181818;stroke-width:1.0;"/><polygon fill="#181818" points="331.44,311.54,322.0256,308.6472,326.476,312.1391,322.9841,316.5896,331.44,311.54" style="stroke:#181818;stroke-width:1.0;"/></g><!--MD5=[1b921a34c06a5672f1b9290a71eff6b8]
link administrator to UC12--><g id="link_administrator_UC12"><path d="M108.56,347.84 C170.67,355.26 291.62,369.71 381.74,380.47 " fill="none" id="administrator-to-UC12" style="stroke:#181818;stroke-width:1.0;"/><polygon fill="#181818" points="386.82,381.08,378.3515,376.0516,381.8545,380.4933,377.4128,383.9963,386.82,381.08" style="stroke:#181818;stroke-width:1.0;"/></g><!--MD5=[858b134996c0d875d6e563c1f7308d70]
link administrator to UC13--><g id="link_administrator_UC13"><path d="M107.49,382.18 C129.47,401.82 158.33,424.29 188,438 C227.07,456.05 271.34,468.78 313.87,477.74 " fill="none" id="administrator-to-UC13" style="stroke:#181818;stroke-width:1.0;"/><polygon fill="#181818" points="318.78,478.75,310.7776,473.0087,313.8838,477.7365,309.156,480.8427,318.78,478.75" style="stroke:#181818;stroke-width:1.0;"/></g><!--MD5=[6bb54e89c6e66a2114e723602b960609]
link administrator to UC14--><g id="link_administrator_UC14"><path d="M78.25,382.08 C93.44,431.72 126.93,516.08 188,559 C232.83,590.51 290.36,604.89 343.48,610.78 " fill="none" id="administrator-to-UC14" style="stroke:#181818;stroke-width:1.0;"/><polygon fill="#181818" points="348.6,611.32,340.0594,606.4151,343.6265,610.8055,339.2362,614.3727,348.6,611.32" style="stroke:#181818;stroke-width:1.0;"/></g><!--MD5=[dc829bc32b289998eb4c97fb6caef881]
link coordinator to UC17--><g id="link_coordinator_UC17"><path d="M108.29,1331.9 C130.16,1312.92 158.68,1291.56 188,1279 C240.36,1256.58 301.76,1244.49 355.83,1238.02 " fill="none" id="coordinator-to-UC17" style="stroke:#181818;stroke-width:1.0;"/><polygon fill="#181818" points="361.04,1237.41,351.6338,1234.4905,356.0743,1237.995,352.5698,1242.4356,361.04,1237.41" style="stroke:#181818;stroke-width:1.0;"/></g><!--MD5=[980a8201e4eb518ad5e7b05545207cea]
link coordinator to UC25--><g id="link_coordinator_UC25"><path d="M101.14,1410.04 C123.33,1433.64 154.52,1462.29 188,1479 C225.35,1497.64 267.96,1510.5 309.29,1519.36 " fill="none" id="coordinator-to-UC25" style="stroke:#181818;stroke-width:1.0;"/><polygon fill="#181818" points="314.32,1520.43,306.3337,1514.6664,309.4266,1519.4028,304.6902,1522.4958,314.32,1520.43" style="stroke:#181818;stroke-width:1.0;"/></g><!--MD5=[60dec685cb8c65457641ae9c0dbdc30a]
link coordinator to UC19--><g id="link_coordinator_UC19"><path d="M128.27,1378.06 C179.8,1384.09 256.48,1393.07 326.43,1401.26 " fill="none" id="coordinator-to-UC19" style="stroke:#181818;stroke-width:1.0;"/><polygon fill="#181818" points="331.45,1401.85,322.9798,1396.8244,326.4843,1401.265,322.0438,1404.7695,331.45,1401.85" style="stroke:#181818;stroke-width:1.0;"/></g><!--MD5=[ceedcd86907d982e68a98fcbde707650]
link coordinator to UC18--><g id="link_coordinator_UC18"><path d="M128.27,1363.94 C196.32,1355.97 308.26,1342.87 390.6,1333.23 " fill="none" id="coordinator-to-UC18" style="stroke:#181818;stroke-width:1.0;"/><polygon fill="#181818" points="395.98,1332.6,386.5821,1329.6539,391.0127,1333.171,387.4956,1337.6016,395.98,1332.6" style="stroke:#181818;stroke-width:1.0;"/></g><!--MD5=[7171a62c8ac4b74b1065f444edbd7bd1]
@startuml
left to right direction

actor :SNS User: as user
actor :Nurse: as nurse
actor :Center Coordinator: as coordinator
actor :Receptionist: as receptionist
actor :Administrator: as administrator

usecase UC1 as "UC1: Schedule vaccination" #A9DCDF
usecase UC2 as "UC2: Schedule vaccination" #A9DCDF
usecase UC3 as "UC3: As a receptionist, I want to register a SNS user"
usecase UC4 as "UC4: Register the arrival of a SNS user to take the vaccine" #A9DCDF
usecase UC5 as "UC5: Consult the users in the waiting room of a vaccination center" #A9DCDF
usecase UC6 as "UC6: Confirm that the SNS user has the vaccine scheduled"
usecase UC7 as "UC7: Record adverse reactions of a SNS user"
usecase UC8 as "UC8: Record the administration of a vaccine to a SNS user"
usecase UC9 as "UC9: As a administrator, I want to register a vaccination center to respond to certain pandemic"
usecase UC10 as "UC10: Register a Employee"
usecase UC11 as "UC11: Get a list of Employees with a given function/role"
usecase UC12 as "UC12: Specify a new vaccine type"
usecase UC13 as "UC13: Specify a new vaccine and its administration process"
usecase UC14 as "UC14: Load a set of users from a CSV file" #A9DCDF
usecase UC15 as "UC15: Get instructions regarding the vaccine to be administered"
usecase UC16 as "UC16: Register the vaccine type, brand and lot number"
usecase UC17 as "UC17: Monitor the vaccination process"
usecase UC18 as "UC18: get a list of all vaccines" #A9DCDF
usecase UC19 as "UC19: Analyse reports concerning vaccination process"
usecase UC20 as "UC20: Schedule a vaccine for a user"
usecase UC21 as "UC21: Check the user info and health conditions"
usecase UC22 as "UC22: Authorize the DGS to send SMS message with information about appointment"
usecase UC23 as "UC23: Issue and deliver vaccination certificate for SNS user"
usecase UC24 as "UC24: Request EU COVID Digital Certificate"
usecase UC25 as "UC25: Evaluate the performance of the vaccination process"



user - -> UC1
user - -> UC15
user - -> UC24

receptionist - -> UC4
receptionist - -> UC20
receptionist - -> UC6
receptionist - -> UC3
receptionist - -> UC2

nurse - -> UC7
nurse - -> UC8
nurse - -> UC5
nurse - -> UC21
nurse - -> UC22
nurse - -> UC23
nurse - -> UC16

administrator - -> UC9
administrator - -> UC10
administrator - -> UC11
administrator - -> UC12
administrator - -> UC13
administrator - -> UC14

coordinator - -> UC17
coordinator - -> UC25
coordinator - -> UC19
coordinator - -> UC18

@enduml

PlantUML version 1.2022.4(Sat Apr 09 14:29:17 BST 2022)
(GPL source distribution)
Java Runtime: OpenJDK Runtime Environment
JVM: OpenJDK 64-Bit Server VM
Default Encoding: Cp1252
Language: en
Country: US
--></g></svg>