<?xml version="1.0" encoding="UTF-8" standalone="no"?><svg xmlns="http://www.w3.org/2000/svg" xmlns:xlink="http://www.w3.org/1999/xlink" contentScriptType="application/ecmascript" contentStyleType="text/css" height="1126px" preserveAspectRatio="none" style="width:910px;height:1126px;background:#FFFFFF;" version="1.1" viewBox="0 0 910 1126" width="910px" zoomAndPan="magnify"><defs><filter height="300%" id="f1lsu9val3t379" width="300%" x="-1" y="-1"><feGaussianBlur result="blurOut" stdDeviation="2.0"/><feColorMatrix in="blurOut" result="blurOut2" type="matrix" values="0 0 0 0 0 0 0 0 0 0 0 0 0 0 0 0 0 0 .4 0"/><feOffset dx="4.0" dy="4.0" in="blurOut2" result="blurOut3"/><feBlend in="SourceGraphic" in2="blurOut3" mode="normal"/></filter></defs><g><text fill="#000000" font-family="sans-serif" font-size="18" lengthAdjust="spacing" textLength="424" x="236.9585" y="18.6855">Domail Model Excerpt: Record vaccine administration</text><!--MD5=[02e4b9b7573f1156f41e60aa5b4e25a4]
class Company--><rect codeLine="5" fill="#FEFECE" filter="url(#f1lsu9val3t379)" height="48" id="Company" style="stroke:#A80036;stroke-width:1.5;" width="85" x="248.4171" y="29.6406"/><ellipse cx="263.4171" cy="45.6406" fill="#ADD1B2" rx="11" ry="11" style="stroke:#A80036;stroke-width:1.0;"/><path d="M266.1827,41.5156 Q266.3389,41.2969 266.5264,41.1875 Q266.7139,41.0781 266.9327,41.0781 Q267.3077,41.0781 267.5421,41.3438 Q267.7764,41.5938 267.7764,42.2031 L267.7764,43.6563 Q267.7764,44.2656 267.5421,44.5313 Q267.3077,44.7969 266.9327,44.7969 Q266.5889,44.7969 266.3858,44.5938 Q266.1827,44.4063 266.0733,43.8906 Q266.0264,43.5313 265.8389,43.3438 Q265.5108,42.9688 264.9014,42.75 Q264.2921,42.5313 263.6671,42.5313 Q262.9014,42.5313 262.2608,42.8594 Q261.6358,43.1875 261.1358,43.9375 Q260.6514,44.6875 260.6514,45.7188 L260.6514,46.8125 Q260.6514,48.0469 261.5421,48.875 Q262.4327,49.6875 264.0264,49.6875 Q264.9639,49.6875 265.6202,49.4375 Q266.0108,49.2813 266.4327,48.8438 Q266.6983,48.5781 266.8389,48.5 Q266.9952,48.4219 267.1983,48.4219 Q267.5264,48.4219 267.7764,48.6875 Q268.0421,48.9375 268.0421,49.2813 Q268.0421,49.625 267.6983,50.0313 Q267.1983,50.6094 266.4014,50.9375 Q265.3233,51.3906 264.0264,51.3906 Q262.5108,51.3906 261.3077,50.7656 Q260.3233,50.2656 259.6358,49.2031 Q258.9483,48.125 258.9483,46.8438 L258.9483,45.6875 Q258.9483,44.3594 259.5577,43.2188 Q260.1827,42.0625 261.2764,41.4531 Q262.3702,40.8281 263.6046,40.8281 Q264.3389,40.8281 264.9796,41 Q265.6358,41.1563 266.1827,41.5156 Z " fill="#000000"/><text fill="#000000" font-family="sans-serif" font-size="12" lengthAdjust="spacing" textLength="53" x="277.4171" y="50.5508">Company</text><line style="stroke:#A80036;stroke-width:1.5;" x1="249.4171" x2="332.4171" y1="61.6406" y2="61.6406"/><line style="stroke:#A80036;stroke-width:1.5;" x1="249.4171" x2="332.4171" y1="69.6406" y2="69.6406"/><!--MD5=[72be06cc7ae02ccc98efe28a50e62246]
class SNSUser--><rect codeLine="9" fill="#FEFECE" filter="url(#f1lsu9val3t379)" height="61.8359" id="SNSUser" style="stroke:#A80036;stroke-width:1.5;" width="104" x="240.9171" y="743.1406"/><ellipse cx="264.9171" cy="759.1406" fill="#ADD1B2" rx="11" ry="11" style="stroke:#A80036;stroke-width:1.0;"/><path d="M267.6827,755.0156 Q267.8389,754.7969 268.0264,754.6875 Q268.2139,754.5781 268.4327,754.5781 Q268.8077,754.5781 269.0421,754.8438 Q269.2764,755.0938 269.2764,755.7031 L269.2764,757.1563 Q269.2764,757.7656 269.0421,758.0313 Q268.8077,758.2969 268.4327,758.2969 Q268.0889,758.2969 267.8858,758.0938 Q267.6827,757.9063 267.5733,757.3906 Q267.5264,757.0313 267.3389,756.8438 Q267.0108,756.4688 266.4014,756.25 Q265.7921,756.0313 265.1671,756.0313 Q264.4014,756.0313 263.7608,756.3594 Q263.1358,756.6875 262.6358,757.4375 Q262.1514,758.1875 262.1514,759.2188 L262.1514,760.3125 Q262.1514,761.5469 263.0421,762.375 Q263.9327,763.1875 265.5264,763.1875 Q266.4639,763.1875 267.1202,762.9375 Q267.5108,762.7813 267.9327,762.3438 Q268.1983,762.0781 268.3389,762 Q268.4952,761.9219 268.6983,761.9219 Q269.0264,761.9219 269.2764,762.1875 Q269.5421,762.4375 269.5421,762.7813 Q269.5421,763.125 269.1983,763.5313 Q268.6983,764.1094 267.9014,764.4375 Q266.8233,764.8906 265.5264,764.8906 Q264.0108,764.8906 262.8077,764.2656 Q261.8233,763.7656 261.1358,762.7031 Q260.4483,761.625 260.4483,760.3438 L260.4483,759.1875 Q260.4483,757.8594 261.0577,756.7188 Q261.6827,755.5625 262.7764,754.9531 Q263.8702,754.3281 265.1046,754.3281 Q265.8389,754.3281 266.4796,754.5 Q267.1358,754.6563 267.6827,755.0156 Z " fill="#000000"/><text fill="#000000" font-family="sans-serif" font-size="12" lengthAdjust="spacing" textLength="52" x="280.9171" y="764.0508">SNSUser</text><line style="stroke:#A80036;stroke-width:1.5;" x1="241.9171" x2="343.9171" y1="775.1406" y2="775.1406"/><rect fill="none" height="6" style="stroke:#C82930;stroke-width:1.0;" width="6" x="248.9171" y="783.1406"/><text fill="#000000" font-family="sans-serif" font-size="11" lengthAdjust="spacing" textLength="78" x="260.9171" y="790.5596">snsUserNumber</text><line style="stroke:#A80036;stroke-width:1.5;" x1="241.9171" x2="343.9171" y1="796.9766" y2="796.9766"/><!--MD5=[de60e6d4f424ae4d0522096f76a59010]
class VaccinationCenter--><rect codeLine="13" fill="#FEFECE" filter="url(#f1lsu9val3t379)" height="172.5234" id="VaccinationCenter" style="stroke:#A80036;stroke-width:1.5;" width="132" x="621.9171" y="687.6406"/><ellipse cx="636.9171" cy="703.6406" fill="#ADD1B2" rx="11" ry="11" style="stroke:#A80036;stroke-width:1.0;"/><path d="M639.6827,699.5156 Q639.8389,699.2969 640.0264,699.1875 Q640.2139,699.0781 640.4327,699.0781 Q640.8077,699.0781 641.0421,699.3438 Q641.2764,699.5938 641.2764,700.2031 L641.2764,701.6563 Q641.2764,702.2656 641.0421,702.5313 Q640.8077,702.7969 640.4327,702.7969 Q640.0889,702.7969 639.8858,702.5938 Q639.6827,702.4063 639.5733,701.8906 Q639.5264,701.5313 639.3389,701.3438 Q639.0108,700.9688 638.4014,700.75 Q637.7921,700.5313 637.1671,700.5313 Q636.4014,700.5313 635.7608,700.8594 Q635.1358,701.1875 634.6358,701.9375 Q634.1514,702.6875 634.1514,703.7188 L634.1514,704.8125 Q634.1514,706.0469 635.0421,706.875 Q635.9327,707.6875 637.5264,707.6875 Q638.4639,707.6875 639.1202,707.4375 Q639.5108,707.2813 639.9327,706.8438 Q640.1983,706.5781 640.3389,706.5 Q640.4952,706.4219 640.6983,706.4219 Q641.0264,706.4219 641.2764,706.6875 Q641.5421,706.9375 641.5421,707.2813 Q641.5421,707.625 641.1983,708.0313 Q640.6983,708.6094 639.9014,708.9375 Q638.8233,709.3906 637.5264,709.3906 Q636.0108,709.3906 634.8077,708.7656 Q633.8233,708.2656 633.1358,707.2031 Q632.4483,706.125 632.4483,704.8438 L632.4483,703.6875 Q632.4483,702.3594 633.0577,701.2188 Q633.6827,700.0625 634.7764,699.4531 Q635.8702,698.8281 637.1046,698.8281 Q637.8389,698.8281 638.4796,699 Q639.1358,699.1563 639.6827,699.5156 Z " fill="#000000"/><text fill="#000000" font-family="sans-serif" font-size="12" lengthAdjust="spacing" textLength="100" x="650.9171" y="708.5508">VaccinationCenter</text><line style="stroke:#A80036;stroke-width:1.5;" x1="622.9171" x2="752.9171" y1="719.6406" y2="719.6406"/><rect fill="none" height="6" style="stroke:#C82930;stroke-width:1.0;" width="6" x="629.9171" y="727.6406"/><text fill="#000000" font-family="sans-serif" font-size="11" lengthAdjust="spacing" textLength="26" x="641.9171" y="735.0596">name</text><rect fill="none" height="6" style="stroke:#C82930;stroke-width:1.0;" width="6" x="629.9171" y="741.4766"/><text fill="#000000" font-family="sans-serif" font-size="11" lengthAdjust="spacing" textLength="67" x="641.9171" y="748.8955">phoneNumber</text><rect fill="none" height="6" style="stroke:#C82930;stroke-width:1.0;" width="6" x="629.9171" y="755.3125"/><text fill="#000000" font-family="sans-serif" font-size="11" lengthAdjust="spacing" textLength="66" x="641.9171" y="762.7314">emailAddress</text><rect fill="none" height="6" style="stroke:#C82930;stroke-width:1.0;" width="6" x="629.9171" y="769.1484"/><text fill="#000000" font-family="sans-serif" font-size="11" lengthAdjust="spacing" textLength="53" x="641.9171" y="776.5674">faxNumber</text><rect fill="none" height="6" style="stroke:#C82930;stroke-width:1.0;" width="6" x="629.9171" y="782.9844"/><text fill="#000000" font-family="sans-serif" font-size="11" lengthAdjust="spacing" textLength="81" x="641.9171" y="790.4033">websiteAddress</text><rect fill="none" height="6" style="stroke:#C82930;stroke-width:1.0;" width="6" x="629.9171" y="796.8203"/><text fill="#000000" font-family="sans-serif" font-size="11" lengthAdjust="spacing" textLength="67" x="641.9171" y="804.2393">openingHours</text><rect fill="none" height="6" style="stroke:#C82930;stroke-width:1.0;" width="6" x="629.9171" y="810.6563"/><text fill="#000000" font-family="sans-serif" font-size="11" lengthAdjust="spacing" textLength="63" x="641.9171" y="818.0752">closingHours</text><rect fill="none" height="6" style="stroke:#C82930;stroke-width:1.0;" width="6" x="629.9171" y="824.4922"/><text fill="#000000" font-family="sans-serif" font-size="11" lengthAdjust="spacing" textLength="57" x="641.9171" y="831.9111">slotDuration</text><rect fill="none" height="6" style="stroke:#C82930;stroke-width:1.0;" width="6" x="629.9171" y="838.3281"/><text fill="#000000" font-family="sans-serif" font-size="11" lengthAdjust="spacing" textLength="87" x="641.9171" y="845.7471">maxNumVaccines</text><line style="stroke:#A80036;stroke-width:1.5;" x1="622.9171" x2="752.9171" y1="852.1641" y2="852.1641"/><!--MD5=[7421f545a0d8420c5bec41e74b387d9c]
class Employee--><rect codeLine="25" fill="#FEFECE" filter="url(#f1lsu9val3t379)" height="48" id="Employee" style="stroke:#A80036;stroke-width:1.5;" width="87" x="382.4171" y="155.6406"/><ellipse cx="397.4171" cy="171.6406" fill="#ADD1B2" rx="11" ry="11" style="stroke:#A80036;stroke-width:1.0;"/><path d="M400.1827,167.5156 Q400.3389,167.2969 400.5264,167.1875 Q400.7139,167.0781 400.9327,167.0781 Q401.3077,167.0781 401.5421,167.3438 Q401.7764,167.5938 401.7764,168.2031 L401.7764,169.6563 Q401.7764,170.2656 401.5421,170.5313 Q401.3077,170.7969 400.9327,170.7969 Q400.5889,170.7969 400.3858,170.5938 Q400.1827,170.4063 400.0733,169.8906 Q400.0264,169.5313 399.8389,169.3438 Q399.5108,168.9688 398.9014,168.75 Q398.2921,168.5313 397.6671,168.5313 Q396.9014,168.5313 396.2608,168.8594 Q395.6358,169.1875 395.1358,169.9375 Q394.6514,170.6875 394.6514,171.7188 L394.6514,172.8125 Q394.6514,174.0469 395.5421,174.875 Q396.4327,175.6875 398.0264,175.6875 Q398.9639,175.6875 399.6202,175.4375 Q400.0108,175.2813 400.4327,174.8438 Q400.6983,174.5781 400.8389,174.5 Q400.9952,174.4219 401.1983,174.4219 Q401.5264,174.4219 401.7764,174.6875 Q402.0421,174.9375 402.0421,175.2813 Q402.0421,175.625 401.6983,176.0313 Q401.1983,176.6094 400.4014,176.9375 Q399.3233,177.3906 398.0264,177.3906 Q396.5108,177.3906 395.3077,176.7656 Q394.3233,176.2656 393.6358,175.2031 Q392.9483,174.125 392.9483,172.8438 L392.9483,171.6875 Q392.9483,170.3594 393.5577,169.2188 Q394.1827,168.0625 395.2764,167.4531 Q396.3702,166.8281 397.6046,166.8281 Q398.3389,166.8281 398.9796,167 Q399.6358,167.1563 400.1827,167.5156 Z " fill="#000000"/><text fill="#000000" font-family="sans-serif" font-size="12" lengthAdjust="spacing" textLength="55" x="411.4171" y="176.5508">Employee</text><line style="stroke:#A80036;stroke-width:1.5;" x1="383.4171" x2="468.4171" y1="187.6406" y2="187.6406"/><line style="stroke:#A80036;stroke-width:1.5;" x1="383.4171" x2="468.4171" y1="195.6406" y2="195.6406"/><!--MD5=[a059576e163b46f56762f12600c49258]
class Nurse--><rect codeLine="29" fill="#FEFECE" filter="url(#f1lsu9val3t379)" height="48" id="Nurse" style="stroke:#A80036;stroke-width:1.5;" width="66" x="392.9171" y="281.6406"/><ellipse cx="407.9171" cy="297.6406" fill="#ADD1B2" rx="11" ry="11" style="stroke:#A80036;stroke-width:1.0;"/><path d="M410.6827,293.5156 Q410.8389,293.2969 411.0264,293.1875 Q411.2139,293.0781 411.4327,293.0781 Q411.8077,293.0781 412.0421,293.3438 Q412.2764,293.5938 412.2764,294.2031 L412.2764,295.6563 Q412.2764,296.2656 412.0421,296.5313 Q411.8077,296.7969 411.4327,296.7969 Q411.0889,296.7969 410.8858,296.5938 Q410.6827,296.4063 410.5733,295.8906 Q410.5264,295.5313 410.3389,295.3438 Q410.0108,294.9688 409.4014,294.75 Q408.7921,294.5313 408.1671,294.5313 Q407.4014,294.5313 406.7608,294.8594 Q406.1358,295.1875 405.6358,295.9375 Q405.1514,296.6875 405.1514,297.7188 L405.1514,298.8125 Q405.1514,300.0469 406.0421,300.875 Q406.9327,301.6875 408.5264,301.6875 Q409.4639,301.6875 410.1202,301.4375 Q410.5108,301.2813 410.9327,300.8438 Q411.1983,300.5781 411.3389,300.5 Q411.4952,300.4219 411.6983,300.4219 Q412.0264,300.4219 412.2764,300.6875 Q412.5421,300.9375 412.5421,301.2813 Q412.5421,301.625 412.1983,302.0313 Q411.6983,302.6094 410.9014,302.9375 Q409.8233,303.3906 408.5264,303.3906 Q407.0108,303.3906 405.8077,302.7656 Q404.8233,302.2656 404.1358,301.2031 Q403.4483,300.125 403.4483,298.8438 L403.4483,297.6875 Q403.4483,296.3594 404.0577,295.2188 Q404.6827,294.0625 405.7764,293.4531 Q406.8702,292.8281 408.1046,292.8281 Q408.8389,292.8281 409.4796,293 Q410.1358,293.1563 410.6827,293.5156 Z " fill="#000000"/><text fill="#000000" font-family="sans-serif" font-size="12" lengthAdjust="spacing" textLength="34" x="421.9171" y="302.5508">Nurse</text><line style="stroke:#A80036;stroke-width:1.5;" x1="393.9171" x2="457.9171" y1="313.6406" y2="313.6406"/><line style="stroke:#A80036;stroke-width:1.5;" x1="393.9171" x2="457.9171" y1="321.6406" y2="321.6406"/><!--MD5=[cd4ce1c0d44638ff9f42448de30e6b92]
class VaccineSchedule--><rect codeLine="33" fill="#FEFECE" filter="url(#f1lsu9val3t379)" height="75.6719" id="VaccineSchedule" style="stroke:#A80036;stroke-width:1.5;" width="127" x="418.4171" y="533.6406"/><ellipse cx="433.4171" cy="549.6406" fill="#ADD1B2" rx="11" ry="11" style="stroke:#A80036;stroke-width:1.0;"/><path d="M436.1827,545.5156 Q436.3389,545.2969 436.5264,545.1875 Q436.7139,545.0781 436.9327,545.0781 Q437.3077,545.0781 437.5421,545.3438 Q437.7764,545.5938 437.7764,546.2031 L437.7764,547.6563 Q437.7764,548.2656 437.5421,548.5313 Q437.3077,548.7969 436.9327,548.7969 Q436.5889,548.7969 436.3858,548.5938 Q436.1827,548.4063 436.0733,547.8906 Q436.0264,547.5313 435.8389,547.3438 Q435.5108,546.9688 434.9014,546.75 Q434.2921,546.5313 433.6671,546.5313 Q432.9014,546.5313 432.2608,546.8594 Q431.6358,547.1875 431.1358,547.9375 Q430.6514,548.6875 430.6514,549.7188 L430.6514,550.8125 Q430.6514,552.0469 431.5421,552.875 Q432.4327,553.6875 434.0264,553.6875 Q434.9639,553.6875 435.6202,553.4375 Q436.0108,553.2813 436.4327,552.8438 Q436.6983,552.5781 436.8389,552.5 Q436.9952,552.4219 437.1983,552.4219 Q437.5264,552.4219 437.7764,552.6875 Q438.0421,552.9375 438.0421,553.2813 Q438.0421,553.625 437.6983,554.0313 Q437.1983,554.6094 436.4014,554.9375 Q435.3233,555.3906 434.0264,555.3906 Q432.5108,555.3906 431.3077,554.7656 Q430.3233,554.2656 429.6358,553.2031 Q428.9483,552.125 428.9483,550.8438 L428.9483,549.6875 Q428.9483,548.3594 429.5577,547.2188 Q430.1827,546.0625 431.2764,545.4531 Q432.3702,544.8281 433.6046,544.8281 Q434.3389,544.8281 434.9796,545 Q435.6358,545.1563 436.1827,545.5156 Z " fill="#000000"/><text fill="#000000" font-family="sans-serif" font-size="12" lengthAdjust="spacing" textLength="95" x="447.4171" y="554.5508">VaccineSchedule</text><line style="stroke:#A80036;stroke-width:1.5;" x1="419.4171" x2="544.4171" y1="565.6406" y2="565.6406"/><rect fill="none" height="6" style="stroke:#C82930;stroke-width:1.0;" width="6" x="426.4171" y="573.6406"/><text fill="#000000" font-family="sans-serif" font-size="11" lengthAdjust="spacing" textLength="21" x="438.4171" y="581.0596">date</text><rect fill="none" height="6" style="stroke:#C82930;stroke-width:1.0;" width="6" x="426.4171" y="587.4766"/><text fill="#000000" font-family="sans-serif" font-size="11" lengthAdjust="spacing" textLength="19" x="438.4171" y="594.8955">time</text><line style="stroke:#A80036;stroke-width:1.5;" x1="419.4171" x2="544.4171" y1="601.3125" y2="601.3125"/><!--MD5=[107cfa23aa516ff83d0cf17a6f9fe7ba]
class VaccineAdministration--><rect codeLine="38" fill="#FEFECE" filter="url(#f1lsu9val3t379)" height="48" id="VaccineAdministration" style="stroke:#A80036;stroke-width:1.5;" width="154" x="248.9171" y="407.6406"/><ellipse cx="263.9171" cy="423.6406" fill="#ADD1B2" rx="11" ry="11" style="stroke:#A80036;stroke-width:1.0;"/><path d="M266.6827,419.5156 Q266.8389,419.2969 267.0264,419.1875 Q267.2139,419.0781 267.4327,419.0781 Q267.8077,419.0781 268.0421,419.3438 Q268.2764,419.5938 268.2764,420.2031 L268.2764,421.6563 Q268.2764,422.2656 268.0421,422.5313 Q267.8077,422.7969 267.4327,422.7969 Q267.0889,422.7969 266.8858,422.5938 Q266.6827,422.4063 266.5733,421.8906 Q266.5264,421.5313 266.3389,421.3438 Q266.0108,420.9688 265.4014,420.75 Q264.7921,420.5313 264.1671,420.5313 Q263.4014,420.5313 262.7608,420.8594 Q262.1358,421.1875 261.6358,421.9375 Q261.1514,422.6875 261.1514,423.7188 L261.1514,424.8125 Q261.1514,426.0469 262.0421,426.875 Q262.9327,427.6875 264.5264,427.6875 Q265.4639,427.6875 266.1202,427.4375 Q266.5108,427.2813 266.9327,426.8438 Q267.1983,426.5781 267.3389,426.5 Q267.4952,426.4219 267.6983,426.4219 Q268.0264,426.4219 268.2764,426.6875 Q268.5421,426.9375 268.5421,427.2813 Q268.5421,427.625 268.1983,428.0313 Q267.6983,428.6094 266.9014,428.9375 Q265.8233,429.3906 264.5264,429.3906 Q263.0108,429.3906 261.8077,428.7656 Q260.8233,428.2656 260.1358,427.2031 Q259.4483,426.125 259.4483,424.8438 L259.4483,423.6875 Q259.4483,422.3594 260.0577,421.2188 Q260.6827,420.0625 261.7764,419.4531 Q262.8702,418.8281 264.1046,418.8281 Q264.8389,418.8281 265.4796,419 Q266.1358,419.1563 266.6827,419.5156 Z " fill="#000000"/><text fill="#000000" font-family="sans-serif" font-size="12" lengthAdjust="spacing" textLength="122" x="277.9171" y="428.5508">VaccineAdministration</text><line style="stroke:#A80036;stroke-width:1.5;" x1="249.9171" x2="401.9171" y1="439.6406" y2="439.6406"/><line style="stroke:#A80036;stroke-width:1.5;" x1="249.9171" x2="401.9171" y1="447.6406" y2="447.6406"/><!--MD5=[9bf9dadbffb7fbceed2ede59f1107d85]
class AdverseReaction--><rect codeLine="42" fill="#FEFECE" filter="url(#f1lsu9val3t379)" height="48" id="AdverseReaction" style="stroke:#A80036;stroke-width:1.5;" width="125" x="565.4171" y="407.6406"/><ellipse cx="580.4171" cy="423.6406" fill="#ADD1B2" rx="11" ry="11" style="stroke:#A80036;stroke-width:1.0;"/><path d="M583.1827,419.5156 Q583.3389,419.2969 583.5264,419.1875 Q583.7139,419.0781 583.9327,419.0781 Q584.3077,419.0781 584.5421,419.3438 Q584.7764,419.5938 584.7764,420.2031 L584.7764,421.6563 Q584.7764,422.2656 584.5421,422.5313 Q584.3077,422.7969 583.9327,422.7969 Q583.5889,422.7969 583.3858,422.5938 Q583.1827,422.4063 583.0733,421.8906 Q583.0264,421.5313 582.8389,421.3438 Q582.5108,420.9688 581.9014,420.75 Q581.2921,420.5313 580.6671,420.5313 Q579.9014,420.5313 579.2608,420.8594 Q578.6358,421.1875 578.1358,421.9375 Q577.6514,422.6875 577.6514,423.7188 L577.6514,424.8125 Q577.6514,426.0469 578.5421,426.875 Q579.4327,427.6875 581.0264,427.6875 Q581.9639,427.6875 582.6202,427.4375 Q583.0108,427.2813 583.4327,426.8438 Q583.6983,426.5781 583.8389,426.5 Q583.9952,426.4219 584.1983,426.4219 Q584.5264,426.4219 584.7764,426.6875 Q585.0421,426.9375 585.0421,427.2813 Q585.0421,427.625 584.6983,428.0313 Q584.1983,428.6094 583.4014,428.9375 Q582.3233,429.3906 581.0264,429.3906 Q579.5108,429.3906 578.3077,428.7656 Q577.3233,428.2656 576.6358,427.2031 Q575.9483,426.125 575.9483,424.8438 L575.9483,423.6875 Q575.9483,422.3594 576.5577,421.2188 Q577.1827,420.0625 578.2764,419.4531 Q579.3702,418.8281 580.6046,418.8281 Q581.3389,418.8281 581.9796,419 Q582.6358,419.1563 583.1827,419.5156 Z " fill="#000000"/><text fill="#000000" font-family="sans-serif" font-size="12" lengthAdjust="spacing" textLength="93" x="594.4171" y="428.5508">AdverseReaction</text><line style="stroke:#A80036;stroke-width:1.5;" x1="566.4171" x2="689.4171" y1="439.6406" y2="439.6406"/><line style="stroke:#A80036;stroke-width:1.5;" x1="566.4171" x2="689.4171" y1="447.6406" y2="447.6406"/><!--MD5=[76b5e19c9337179d2d7ae334371d68c8]
class Notification--><rect codeLine="46" fill="#FEFECE" filter="url(#f1lsu9val3t379)" height="48" id="Notification" style="stroke:#A80036;stroke-width:1.5;" width="93" x="243.4171" y="938.6406"/><ellipse cx="258.4171" cy="954.6406" fill="#ADD1B2" rx="11" ry="11" style="stroke:#A80036;stroke-width:1.0;"/><path d="M261.1827,950.5156 Q261.3389,950.2969 261.5264,950.1875 Q261.7139,950.0781 261.9327,950.0781 Q262.3077,950.0781 262.5421,950.3438 Q262.7764,950.5938 262.7764,951.2031 L262.7764,952.6563 Q262.7764,953.2656 262.5421,953.5313 Q262.3077,953.7969 261.9327,953.7969 Q261.5889,953.7969 261.3858,953.5938 Q261.1827,953.4063 261.0733,952.8906 Q261.0264,952.5313 260.8389,952.3438 Q260.5108,951.9688 259.9014,951.75 Q259.2921,951.5313 258.6671,951.5313 Q257.9014,951.5313 257.2608,951.8594 Q256.6358,952.1875 256.1358,952.9375 Q255.6514,953.6875 255.6514,954.7188 L255.6514,955.8125 Q255.6514,957.0469 256.5421,957.875 Q257.4327,958.6875 259.0264,958.6875 Q259.9639,958.6875 260.6202,958.4375 Q261.0108,958.2813 261.4327,957.8438 Q261.6983,957.5781 261.8389,957.5 Q261.9952,957.4219 262.1983,957.4219 Q262.5264,957.4219 262.7764,957.6875 Q263.0421,957.9375 263.0421,958.2813 Q263.0421,958.625 262.6983,959.0313 Q262.1983,959.6094 261.4014,959.9375 Q260.3233,960.3906 259.0264,960.3906 Q257.5108,960.3906 256.3077,959.7656 Q255.3233,959.2656 254.6358,958.2031 Q253.9483,957.125 253.9483,955.8438 L253.9483,954.6875 Q253.9483,953.3594 254.5577,952.2188 Q255.1827,951.0625 256.2764,950.4531 Q257.3702,949.8281 258.6046,949.8281 Q259.3389,949.8281 259.9796,950 Q260.6358,950.1563 261.1827,950.5156 Z " fill="#000000"/><text fill="#000000" font-family="sans-serif" font-size="12" lengthAdjust="spacing" textLength="61" x="272.4171" y="959.5508">Notification</text><line style="stroke:#A80036;stroke-width:1.5;" x1="244.4171" x2="335.4171" y1="970.6406" y2="970.6406"/><line style="stroke:#A80036;stroke-width:1.5;" x1="244.4171" x2="335.4171" y1="978.6406" y2="978.6406"/><!--MD5=[39a1638d7cb0f602b18d7d12f49fdc2b]
class RecoveryPeriod--><rect codeLine="50" fill="#FEFECE" filter="url(#f1lsu9val3t379)" height="48" id="RecoveryPeriod" style="stroke:#A80036;stroke-width:1.5;" width="118" x="157.9171" y="1064.6406"/><ellipse cx="172.9171" cy="1080.6406" fill="#ADD1B2" rx="11" ry="11" style="stroke:#A80036;stroke-width:1.0;"/><path d="M175.6827,1076.5156 Q175.8389,1076.2969 176.0264,1076.1875 Q176.2139,1076.0781 176.4327,1076.0781 Q176.8077,1076.0781 177.0421,1076.3438 Q177.2764,1076.5938 177.2764,1077.2031 L177.2764,1078.6563 Q177.2764,1079.2656 177.0421,1079.5313 Q176.8077,1079.7969 176.4327,1079.7969 Q176.0889,1079.7969 175.8858,1079.5938 Q175.6827,1079.4063 175.5733,1078.8906 Q175.5264,1078.5313 175.3389,1078.3438 Q175.0108,1077.9688 174.4014,1077.75 Q173.7921,1077.5313 173.1671,1077.5313 Q172.4014,1077.5313 171.7608,1077.8594 Q171.1358,1078.1875 170.6358,1078.9375 Q170.1514,1079.6875 170.1514,1080.7188 L170.1514,1081.8125 Q170.1514,1083.0469 171.0421,1083.875 Q171.9327,1084.6875 173.5264,1084.6875 Q174.4639,1084.6875 175.1202,1084.4375 Q175.5108,1084.2813 175.9327,1083.8438 Q176.1983,1083.5781 176.3389,1083.5 Q176.4952,1083.4219 176.6983,1083.4219 Q177.0264,1083.4219 177.2764,1083.6875 Q177.5421,1083.9375 177.5421,1084.2813 Q177.5421,1084.625 177.1983,1085.0313 Q176.6983,1085.6094 175.9014,1085.9375 Q174.8233,1086.3906 173.5264,1086.3906 Q172.0108,1086.3906 170.8077,1085.7656 Q169.8233,1085.2656 169.1358,1084.2031 Q168.4483,1083.125 168.4483,1081.8438 L168.4483,1080.6875 Q168.4483,1079.3594 169.0577,1078.2188 Q169.6827,1077.0625 170.7764,1076.4531 Q171.8702,1075.8281 173.1046,1075.8281 Q173.8389,1075.8281 174.4796,1076 Q175.1358,1076.1563 175.6827,1076.5156 Z " fill="#000000"/><text fill="#000000" font-family="sans-serif" font-size="12" lengthAdjust="spacing" textLength="86" x="186.9171" y="1085.5508">RecoveryPeriod</text><line style="stroke:#A80036;stroke-width:1.5;" x1="158.9171" x2="274.9171" y1="1096.6406" y2="1096.6406"/><line style="stroke:#A80036;stroke-width:1.5;" x1="158.9171" x2="274.9171" y1="1104.6406" y2="1104.6406"/><!--MD5=[eebe9b198877275d05dd12630ed9e401]
link Company to VaccinationCenter--><path codeLine="54" d="M333.8171,54.7206 C467.5371,56.1106 867.9171,69.3906 867.9171,178.6406 C867.9171,178.6406 867.9171,178.6406 867.9171,572.6406 C867.9171,643.2806 805.2971,700.3406 753.9171,735.2706 " fill="none" id="Company-VaccinationCenter" style="stroke:#A80036;stroke-width:1.0;"/><polygon fill="#000000" points="875.5434,373.0711,873.2931,363.8306,868.2915,366.9181,875.5434,373.0711" style="stroke:#000000;stroke-width:1.0;"/><text fill="#000000" font-family="sans-serif" font-size="13" lengthAdjust="spacing" textLength="21" x="881.9171" y="374.1357">has</text><text fill="#000000" font-family="sans-serif" font-size="13" lengthAdjust="spacing" textLength="7" x="341.5021" y="51.0987">1</text><text fill="#000000" font-family="sans-serif" font-size="13" lengthAdjust="spacing" textLength="5" x="761.8374" y="727.3943">*</text><!--MD5=[1a8aa2b864b87f860d28abceaa28b7a5]
link Company to SNSUser--><path codeLine="55" d="M248.3471,64.9206 C196.8371,80.2006 116.9171,114.2806 116.9171,178.6406 C116.9171,178.6406 116.9171,178.6406 116.9171,572.6406 C116.9171,612.4106 122.0271,625.1106 144.9171,657.6406 C169.9571,693.2206 209.1271,723.1106 240.8871,743.5506 " fill="none" id="Company-SNSUser" style="stroke:#A80036;stroke-width:1.0;"/><polygon fill="#000000" points="121.8621,373.8161,124.9003,364.8039,119.0228,364.7393,121.8621,373.8161" style="stroke:#000000;stroke-width:1.0;"/><text fill="#000000" font-family="sans-serif" font-size="13" lengthAdjust="spacing" textLength="30" x="130.9171" y="374.1357">owns</text><text fill="#000000" font-family="sans-serif" font-size="13" lengthAdjust="spacing" textLength="7" x="233.4288" y="81.7597">1</text><text fill="#000000" font-family="sans-serif" font-size="13" lengthAdjust="spacing" textLength="5" x="227.878" y="735.4157">*</text><!--MD5=[d8bf2b68dce5436e3fc09e5a0685b137]
link Company to Notification--><path codeLine="56" d="M248.2471,55.0206 C170.5471,58.2106 13.9171,77.2106 13.9171,178.6406 C13.9171,178.6406 13.9171,178.6406 13.9171,775.1406 C13.9171,884.5806 164.7471,934.1406 243.4071,952.5406 " fill="none" id="Company-Notification" style="stroke:#A80036;stroke-width:1.0;"/><polygon fill="#000000" points="18.8901,436.8163,21.8778,427.7872,16,427.7555,18.8901,436.8163" style="stroke:#000000;stroke-width:1.0;"/><text fill="#000000" font-family="sans-serif" font-size="13" lengthAdjust="spacing" textLength="35" x="27.9171" y="437.1357">sends</text><text fill="#000000" font-family="sans-serif" font-size="13" lengthAdjust="spacing" textLength="7" x="233.3116" y="51.4081">1</text><text fill="#000000" font-family="sans-serif" font-size="13" lengthAdjust="spacing" textLength="5" x="230.2898" y="947.067">*</text><!--MD5=[09366576ee87d48d594df10cacc83f45]
link Company to Employee--><path codeLine="57" d="M315.9971,77.6706 C340.0871,99.8106 376.3171,133.0806 400.5171,155.3106 " fill="none" id="Company-Employee" style="stroke:#A80036;stroke-width:1.0;"/><polygon fill="#000000" points="375.5993,120.1989,370.9263,111.9156,366.9499,116.2443,375.5993,120.1989" style="stroke:#000000;stroke-width:1.0;"/><text fill="#000000" font-family="sans-serif" font-size="13" lengthAdjust="spacing" textLength="49" x="380.9171" y="122.1357">employs</text><text fill="#000000" font-family="sans-serif" font-size="13" lengthAdjust="spacing" textLength="7" x="314.2572" y="99.0159">1</text><text fill="#000000" font-family="sans-serif" font-size="13" lengthAdjust="spacing" textLength="5" x="388.7164" y="144.9682">*</text><!--MD5=[b71b66caf67976638439c0d1a3790473]
link Employee to Nurse--><path codeLine="59" d="M425.9171,203.6706 C425.9171,225.8106 425.9171,259.0806 425.9171,281.3106 " fill="none" id="Employee-Nurse" style="stroke:#A80036;stroke-width:1.0;"/><polygon fill="#000000" points="430.9171,247.8164,433.856,238.7713,427.9781,238.7713,430.9171,247.8164" style="stroke:#000000;stroke-width:1.0;"/><text fill="#000000" font-family="sans-serif" font-size="13" lengthAdjust="spacing" textLength="24" x="439.9171" y="248.1357">is of</text><text fill="#000000" font-family="sans-serif" font-size="13" lengthAdjust="spacing" textLength="5" x="420.3077" y="225.0159">*</text><text fill="#000000" font-family="sans-serif" font-size="13" lengthAdjust="spacing" textLength="7" x="418.0639" y="270.9682">1</text><!--MD5=[7454cd36f47ee2c1597ee5b79ae5e9ce]
link Employee to VaccinationCenter--><path codeLine="60" d="M469.7171,187.4006 C560.5171,202.6406 760.9171,243.2406 760.9171,304.6406 C760.9171,304.6406 760.9171,304.6406 760.9171,572.6406 C760.9171,611.7206 748.5171,652.6406 733.9371,687.2506 " fill="none" id="Employee-VaccinationCenter" style="stroke:#A80036;stroke-width:1.0;"/><text fill="#000000" font-family="sans-serif" font-size="13" lengthAdjust="spacing" textLength="52" x="761.9171" y="437.1357">works on</text><text fill="#000000" font-family="sans-serif" font-size="13" lengthAdjust="spacing" textLength="20" x="477.2827" y="184.8867">1..*</text><text fill="#000000" font-family="sans-serif" font-size="13" lengthAdjust="spacing" textLength="7" x="730.4583" y="676.922">1</text><!--MD5=[1d6d671bbc18d64756cbd8abf269fed7]
link SNSUser to Notification--><path codeLine="62" d="M292.4271,805.5206 C291.8271,842.7806 290.8271,905.1106 290.2871,938.6306 " fill="none" id="SNSUser-Notification" style="stroke:#A80036;stroke-width:1.0;"/><polygon fill="#000000" points="296.8367,904.8158,299.9206,895.8191,294.0435,895.7246,296.8367,904.8158" style="stroke:#000000;stroke-width:1.0;"/><text fill="#000000" font-family="sans-serif" font-size="13" lengthAdjust="spacing" textLength="47" x="305.9171" y="905.1357">receives</text><text fill="#000000" font-family="sans-serif" font-size="13" lengthAdjust="spacing" textLength="7" x="284.6665" y="826.5717">1</text><text fill="#000000" font-family="sans-serif" font-size="13" lengthAdjust="spacing" textLength="29" x="257.6663" y="927.9682">0,1,2</text><!--MD5=[8e51fd2526d7ed1449c2aa4f1c32bf49]
link VaccineSchedule to SNSUser--><path codeLine="64" d="M418.1171,595.8906 C395.6471,606.5206 371.6071,620.9806 353.9171,639.6406 C325.9571,669.1406 309.1571,713.7006 300.4671,743.1106 " fill="none" id="VaccineSchedule-SNSUser" style="stroke:#A80036;stroke-width:1.0;"/><text fill="#000000" font-family="sans-serif" font-size="13" lengthAdjust="spacing" textLength="61" x="354.9171" y="654.1357">created for</text><text fill="#000000" font-family="sans-serif" font-size="13" lengthAdjust="spacing" textLength="20" x="390.5064" y="595.0966">1..*</text><text fill="#000000" font-family="sans-serif" font-size="13" lengthAdjust="spacing" textLength="7" x="294.353" y="732.1243">1</text><!--MD5=[18968283628c2f508e56f30aee4bc691]
link VaccineSchedule to VaccinationCenter--><path codeLine="65" d="M493.9571,609.8406 C500.3071,625.7006 509.2271,643.7106 520.9171,657.6406 C548.6671,690.7306 588.0971,718.5906 621.6771,738.6606 " fill="none" id="VaccineSchedule-VaccinationCenter" style="stroke:#A80036;stroke-width:1.0;"/><text fill="#000000" font-family="sans-serif" font-size="13" lengthAdjust="spacing" textLength="67" x="521.9171" y="654.1357">allocated to</text><text fill="#000000" font-family="sans-serif" font-size="13" lengthAdjust="spacing" textLength="20" x="497.4697" y="630.753">1..*</text><text fill="#000000" font-family="sans-serif" font-size="13" lengthAdjust="spacing" textLength="7" x="607.0493" y="731.4454">1</text><!--MD5=[fcde09df24315c7099b93e176a3fbe92]
link VaccineSchedule to Notification--><path codeLine="66" d="M476.0171,609.8106 C464.0671,675.6006 431.9771,814.4606 361.9171,908.6406 C353.2971,920.2206 341.4471,930.3806 329.8371,938.6306 " fill="none" id="VaccineSchedule-Notification" style="stroke:#A80036;stroke-width:1.0;"/><polygon fill="#000000" points="460.8859,778.8853,467.2458,771.814,461.8748,769.4262,460.8859,778.8853" style="stroke:#000000;stroke-width:1.0;"/><text fill="#000000" font-family="sans-serif" font-size="13" lengthAdjust="spacing" textLength="57" x="471.9171" y="779.6357">generates</text><text fill="#000000" font-family="sans-serif" font-size="13" lengthAdjust="spacing" textLength="7" x="467.5189" y="630.7182">1</text><text fill="#000000" font-family="sans-serif" font-size="13" lengthAdjust="spacing" textLength="18" x="319.7603" y="927.9682">0,1</text><!--MD5=[58a7f89859e4960c06ec5aa43a0116b6]
link VaccinationCenter to VaccineAdministration--><path codeLine="68" d="M659.8771,687.4406 C639.7071,637.0906 608.0271,575.3606 562.9171,533.6406 C518.0071,492.1106 453.4571,466.1306 403.0571,450.9406 " fill="none" id="VaccinationCenter-VaccineAdministration" style="stroke:#A80036;stroke-width:1.0;"/><polygon fill="#000000" points="621.239,568.4294,625.9018,576.7185,629.8835,572.3947,621.239,568.4294" style="stroke:#000000;stroke-width:1.0;"/><text fill="#000000" font-family="sans-serif" font-size="13" lengthAdjust="spacing" textLength="67" x="633.9171" y="577.1357">implements</text><text fill="#000000" font-family="sans-serif" font-size="13" lengthAdjust="spacing" textLength="5" x="652.2525" y="676.833">*</text><text fill="#000000" font-family="sans-serif" font-size="13" lengthAdjust="spacing" textLength="5" x="410.8966" y="449.5654">*</text><!--MD5=[caf5296180bfac063f712c0c7ef40853]
link Nurse to VaccineSchedule--><path codeLine="70" d="M438.6571,329.7906 C443.1571,338.8706 447.8571,349.5106 450.9171,359.6406 C468.7971,418.8306 476.5371,490.5906 479.7671,533.3306 " fill="none" id="Nurse-VaccineSchedule" style="stroke:#A80036;stroke-width:1.0;"/><polygon fill="#000000" points="476.907,436.7174,477.997,427.2695,472.2355,428.4332,476.907,436.7174" style="stroke:#000000;stroke-width:1.0;"/><text fill="#000000" font-family="sans-serif" font-size="13" lengthAdjust="spacing" textLength="42" x="484.9171" y="437.1357">checks</text><text fill="#000000" font-family="sans-serif" font-size="13" lengthAdjust="spacing" textLength="7" x="433.9093" y="351.1652">1</text><text fill="#000000" font-family="sans-serif" font-size="13" lengthAdjust="spacing" textLength="20" x="457.6788" y="522.9246">1..*</text><!--MD5=[195cd4b2065cc6507c3064f693e1e4c8]
link Nurse to VaccineAdministration--><path codeLine="71" d="M406.5171,329.7606 C398.8071,339.0106 389.8871,349.7906 381.9171,359.6406 C369.0771,375.5006 354.8371,393.5706 343.9271,407.5006 " fill="none" id="Nurse-VaccineAdministration" style="stroke:#A80036;stroke-width:1.0;"/><polygon fill="#000000" points="383.7815,372.711,391.743,367.5087,387.1647,363.8225,383.7815,372.711" style="stroke:#000000;stroke-width:1.0;"/><text fill="#000000" font-family="sans-serif" font-size="13" lengthAdjust="spacing" textLength="50" x="395.9171" y="374.1357">registers</text><text fill="#000000" font-family="sans-serif" font-size="13" lengthAdjust="spacing" textLength="7" x="393.9352" y="351.1278">1</text><text fill="#000000" font-family="sans-serif" font-size="13" lengthAdjust="spacing" textLength="20" x="325.9796" y="396.8049">1..*</text><!--MD5=[cdab2c07dabb305a9893ea7671d69564]
link Nurse to RecoveryPeriod--><path codeLine="72" d="M392.8271,308.8306 C327.4271,315.1506 187.9171,339.3206 187.9171,430.6406 C187.9171,430.6406 187.9171,430.6406 187.9171,963.6406 C187.9171,999.4606 199.5271,1039.6006 208.0571,1064.2506 " fill="none" id="Nurse-RecoveryPeriod" style="stroke:#A80036;stroke-width:1.0;"/><polygon fill="#000000" points="191.7291,653.6732,196.7329,645.5854,191.0234,644.1889,191.7291,653.6732" style="stroke:#000000;stroke-width:1.0;"/><text fill="#000000" font-family="sans-serif" font-size="13" lengthAdjust="spacing" textLength="45" x="201.9171" y="654.1357">initiates</text><text fill="#000000" font-family="sans-serif" font-size="13" lengthAdjust="spacing" textLength="7" x="377.823" y="305.312">1</text><text fill="#000000" font-family="sans-serif" font-size="13" lengthAdjust="spacing" textLength="20" x="183.4599" y="1053.8935">1..*</text><!--MD5=[e061032a880d751bf0fb6ebc2f277ecf]
link Nurse to AdverseReaction--><path codeLine="73" d="M459.2771,327.1206 C495.3571,349.2706 552.7571,384.5006 590.3871,407.6006 " fill="none" id="Nurse-AdverseReaction" style="stroke:#A80036;stroke-width:1.0;"/><polygon fill="#000000" points="548.1783,371.4321,542.0071,364.1956,538.9322,369.205,548.1783,371.4321" style="stroke:#000000;stroke-width:1.0;"/><text fill="#000000" font-family="sans-serif" font-size="13" lengthAdjust="spacing" textLength="43" x="552.9171" y="374.1357">records</text><text fill="#000000" font-family="sans-serif" font-size="13" lengthAdjust="spacing" textLength="7" x="466.8794" y="327.4322">1</text><text fill="#000000" font-family="sans-serif" font-size="13" lengthAdjust="spacing" textLength="5" x="575.1294" y="396.9305">*</text><!--MD5=[26d93bb3364bc68050d04ccdf39ce109]
link VaccineAdministration to VaccineSchedule--><path codeLine="75" d="M330.2071,455.6606 C334.0171,470.7606 340.8971,490.1506 352.9171,503.6406 C362.7771,514.7106 390.7671,529.7406 418.1571,542.7506 " fill="none" id="VaccineAdministration-VaccineSchedule" style="stroke:#A80036;stroke-width:1.0;"/><polygon fill="#000000" points="361.4699,498.3345,357.1106,489.8819,352.9748,494.0585,361.4699,498.3345" style="stroke:#000000;stroke-width:1.0;"/><text fill="#000000" font-family="sans-serif" font-size="13" lengthAdjust="spacing" textLength="42" x="366.9171" y="500.1357">fulfilling</text><text fill="#000000" font-family="sans-serif" font-size="13" lengthAdjust="spacing" textLength="7" x="323.3996" y="477.0035">1</text><text fill="#000000" font-family="sans-serif" font-size="13" lengthAdjust="spacing" textLength="7" x="403.3801" y="536.0196">1</text><!--MD5=[951a07871a6512bd4f8e62baa1d062ce]
link VaccineAdministration to SNSUser--><path codeLine="76" d="M316.3571,455.8306 C308.5771,475.9906 298.2171,506.2006 293.9171,533.6406 C282.2271,608.2006 286.6071,697.4206 290.1571,743.0406 " fill="none" id="VaccineAdministration-SNSUser" style="stroke:#A80036;stroke-width:1.0;"/><polygon fill="#000000" points="298.4628,576.7957,302.2113,568.055,296.3578,567.5211,298.4628,576.7957" style="stroke:#000000;stroke-width:1.0;"/><text fill="#000000" font-family="sans-serif" font-size="13" lengthAdjust="spacing" textLength="92" x="307.9171" y="577.1357">administered on</text><text fill="#000000" font-family="sans-serif" font-size="13" lengthAdjust="spacing" textLength="20" x="291.5893" y="477.2149">1..*</text><text fill="#000000" font-family="sans-serif" font-size="13" lengthAdjust="spacing" textLength="7" x="281.8659" y="732.5245">1</text><!--MD5=[669892501ab3d4ed385ef37a76a26d90]
link Notification to RecoveryPeriod--><path codeLine="78" d="M276.3571,986.6706 C263.3271,1008.8106 243.7371,1042.0806 230.6471,1064.3106 " fill="none" id="Notification-RecoveryPeriod" style="stroke:#A80036;stroke-width:1.0;"/><polygon fill="#000000" points="265.4538,1021.5077,258.3322,1027.8112,263.3974,1030.7933,265.4538,1021.5077" style="stroke:#000000;stroke-width:1.0;"/><text fill="#000000" font-family="sans-serif" font-size="13" lengthAdjust="spacing" textLength="57" x="271.9171" y="1031.1357">generates</text><text fill="#000000" font-family="sans-serif" font-size="13" lengthAdjust="spacing" textLength="18" x="252.8581" y="1008.0159">0,1</text><text fill="#000000" font-family="sans-serif" font-size="13" lengthAdjust="spacing" textLength="7" x="226.1406" y="1053.9682">1</text><!--MD5=[ec88dabca9d458fafea260471f0d71a8]
@startuml US08_DM

title Domail Model Excerpt: Record vaccine administration


class Company {
    
}

class SNSUser {
    -snsUserNumber
}

class VaccinationCenter {
    -name
    -phoneNumber
    -emailAddress
    -faxNumber
    -websiteAddress
    -openingHours
    -closingHours
    -slotDuration
    -maxNumVaccines
}

class Employee {

}

class Nurse {

}

class VaccineSchedule {
    -date
    -time
}

class VaccineAdministration {
    
}

class AdverseReaction {
    
}

class Notification {
    
}

class RecoveryPeriod {
    
}

Company "1" -d "*" VaccinationCenter :  has >
Company "1" - - "*" SNSUser :  owns >
Company "1" - -  "*" Notification   :  sends  >
Company "1" - - "*" Employee :  employs >

Employee "*" - - "1" Nurse :  is of >
Employee "1..*" - - "1" VaccinationCenter : works on

SNSUser "1" - -  "0,1,2" Notification :  receives >

VaccineSchedule "1..*" - - "1" SNSUser :  created for 
VaccineSchedule "1..*" - - "1" VaccinationCenter :  allocated to 
VaccineSchedule "1" - - "0,1" Notification :  generates >

VaccinationCenter "*" - - "*" VaccineAdministration :  implements >

Nurse "1" - - "1..*" VaccineSchedule : checks >
Nurse "1" - - "1..*" VaccineAdministration :  registers >
Nurse "1" - "1..*" RecoveryPeriod :  initiates >
Nurse "1" - - "*" AdverseReaction :  records >

VaccineAdministration "1" - - "1" VaccineSchedule : fulfilling >
VaccineAdministration "1..*" - "1" SNSUser :  administered on >

RecoveryPeriod "1" -u- "0,1" Notification :  generates  >

@enduml

PlantUML version 1.2022.0(Tue Jan 11 16:16:42 WET 2022)
(GPL source distribution)
Java Runtime: Java(TM) SE Runtime Environment
JVM: Java HotSpot(TM) 64-Bit Server VM
Default Encoding: Cp1252
Language: pt
Country: PT
--></g></svg>