<?xml version="1.0" encoding="UTF-8" standalone="no"?><svg xmlns="http://www.w3.org/2000/svg" xmlns:xlink="http://www.w3.org/1999/xlink" contentScriptType="application/ecmascript" contentStyleType="text/css" height="1419px" preserveAspectRatio="none" style="width:1578px;height:1419px;background:#FFFFFF;" version="1.1" viewBox="0 0 1578 1419" width="1578px" zoomAndPan="magnify"><defs><filter height="300%" id="f1rf80j6uaxcx0" width="300%" x="-1" y="-1"><feGaussianBlur result="blurOut" stdDeviation="2.0"/><feColorMatrix in="blurOut" result="blurOut2" type="matrix" values="0 0 0 0 0 0 0 0 0 0 0 0 0 0 0 0 0 0 .4 0"/><feOffset dx="4.0" dy="4.0" in="blurOut2" result="blurOut3"/><feBlend in="SourceGraphic" in2="blurOut3" mode="normal"/></filter></defs><g><text fill="#000000" font-family="sans-serif" font-size="18" lengthAdjust="spacing" textLength="367" x="599" y="18.6855">Class Diagram: Record vaccine administration</text><!--MD5=[9681dc6e01e10c6b4fe06895ae94f592]
cluster UI--><polygon fill="#FFFFFF" filter="url(#f1rf80j6uaxcx0)" points="1248,72.6406,1268,72.6406,1275,96.25,1494,96.25,1494,172.6406,1248,172.6406,1248,72.6406" style="stroke:#000000;stroke-width:1.5;"/><line style="stroke:#000000;stroke-width:1.5;" x1="1248" x2="1275" y1="96.25" y2="96.25"/><text fill="#000000" font-family="sans-serif" font-size="14" font-weight="bold" lengthAdjust="spacing" textLength="14" x="1252" y="89.1738">UI</text><!--MD5=[06cb1d922d35e6a52e53f7f80539371d]
cluster Controler--><polygon fill="#FFFFFF" filter="url(#f1rf80j6uaxcx0)" points="1181,222.6406,1254,222.6406,1261,246.25,1561,246.25,1561,447.6406,1181,447.6406,1181,222.6406" style="stroke:#000000;stroke-width:1.5;"/><line style="stroke:#000000;stroke-width:1.5;" x1="1181" x2="1261" y1="246.25" y2="246.25"/><text fill="#000000" font-family="sans-serif" font-size="14" font-weight="bold" lengthAdjust="spacing" textLength="67" x="1185" y="239.1738">Controler</text><!--MD5=[121a8bf1197281ab89ed693fab589f94]
cluster Domain--><polygon fill="#FFFFFF" filter="url(#f1rf80j6uaxcx0)" points="16,28.6406,74,28.6406,81,52.25,1157,52.25,1157,1412.6406,16,1412.6406,16,28.6406" style="stroke:#000000;stroke-width:1.5;"/><line style="stroke:#000000;stroke-width:1.5;" x1="16" x2="81" y1="52.25" y2="52.25"/><text fill="#000000" font-family="sans-serif" font-size="14" font-weight="bold" lengthAdjust="spacing" textLength="52" x="20" y="45.1738">Domain</text><!--MD5=[15636c1ca4a123c16a2a1a8e90aca7a9]
cluster Model--><polygon fill="#FFFFFF" filter="url(#f1rf80j6uaxcx0)" points="40,72.6406,90,72.6406,97,96.25,891,96.25,891,1388.6406,40,1388.6406,40,72.6406" style="stroke:#000000;stroke-width:1.5;"/><line style="stroke:#000000;stroke-width:1.5;" x1="40" x2="97" y1="96.25" y2="96.25"/><text fill="#000000" font-family="sans-serif" font-size="14" font-weight="bold" lengthAdjust="spacing" textLength="44" x="44" y="89.1738">Model</text><!--MD5=[8dd535d56cd4cf7faf64fdd082ba836e]
cluster Stores--><polygon fill="#FFFFFF" filter="url(#f1rf80j6uaxcx0)" points="915,987.6406,967,987.6406,974,1011.25,1133,1011.25,1133,1101.6406,915,1101.6406,915,987.6406" style="stroke:#000000;stroke-width:1.5;"/><line style="stroke:#000000;stroke-width:1.5;" x1="915" x2="974" y1="1011.25" y2="1011.25"/><text fill="#000000" font-family="sans-serif" font-size="14" font-weight="bold" lengthAdjust="spacing" textLength="46" x="919" y="1004.1738">Stores</text><!--MD5=[97f558dc8c7da17d5e543e7ce4b4f8fd]
class RegisterVaccineAdministrationUI--><rect codeLine="6" fill="#FEFECE" filter="url(#f1rf80j6uaxcx0)" height="48" id="RegisterVaccineAdministrationUI" style="stroke:#A80036;stroke-width:1.5;" width="213" x="1264.5" y="108.6406"/><ellipse cx="1279.5" cy="124.6406" fill="#ADD1B2" rx="11" ry="11" style="stroke:#A80036;stroke-width:1.0;"/><path d="M1282.2656,120.5156 Q1282.4219,120.2969 1282.6094,120.1875 Q1282.7969,120.0781 1283.0156,120.0781 Q1283.3906,120.0781 1283.625,120.3438 Q1283.8594,120.5938 1283.8594,121.2031 L1283.8594,122.6563 Q1283.8594,123.2656 1283.625,123.5313 Q1283.3906,123.7969 1283.0156,123.7969 Q1282.6719,123.7969 1282.4688,123.5938 Q1282.2656,123.4063 1282.1563,122.8906 Q1282.1094,122.5313 1281.9219,122.3438 Q1281.5938,121.9688 1280.9844,121.75 Q1280.375,121.5313 1279.75,121.5313 Q1278.9844,121.5313 1278.3438,121.8594 Q1277.7188,122.1875 1277.2188,122.9375 Q1276.7344,123.6875 1276.7344,124.7188 L1276.7344,125.8125 Q1276.7344,127.0469 1277.625,127.875 Q1278.5156,128.6875 1280.1094,128.6875 Q1281.0469,128.6875 1281.7031,128.4375 Q1282.0938,128.2813 1282.5156,127.8438 Q1282.7813,127.5781 1282.9219,127.5 Q1283.0781,127.4219 1283.2813,127.4219 Q1283.6094,127.4219 1283.8594,127.6875 Q1284.125,127.9375 1284.125,128.2813 Q1284.125,128.625 1283.7813,129.0313 Q1283.2813,129.6094 1282.4844,129.9375 Q1281.4063,130.3906 1280.1094,130.3906 Q1278.5938,130.3906 1277.3906,129.7656 Q1276.4063,129.2656 1275.7188,128.2031 Q1275.0313,127.125 1275.0313,125.8438 L1275.0313,124.6875 Q1275.0313,123.3594 1275.6406,122.2188 Q1276.2656,121.0625 1277.3594,120.4531 Q1278.4531,119.8281 1279.6875,119.8281 Q1280.4219,119.8281 1281.0625,120 Q1281.7188,120.1563 1282.2656,120.5156 Z " fill="#000000"/><text fill="#000000" font-family="sans-serif" font-size="12" lengthAdjust="spacing" textLength="181" x="1293.5" y="129.5508">RegisterVaccineAdministrationUI</text><line style="stroke:#A80036;stroke-width:1.5;" x1="1265.5" x2="1476.5" y1="140.6406" y2="140.6406"/><line style="stroke:#A80036;stroke-width:1.5;" x1="1265.5" x2="1476.5" y1="148.6406" y2="148.6406"/><!--MD5=[a660dec995c67fe27668c9294a4da967]
class RegisterVaccineAdministrationController--><rect codeLine="14" fill="#FEFECE" filter="url(#f1rf80j6uaxcx0)" height="172.5234" id="RegisterVaccineAdministrationController" style="stroke:#A80036;stroke-width:1.5;" width="347" x="1197.5" y="258.6406"/><ellipse cx="1255.25" cy="274.6406" fill="#ADD1B2" rx="11" ry="11" style="stroke:#A80036;stroke-width:1.0;"/><path d="M1258.0156,270.5156 Q1258.1719,270.2969 1258.3594,270.1875 Q1258.5469,270.0781 1258.7656,270.0781 Q1259.1406,270.0781 1259.375,270.3438 Q1259.6094,270.5938 1259.6094,271.2031 L1259.6094,272.6563 Q1259.6094,273.2656 1259.375,273.5313 Q1259.1406,273.7969 1258.7656,273.7969 Q1258.4219,273.7969 1258.2188,273.5938 Q1258.0156,273.4063 1257.9063,272.8906 Q1257.8594,272.5313 1257.6719,272.3438 Q1257.3438,271.9688 1256.7344,271.75 Q1256.125,271.5313 1255.5,271.5313 Q1254.7344,271.5313 1254.0938,271.8594 Q1253.4688,272.1875 1252.9688,272.9375 Q1252.4844,273.6875 1252.4844,274.7188 L1252.4844,275.8125 Q1252.4844,277.0469 1253.375,277.875 Q1254.2656,278.6875 1255.8594,278.6875 Q1256.7969,278.6875 1257.4531,278.4375 Q1257.8438,278.2813 1258.2656,277.8438 Q1258.5313,277.5781 1258.6719,277.5 Q1258.8281,277.4219 1259.0313,277.4219 Q1259.3594,277.4219 1259.6094,277.6875 Q1259.875,277.9375 1259.875,278.2813 Q1259.875,278.625 1259.5313,279.0313 Q1259.0313,279.6094 1258.2344,279.9375 Q1257.1563,280.3906 1255.8594,280.3906 Q1254.3438,280.3906 1253.1406,279.7656 Q1252.1563,279.2656 1251.4688,278.2031 Q1250.7813,277.125 1250.7813,275.8438 L1250.7813,274.6875 Q1250.7813,273.3594 1251.3906,272.2188 Q1252.0156,271.0625 1253.1094,270.4531 Q1254.2031,269.8281 1255.4375,269.8281 Q1256.1719,269.8281 1256.8125,270 Q1257.4688,270.1563 1258.0156,270.5156 Z " fill="#000000"/><text fill="#000000" font-family="sans-serif" font-size="12" lengthAdjust="spacing" textLength="223" x="1275.75" y="279.5508">RegisterVaccineAdministrationController</text><line style="stroke:#A80036;stroke-width:1.5;" x1="1198.5" x2="1543.5" y1="290.6406" y2="290.6406"/><line style="stroke:#A80036;stroke-width:1.5;" x1="1198.5" x2="1543.5" y1="298.6406" y2="298.6406"/><ellipse cx="1208.5" cy="309.6406" fill="#84BE84" rx="3" ry="3" style="stroke:#038048;stroke-width:1.0;"/><text fill="#000000" font-family="sans-serif" font-size="11" lengthAdjust="spacing" textLength="143" x="1217.5" y="314.0596">snsUserList getSnsUserList()</text><ellipse cx="1208.5" cy="323.4766" fill="#84BE84" rx="3" ry="3" style="stroke:#038048;stroke-width:1.0;"/><text fill="#000000" font-family="sans-serif" font-size="11" lengthAdjust="spacing" textLength="249" x="1217.5" y="327.8955">snsUser getSnsUserById(snsnsUserNumbersUser)</text><ellipse cx="1208.5" cy="337.3125" fill="#84BE84" rx="3" ry="3" style="stroke:#038048;stroke-width:1.0;"/><text fill="#000000" font-family="sans-serif" font-size="11" lengthAdjust="spacing" textLength="162" x="1217.5" y="341.7314">SnsUserStore getSnsUserStore()</text><ellipse cx="1208.5" cy="351.1484" fill="#84BE84" rx="3" ry="3" style="stroke:#038048;stroke-width:1.0;"/><text fill="#000000" font-family="sans-serif" font-size="11" lengthAdjust="spacing" textLength="270" x="1217.5" y="355.5674">adverseReaction getAdverseReaction(snsUserNumber)</text><ellipse cx="1208.5" cy="364.9844" fill="#84BE84" rx="3" ry="3" style="stroke:#038048;stroke-width:1.0;"/><text fill="#000000" font-family="sans-serif" font-size="11" lengthAdjust="spacing" textLength="216" x="1217.5" y="369.4033">vaccineList getVaccineList(snsUserNumber)</text><ellipse cx="1208.5" cy="378.8203" fill="#84BE84" rx="3" ry="3" style="stroke:#038048;stroke-width:1.0;"/><text fill="#000000" font-family="sans-serif" font-size="11" lengthAdjust="spacing" textLength="321" x="1217.5" y="383.2393">VA registerVaccinationAdministration(snsUserNumber, lotNumber)</text><ellipse cx="1208.5" cy="392.6563" fill="#84BE84" rx="3" ry="3" style="stroke:#038048;stroke-width:1.0;"/><text fill="#000000" font-family="sans-serif" font-size="11" lengthAdjust="spacing" textLength="156" x="1217.5" y="397.0752">saveVaccineAdministration(VA)</text><ellipse cx="1208.5" cy="406.4922" fill="#84BE84" rx="3" ry="3" style="stroke:#038048;stroke-width:1.0;"/><text fill="#000000" font-family="sans-serif" font-size="11" lengthAdjust="spacing" textLength="226" x="1217.5" y="410.9111">RP startRecoveryPeriod(snsUserNumber, time)</text><ellipse cx="1208.5" cy="420.3281" fill="#84BE84" rx="3" ry="3" style="stroke:#038048;stroke-width:1.0;"/><text fill="#000000" font-family="sans-serif" font-size="11" lengthAdjust="spacing" textLength="188" x="1217.5" y="424.7471">NO notification(snsUserNumber, delay)</text><!--MD5=[02e4b9b7573f1156f41e60aa5b4e25a4]
class Company--><rect codeLine="33" fill="#FEFECE" filter="url(#f1rf80j6uaxcx0)" height="48" id="Company" style="stroke:#A80036;stroke-width:1.5;" width="85" x="711.5" y="108.6406"/><ellipse cx="726.5" cy="124.6406" fill="#ADD1B2" rx="11" ry="11" style="stroke:#A80036;stroke-width:1.0;"/><path d="M729.2656,120.5156 Q729.4219,120.2969 729.6094,120.1875 Q729.7969,120.0781 730.0156,120.0781 Q730.3906,120.0781 730.625,120.3438 Q730.8594,120.5938 730.8594,121.2031 L730.8594,122.6563 Q730.8594,123.2656 730.625,123.5313 Q730.3906,123.7969 730.0156,123.7969 Q729.6719,123.7969 729.4688,123.5938 Q729.2656,123.4063 729.1563,122.8906 Q729.1094,122.5313 728.9219,122.3438 Q728.5938,121.9688 727.9844,121.75 Q727.375,121.5313 726.75,121.5313 Q725.9844,121.5313 725.3438,121.8594 Q724.7188,122.1875 724.2188,122.9375 Q723.7344,123.6875 723.7344,124.7188 L723.7344,125.8125 Q723.7344,127.0469 724.625,127.875 Q725.5156,128.6875 727.1094,128.6875 Q728.0469,128.6875 728.7031,128.4375 Q729.0938,128.2813 729.5156,127.8438 Q729.7813,127.5781 729.9219,127.5 Q730.0781,127.4219 730.2813,127.4219 Q730.6094,127.4219 730.8594,127.6875 Q731.125,127.9375 731.125,128.2813 Q731.125,128.625 730.7813,129.0313 Q730.2813,129.6094 729.4844,129.9375 Q728.4063,130.3906 727.1094,130.3906 Q725.5938,130.3906 724.3906,129.7656 Q723.4063,129.2656 722.7188,128.2031 Q722.0313,127.125 722.0313,125.8438 L722.0313,124.6875 Q722.0313,123.3594 722.6406,122.2188 Q723.2656,121.0625 724.3594,120.4531 Q725.4531,119.8281 726.6875,119.8281 Q727.4219,119.8281 728.0625,120 Q728.7188,120.1563 729.2656,120.5156 Z " fill="#000000"/><text fill="#000000" font-family="sans-serif" font-size="12" lengthAdjust="spacing" textLength="53" x="740.5" y="129.5508">Company</text><line style="stroke:#A80036;stroke-width:1.5;" x1="712.5" x2="795.5" y1="140.6406" y2="140.6406"/><line style="stroke:#A80036;stroke-width:1.5;" x1="712.5" x2="795.5" y1="148.6406" y2="148.6406"/><!--MD5=[72be06cc7ae02ccc98efe28a50e62246]
class SNSUser--><rect codeLine="37" fill="#FEFECE" filter="url(#f1rf80j6uaxcx0)" height="61.8359" id="SNSUser" style="stroke:#A80036;stroke-width:1.5;" width="118" x="568" y="1170.6406"/><ellipse cx="598.3" cy="1186.6406" fill="#ADD1B2" rx="11" ry="11" style="stroke:#A80036;stroke-width:1.0;"/><path d="M601.0656,1182.5156 Q601.2219,1182.2969 601.4094,1182.1875 Q601.5969,1182.0781 601.8156,1182.0781 Q602.1906,1182.0781 602.425,1182.3438 Q602.6594,1182.5938 602.6594,1183.2031 L602.6594,1184.6563 Q602.6594,1185.2656 602.425,1185.5313 Q602.1906,1185.7969 601.8156,1185.7969 Q601.4719,1185.7969 601.2688,1185.5938 Q601.0656,1185.4063 600.9563,1184.8906 Q600.9094,1184.5313 600.7219,1184.3438 Q600.3938,1183.9688 599.7844,1183.75 Q599.175,1183.5313 598.55,1183.5313 Q597.7844,1183.5313 597.1438,1183.8594 Q596.5188,1184.1875 596.0188,1184.9375 Q595.5344,1185.6875 595.5344,1186.7188 L595.5344,1187.8125 Q595.5344,1189.0469 596.425,1189.875 Q597.3156,1190.6875 598.9094,1190.6875 Q599.8469,1190.6875 600.5031,1190.4375 Q600.8938,1190.2813 601.3156,1189.8438 Q601.5813,1189.5781 601.7219,1189.5 Q601.8781,1189.4219 602.0813,1189.4219 Q602.4094,1189.4219 602.6594,1189.6875 Q602.925,1189.9375 602.925,1190.2813 Q602.925,1190.625 602.5813,1191.0313 Q602.0813,1191.6094 601.2844,1191.9375 Q600.2063,1192.3906 598.9094,1192.3906 Q597.3938,1192.3906 596.1906,1191.7656 Q595.2063,1191.2656 594.5188,1190.2031 Q593.8313,1189.125 593.8313,1187.8438 L593.8313,1186.6875 Q593.8313,1185.3594 594.4406,1184.2188 Q595.0656,1183.0625 596.1594,1182.4531 Q597.2531,1181.8281 598.4875,1181.8281 Q599.2219,1181.8281 599.8625,1182 Q600.5188,1182.1563 601.0656,1182.5156 Z " fill="#000000"/><text fill="#000000" font-family="sans-serif" font-size="12" lengthAdjust="spacing" textLength="52" x="615.7" y="1191.5508">SNSUser</text><line style="stroke:#A80036;stroke-width:1.5;" x1="569" x2="685" y1="1202.6406" y2="1202.6406"/><rect fill="none" height="6" style="stroke:#C82930;stroke-width:1.0;" width="6" x="576" y="1210.6406"/><text fill="#000000" font-family="sans-serif" font-size="11" lengthAdjust="spacing" textLength="92" x="588" y="1218.0596">Int snsUserNumber</text><line style="stroke:#A80036;stroke-width:1.5;" x1="569" x2="685" y1="1224.4766" y2="1224.4766"/><!--MD5=[de60e6d4f424ae4d0522096f76a59010]
class VaccinationCenter--><rect codeLine="41" fill="#FEFECE" filter="url(#f1rf80j6uaxcx0)" height="200.1953" id="VaccinationCenter" style="stroke:#A80036;stroke-width:1.5;" width="144" x="547" y="511.6406"/><ellipse cx="567.4" cy="527.6406" fill="#ADD1B2" rx="11" ry="11" style="stroke:#A80036;stroke-width:1.0;"/><path d="M570.1656,523.5156 Q570.3219,523.2969 570.5094,523.1875 Q570.6969,523.0781 570.9156,523.0781 Q571.2906,523.0781 571.525,523.3438 Q571.7594,523.5938 571.7594,524.2031 L571.7594,525.6563 Q571.7594,526.2656 571.525,526.5313 Q571.2906,526.7969 570.9156,526.7969 Q570.5719,526.7969 570.3688,526.5938 Q570.1656,526.4063 570.0563,525.8906 Q570.0094,525.5313 569.8219,525.3438 Q569.4938,524.9688 568.8844,524.75 Q568.275,524.5313 567.65,524.5313 Q566.8844,524.5313 566.2438,524.8594 Q565.6188,525.1875 565.1188,525.9375 Q564.6344,526.6875 564.6344,527.7188 L564.6344,528.8125 Q564.6344,530.0469 565.525,530.875 Q566.4156,531.6875 568.0094,531.6875 Q568.9469,531.6875 569.6031,531.4375 Q569.9938,531.2813 570.4156,530.8438 Q570.6813,530.5781 570.8219,530.5 Q570.9781,530.4219 571.1813,530.4219 Q571.5094,530.4219 571.7594,530.6875 Q572.025,530.9375 572.025,531.2813 Q572.025,531.625 571.6813,532.0313 Q571.1813,532.6094 570.3844,532.9375 Q569.3063,533.3906 568.0094,533.3906 Q566.4938,533.3906 565.2906,532.7656 Q564.3063,532.2656 563.6188,531.2031 Q562.9313,530.125 562.9313,528.8438 L562.9313,527.6875 Q562.9313,526.3594 563.5406,525.2188 Q564.1656,524.0625 565.2594,523.4531 Q566.3531,522.8281 567.5875,522.8281 Q568.3219,522.8281 568.9625,523 Q569.6188,523.1563 570.1656,523.5156 Z " fill="#000000"/><text fill="#000000" font-family="sans-serif" font-size="12" lengthAdjust="spacing" textLength="100" x="582.6" y="532.5508">VaccinationCenter</text><line style="stroke:#A80036;stroke-width:1.5;" x1="548" x2="690" y1="543.6406" y2="543.6406"/><rect fill="none" height="6" style="stroke:#C82930;stroke-width:1.0;" width="6" x="555" y="551.6406"/><text fill="#000000" font-family="sans-serif" font-size="11" lengthAdjust="spacing" textLength="57" x="567" y="559.0596">String name</text><rect fill="none" height="6" style="stroke:#C82930;stroke-width:1.0;" width="6" x="555" y="565.4766"/><text fill="#000000" font-family="sans-serif" font-size="11" lengthAdjust="spacing" textLength="98" x="567" y="572.8955">String phoneNumber</text><rect fill="none" height="6" style="stroke:#C82930;stroke-width:1.0;" width="6" x="555" y="579.3125"/><text fill="#000000" font-family="sans-serif" font-size="11" lengthAdjust="spacing" textLength="97" x="567" y="586.7314">String emailAddress</text><rect fill="none" height="6" style="stroke:#C82930;stroke-width:1.0;" width="6" x="555" y="593.1484"/><text fill="#000000" font-family="sans-serif" font-size="11" lengthAdjust="spacing" textLength="84" x="567" y="600.5674">String faxNumber</text><rect fill="none" height="6" style="stroke:#C82930;stroke-width:1.0;" width="6" x="555" y="606.9844"/><text fill="#000000" font-family="sans-serif" font-size="11" lengthAdjust="spacing" textLength="112" x="567" y="614.4033">String websiteAddress</text><rect fill="none" height="6" style="stroke:#C82930;stroke-width:1.0;" width="6" x="555" y="620.8203"/><text fill="#000000" font-family="sans-serif" font-size="11" lengthAdjust="spacing" textLength="86" x="567" y="628.2393">Time openingHour</text><rect fill="none" height="6" style="stroke:#C82930;stroke-width:1.0;" width="6" x="555" y="634.6563"/><text fill="#000000" font-family="sans-serif" font-size="11" lengthAdjust="spacing" textLength="82" x="567" y="642.0752">Time closingHour</text><rect fill="none" height="6" style="stroke:#C82930;stroke-width:1.0;" width="6" x="555" y="648.4922"/><text fill="#000000" font-family="sans-serif" font-size="11" lengthAdjust="spacing" textLength="71" x="567" y="655.9111">Int slotDuration</text><rect fill="none" height="6" style="stroke:#C82930;stroke-width:1.0;" width="6" x="555" y="662.3281"/><text fill="#000000" font-family="sans-serif" font-size="11" lengthAdjust="spacing" textLength="101" x="567" y="669.7471">Int maxNumVaccines</text><rect fill="none" height="6" style="stroke:#C82930;stroke-width:1.0;" width="6" x="555" y="676.1641"/><text fill="#000000" font-family="sans-serif" font-size="11" lengthAdjust="spacing" textLength="118" x="567" y="683.583">String centerCoordinator</text><rect fill="none" height="6" style="stroke:#C82930;stroke-width:1.0;" width="6" x="555" y="690"/><text fill="#000000" font-family="sans-serif" font-size="11" lengthAdjust="spacing" textLength="85" x="567" y="697.4189">Address address</text><line style="stroke:#A80036;stroke-width:1.5;" x1="548" x2="690" y1="703.8359" y2="703.8359"/><!--MD5=[7421f545a0d8420c5bec41e74b387d9c]
class Employee--><rect codeLine="55" fill="#FEFECE" filter="url(#f1rf80j6uaxcx0)" height="48" id="Employee" style="stroke:#A80036;stroke-width:1.5;" width="87" x="524.5" y="321.1406"/><ellipse cx="539.5" cy="337.1406" fill="#ADD1B2" rx="11" ry="11" style="stroke:#A80036;stroke-width:1.0;"/><path d="M542.2656,333.0156 Q542.4219,332.7969 542.6094,332.6875 Q542.7969,332.5781 543.0156,332.5781 Q543.3906,332.5781 543.625,332.8438 Q543.8594,333.0938 543.8594,333.7031 L543.8594,335.1563 Q543.8594,335.7656 543.625,336.0313 Q543.3906,336.2969 543.0156,336.2969 Q542.6719,336.2969 542.4688,336.0938 Q542.2656,335.9063 542.1563,335.3906 Q542.1094,335.0313 541.9219,334.8438 Q541.5938,334.4688 540.9844,334.25 Q540.375,334.0313 539.75,334.0313 Q538.9844,334.0313 538.3438,334.3594 Q537.7188,334.6875 537.2188,335.4375 Q536.7344,336.1875 536.7344,337.2188 L536.7344,338.3125 Q536.7344,339.5469 537.625,340.375 Q538.5156,341.1875 540.1094,341.1875 Q541.0469,341.1875 541.7031,340.9375 Q542.0938,340.7813 542.5156,340.3438 Q542.7813,340.0781 542.9219,340 Q543.0781,339.9219 543.2813,339.9219 Q543.6094,339.9219 543.8594,340.1875 Q544.125,340.4375 544.125,340.7813 Q544.125,341.125 543.7813,341.5313 Q543.2813,342.1094 542.4844,342.4375 Q541.4063,342.8906 540.1094,342.8906 Q538.5938,342.8906 537.3906,342.2656 Q536.4063,341.7656 535.7188,340.7031 Q535.0313,339.625 535.0313,338.3438 L535.0313,337.1875 Q535.0313,335.8594 535.6406,334.7188 Q536.2656,333.5625 537.3594,332.9531 Q538.4531,332.3281 539.6875,332.3281 Q540.4219,332.3281 541.0625,332.5 Q541.7188,332.6563 542.2656,333.0156 Z " fill="#000000"/><text fill="#000000" font-family="sans-serif" font-size="12" lengthAdjust="spacing" textLength="55" x="553.5" y="342.0508">Employee</text><line style="stroke:#A80036;stroke-width:1.5;" x1="525.5" x2="610.5" y1="353.1406" y2="353.1406"/><line style="stroke:#A80036;stroke-width:1.5;" x1="525.5" x2="610.5" y1="361.1406" y2="361.1406"/><!--MD5=[a059576e163b46f56762f12600c49258]
class Nurse--><rect codeLine="59" fill="#FEFECE" filter="url(#f1rf80j6uaxcx0)" height="48" id="Nurse" style="stroke:#A80036;stroke-width:1.5;" width="66" x="295" y="587.6406"/><ellipse cx="310" cy="603.6406" fill="#ADD1B2" rx="11" ry="11" style="stroke:#A80036;stroke-width:1.0;"/><path d="M312.7656,599.5156 Q312.9219,599.2969 313.1094,599.1875 Q313.2969,599.0781 313.5156,599.0781 Q313.8906,599.0781 314.125,599.3438 Q314.3594,599.5938 314.3594,600.2031 L314.3594,601.6563 Q314.3594,602.2656 314.125,602.5313 Q313.8906,602.7969 313.5156,602.7969 Q313.1719,602.7969 312.9688,602.5938 Q312.7656,602.4063 312.6563,601.8906 Q312.6094,601.5313 312.4219,601.3438 Q312.0938,600.9688 311.4844,600.75 Q310.875,600.5313 310.25,600.5313 Q309.4844,600.5313 308.8438,600.8594 Q308.2188,601.1875 307.7188,601.9375 Q307.2344,602.6875 307.2344,603.7188 L307.2344,604.8125 Q307.2344,606.0469 308.125,606.875 Q309.0156,607.6875 310.6094,607.6875 Q311.5469,607.6875 312.2031,607.4375 Q312.5938,607.2813 313.0156,606.8438 Q313.2813,606.5781 313.4219,606.5 Q313.5781,606.4219 313.7813,606.4219 Q314.1094,606.4219 314.3594,606.6875 Q314.625,606.9375 314.625,607.2813 Q314.625,607.625 314.2813,608.0313 Q313.7813,608.6094 312.9844,608.9375 Q311.9063,609.3906 310.6094,609.3906 Q309.0938,609.3906 307.8906,608.7656 Q306.9063,608.2656 306.2188,607.2031 Q305.5313,606.125 305.5313,604.8438 L305.5313,603.6875 Q305.5313,602.3594 306.1406,601.2188 Q306.7656,600.0625 307.8594,599.4531 Q308.9531,598.8281 310.1875,598.8281 Q310.9219,598.8281 311.5625,599 Q312.2188,599.1563 312.7656,599.5156 Z " fill="#000000"/><text fill="#000000" font-family="sans-serif" font-size="12" lengthAdjust="spacing" textLength="34" x="324" y="608.5508">Nurse</text><line style="stroke:#A80036;stroke-width:1.5;" x1="296" x2="360" y1="619.6406" y2="619.6406"/><line style="stroke:#A80036;stroke-width:1.5;" x1="296" x2="360" y1="627.6406" y2="627.6406"/><!--MD5=[cd4ce1c0d44638ff9f42448de30e6b92]
class VaccineSchedule--><rect codeLine="63" fill="#FEFECE" filter="url(#f1rf80j6uaxcx0)" height="75.6719" id="VaccineSchedule" style="stroke:#A80036;stroke-width:1.5;" width="127" x="397.5" y="1016.6406"/><ellipse cx="412.5" cy="1032.6406" fill="#ADD1B2" rx="11" ry="11" style="stroke:#A80036;stroke-width:1.0;"/><path d="M415.2656,1028.5156 Q415.4219,1028.2969 415.6094,1028.1875 Q415.7969,1028.0781 416.0156,1028.0781 Q416.3906,1028.0781 416.625,1028.3438 Q416.8594,1028.5938 416.8594,1029.2031 L416.8594,1030.6563 Q416.8594,1031.2656 416.625,1031.5313 Q416.3906,1031.7969 416.0156,1031.7969 Q415.6719,1031.7969 415.4688,1031.5938 Q415.2656,1031.4063 415.1563,1030.8906 Q415.1094,1030.5313 414.9219,1030.3438 Q414.5938,1029.9688 413.9844,1029.75 Q413.375,1029.5313 412.75,1029.5313 Q411.9844,1029.5313 411.3438,1029.8594 Q410.7188,1030.1875 410.2188,1030.9375 Q409.7344,1031.6875 409.7344,1032.7188 L409.7344,1033.8125 Q409.7344,1035.0469 410.625,1035.875 Q411.5156,1036.6875 413.1094,1036.6875 Q414.0469,1036.6875 414.7031,1036.4375 Q415.0938,1036.2813 415.5156,1035.8438 Q415.7813,1035.5781 415.9219,1035.5 Q416.0781,1035.4219 416.2813,1035.4219 Q416.6094,1035.4219 416.8594,1035.6875 Q417.125,1035.9375 417.125,1036.2813 Q417.125,1036.625 416.7813,1037.0313 Q416.2813,1037.6094 415.4844,1037.9375 Q414.4063,1038.3906 413.1094,1038.3906 Q411.5938,1038.3906 410.3906,1037.7656 Q409.4063,1037.2656 408.7188,1036.2031 Q408.0313,1035.125 408.0313,1033.8438 L408.0313,1032.6875 Q408.0313,1031.3594 408.6406,1030.2188 Q409.2656,1029.0625 410.3594,1028.4531 Q411.4531,1027.8281 412.6875,1027.8281 Q413.4219,1027.8281 414.0625,1028 Q414.7188,1028.1563 415.2656,1028.5156 Z " fill="#000000"/><text fill="#000000" font-family="sans-serif" font-size="12" lengthAdjust="spacing" textLength="95" x="426.5" y="1037.5508">VaccineSchedule</text><line style="stroke:#A80036;stroke-width:1.5;" x1="398.5" x2="523.5" y1="1048.6406" y2="1048.6406"/><rect fill="none" height="6" style="stroke:#C82930;stroke-width:1.0;" width="6" x="405.5" y="1056.6406"/><text fill="#000000" font-family="sans-serif" font-size="11" lengthAdjust="spacing" textLength="72" x="417.5" y="1064.0596">LocalDate date</text><rect fill="none" height="6" style="stroke:#C82930;stroke-width:1.0;" width="6" x="405.5" y="1070.4766"/><text fill="#000000" font-family="sans-serif" font-size="11" lengthAdjust="spacing" textLength="44" x="417.5" y="1077.8955">Time time</text><line style="stroke:#A80036;stroke-width:1.5;" x1="398.5" x2="523.5" y1="1084.3125" y2="1084.3125"/><!--MD5=[107cfa23aa516ff83d0cf17a6f9fe7ba]
class VaccineAdministration--><rect codeLine="68" fill="#FEFECE" filter="url(#f1rf80j6uaxcx0)" height="89.5078" id="VaccineAdministration" style="stroke:#A80036;stroke-width:1.5;" width="197" x="520.5" y="833.6406"/><ellipse cx="554.85" cy="849.6406" fill="#ADD1B2" rx="11" ry="11" style="stroke:#A80036;stroke-width:1.0;"/><path d="M557.6156,845.5156 Q557.7719,845.2969 557.9594,845.1875 Q558.1469,845.0781 558.3656,845.0781 Q558.7406,845.0781 558.975,845.3438 Q559.2094,845.5938 559.2094,846.2031 L559.2094,847.6563 Q559.2094,848.2656 558.975,848.5313 Q558.7406,848.7969 558.3656,848.7969 Q558.0219,848.7969 557.8188,848.5938 Q557.6156,848.4063 557.5063,847.8906 Q557.4594,847.5313 557.2719,847.3438 Q556.9438,846.9688 556.3344,846.75 Q555.725,846.5313 555.1,846.5313 Q554.3344,846.5313 553.6938,846.8594 Q553.0688,847.1875 552.5688,847.9375 Q552.0844,848.6875 552.0844,849.7188 L552.0844,850.8125 Q552.0844,852.0469 552.975,852.875 Q553.8656,853.6875 555.4594,853.6875 Q556.3969,853.6875 557.0531,853.4375 Q557.4438,853.2813 557.8656,852.8438 Q558.1313,852.5781 558.2719,852.5 Q558.4281,852.4219 558.6313,852.4219 Q558.9594,852.4219 559.2094,852.6875 Q559.475,852.9375 559.475,853.2813 Q559.475,853.625 559.1313,854.0313 Q558.6313,854.6094 557.8344,854.9375 Q556.7563,855.3906 555.4594,855.3906 Q553.9438,855.3906 552.7406,854.7656 Q551.7563,854.2656 551.0688,853.2031 Q550.3813,852.125 550.3813,850.8438 L550.3813,849.6875 Q550.3813,848.3594 550.9906,847.2188 Q551.6156,846.0625 552.7094,845.4531 Q553.8031,844.8281 555.0375,844.8281 Q555.7719,844.8281 556.4125,845 Q557.0688,845.1563 557.6156,845.5156 Z " fill="#000000"/><text fill="#000000" font-family="sans-serif" font-size="12" lengthAdjust="spacing" textLength="122" x="573.15" y="854.5508">VaccineAdministration</text><line style="stroke:#A80036;stroke-width:1.5;" x1="521.5" x2="716.5" y1="865.6406" y2="865.6406"/><line style="stroke:#A80036;stroke-width:1.5;" x1="521.5" x2="716.5" y1="873.6406" y2="873.6406"/><ellipse cx="531.5" cy="884.6406" fill="#84BE84" rx="3" ry="3" style="stroke:#038048;stroke-width:1.0;"/><text fill="#000000" font-family="sans-serif" font-size="11" lengthAdjust="spacing" textLength="171" x="540.5" y="889.0596">create(snsUserNumber, lotNumber)</text><ellipse cx="531.5" cy="898.4766" fill="#84BE84" rx="3" ry="3" style="stroke:#038048;stroke-width:1.0;"/><text fill="#000000" font-family="sans-serif" font-size="11" lengthAdjust="spacing" textLength="169" x="540.5" y="902.8955">validateVaccineAdministration(VA)</text><ellipse cx="531.5" cy="912.3125" fill="#84BE84" rx="3" ry="3" style="stroke:#038048;stroke-width:1.0;"/><text fill="#000000" font-family="sans-serif" font-size="11" lengthAdjust="spacing" textLength="150" x="540.5" y="916.7314">addVaccineAdministration(VA)</text><!--MD5=[9bf9dadbffb7fbceed2ede59f1107d85]
class AdverseReaction--><rect codeLine="74" fill="#FEFECE" filter="url(#f1rf80j6uaxcx0)" height="48" id="AdverseReaction" style="stroke:#A80036;stroke-width:1.5;" width="125" x="56.5" y="854.6406"/><ellipse cx="71.5" cy="870.6406" fill="#ADD1B2" rx="11" ry="11" style="stroke:#A80036;stroke-width:1.0;"/><path d="M74.2656,866.5156 Q74.4219,866.2969 74.6094,866.1875 Q74.7969,866.0781 75.0156,866.0781 Q75.3906,866.0781 75.625,866.3438 Q75.8594,866.5938 75.8594,867.2031 L75.8594,868.6563 Q75.8594,869.2656 75.625,869.5313 Q75.3906,869.7969 75.0156,869.7969 Q74.6719,869.7969 74.4688,869.5938 Q74.2656,869.4063 74.1563,868.8906 Q74.1094,868.5313 73.9219,868.3438 Q73.5938,867.9688 72.9844,867.75 Q72.375,867.5313 71.75,867.5313 Q70.9844,867.5313 70.3438,867.8594 Q69.7188,868.1875 69.2188,868.9375 Q68.7344,869.6875 68.7344,870.7188 L68.7344,871.8125 Q68.7344,873.0469 69.625,873.875 Q70.5156,874.6875 72.1094,874.6875 Q73.0469,874.6875 73.7031,874.4375 Q74.0938,874.2813 74.5156,873.8438 Q74.7813,873.5781 74.9219,873.5 Q75.0781,873.4219 75.2813,873.4219 Q75.6094,873.4219 75.8594,873.6875 Q76.125,873.9375 76.125,874.2813 Q76.125,874.625 75.7813,875.0313 Q75.2813,875.6094 74.4844,875.9375 Q73.4063,876.3906 72.1094,876.3906 Q70.5938,876.3906 69.3906,875.7656 Q68.4063,875.2656 67.7188,874.2031 Q67.0313,873.125 67.0313,871.8438 L67.0313,870.6875 Q67.0313,869.3594 67.6406,868.2188 Q68.2656,867.0625 69.3594,866.4531 Q70.4531,865.8281 71.6875,865.8281 Q72.4219,865.8281 73.0625,866 Q73.7188,866.1563 74.2656,866.5156 Z " fill="#000000"/><text fill="#000000" font-family="sans-serif" font-size="12" lengthAdjust="spacing" textLength="93" x="85.5" y="875.5508">AdverseReaction</text><line style="stroke:#A80036;stroke-width:1.5;" x1="57.5" x2="180.5" y1="886.6406" y2="886.6406"/><line style="stroke:#A80036;stroke-width:1.5;" x1="57.5" x2="180.5" y1="894.6406" y2="894.6406"/><!--MD5=[76b5e19c9337179d2d7ae334371d68c8]
class Notification--><rect codeLine="78" fill="#FEFECE" filter="url(#f1rf80j6uaxcx0)" height="61.8359" id="Notification" style="stroke:#A80036;stroke-width:1.5;" width="175" x="425.5" y="1310.6406"/><ellipse cx="478.25" cy="1326.6406" fill="#ADD1B2" rx="11" ry="11" style="stroke:#A80036;stroke-width:1.0;"/><path d="M481.0156,1322.5156 Q481.1719,1322.2969 481.3594,1322.1875 Q481.5469,1322.0781 481.7656,1322.0781 Q482.1406,1322.0781 482.375,1322.3438 Q482.6094,1322.5938 482.6094,1323.2031 L482.6094,1324.6563 Q482.6094,1325.2656 482.375,1325.5313 Q482.1406,1325.7969 481.7656,1325.7969 Q481.4219,1325.7969 481.2188,1325.5938 Q481.0156,1325.4063 480.9063,1324.8906 Q480.8594,1324.5313 480.6719,1324.3438 Q480.3438,1323.9688 479.7344,1323.75 Q479.125,1323.5313 478.5,1323.5313 Q477.7344,1323.5313 477.0938,1323.8594 Q476.4688,1324.1875 475.9688,1324.9375 Q475.4844,1325.6875 475.4844,1326.7188 L475.4844,1327.8125 Q475.4844,1329.0469 476.375,1329.875 Q477.2656,1330.6875 478.8594,1330.6875 Q479.7969,1330.6875 480.4531,1330.4375 Q480.8438,1330.2813 481.2656,1329.8438 Q481.5313,1329.5781 481.6719,1329.5 Q481.8281,1329.4219 482.0313,1329.4219 Q482.3594,1329.4219 482.6094,1329.6875 Q482.875,1329.9375 482.875,1330.2813 Q482.875,1330.625 482.5313,1331.0313 Q482.0313,1331.6094 481.2344,1331.9375 Q480.1563,1332.3906 478.8594,1332.3906 Q477.3438,1332.3906 476.1406,1331.7656 Q475.1563,1331.2656 474.4688,1330.2031 Q473.7813,1329.125 473.7813,1327.8438 L473.7813,1326.6875 Q473.7813,1325.3594 474.3906,1324.2188 Q475.0156,1323.0625 476.1094,1322.4531 Q477.2031,1321.8281 478.4375,1321.8281 Q479.1719,1321.8281 479.8125,1322 Q480.4688,1322.1563 481.0156,1322.5156 Z " fill="#000000"/><text fill="#000000" font-family="sans-serif" font-size="12" lengthAdjust="spacing" textLength="61" x="498.75" y="1331.5508">Notification</text><line style="stroke:#A80036;stroke-width:1.5;" x1="426.5" x2="599.5" y1="1342.6406" y2="1342.6406"/><line style="stroke:#A80036;stroke-width:1.5;" x1="426.5" x2="599.5" y1="1350.6406" y2="1350.6406"/><ellipse cx="436.5" cy="1361.6406" fill="#84BE84" rx="3" ry="3" style="stroke:#038048;stroke-width:1.0;"/><text fill="#000000" font-family="sans-serif" font-size="11" lengthAdjust="spacing" textLength="149" x="445.5" y="1366.0596">create(snsUserNumber, delay)</text><!--MD5=[39a1638d7cb0f602b18d7d12f49fdc2b]
class RecoveryPeriod--><rect codeLine="82" fill="#FEFECE" filter="url(#f1rf80j6uaxcx0)" height="61.8359" id="RecoveryPeriod" style="stroke:#A80036;stroke-width:1.5;" width="168" x="154" y="741.6406"/><ellipse cx="191.5" cy="757.6406" fill="#ADD1B2" rx="11" ry="11" style="stroke:#A80036;stroke-width:1.0;"/><path d="M194.2656,753.5156 Q194.4219,753.2969 194.6094,753.1875 Q194.7969,753.0781 195.0156,753.0781 Q195.3906,753.0781 195.625,753.3438 Q195.8594,753.5938 195.8594,754.2031 L195.8594,755.6563 Q195.8594,756.2656 195.625,756.5313 Q195.3906,756.7969 195.0156,756.7969 Q194.6719,756.7969 194.4688,756.5938 Q194.2656,756.4063 194.1563,755.8906 Q194.1094,755.5313 193.9219,755.3438 Q193.5938,754.9688 192.9844,754.75 Q192.375,754.5313 191.75,754.5313 Q190.9844,754.5313 190.3438,754.8594 Q189.7188,755.1875 189.2188,755.9375 Q188.7344,756.6875 188.7344,757.7188 L188.7344,758.8125 Q188.7344,760.0469 189.625,760.875 Q190.5156,761.6875 192.1094,761.6875 Q193.0469,761.6875 193.7031,761.4375 Q194.0938,761.2813 194.5156,760.8438 Q194.7813,760.5781 194.9219,760.5 Q195.0781,760.4219 195.2813,760.4219 Q195.6094,760.4219 195.8594,760.6875 Q196.125,760.9375 196.125,761.2813 Q196.125,761.625 195.7813,762.0313 Q195.2813,762.6094 194.4844,762.9375 Q193.4063,763.3906 192.1094,763.3906 Q190.5938,763.3906 189.3906,762.7656 Q188.4063,762.2656 187.7188,761.2031 Q187.0313,760.125 187.0313,758.8438 L187.0313,757.6875 Q187.0313,756.3594 187.6406,755.2188 Q188.2656,754.0625 189.3594,753.4531 Q190.4531,752.8281 191.6875,752.8281 Q192.4219,752.8281 193.0625,753 Q193.7188,753.1563 194.2656,753.5156 Z " fill="#000000"/><text fill="#000000" font-family="sans-serif" font-size="12" lengthAdjust="spacing" textLength="86" x="210.5" y="762.5508">RecoveryPeriod</text><line style="stroke:#A80036;stroke-width:1.5;" x1="155" x2="321" y1="773.6406" y2="773.6406"/><line style="stroke:#A80036;stroke-width:1.5;" x1="155" x2="321" y1="781.6406" y2="781.6406"/><ellipse cx="165" cy="792.6406" fill="#84BE84" rx="3" ry="3" style="stroke:#038048;stroke-width:1.0;"/><text fill="#000000" font-family="sans-serif" font-size="11" lengthAdjust="spacing" textLength="142" x="174" y="797.0596">create(snsUserNumber, time)</text><!--MD5=[9fe762efc8b9cd0ebfcd4120396959e0]
class SnsUserStore--><rect codeLine="90" fill="#FEFECE" filter="url(#f1rf80j6uaxcx0)" height="61.8359" id="SnsUserStore" style="stroke:#A80036;stroke-width:1.5;" width="185" x="931.5" y="1023.6406"/><ellipse cx="980.75" cy="1039.6406" fill="#ADD1B2" rx="11" ry="11" style="stroke:#A80036;stroke-width:1.0;"/><path d="M983.5156,1035.5156 Q983.6719,1035.2969 983.8594,1035.1875 Q984.0469,1035.0781 984.2656,1035.0781 Q984.6406,1035.0781 984.875,1035.3438 Q985.1094,1035.5938 985.1094,1036.2031 L985.1094,1037.6563 Q985.1094,1038.2656 984.875,1038.5313 Q984.6406,1038.7969 984.2656,1038.7969 Q983.9219,1038.7969 983.7188,1038.5938 Q983.5156,1038.4063 983.4063,1037.8906 Q983.3594,1037.5313 983.1719,1037.3438 Q982.8438,1036.9688 982.2344,1036.75 Q981.625,1036.5313 981,1036.5313 Q980.2344,1036.5313 979.5938,1036.8594 Q978.9688,1037.1875 978.4688,1037.9375 Q977.9844,1038.6875 977.9844,1039.7188 L977.9844,1040.8125 Q977.9844,1042.0469 978.875,1042.875 Q979.7656,1043.6875 981.3594,1043.6875 Q982.2969,1043.6875 982.9531,1043.4375 Q983.3438,1043.2813 983.7656,1042.8438 Q984.0313,1042.5781 984.1719,1042.5 Q984.3281,1042.4219 984.5313,1042.4219 Q984.8594,1042.4219 985.1094,1042.6875 Q985.375,1042.9375 985.375,1043.2813 Q985.375,1043.625 985.0313,1044.0313 Q984.5313,1044.6094 983.7344,1044.9375 Q982.6563,1045.3906 981.3594,1045.3906 Q979.8438,1045.3906 978.6406,1044.7656 Q977.6563,1044.2656 976.9688,1043.2031 Q976.2813,1042.125 976.2813,1040.8438 L976.2813,1039.6875 Q976.2813,1038.3594 976.8906,1037.2188 Q977.5156,1036.0625 978.6094,1035.4531 Q979.7031,1034.8281 980.9375,1034.8281 Q981.6719,1034.8281 982.3125,1035 Q982.9688,1035.1563 983.5156,1035.5156 Z " fill="#000000"/><text fill="#000000" font-family="sans-serif" font-size="12" lengthAdjust="spacing" textLength="78" x="1001.25" y="1044.5508">SnsUserStore</text><line style="stroke:#A80036;stroke-width:1.5;" x1="932.5" x2="1115.5" y1="1055.6406" y2="1055.6406"/><line style="stroke:#A80036;stroke-width:1.5;" x1="932.5" x2="1115.5" y1="1063.6406" y2="1063.6406"/><ellipse cx="942.5" cy="1074.6406" fill="#84BE84" rx="3" ry="3" style="stroke:#038048;stroke-width:1.0;"/><text fill="#000000" font-family="sans-serif" font-size="11" lengthAdjust="spacing" textLength="159" x="951.5" y="1079.0596">SnsUser getSnsUserById(String)</text><!--MD5=[f0b9d265f1460c6211f09065d9d9375a]
link RegisterVaccineAdministrationUI to RegisterVaccineAdministrationController--><path codeLine="98" d="M1371,156.9706 C1371,180.3406 1371,217.7906 1371,253.0806 " fill="none" id="RegisterVaccineAdministrationUI-to-RegisterVaccineAdministrationController" style="stroke:#A80036;stroke-width:1.0;stroke-dasharray:7.0,7.0;"/><polygon fill="#A80036" points="1371,258.2706,1375,249.2706,1371,253.2706,1367,249.2706,1371,258.2706" style="stroke:#A80036;stroke-width:1.0;"/><!--MD5=[385ffa86639d286432cda3a777cb60a9]
link RegisterVaccineAdministrationController to VaccinationCenter--><path codeLine="99" d="M1197.06,407.3206 C1038.95,462.9306 813.04,542.3906 695.96,583.5706 " fill="none" id="RegisterVaccineAdministrationController-to-VaccinationCenter" style="stroke:#A80036;stroke-width:1.0;stroke-dasharray:7.0,7.0;"/><polygon fill="#A80036" points="691.16,585.2606,700.9772,586.0497,695.8771,583.6025,698.3242,578.5024,691.16,585.2606" style="stroke:#A80036;stroke-width:1.0;"/><!--MD5=[eebe9b198877275d05dd12630ed9e401]
link Company to VaccinationCenter--><path codeLine="101" d="M738.57,156.8106 C728.76,172.5206 716.53,194.1006 709,214.6406 C667.34,328.2206 684.48,364.0606 656,481.6406 C653.64,491.3806 651.03,501.4806 648.32,511.5606 " fill="none" id="Company-VaccinationCenter" style="stroke:#A80036;stroke-width:1.0;"/><polygon fill="#000000" points="712.7672,350.1621,717.8455,342.1208,712.1491,340.6716,712.7672,350.1621" style="stroke:#000000;stroke-width:1.0;"/><text fill="#000000" font-family="sans-serif" font-size="13" lengthAdjust="spacing" textLength="21" x="723" y="350.6357">has</text><text fill="#000000" font-family="sans-serif" font-size="13" lengthAdjust="spacing" textLength="7" x="726.9558" y="178.19">1</text><text fill="#000000" font-family="sans-serif" font-size="13" lengthAdjust="spacing" textLength="5" x="645.3734" y="500.7868">*</text><!--MD5=[1a8aa2b864b87f860d28abceaa28b7a5]
link Company to SNSUser--><path codeLine="102" d="M754,156.6906 C754,195.4106 754,275.9806 754,344.1406 C754,344.1406 754,344.1406 754,1055.6406 C754,1080.4306 753.45,1088.8106 740,1109.6406 C724.22,1134.0806 699.68,1154.9906 677.49,1170.5806 " fill="none" id="Company-SNSUser" style="stroke:#A80036;stroke-width:1.0;"/><polygon fill="#000000" points="758.6238,777.8022,762.235,769.0039,756.3738,768.5616,758.6238,777.8022" style="stroke:#000000;stroke-width:1.0;"/><text fill="#000000" font-family="sans-serif" font-size="13" lengthAdjust="spacing" textLength="30" x="768" y="778.1357">owns</text><text fill="#000000" font-family="sans-serif" font-size="13" lengthAdjust="spacing" textLength="7" x="746.1469" y="178.0408">1</text><text fill="#000000" font-family="sans-serif" font-size="13" lengthAdjust="spacing" textLength="5" x="682.9878" y="1159.5878">*</text><!--MD5=[d8bf2b68dce5436e3fc09e5a0685b137]
link Company to Notification--><path codeLine="103" d="M767.35,156.7706 C787.92,194.6306 825,272.7906 825,344.1406 C825,344.1406 825,344.1406 825,1202.6406 C825,1301.2606 693.02,1329.9706 600.74,1337.9906 " fill="none" id="Company-Notification" style="stroke:#A80036;stroke-width:1.0;"/><polygon fill="#000000" points="829.3017,883.7674,833.4751,875.2214,827.6548,874.4005,829.3017,883.7674" style="stroke:#000000;stroke-width:1.0;"/><text fill="#000000" font-family="sans-serif" font-size="13" lengthAdjust="spacing" textLength="35" x="839" y="884.1357">sends</text><text fill="#000000" font-family="sans-serif" font-size="13" lengthAdjust="spacing" textLength="7" x="762.7509" y="178.1403">1</text><text fill="#000000" font-family="sans-serif" font-size="13" lengthAdjust="spacing" textLength="5" x="608.495" y="1334.5067">*</text><!--MD5=[09366576ee87d48d594df10cacc83f45]
link Company to Employee--><path codeLine="104" d="M711.26,139.2006 C678.77,145.6506 635.3,159.4306 609,188.6406 C575.37,225.9906 568.76,287.6906 567.8,321.0406 " fill="none" id="Company-Employee" style="stroke:#A80036;stroke-width:1.0;"/><polygon fill="#000000" points="610.9031,201.7418,618.8128,196.461,614.1981,192.8203,610.9031,201.7418" style="stroke:#000000;stroke-width:1.0;"/><text fill="#000000" font-family="sans-serif" font-size="13" lengthAdjust="spacing" textLength="49" x="623" y="203.1357">employs</text><text fill="#000000" font-family="sans-serif" font-size="13" lengthAdjust="spacing" textLength="7" x="696.6015" y="136.4864">1</text><text fill="#000000" font-family="sans-serif" font-size="13" lengthAdjust="spacing" textLength="5" x="562.1081" y="310.3552">*</text><!--MD5=[73578e536d3cad610b43d7274c432f2a]
link Company to SnsUserStore--><path codeLine="105" d="M796.59,152.2706 C858.75,182.6806 967,249.2606 967,344.1406 C967,344.1406 967,344.1406 967,879.6406 C967,932.2506 990.82,989.5606 1007.67,1023.5006 " fill="none" id="Company-SnsUserStore" style="stroke:#A80036;stroke-width:1.0;"/><polygon fill="#000000" points="973.1773,616.6758,973.9038,607.193,968.1912,608.5771,973.1773,616.6758" style="stroke:#000000;stroke-width:1.0;"/><text fill="#000000" font-family="sans-serif" font-size="13" lengthAdjust="spacing" textLength="28" x="981" y="617.1357">uses</text><text fill="#000000" font-family="sans-serif" font-size="13" lengthAdjust="spacing" textLength="7" x="804.5117" y="151.7949">1</text><text fill="#000000" font-family="sans-serif" font-size="13" lengthAdjust="spacing" textLength="7" x="996.5801" y="1012.9763">1</text><!--MD5=[b71b66caf67976638439c0d1a3790473]
link Employee to Nurse--><path codeLine="107" d="M547.12,369.1506 C501.73,419.1706 394.5,537.3506 349,587.4906 " fill="none" id="Employee-Nurse" style="stroke:#A80036;stroke-width:1.0;"/><polygon fill="#000000" points="457.6401,476.5192,465.8947,471.7957,461.5418,467.8458,457.6401,476.5192" style="stroke:#000000;stroke-width:1.0;"/><text fill="#000000" font-family="sans-serif" font-size="13" lengthAdjust="spacing" textLength="24" x="470" y="478.1357">is of</text><text fill="#000000" font-family="sans-serif" font-size="13" lengthAdjust="spacing" textLength="5" x="536.4211" y="390.491">*</text><text fill="#000000" font-family="sans-serif" font-size="13" lengthAdjust="spacing" textLength="7" x="346.4844" y="576.7923">1</text><!--MD5=[7454cd36f47ee2c1597ee5b79ae5e9ce]
link Employee to VaccinationCenter--><path codeLine="108" d="M572.44,369.1506 C578.54,400.8206 589.92,459.8206 599.9,511.5706 " fill="none" id="Employee-VaccinationCenter" style="stroke:#A80036;stroke-width:1.0;"/><text fill="#000000" font-family="sans-serif" font-size="13" lengthAdjust="spacing" textLength="52" x="595" y="478.1357">works on</text><text fill="#000000" font-family="sans-serif" font-size="13" lengthAdjust="spacing" textLength="20" x="551.0848" y="390.491">1..*</text><text fill="#000000" font-family="sans-serif" font-size="13" lengthAdjust="spacing" textLength="7" x="591.1697" y="500.7976">1</text><!--MD5=[1d6d671bbc18d64756cbd8abf269fed7]
link SNSUser to Notification--><path codeLine="110" d="M601.98,1232.9206 C582.97,1255.9306 556.95,1287.4306 537.96,1310.4306 " fill="none" id="SNSUser-Notification" style="stroke:#A80036;stroke-width:1.0;"/><polygon fill="#000000" points="578.8159,1275.6715,586.8419,1270.5692,582.3101,1266.826,578.8159,1275.6715" style="stroke:#000000;stroke-width:1.0;"/><text fill="#000000" font-family="sans-serif" font-size="13" lengthAdjust="spacing" textLength="47" x="591" y="1277.1357">receives</text><text fill="#000000" font-family="sans-serif" font-size="13" lengthAdjust="spacing" textLength="7" x="589.5434" y="1253.9526">1</text><text fill="#000000" font-family="sans-serif" font-size="13" lengthAdjust="spacing" textLength="29" x="511.1174" y="1299.8919">0,1,2</text><!--MD5=[8e51fd2526d7ed1449c2aa4f1c32bf49]
link VaccineSchedule to SNSUser--><path codeLine="112" d="M491.92,1092.9806 C505.6,1108.5006 522.34,1126.2206 539,1140.6406 C551.16,1151.1706 565.22,1161.4706 578.49,1170.4806 " fill="none" id="VaccineSchedule-SNSUser" style="stroke:#A80036;stroke-width:1.0;"/><text fill="#000000" font-family="sans-serif" font-size="13" lengthAdjust="spacing" textLength="61" x="540" y="1137.1357">created for</text><text fill="#000000" font-family="sans-serif" font-size="13" lengthAdjust="spacing" textLength="20" x="475.2541" y="1113.9153">1..*</text><text fill="#000000" font-family="sans-serif" font-size="13" lengthAdjust="spacing" textLength="7" x="560.7629" y="1159.9522">1</text><!--MD5=[18968283628c2f508e56f30aee4bc691]
link VaccineSchedule to VaccinationCenter--><path codeLine="113" d="M446.21,1016.2606 C430.79,971.5106 411.73,894.9406 434,833.6406 C456.55,771.5606 505.03,714.7406 546.71,674.2706 " fill="none" id="VaccineSchedule-VaccinationCenter" style="stroke:#A80036;stroke-width:1.0;"/><text fill="#000000" font-family="sans-serif" font-size="13" lengthAdjust="spacing" textLength="67" x="435" y="884.1357">allocated to</text><text fill="#000000" font-family="sans-serif" font-size="13" lengthAdjust="spacing" textLength="20" x="421.9492" y="1005.8426">1..*</text><text fill="#000000" font-family="sans-serif" font-size="13" lengthAdjust="spacing" textLength="7" x="531.8942" y="677.4075">1</text><!--MD5=[fcde09df24315c7099b93e176a3fbe92]
link VaccineSchedule to Notification--><path codeLine="114" d="M462.23,1092.9406 C463.96,1129.0106 468.12,1185.0306 478,1232.6406 C483.57,1259.4706 493.41,1289.0006 501.24,1310.3906 " fill="none" id="VaccineSchedule-Notification" style="stroke:#A80036;stroke-width:1.0;"/><polygon fill="#000000" points="483.8829,1206.7378,485.1785,1197.3159,479.393,1198.3538,483.8829,1206.7378" style="stroke:#000000;stroke-width:1.0;"/><text fill="#000000" font-family="sans-serif" font-size="13" lengthAdjust="spacing" textLength="57" x="492" y="1207.1357">generates</text><text fill="#000000" font-family="sans-serif" font-size="13" lengthAdjust="spacing" textLength="7" x="454.8682" y="1113.869">1</text><text fill="#000000" font-family="sans-serif" font-size="13" lengthAdjust="spacing" textLength="18" x="478.9583" y="1299.8436">0,1</text><!--MD5=[58a7f89859e4960c06ec5aa43a0116b6]
link VaccinationCenter to VaccineAdministration--><path codeLine="116" d="M619,711.6906 C619,753.5906 619,800.2606 619,833.4106 " fill="none" id="VaccinationCenter-VaccineAdministration" style="stroke:#A80036;stroke-width:1.0;"/><polygon fill="#000000" points="624,777.8164,626.9389,768.7713,621.0611,768.7713,624,777.8164" style="stroke:#000000;stroke-width:1.0;"/><text fill="#000000" font-family="sans-serif" font-size="13" lengthAdjust="spacing" textLength="67" x="633" y="778.1357">implements</text><text fill="#000000" font-family="sans-serif" font-size="13" lengthAdjust="spacing" textLength="5" x="613.8086" y="733.4643">*</text><text fill="#000000" font-family="sans-serif" font-size="13" lengthAdjust="spacing" textLength="5" x="613.6172" y="822.8195">*</text><!--MD5=[caf5296180bfac063f712c0c7ef40853]
link Nurse to VaccineSchedule--><path codeLine="118" d="M328.9,635.6906 C329.96,671.7006 330.73,743.4306 323,803.6406 C321.26,817.2206 317.57,820.0406 316,833.6406 C311.43,873.3806 299.69,887.1206 316,923.6406 C333.16,962.0806 367.93,993.8706 399.11,1016.4006 " fill="none" id="Nurse-VaccineSchedule" style="stroke:#A80036;stroke-width:1.0;"/><polygon fill="#000000" points="321.9068,883.7335,323.1566,874.3054,317.3762,875.3714,321.9068,883.7335" style="stroke:#000000;stroke-width:1.0;"/><text fill="#000000" font-family="sans-serif" font-size="13" lengthAdjust="spacing" textLength="42" x="330" y="884.1357">checks</text><text fill="#000000" font-family="sans-serif" font-size="13" lengthAdjust="spacing" textLength="7" x="321.2662" y="657.0408">1</text><text fill="#000000" font-family="sans-serif" font-size="13" lengthAdjust="spacing" textLength="20" x="369.4498" y="1007.7279">1..*</text><!--MD5=[195cd4b2065cc6507c3064f693e1e4c8]
link Nurse to VaccineAdministration--><path codeLine="119" d="M353.32,635.6906 C401.71,679.7706 508.1,776.6506 570.57,833.5406 " fill="none" id="Nurse-VaccineAdministration" style="stroke:#A80036;stroke-width:1.0;"/><polygon fill="#000000" points="542.6967,776.183,537.9881,767.9199,534.0304,772.2656,542.6967,776.183" style="stroke:#000000;stroke-width:1.0;"/><text fill="#000000" font-family="sans-serif" font-size="13" lengthAdjust="spacing" textLength="50" x="548" y="778.1357">registers</text><text fill="#000000" font-family="sans-serif" font-size="13" lengthAdjust="spacing" textLength="7" x="351.6386" y="657.0408">1</text><text fill="#000000" font-family="sans-serif" font-size="13" lengthAdjust="spacing" textLength="20" x="541.2577" y="822.6402">1..*</text><!--MD5=[cdab2c07dabb305a9893ea7671d69564]
link Nurse to RecoveryPeriod--><path codeLine="120" d="M314.91,635.7606 C299.12,663.6706 272.51,710.6706 255.11,741.4206 " fill="none" id="Nurse-RecoveryPeriod" style="stroke:#A80036;stroke-width:1.0;"/><polygon fill="#000000" points="228.1472,683.0478,235.1601,676.6236,230.0447,673.7285,228.1472,683.0478" style="stroke:#000000;stroke-width:1.0;"/><text fill="#000000" font-family="sans-serif" font-size="13" lengthAdjust="spacing" textLength="45" x="239.61" y="684.0157">initiates</text><text fill="#000000" font-family="sans-serif" font-size="13" lengthAdjust="spacing" textLength="7" x="303.8662" y="657.1278">1</text><text fill="#000000" font-family="sans-serif" font-size="13" lengthAdjust="spacing" textLength="20" x="236.5764" y="730.8798">1..*</text><!--MD5=[e061032a880d751bf0fb6ebc2f277ecf]
link Nurse to AdverseReaction--><path codeLine="121" d="M294.57,618.5106 C238.21,630.4106 125.77,663.2306 78,741.6406 C56.06,777.6506 81.72,826.2406 101.18,854.5306 " fill="none" id="Nurse-AdverseReaction" style="stroke:#A80036;stroke-width:1.0;"/><polygon fill="#000000" points="79.831,776.6839,87.837,771.5502,83.2905,767.8249,79.831,776.6839" style="stroke:#000000;stroke-width:1.0;"/><text fill="#000000" font-family="sans-serif" font-size="13" lengthAdjust="spacing" textLength="43" x="92" y="778.1357">records</text><text fill="#000000" font-family="sans-serif" font-size="13" lengthAdjust="spacing" textLength="7" x="279.9532" y="615.8089">1</text><text fill="#000000" font-family="sans-serif" font-size="13" lengthAdjust="spacing" textLength="5" x="90.973" y="843.8426">*</text><!--MD5=[26d93bb3364bc68050d04ccdf39ce109]
link VaccineAdministration to VaccineSchedule--><path codeLine="123" d="M573.36,924.0306 C563.83,933.6506 553.96,943.8606 545,953.6406 C526.46,973.8606 506.68,997.3106 490.97,1016.4106 " fill="none" id="VaccineAdministration-VaccineSchedule" style="stroke:#A80036;stroke-width:1.0;"/><polygon fill="#000000" points="546.672,966.5479,554.8858,961.7537,550.4991,957.8414,546.672,966.5479" style="stroke:#000000;stroke-width:1.0;"/><text fill="#000000" font-family="sans-serif" font-size="13" lengthAdjust="spacing" textLength="42" x="559" y="968.1357">fulfilling</text><text fill="#000000" font-family="sans-serif" font-size="13" lengthAdjust="spacing" textLength="7" x="559.7568" y="944.7567">1</text><text fill="#000000" font-family="sans-serif" font-size="13" lengthAdjust="spacing" textLength="7" x="488.685" y="1005.7316">1</text><!--MD5=[951a07871a6512bd4f8e62baa1d062ce]
link VaccineAdministration to SNSUser--><path codeLine="124" d="M620.1,923.9406 C621.75,990.1506 624.82,1113.2406 626.24,1170.2306 " fill="none" id="VaccineAdministration-SNSUser" style="stroke:#A80036;stroke-width:1.0;"/><polygon fill="#000000" points="630.1246,1059.8149,632.8372,1050.6993,626.9612,1050.8458,630.1246,1059.8149" style="stroke:#000000;stroke-width:1.0;"/><text fill="#000000" font-family="sans-serif" font-size="13" lengthAdjust="spacing" textLength="92" x="639" y="1060.1357">administered on</text><text fill="#000000" font-family="sans-serif" font-size="13" lengthAdjust="spacing" textLength="20" x="598.9041" y="944.6546">1..*</text><text fill="#000000" font-family="sans-serif" font-size="13" lengthAdjust="spacing" textLength="7" x="618.3614" y="1159.6506">1</text><!--MD5=[597adfa5cd97faff78364fd9ec4a6fdd]
link RecoveryPeriod to Notification--><path codeLine="126" d="M232.8,803.8206 C226.87,840.8706 218,905.6806 218,961.6406 C218,961.6406 218,961.6406 218,1202.6406 C218,1295.0906 338.33,1325.7406 425.29,1335.8206 " fill="none" id="RecoveryPeriod-Notification" style="stroke:#A80036;stroke-width:1.0;"/><polygon fill="#000000" points="224.7012,1059.5181,224.3873,1050.0127,218.8601,1052.0126,224.7012,1059.5181" style="stroke:#000000;stroke-width:1.0;"/><text fill="#000000" font-family="sans-serif" font-size="13" lengthAdjust="spacing" textLength="57" x="232" y="1060.1357">generates</text><text fill="#000000" font-family="sans-serif" font-size="13" lengthAdjust="spacing" textLength="7" x="224.0872" y="825.0801">1</text><text fill="#000000" font-family="sans-serif" font-size="13" lengthAdjust="spacing" textLength="18" x="399.5834" y="1332.235">0,1</text><!--MD5=[b61449c7c8d6101a45c4235d12b34db8]
link SnsUserStore to SNSUser--><path codeLine="128" d="M951.8,1085.7806 C932.16,1093.7506 910.83,1102.2006 891,1109.6406 C821.1,1135.8606 739.76,1163.4606 686.04,1181.3006 " fill="none" id="SnsUserStore-SNSUser" style="stroke:#A80036;stroke-width:1.0;"/><polygon fill="#000000" points="856.2947,1133.5076,865.8007,1133.2139,863.8126,1127.6825,856.2947,1133.5076" style="stroke:#000000;stroke-width:1.0;"/><text fill="#000000" font-family="sans-serif" font-size="13" lengthAdjust="spacing" textLength="36" x="870" y="1137.1357">stores</text><text fill="#000000" font-family="sans-serif" font-size="13" lengthAdjust="spacing" textLength="7" x="929.8966" y="1107.0322">1</text><text fill="#000000" font-family="sans-serif" font-size="13" lengthAdjust="spacing" textLength="5" x="693.9248" y="1175.1977">*</text><!--MD5=[0a3b4683570cdbff0c50d74a22ddff7c]
@startuml US08_CD

title Class Diagram: Record vaccine administration

package UI <<Folder>> {
    
    class RegisterVaccineAdministrationUI {
        
    }

}

package Controler <<Folder>> {

    class RegisterVaccineAdministrationController {
        +snsUserList getSnsUserList()
        +snsUser getSnsUserById(snsnsUserNumbersUser)
        +SnsUserStore getSnsUserStore()
        +adverseReaction getAdverseReaction(snsUserNumber)
        +vaccineList getVaccineList(snsUserNumber)
        +VA registerVaccinationAdministration(snsUserNumber, lotNumber)
        +saveVaccineAdministration(VA)
        +RP startRecoveryPeriod(snsUserNumber, time)
        +NO notification(snsUserNumber, delay)
    }

}


package Domain <<Folder>> {

    package Model <<Folder>> {

        class Company {
            
        }

        class SNSUser {
            -Int snsUserNumber
        }

        class VaccinationCenter {
            -String name
            -String phoneNumber
            -String emailAddress
            -String faxNumber
            -String websiteAddress
            -Time openingHour
            -Time closingHour
            -Int slotDuration
            -Int maxNumVaccines
            -String centerCoordinator
            -Address address
        }

        class Employee {

        }

        class Nurse {

        }

        class VaccineSchedule {
            -LocalDate date
            -Time time
        }

        class VaccineAdministration {
            +create(snsUserNumber, lotNumber)
            +validateVaccineAdministration(VA)
            +addVaccineAdministration(VA)   
        }

        class AdverseReaction {
            
        }

        class Notification {
            +create(snsUserNumber, delay)
        }

        class RecoveryPeriod {
            +create(snsUserNumber, time)
        }
    
    }

    package Stores <<Folder>> {

        class SnsUserStore {
            +SnsUser getSnsUserById(String)
        }

    }
}


RegisterVaccineAdministrationUI ..> RegisterVaccineAdministrationController
RegisterVaccineAdministrationController ..> VaccinationCenter

Company "1" -d "*" VaccinationCenter :  has >
Company "1" - - "*" SNSUser :  owns >
Company "1" - -  "*" Notification   :  sends  >
Company "1" - - "*" Employee :  employs >
Company "1" - - "1" SnsUserStore : uses >

Employee "*" - - "1" Nurse :  is of >
Employee "1..*" - - "1" VaccinationCenter : works on

SNSUser "1" - -  "0,1,2" Notification :  receives >

VaccineSchedule "1..*" - - "1" SNSUser :  created for 
VaccineSchedule "1..*" - - "1" VaccinationCenter :  allocated to 
VaccineSchedule "1" - - "0,1" Notification :  generates >

VaccinationCenter "*" - - "*" VaccineAdministration :  implements >

Nurse "1" - - "1..*" VaccineSchedule : checks >
Nurse "1" - - "1..*" VaccineAdministration :  registers >
Nurse "1" - "1..*" RecoveryPeriod :  initiates >
Nurse "1" - - "*" AdverseReaction :  records >

VaccineAdministration "1" - - "1" VaccineSchedule : fulfilling >
VaccineAdministration "1..*" - "1" SNSUser :  administered on >

RecoveryPeriod "1" - - "0,1" Notification :  generates  >

SnsUserStore  "1" - - "*" SNSUser: stores >

@enduml

PlantUML version 1.2022.0(Tue Jan 11 16:16:42 WET 2022)
(GPL source distribution)
Java Runtime: Java(TM) SE Runtime Environment
JVM: Java HotSpot(TM) 64-Bit Server VM
Default Encoding: Cp1252
Language: pt
Country: PT
--></g></svg>