<?xml version="1.0" encoding="UTF-8" standalone="no"?><svg xmlns="http://www.w3.org/2000/svg" xmlns:xlink="http://www.w3.org/1999/xlink" contentScriptType="application/ecmascript" contentStyleType="text/css" height="540px" preserveAspectRatio="none" style="width:392px;height:540px;background:#FFFFFF;" version="1.1" viewBox="0 0 392 540" width="392px" zoomAndPan="magnify"><defs><filter height="300%" id="f4acs4flr3x0s" width="300%" x="-1" y="-1"><feGaussianBlur result="blurOut" stdDeviation="2.0"/><feColorMatrix in="blurOut" result="blurOut2" type="matrix" values="0 0 0 0 0 0 0 0 0 0 0 0 0 0 0 0 0 0 .4 0"/><feOffset dx="4.0" dy="4.0" in="blurOut2" result="blurOut3"/><feBlend in="SourceGraphic" in2="blurOut3" mode="normal"/></filter></defs><g><!--MD5=[02e4b9b7573f1156f41e60aa5b4e25a4]
class Company--><rect codeLine="5" fill="#FEFECE" filter="url(#f4acs4flr3x0s)" height="40" id="Company" style="stroke:#A80036;stroke-width:1.5;" width="85" x="166.5" y="7"/><ellipse cx="181.5" cy="23" fill="#ADD1B2" rx="11" ry="11" style="stroke:#A80036;stroke-width:1.0;"/><path d="M183.5,19.5 Q183.7031,19 183.9375,18.75 Q184.1719,18.5 184.4375,18.5 Q184.9063,18.5 185.2031,18.7813 Q185.5,19.0625 185.5,19.7188 L185.5,21.2813 Q185.5,21.9375 185.2188,22.2188 Q184.9375,22.5 184.5,22.5 Q184.1094,22.5 183.8594,22.3281 Q183.6094,22.1563 183.5,21.7031 Q183.4531,21.3906 183.2813,21.2188 Q182.9688,20.8906 182.4063,20.7031 Q181.8438,20.5 181.2813,20.5 Q180.5781,20.5 179.9844,20.7813 Q179.4063,21.0625 178.9531,21.6875 Q178.5,22.3125 178.5,23.1719 L178.5,24.0938 Q178.5,25.125 179.3438,25.8125 Q180.1875,26.5 181.6875,26.5 Q182.5781,26.5 183.2031,26.2969 Q183.5625,26.1875 183.9688,25.8281 Q184.2344,25.625 184.375,25.5625 Q184.5156,25.5 184.6875,25.5 Q185.0156,25.5 185.25,25.7656 Q185.5,26.0156 185.5,26.375 Q185.5,26.7188 185.1563,27.125 Q184.6563,27.7188 183.8594,28.0469 Q182.8125,28.5 181.5313,28.5 Q180.0313,28.5 178.8281,27.9063 Q177.8594,27.4375 177.1719,26.4219 Q176.5,25.4063 176.5,24.2031 L176.5,23.1094 Q176.5,21.8594 177.0938,20.7656 Q177.7031,19.6719 178.75,19.0938 Q179.8125,18.5 181,18.5 Q181.7188,18.5 182.3438,18.75 Q182.9688,19 183.5,19.5 Z " fill="#000000"/><text fill="#000000" font-family="sans-serif" font-size="12" lengthAdjust="spacing" textLength="53" x="195.5" y="27.9102">Company</text><line style="stroke:#A80036;stroke-width:1.5;" x1="167.5" x2="250.5" y1="39" y2="39"/><!--MD5=[da547346deef918ea16944ba046651ef]
class Administrator--><rect codeLine="7" fill="#FEFECE" filter="url(#f4acs4flr3x0s)" height="40" id="Administrator" style="stroke:#A80036;stroke-width:1.5;" width="105" x="95.5" y="125"/><ellipse cx="110.5" cy="141" fill="#ADD1B2" rx="11" ry="11" style="stroke:#A80036;stroke-width:1.0;"/><path d="M112.5,137.5 Q112.7031,137 112.9375,136.75 Q113.1719,136.5 113.4375,136.5 Q113.9063,136.5 114.2031,136.7813 Q114.5,137.0625 114.5,137.7188 L114.5,139.2813 Q114.5,139.9375 114.2188,140.2188 Q113.9375,140.5 113.5,140.5 Q113.1094,140.5 112.8594,140.3281 Q112.6094,140.1563 112.5,139.7031 Q112.4531,139.3906 112.2813,139.2188 Q111.9688,138.8906 111.4063,138.7031 Q110.8438,138.5 110.2813,138.5 Q109.5781,138.5 108.9844,138.7813 Q108.4063,139.0625 107.9531,139.6875 Q107.5,140.3125 107.5,141.1719 L107.5,142.0938 Q107.5,143.125 108.3438,143.8125 Q109.1875,144.5 110.6875,144.5 Q111.5781,144.5 112.2031,144.2969 Q112.5625,144.1875 112.9688,143.8281 Q113.2344,143.625 113.375,143.5625 Q113.5156,143.5 113.6875,143.5 Q114.0156,143.5 114.25,143.7656 Q114.5,144.0156 114.5,144.375 Q114.5,144.7188 114.1563,145.125 Q113.6563,145.7188 112.8594,146.0469 Q111.8125,146.5 110.5313,146.5 Q109.0313,146.5 107.8281,145.9063 Q106.8594,145.4375 106.1719,144.4219 Q105.5,143.4063 105.5,142.2031 L105.5,141.1094 Q105.5,139.8594 106.0938,138.7656 Q106.7031,137.6719 107.75,137.0938 Q108.8125,136.5 110,136.5 Q110.7188,136.5 111.3438,136.75 Q111.9688,137 112.5,137.5 Z " fill="#000000"/><text fill="#000000" font-family="sans-serif" font-size="12" lengthAdjust="spacing" textLength="73" x="124.5" y="145.9102">Administrator</text><line style="stroke:#A80036;stroke-width:1.5;" x1="96.5" x2="199.5" y1="157" y2="157"/><!--MD5=[7421f545a0d8420c5bec41e74b387d9c]
class Employee--><rect codeLine="9" fill="#FEFECE" filter="url(#f4acs4flr3x0s)" height="164.5234" id="Employee" style="stroke:#A80036;stroke-width:1.5;" width="127" x="145.5" y="243"/><ellipse cx="178.5" cy="259" fill="#ADD1B2" rx="11" ry="11" style="stroke:#A80036;stroke-width:1.0;"/><path d="M180.5,255.5 Q180.7031,255 180.9375,254.75 Q181.1719,254.5 181.4375,254.5 Q181.9063,254.5 182.2031,254.7813 Q182.5,255.0625 182.5,255.7188 L182.5,257.2813 Q182.5,257.9375 182.2188,258.2188 Q181.9375,258.5 181.5,258.5 Q181.1094,258.5 180.8594,258.3281 Q180.6094,258.1563 180.5,257.7031 Q180.4531,257.3906 180.2813,257.2188 Q179.9688,256.8906 179.4063,256.7031 Q178.8438,256.5 178.2813,256.5 Q177.5781,256.5 176.9844,256.7813 Q176.4063,257.0625 175.9531,257.6875 Q175.5,258.3125 175.5,259.1719 L175.5,260.0938 Q175.5,261.125 176.3438,261.8125 Q177.1875,262.5 178.6875,262.5 Q179.5781,262.5 180.2031,262.2969 Q180.5625,262.1875 180.9688,261.8281 Q181.2344,261.625 181.375,261.5625 Q181.5156,261.5 181.6875,261.5 Q182.0156,261.5 182.25,261.7656 Q182.5,262.0156 182.5,262.375 Q182.5,262.7188 182.1563,263.125 Q181.6563,263.7188 180.8594,264.0469 Q179.8125,264.5 178.5313,264.5 Q177.0313,264.5 175.8281,263.9063 Q174.8594,263.4375 174.1719,262.4219 Q173.5,261.4063 173.5,260.2031 L173.5,259.1094 Q173.5,257.8594 174.0938,256.7656 Q174.7031,255.6719 175.75,255.0938 Q176.8125,254.5 178,254.5 Q178.7188,254.5 179.3438,254.75 Q179.9688,255 180.5,255.5 Z " fill="#000000"/><text fill="#000000" font-family="sans-serif" font-size="12" lengthAdjust="spacing" textLength="55" x="196.5" y="263.9102">Employee</text><line style="stroke:#A80036;stroke-width:1.5;" x1="146.5" x2="271.5" y1="275" y2="275"/><rect fill="none" height="6" style="stroke:#C82930;stroke-width:1.0;" width="6" x="153.5" y="283"/><text fill="#000000" font-family="sans-serif" font-size="11" lengthAdjust="spacing" textLength="77" x="165.5" y="290.4189">address : String</text><rect fill="none" height="6" style="stroke:#C82930;stroke-width:1.0;" width="6" x="153.5" y="296.8359"/><text fill="#000000" font-family="sans-serif" font-size="11" lengthAdjust="spacing" textLength="83" x="165.5" y="304.2549">ccNumber: String</text><rect fill="none" height="6" style="stroke:#C82930;stroke-width:1.0;" width="6" x="153.5" y="310.6719"/><text fill="#000000" font-family="sans-serif" font-size="11" lengthAdjust="spacing" textLength="61" x="165.5" y="318.0908">email : String</text><rect fill="none" height="6" style="stroke:#C82930;stroke-width:1.0;" width="6" x="153.5" y="324.5078"/><text fill="#000000" font-family="sans-serif" font-size="11" lengthAdjust="spacing" textLength="45" x="165.5" y="331.9268">id : String</text><rect fill="none" height="6" style="stroke:#C82930;stroke-width:1.0;" width="6" x="153.5" y="338.3438"/><text fill="#000000" font-family="sans-serif" font-size="11" lengthAdjust="spacing" textLength="63" x="165.5" y="345.7627">name : String</text><rect fill="none" height="6" style="stroke:#C82930;stroke-width:1.0;" width="6" x="153.5" y="352.1797"/><text fill="#000000" font-family="sans-serif" font-size="11" lengthAdjust="spacing" textLength="101" x="165.5" y="359.5986">phoneNumber: String</text><rect fill="none" height="6" style="stroke:#C82930;stroke-width:1.0;" width="6" x="153.5" y="366.0156"/><text fill="#000000" font-family="sans-serif" font-size="11" lengthAdjust="spacing" textLength="55" x="165.5" y="373.4346">role : String</text><rect fill="none" height="6" style="stroke:#C82930;stroke-width:1.0;" width="6" x="153.5" y="379.8516"/><text fill="#000000" font-family="sans-serif" font-size="11" lengthAdjust="spacing" textLength="85" x="165.5" y="387.2705">username : String</text><rect fill="none" height="6" style="stroke:#C82930;stroke-width:1.0;" width="6" x="153.5" y="393.6875"/><text fill="#000000" font-family="sans-serif" font-size="11" lengthAdjust="spacing" textLength="87" x="165.5" y="401.1064">password : String</text><!--MD5=[2d935fd2dd068a13da1ae531f9857c4f]
class CenterCoordinator--><rect codeLine="20" fill="#FEFECE" filter="url(#f4acs4flr3x0s)" height="40" id="CenterCoordinator" style="stroke:#A80036;stroke-width:1.5;" width="134" x="7" y="486"/><ellipse cx="22" cy="502" fill="#ADD1B2" rx="11" ry="11" style="stroke:#A80036;stroke-width:1.0;"/><path d="M24,498.5 Q24.2031,498 24.4375,497.75 Q24.6719,497.5 24.9375,497.5 Q25.4063,497.5 25.7031,497.7813 Q26,498.0625 26,498.7188 L26,500.2813 Q26,500.9375 25.7188,501.2188 Q25.4375,501.5 25,501.5 Q24.6094,501.5 24.3594,501.3281 Q24.1094,501.1563 24,500.7031 Q23.9531,500.3906 23.7813,500.2188 Q23.4688,499.8906 22.9063,499.7031 Q22.3438,499.5 21.7813,499.5 Q21.0781,499.5 20.4844,499.7813 Q19.9063,500.0625 19.4531,500.6875 Q19,501.3125 19,502.1719 L19,503.0938 Q19,504.125 19.8438,504.8125 Q20.6875,505.5 22.1875,505.5 Q23.0781,505.5 23.7031,505.2969 Q24.0625,505.1875 24.4688,504.8281 Q24.7344,504.625 24.875,504.5625 Q25.0156,504.5 25.1875,504.5 Q25.5156,504.5 25.75,504.7656 Q26,505.0156 26,505.375 Q26,505.7188 25.6563,506.125 Q25.1563,506.7188 24.3594,507.0469 Q23.3125,507.5 22.0313,507.5 Q20.5313,507.5 19.3281,506.9063 Q18.3594,506.4375 17.6719,505.4219 Q17,504.4063 17,503.2031 L17,502.1094 Q17,500.8594 17.5938,499.7656 Q18.2031,498.6719 19.25,498.0938 Q20.3125,497.5 21.5,497.5 Q22.2188,497.5 22.8438,497.75 Q23.4688,498 24,498.5 Z " fill="#000000"/><text fill="#000000" font-family="sans-serif" font-size="12" lengthAdjust="spacing" textLength="102" x="36" y="506.9102">CenterCoordinator</text><line style="stroke:#A80036;stroke-width:1.5;" x1="8" x2="140" y1="518" y2="518"/><!--MD5=[a059576e163b46f56762f12600c49258]
class Nurse--><rect codeLine="22" fill="#FEFECE" filter="url(#f4acs4flr3x0s)" height="40" id="Nurse" style="stroke:#A80036;stroke-width:1.5;" width="66" x="176" y="486"/><ellipse cx="191" cy="502" fill="#ADD1B2" rx="11" ry="11" style="stroke:#A80036;stroke-width:1.0;"/><path d="M193,498.5 Q193.2031,498 193.4375,497.75 Q193.6719,497.5 193.9375,497.5 Q194.4063,497.5 194.7031,497.7813 Q195,498.0625 195,498.7188 L195,500.2813 Q195,500.9375 194.7188,501.2188 Q194.4375,501.5 194,501.5 Q193.6094,501.5 193.3594,501.3281 Q193.1094,501.1563 193,500.7031 Q192.9531,500.3906 192.7813,500.2188 Q192.4688,499.8906 191.9063,499.7031 Q191.3438,499.5 190.7813,499.5 Q190.0781,499.5 189.4844,499.7813 Q188.9063,500.0625 188.4531,500.6875 Q188,501.3125 188,502.1719 L188,503.0938 Q188,504.125 188.8438,504.8125 Q189.6875,505.5 191.1875,505.5 Q192.0781,505.5 192.7031,505.2969 Q193.0625,505.1875 193.4688,504.8281 Q193.7344,504.625 193.875,504.5625 Q194.0156,504.5 194.1875,504.5 Q194.5156,504.5 194.75,504.7656 Q195,505.0156 195,505.375 Q195,505.7188 194.6563,506.125 Q194.1563,506.7188 193.3594,507.0469 Q192.3125,507.5 191.0313,507.5 Q189.5313,507.5 188.3281,506.9063 Q187.3594,506.4375 186.6719,505.4219 Q186,504.4063 186,503.2031 L186,502.1094 Q186,500.8594 186.5938,499.7656 Q187.2031,498.6719 188.25,498.0938 Q189.3125,497.5 190.5,497.5 Q191.2188,497.5 191.8438,497.75 Q192.4688,498 193,498.5 Z " fill="#000000"/><text fill="#000000" font-family="sans-serif" font-size="12" lengthAdjust="spacing" textLength="34" x="205" y="506.9102">Nurse</text><line style="stroke:#A80036;stroke-width:1.5;" x1="177" x2="241" y1="518" y2="518"/><!--MD5=[03960189e81aa2c066c762ffabbee709]
class Receptionist--><rect codeLine="25" fill="#FEFECE" filter="url(#f4acs4flr3x0s)" height="40" id="Receptionist" style="stroke:#A80036;stroke-width:1.5;" width="101" x="277.5" y="486"/><ellipse cx="292.5" cy="502" fill="#ADD1B2" rx="11" ry="11" style="stroke:#A80036;stroke-width:1.0;"/><path d="M294.5,498.5 Q294.7031,498 294.9375,497.75 Q295.1719,497.5 295.4375,497.5 Q295.9063,497.5 296.2031,497.7813 Q296.5,498.0625 296.5,498.7188 L296.5,500.2813 Q296.5,500.9375 296.2188,501.2188 Q295.9375,501.5 295.5,501.5 Q295.1094,501.5 294.8594,501.3281 Q294.6094,501.1563 294.5,500.7031 Q294.4531,500.3906 294.2813,500.2188 Q293.9688,499.8906 293.4063,499.7031 Q292.8438,499.5 292.2813,499.5 Q291.5781,499.5 290.9844,499.7813 Q290.4063,500.0625 289.9531,500.6875 Q289.5,501.3125 289.5,502.1719 L289.5,503.0938 Q289.5,504.125 290.3438,504.8125 Q291.1875,505.5 292.6875,505.5 Q293.5781,505.5 294.2031,505.2969 Q294.5625,505.1875 294.9688,504.8281 Q295.2344,504.625 295.375,504.5625 Q295.5156,504.5 295.6875,504.5 Q296.0156,504.5 296.25,504.7656 Q296.5,505.0156 296.5,505.375 Q296.5,505.7188 296.1563,506.125 Q295.6563,506.7188 294.8594,507.0469 Q293.8125,507.5 292.5313,507.5 Q291.0313,507.5 289.8281,506.9063 Q288.8594,506.4375 288.1719,505.4219 Q287.5,504.4063 287.5,503.2031 L287.5,502.1094 Q287.5,500.8594 288.0938,499.7656 Q288.7031,498.6719 289.75,498.0938 Q290.8125,497.5 292,497.5 Q292.7188,497.5 293.3438,497.75 Q293.9688,498 294.5,498.5 Z " fill="#000000"/><text fill="#000000" font-family="sans-serif" font-size="12" lengthAdjust="spacing" textLength="69" x="306.5" y="506.9102">Receptionist</text><line style="stroke:#A80036;stroke-width:1.5;" x1="278.5" x2="377.5" y1="518" y2="518"/><!--MD5=[eaea43e34e45c5b9d20b595fc78f1f20]
link Company to Administrator--><path codeLine="28" d="M198.93,47.16 C187.62,68.65 169.4,103.31 158.09,124.82 " fill="none" id="Company-Administrator" style="stroke:#A80036;stroke-width:1.0;"/><polygon fill="#000000" points="185.6728,90.6012,192.4839,83.9635,187.2816,81.2277,185.6728,90.6012" style="stroke:#000000;stroke-width:1.0;"/><text fill="#000000" font-family="sans-serif" font-size="13" lengthAdjust="spacing" textLength="21" x="197" y="91.4951">has</text><text fill="#000000" font-family="sans-serif" font-size="13" lengthAdjust="spacing" textLength="7" x="188.1134" y="68.6246">1</text><text fill="#000000" font-family="sans-serif" font-size="13" lengthAdjust="spacing" textLength="5" x="155.3196" y="114.0889">*</text><!--MD5=[09366576ee87d48d594df10cacc83f45]
link Company to Employee--><path codeLine="29" d="M217.41,47.09 C231.13,80.55 255.85,152.05 246,213 C244.42,222.77 242.11,232.83 239.41,242.74 " fill="none" id="Company-Employee" style="stroke:#A80036;stroke-width:1.0;"/><polygon fill="#000000" points="253.5587,150.1445,255.4685,140.8276,249.6275,141.4844,253.5587,150.1445" style="stroke:#000000;stroke-width:1.0;"/><text fill="#000000" font-family="sans-serif" font-size="13" lengthAdjust="spacing" textLength="49" x="262" y="150.4951">employs</text><text fill="#000000" font-family="sans-serif" font-size="13" lengthAdjust="spacing" textLength="7" x="211.7909" y="68.5349">1</text><text fill="#000000" font-family="sans-serif" font-size="13" lengthAdjust="spacing" textLength="5" x="236.8957" y="232.1887">*</text><!--MD5=[8f7dd94d56b58fc07b233ccd3dd98f8c]
link Administrator to Employee--><path codeLine="30" d="M154.53,165.1 C160.95,183.9 171.21,213.91 181.1,242.85 " fill="none" id="Administrator-Employee" style="stroke:#A80036;stroke-width:1.0;"/><polygon fill="#000000" points="176.6169,208.9071,176.4729,199.3977,170.9109,201.2984,176.6169,208.9071" style="stroke:#000000;stroke-width:1.0;"/><text fill="#000000" font-family="sans-serif" font-size="13" lengthAdjust="spacing" textLength="53" x="184" y="209.4951">manages</text><text fill="#000000" font-family="sans-serif" font-size="13" lengthAdjust="spacing" textLength="7" x="148.3822" y="186.5477">1</text><text fill="#000000" font-family="sans-serif" font-size="13" lengthAdjust="spacing" textLength="5" x="173.2975" y="232.0265">*</text><!--MD5=[f97181852e6b5af60387612f468bcaff]
link Employee to CenterCoordinator--><path codeLine="32" d="M147.23,408.18 C125.43,437 102.83,466.89 88.6,485.69 " fill="none" id="Employee-CenterCoordinator" style="stroke:#A80036;stroke-width:1.0;"/><polygon fill="#000000" points="123.9836,451.1635,131.7842,445.7226,127.0964,442.1767,123.9836,451.1635" style="stroke:#000000;stroke-width:1.0;"/><text fill="#000000" font-family="sans-serif" font-size="13" lengthAdjust="spacing" textLength="24" x="136" y="452.4951">is of</text><text fill="#000000" font-family="sans-serif" font-size="13" lengthAdjust="spacing" textLength="5" x="137.1085" y="428.9342">*</text><text fill="#000000" font-family="sans-serif" font-size="13" lengthAdjust="spacing" textLength="7" x="84.7219" y="475.2724">1</text><!--MD5=[b71b66caf67976638439c0d1a3790473]
link Employee to Nurse--><path codeLine="33" d="M209,408.18 C209,437 209,466.89 209,485.69 " fill="none" id="Employee-Nurse" style="stroke:#A80036;stroke-width:1.0;"/><polygon fill="#000000" points="214,452.1758,216.9389,443.1307,211.0611,443.1307,214,452.1758" style="stroke:#000000;stroke-width:1.0;"/><text fill="#000000" font-family="sans-serif" font-size="13" lengthAdjust="spacing" textLength="24" x="223" y="452.4951">is of</text><text fill="#000000" font-family="sans-serif" font-size="13" lengthAdjust="spacing" textLength="5" x="203.8008" y="428.9342">*</text><text fill="#000000" font-family="sans-serif" font-size="13" lengthAdjust="spacing" textLength="7" x="201.0156" y="475.2724">1</text><!--MD5=[1da12df22706e73e1def33b218b7f412]
link Employee to Receptionist--><path codeLine="34" d="M263.45,408.18 C282.67,437 302.59,466.89 315.13,485.69 " fill="none" id="Employee-Receptionist" style="stroke:#A80036;stroke-width:1.0;"/><polygon fill="#000000" points="300.7737,451.3359,298.2012,442.1798,293.3108,445.4406,300.7737,451.3359" style="stroke:#000000;stroke-width:1.0;"/><text fill="#000000" font-family="sans-serif" font-size="13" lengthAdjust="spacing" textLength="24" x="307" y="452.4951">is of</text><text fill="#000000" font-family="sans-serif" font-size="13" lengthAdjust="spacing" textLength="5" x="262.5898" y="428.9342">*</text><text fill="#000000" font-family="sans-serif" font-size="13" lengthAdjust="spacing" textLength="7" x="303.5259" y="475.2724">1</text><!--MD5=[dbb069f5a2e2eee22ce40473c309c266]
@startuml
hide methods
'left to right direction
scale 1

class Company {
}
class Administrator {
}
class Employee {
    -address : String
    -ccNumber: String
    -email : String
    -id : String
    -name : String
    -phoneNumber: String
    -role : String
    -username : String
    -password : String
}
class CenterCoordinator {
}
class Nurse {
}

class Receptionist {
}

Company "1" - - "*" Administrator : has >
Company "1" - - "*" Employee : employs >
Administrator "1" - -  "*" Employee : manages >

Employee "*" - - "1" CenterCoordinator : is of >
Employee "*" - - "1" Nurse : is of >
Employee "*" - - "1" Receptionist : is of >

@enduml

@startuml
hide methods
scale 1

class Company {
}
class Administrator {
}
class Employee {
    -address : String
    -ccNumber: String
    -email : String
    -id : String
    -name : String
    -phoneNumber: String
    -role : String
    -username : String
    -password : String
}
class CenterCoordinator {
}
class Nurse {
}

class Receptionist {
}

Company "1" - - "*" Administrator : has >
Company "1" - - "*" Employee : employs >
Administrator "1" - -  "*" Employee : manages >

Employee "*" - - "1" CenterCoordinator : is of >
Employee "*" - - "1" Nurse : is of >
Employee "*" - - "1" Receptionist : is of >

@enduml

PlantUML version 1.2022.1(Tue Feb 01 18:19:58 GMT 2022)
(GPL source distribution)
Java Runtime: OpenJDK Runtime Environment
JVM: OpenJDK 64-Bit Server VM
Default Encoding: Cp1252
Language: en
Country: US
--></g></svg>