<?xml version="1.0" encoding="UTF-8" standalone="no"?><svg xmlns="http://www.w3.org/2000/svg" xmlns:xlink="http://www.w3.org/1999/xlink" contentScriptType="application/ecmascript" contentStyleType="text/css" height="316px" preserveAspectRatio="none" style="width:302px;height:316px;background:#FFFFFF;" version="1.1" viewBox="0 0 302 316" width="302px" zoomAndPan="magnify"><defs><filter height="300%" id="f1awlwn8i6008q" width="300%" x="-1" y="-1"><feGaussianBlur result="blurOut" stdDeviation="2.0"/><feColorMatrix in="blurOut" result="blurOut2" type="matrix" values="0 0 0 0 0 0 0 0 0 0 0 0 0 0 0 0 0 0 .4 0"/><feOffset dx="4.0" dy="4.0" in="blurOut2" result="blurOut3"/><feBlend in="SourceGraphic" in2="blurOut3" mode="normal"/></filter></defs><g><rect fill="#FFFFFF" filter="url(#f1awlwn8i6008q)" height="113.4063" style="stroke:#A80036;stroke-width:1.0;" width="10" x="44.5" y="99.6094"/><rect fill="#FFFFFF" filter="url(#f1awlwn8i6008q)" height="30.3516" style="stroke:#A80036;stroke-width:1.0;" width="10" x="253.5" y="121.9609"/><rect fill="#FFFFFF" filter="url(#f1awlwn8i6008q)" height="30.3516" style="stroke:#A80036;stroke-width:1.0;" width="10" x="253.5" y="182.6641"/><line style="stroke:#A80036;stroke-width:1.0;stroke-dasharray:5.0,5.0;" x1="49" x2="49" y1="89.6094" y2="231.0156"/><line style="stroke:#A80036;stroke-width:1.0;stroke-dasharray:5.0,5.0;" x1="258.5" x2="258.5" y1="89.6094" y2="231.0156"/><text fill="#000000" font-family="sans-serif" font-size="14" lengthAdjust="spacing" textLength="83" x="5" y="86.5332">Administrator</text><ellipse cx="49.5" cy="15" fill="#FEFECE" filter="url(#f1awlwn8i6008q)" rx="8" ry="8" style="stroke:#A80036;stroke-width:2.0;"/><path d="M49.5,23 L49.5,50 M36.5,31 L62.5,31 M49.5,50 L36.5,65 M49.5,50 L62.5,65 " fill="none" filter="url(#f1awlwn8i6008q)" style="stroke:#A80036;stroke-width:2.0;"/><text fill="#000000" font-family="sans-serif" font-size="14" lengthAdjust="spacing" textLength="83" x="5" y="244.5488">Administrator</text><ellipse cx="49.5" cy="257.625" fill="#FEFECE" filter="url(#f1awlwn8i6008q)" rx="8" ry="8" style="stroke:#A80036;stroke-width:2.0;"/><path d="M49.5,265.625 L49.5,292.625 M36.5,273.625 L62.5,273.625 M49.5,292.625 L36.5,307.625 M49.5,292.625 L62.5,307.625 " fill="none" filter="url(#f1awlwn8i6008q)" style="stroke:#A80036;stroke-width:2.0;"/><rect fill="#FEFECE" filter="url(#f1awlwn8i6008q)" height="31.6094" style="stroke:#A80036;stroke-width:1.5;" width="64" x="224.5" y="53"/><text fill="#000000" font-family="sans-serif" font-size="14" lengthAdjust="spacing" textLength="50" x="231.5" y="74.5332">:System</text><rect fill="#FEFECE" filter="url(#f1awlwn8i6008q)" height="31.6094" style="stroke:#A80036;stroke-width:1.5;" width="64" x="224.5" y="230.0156"/><text fill="#000000" font-family="sans-serif" font-size="14" lengthAdjust="spacing" textLength="50" x="231.5" y="251.5488">:System</text><rect fill="#FFFFFF" filter="url(#f1awlwn8i6008q)" height="113.4063" style="stroke:#A80036;stroke-width:1.0;" width="10" x="44.5" y="99.6094"/><rect fill="#FFFFFF" filter="url(#f1awlwn8i6008q)" height="30.3516" style="stroke:#A80036;stroke-width:1.0;" width="10" x="253.5" y="121.9609"/><rect fill="#FFFFFF" filter="url(#f1awlwn8i6008q)" height="30.3516" style="stroke:#A80036;stroke-width:1.0;" width="10" x="253.5" y="182.6641"/><polygon fill="#A80036" points="241.5,117.9609,251.5,121.9609,241.5,125.9609,245.5,121.9609" style="stroke:#A80036;stroke-width:1.0;"/><line style="stroke:#A80036;stroke-width:1.0;" x1="54.5" x2="247.5" y1="121.9609" y2="121.9609"/><text fill="#000000" font-family="sans-serif" font-size="13" font-weight="bold" lengthAdjust="spacing" textLength="7" x="61.5" y="117.1045">1</text><text fill="#000000" font-family="sans-serif" font-size="13" lengthAdjust="spacing" textLength="169" x="72.5" y="117.1045">asks to get list of Employees</text><polygon fill="#A80036" points="65.5,148.3125,55.5,152.3125,65.5,156.3125,61.5,152.3125" style="stroke:#A80036;stroke-width:1.0;"/><line style="stroke:#A80036;stroke-width:1.0;stroke-dasharray:2.0,2.0;" x1="59.5" x2="257.5" y1="152.3125" y2="152.3125"/><text fill="#000000" font-family="sans-serif" font-size="13" font-weight="bold" lengthAdjust="spacing" textLength="7" x="71.5" y="147.4561">2</text><text fill="#000000" font-family="sans-serif" font-size="13" lengthAdjust="spacing" textLength="164" x="82.5" y="147.4561">shows list of employee roles</text><polygon fill="#A80036" points="241.5,178.6641,251.5,182.6641,241.5,186.6641,245.5,182.6641" style="stroke:#A80036;stroke-width:1.0;"/><line style="stroke:#A80036;stroke-width:1.0;" x1="54.5" x2="247.5" y1="182.6641" y2="182.6641"/><text fill="#000000" font-family="sans-serif" font-size="13" font-weight="bold" lengthAdjust="spacing" textLength="7" x="61.5" y="177.8076">3</text><text fill="#000000" font-family="sans-serif" font-size="13" lengthAdjust="spacing" textLength="67" x="72.5" y="177.8076">selects role</text><polygon fill="#A80036" points="60.5,209.0156,50.5,213.0156,60.5,217.0156,56.5,213.0156" style="stroke:#A80036;stroke-width:1.0;"/><line style="stroke:#A80036;stroke-width:1.0;stroke-dasharray:2.0,2.0;" x1="54.5" x2="257.5" y1="213.0156" y2="213.0156"/><text fill="#000000" font-family="sans-serif" font-size="13" font-weight="bold" lengthAdjust="spacing" textLength="7" x="66.5" y="208.1592">4</text><text fill="#000000" font-family="sans-serif" font-size="13" lengthAdjust="spacing" textLength="88" x="77.5" y="208.1592">shows the data</text><!--MD5=[b20ac7956a411cef40c3b0a2966b67dc]
@startuml
autonumber
actor "Administrator" as Admin

activate Admin
Admin -> ":System" : asks to get list of Employees
activate ":System"
":System" - -> Admin : shows list of employee roles
deactivate ":System"

Admin -> ":System" : selects role
activate ":System"
":System" - -> Admin : shows the data
deactivate ":System"


deactivate Admin

@enduml

PlantUML version 1.2022.1(Tue Feb 01 18:19:58 GMT 2022)
(GPL source distribution)
Java Runtime: OpenJDK Runtime Environment
JVM: OpenJDK 64-Bit Server VM
Default Encoding: Cp1252
Language: en
Country: US
--></g></svg>