<?xml version="1.0" encoding="UTF-8" standalone="no"?><svg xmlns="http://www.w3.org/2000/svg" xmlns:xlink="http://www.w3.org/1999/xlink" contentStyleType="text/css" height="1966px" preserveAspectRatio="none" style="width:880px;height:1966px;background:#FFFFFF;" version="1.1" viewBox="0 0 880 1966" width="880px" zoomAndPan="magnify"><defs/><g><!--MD5=[8fc3522a43f8c7199df5e09e5bb0188e]
entity user--><g id="elem_user"><ellipse cx="84.5" cy="1892" fill="#F1F1F1" rx="8" ry="8" style="stroke:#181818;stroke-width:0.5;"/><path d="M84.5,1900 L84.5,1927 M71.5,1908 L97.5,1908 M84.5,1927 L71.5,1942 M84.5,1927 L97.5,1942 " fill="none" style="stroke:#181818;stroke-width:0.5;"/><text fill="#000000" font-family="sans-serif" font-size="14" lengthAdjust="spacing" textLength="60" x="54.5" y="1958.0332">SNS User</text></g><!--MD5=[87d66015e0fe95d70bf3fa68103252e8]
entity nurse--><g id="elem_nurse"><ellipse cx="84.5" cy="1680" fill="#F1F1F1" rx="8" ry="8" style="stroke:#181818;stroke-width:0.5;"/><path d="M84.5,1688 L84.5,1715 M71.5,1696 L97.5,1696 M84.5,1715 L71.5,1730 M84.5,1715 L97.5,1730 " fill="none" style="stroke:#181818;stroke-width:0.5;"/><text fill="#000000" font-family="sans-serif" font-size="14" lengthAdjust="spacing" textLength="37" x="66" y="1746.0332">Nurse</text></g><!--MD5=[4d302acd527bc9f790d99ea65b823e73]
entity coordinator--><g id="elem_coordinator"><ellipse cx="84.5" cy="1303" fill="#F1F1F1" rx="8" ry="8" style="stroke:#181818;stroke-width:0.5;"/><path d="M84.5,1311 L84.5,1338 M71.5,1319 L97.5,1319 M84.5,1338 L71.5,1353 M84.5,1338 L97.5,1353 " fill="none" style="stroke:#181818;stroke-width:0.5;"/><text fill="#000000" font-family="sans-serif" font-size="14" lengthAdjust="spacing" textLength="122" x="23.5" y="1369.0332">Center Coordinator</text></g><!--MD5=[8df531fd36edad519192f49b4d80bdb0]
entity receptionist--><g id="elem_receptionist"><ellipse cx="84.5" cy="935" fill="#F1F1F1" rx="8" ry="8" style="stroke:#181818;stroke-width:0.5;"/><path d="M84.5,943 L84.5,970 M71.5,951 L97.5,951 M84.5,970 L71.5,985 M84.5,970 L97.5,985 " fill="none" style="stroke:#181818;stroke-width:0.5;"/><text fill="#000000" font-family="sans-serif" font-size="14" lengthAdjust="spacing" textLength="78" x="45.5" y="1001.0332">Receptionist</text></g><!--MD5=[65a041cd1922b3dee6e64063a2213939]
entity administrator--><g id="elem_administrator"><ellipse cx="84.5" cy="483" fill="#F1F1F1" rx="8" ry="8" style="stroke:#181818;stroke-width:0.5;"/><path d="M84.5,491 L84.5,518 M71.5,499 L97.5,499 M84.5,518 L71.5,533 M84.5,518 L97.5,533 " fill="none" style="stroke:#181818;stroke-width:0.5;"/><text fill="#000000" font-family="sans-serif" font-size="14" lengthAdjust="spacing" textLength="83" x="43" y="549.0332">Administrator</text></g><!--MD5=[13dff29a2267c98a2d820d96b9b744fb]
entity timer--><g id="elem_timer"><ellipse cx="84.5" cy="43" fill="#A9DCDF" rx="8" ry="8" style="stroke:#181818;stroke-width:0.5;"/><path d="M84.5,51 L84.5,78 M71.5,59 L97.5,59 M84.5,78 L71.5,93 M84.5,78 L97.5,93 " fill="none" style="stroke:#181818;stroke-width:0.5;"/><text fill="#000000" font-family="sans-serif" font-size="14" lengthAdjust="spacing" textLength="157" x="6" y="109.0332">«Automatic» Clock/Timer</text></g><g id="elem_UC1"><ellipse cx="548.6395" cy="1922.6279" fill="#F1F1F1" rx="103.6395" ry="23.1279" style="stroke:#181818;stroke-width:0.5;"/><text fill="#000000" font-family="sans-serif" font-size="14" lengthAdjust="spacing" textLength="169" x="464.1395" y="1926.3564">UC1: Schedule vaccination</text></g><g id="elem_UC2"><ellipse cx="548.6395" cy="869.6279" fill="#F1F1F1" rx="103.6395" ry="23.1279" style="stroke:#181818;stroke-width:0.5;"/><text fill="#000000" font-family="sans-serif" font-size="14" lengthAdjust="spacing" textLength="169" x="464.1395" y="873.3564">UC2: Schedule vaccination</text></g><g id="elem_UC3"><ellipse cx="548.6237" cy="965.5247" fill="#F1F1F1" rx="178.1237" ry="38.0247" style="stroke:#181818;stroke-width:0.5;"/><text fill="#000000" font-family="sans-serif" font-size="14" lengthAdjust="spacing" textLength="327" x="385.1237" y="969.2533">UC3: As a receptionist, I want to register a SNS user</text></g><g id="elem_UC4"><ellipse cx="548.5206" cy="1080.6041" fill="#F1F1F1" rx="198.5206" ry="42.1041" style="stroke:#181818;stroke-width:0.5;"/><text fill="#000000" font-family="sans-serif" font-size="14" lengthAdjust="spacing" textLength="369" x="364.0206" y="1084.3326">UC4: Register the arrival of a SNS user to take the vaccine</text></g><g id="elem_UC5"><ellipse cx="548.4915" cy="1594.5983" fill="#F1F1F1" rx="220.9915" ry="46.5983" style="stroke:#181818;stroke-width:0.5;"/><text fill="#000000" font-family="sans-serif" font-size="14" lengthAdjust="spacing" textLength="415" x="340.9915" y="1598.3268">UC5: Consult the users in the waiting room of a vaccination center</text></g><g id="elem_UC6"><ellipse cx="548.5187" cy="73.5037" fill="#A9DCDF" rx="325.5187" ry="67.5037" style="stroke:#181818;stroke-width:0.5;"/><text fill="#000000" font-family="sans-serif" font-size="14" lengthAdjust="spacing" textLength="627" x="235.0187" y="77.2323">UC6: Generate for each vaccination center a daily report with the total number of people vaccinated</text></g><g id="elem_UC7"><ellipse cx="548.3066" cy="1710.3613" fill="#F1F1F1" rx="159.8066" ry="34.3613" style="stroke:#181818;stroke-width:0.5;"/><text fill="#000000" font-family="sans-serif" font-size="14" lengthAdjust="spacing" textLength="289" x="403.8066" y="1714.0898">UC7: Record adverse reactions of a SNS user</text></g><g id="elem_UC8"><ellipse cx="548.5335" cy="1822.5067" fill="#A9DCDF" rx="198.0335" ry="42.0067" style="stroke:#181818;stroke-width:0.5;"/><text fill="#000000" font-family="sans-serif" font-size="14" lengthAdjust="spacing" textLength="368" x="364.5335" y="1826.2352">UC8: Record the administration of a vaccine to a SNS user</text></g><g id="elem_UC9"><ellipse cx="548.6918" cy="240.5384" fill="#F1F1F1" rx="308.1918" ry="64.0384" style="stroke:#181818;stroke-width:0.5;"/><text fill="#000000" font-family="sans-serif" font-size="14" lengthAdjust="spacing" textLength="592" x="252.6918" y="244.2669">UC9: As a administrator, I want to register a vaccination center to respond to certain pandemic</text></g><g id="elem_UC10"><ellipse cx="548.3935" cy="363.5787" fill="#F1F1F1" rx="105.8935" ry="23.5787" style="stroke:#181818;stroke-width:0.5;"/><text fill="#000000" font-family="sans-serif" font-size="14" lengthAdjust="spacing" textLength="174" x="461.3935" y="367.3072">UC10: Register a Employee</text></g><g id="elem_UC11"><ellipse cx="548.3053" cy="462.5611" fill="#F1F1F1" rx="188.3053" ry="40.0611" style="stroke:#181818;stroke-width:0.5;"/><text fill="#000000" font-family="sans-serif" font-size="14" lengthAdjust="spacing" textLength="348" x="374.3053" y="466.2896">UC11: Get a list of Employees with a given function/role</text></g><g id="elem_UC12"><ellipse cx="548.3069" cy="564.6614" fill="#F1F1F1" rx="123.8069" ry="27.1614" style="stroke:#181818;stroke-width:0.5;"/><text fill="#000000" font-family="sans-serif" font-size="14" lengthAdjust="spacing" textLength="213" x="441.8069" y="568.3899">UC12: Specify a new vaccine type</text></g><g id="elem_UC13"><ellipse cx="548.4572" cy="669.5914" fill="#F1F1F1" rx="200.9572" ry="42.5914" style="stroke:#181818;stroke-width:0.5;"/><text fill="#000000" font-family="sans-serif" font-size="14" lengthAdjust="spacing" textLength="374" x="361.4572" y="673.32">UC13: Specify a new vaccine and its administration process</text></g><g id="elem_UC14"><ellipse cx="548.3756" cy="779.3751" fill="#F1F1F1" rx="147.3756" ry="31.8751" style="stroke:#181818;stroke-width:0.5;"/><text fill="#000000" font-family="sans-serif" font-size="14" lengthAdjust="spacing" textLength="263" x="416.8756" y="783.1036">UC14: Load a set of users from a CSV file</text></g><g id="elem_UC15"><ellipse cx="548.5728" cy="1185.3146" fill="#A9DCDF" rx="127.0728" ry="27.8146" style="stroke:#181818;stroke-width:0.5;"/><text fill="#000000" font-family="sans-serif" font-size="14" lengthAdjust="spacing" textLength="220" x="438.5728" y="1189.0431">UC15: Export Vaccination Statistics</text></g><g id="elem_UC16"><ellipse cx="548.622" cy="1279.4244" fill="#A9DCDF" rx="142.622" ry="30.9244" style="stroke:#181818;stroke-width:0.5;"/><text fill="#000000" font-family="sans-serif" font-size="14" lengthAdjust="spacing" textLength="253" x="422.122" y="1283.1529">UC16: Analyse Performance of a Center</text></g><g id="elem_UC17"><ellipse cx="548.6932" cy="1386.3386" fill="#A9DCDF" rx="192.1932" ry="40.8386" style="stroke:#181818;stroke-width:0.5;"/><text fill="#000000" font-family="sans-serif" font-size="14" lengthAdjust="spacing" textLength="356" x="370.6932" y="1390.0672">UC17: Import data from a legacy system used in the past</text></g><g id="elem_UC18"><ellipse cx="548.7192" cy="1487.4438" fill="#F1F1F1" rx="112.7192" ry="24.9438" style="stroke:#181818;stroke-width:0.5;"/><text fill="#000000" font-family="sans-serif" font-size="14" lengthAdjust="spacing" textLength="189" x="454.2192" y="1491.1724">UC18: get a list of all vaccines</text></g><!--MD5=[e71913910ae60f5842a843a20d6ecd39]
link user to UC1--><g id="link_user_UC1"><path d="M114.75,1922.5 C178.7,1922.5 333.68,1922.5 439.71,1922.5 " fill="none" id="user-to-UC1" style="stroke:#181818;stroke-width:1.0;"/><polygon fill="#181818" points="444.72,1922.5,435.72,1918.5,439.72,1922.5,435.72,1926.5,444.72,1922.5" style="stroke:#181818;stroke-width:1.0;"/></g><!--MD5=[96fde1d2e0b1291cb173a973fcca5e0c]
link receptionist to UC4--><g id="link_receptionist_UC4"><path d="M123.56,983.49 C150.75,995.72 188.48,1011.45 223,1021.5 C272.43,1035.89 327.17,1047.45 377.39,1056.39 " fill="none" id="receptionist-to-UC4" style="stroke:#181818;stroke-width:1.0;"/><polygon fill="#181818" points="382.55,1057.31,374.3839,1051.8041,377.6264,1056.4394,372.991,1059.6819,382.55,1057.31" style="stroke:#181818;stroke-width:1.0;"/></g><!--MD5=[e623d35dd041d64a849fc0d6ed7bba7e]
link receptionist to UC3--><g id="link_receptionist_UC3"><path d="M123.7,965.5 C176.69,965.5 276.08,965.5 365.29,965.5 " fill="none" id="receptionist-to-UC3" style="stroke:#181818;stroke-width:1.0;"/><polygon fill="#181818" points="370.34,965.5,361.34,961.5,365.34,965.5,361.34,969.5,370.34,965.5" style="stroke:#181818;stroke-width:1.0;"/></g><!--MD5=[c6782c783a77a159b444a1a9f9fb6300]
link receptionist to UC2--><g id="link_receptionist_UC2"><path d="M123.73,947.14 C150.84,934.89 188.4,919.45 223,910.5 C295.33,891.79 379.03,881.48 443.3,875.88 " fill="none" id="receptionist-to-UC2" style="stroke:#181818;stroke-width:1.0;"/><polygon fill="#181818" points="448.29,875.45,438.9805,872.2355,443.3084,875.8782,439.6656,880.2061,448.29,875.45" style="stroke:#181818;stroke-width:1.0;"/></g><!--MD5=[5f468418e2d96549bbc39db60ad4584f]
link nurse to UC7--><g id="link_nurse_UC7"><path d="M103.05,1710.5 C148.96,1710.5 276.49,1710.5 383.23,1710.5 " fill="none" id="nurse-to-UC7" style="stroke:#181818;stroke-width:1.0;"/><polygon fill="#181818" points="388.29,1710.5,379.29,1706.5,383.29,1710.5,379.29,1714.5,388.29,1710.5" style="stroke:#181818;stroke-width:1.0;"/></g><!--MD5=[6ee096a9f7aadf14d5e1aae46ec92742]
link nurse to UC8--><g id="link_nurse_UC8"><path d="M103.39,1718.45 C129.31,1729.69 179,1750.22 223,1762.5 C273.65,1776.64 329.7,1788.35 380.76,1797.56 " fill="none" id="nurse-to-UC8" style="stroke:#181818;stroke-width:1.0;"/><polygon fill="#181818" points="385.68,1798.44,377.5322,1792.9071,380.7593,1797.5531,376.1132,1800.7802,385.68,1798.44" style="stroke:#181818;stroke-width:1.0;"/></g><!--MD5=[d68d844c84c5b9178d019b496cb916a6]
link nurse to UC5--><g id="link_nurse_UC5"><path d="M103.41,1702.62 C129.35,1691.47 179.07,1671.04 223,1658.5 C269.84,1645.12 321.28,1633.59 369.11,1624.13 " fill="none" id="nurse-to-UC5" style="stroke:#181818;stroke-width:1.0;"/><polygon fill="#181818" points="374.03,1623.17,364.424,1620.9966,369.1255,1624.1423,365.9797,1628.8438,374.03,1623.17" style="stroke:#181818;stroke-width:1.0;"/></g><!--MD5=[d9012bb0cef5070ee831f89a594a22f1]
link administrator to UC9--><g id="link_administrator_UC9"><path d="M103.34,474.21 C125.25,430.46 166.58,360.87 223,322.5 C247.19,306.05 274.41,292.9 302.54,282.39 " fill="none" id="administrator-to-UC9" style="stroke:#181818;stroke-width:1.0;"/><polygon fill="#181818" points="307.43,280.59,297.6025,279.9424,302.7373,282.3159,300.3639,287.4507,307.43,280.59" style="stroke:#181818;stroke-width:1.0;"/></g><!--MD5=[5fa0fab07c45da8c719f21062a94a6fc]
link administrator to UC10--><g id="link_administrator_UC10"><path d="M123.58,474.28 C149.31,450.31 185.35,421.3 223,405.5 C290.64,377.12 372.62,366.68 437.25,363.31 " fill="none" id="administrator-to-UC10" style="stroke:#181818;stroke-width:1.0;"/><polygon fill="#181818" points="442.26,363.06,433.0664,359.5275,437.2666,363.3168,433.4773,367.517,442.26,363.06" style="stroke:#181818;stroke-width:1.0;"/></g><!--MD5=[6d2b8b7acfa9a8c91f7e3a119f8d30cd]
link administrator to UC11--><g id="link_administrator_UC11"><path d="M126.09,509.02 C181.8,502.87 285.33,491.44 375.82,481.45 " fill="none" id="administrator-to-UC11" style="stroke:#181818;stroke-width:1.0;"/><polygon fill="#181818" points="380.94,480.89,371.5496,477.9202,375.9713,481.4484,372.4431,485.8702,380.94,480.89" style="stroke:#181818;stroke-width:1.0;"/></g><!--MD5=[1b921a34c06a5672f1b9290a71eff6b8]
link administrator to UC12--><g id="link_administrator_UC12"><path d="M126.09,517.98 C193.87,525.46 332.46,540.76 432.22,551.77 " fill="none" id="administrator-to-UC12" style="stroke:#181818;stroke-width:1.0;"/><polygon fill="#181818" points="437.24,552.33,428.7274,547.3767,432.2695,551.7872,427.859,555.3294,437.24,552.33" style="stroke:#181818;stroke-width:1.0;"/></g><!--MD5=[858b134996c0d875d6e563c1f7308d70]
link administrator to UC13--><g id="link_administrator_UC13"><path d="M126.07,548.81 C152.1,569.61 187.55,594.67 223,609.5 C266.86,627.84 316.37,640.6 363.28,649.46 " fill="none" id="administrator-to-UC13" style="stroke:#181818;stroke-width:1.0;"/><polygon fill="#181818" points="368.39,650.42,360.2735,644.8413,363.4743,649.5055,358.8102,652.7063,368.39,650.42" style="stroke:#181818;stroke-width:1.0;"/></g><!--MD5=[6bb54e89c6e66a2114e723602b960609]
link administrator to UC14--><g id="link_administrator_UC14"><path d="M98.85,552.77 C117.99,602.62 158.23,687.21 223,729.5 C273.73,762.62 338.28,776.86 396.42,782.18 " fill="none" id="administrator-to-UC14" style="stroke:#181818;stroke-width:1.0;"/><polygon fill="#181818" points="401.67,782.64,393.0592,777.8594,396.6896,782.1976,392.3514,785.828,401.67,782.64" style="stroke:#181818;stroke-width:1.0;"/></g><!--MD5=[dc829bc32b289998eb4c97fb6caef881]
link coordinator to UC17--><g id="link_coordinator_UC17"><path d="M145.9,1340.43 C203.7,1347.06 293.69,1357.38 373.85,1366.58 " fill="none" id="coordinator-to-UC17" style="stroke:#181818;stroke-width:1.0;"/><polygon fill="#181818" points="379.12,1367.18,370.6373,1362.1757,374.1529,1366.6074,369.7211,1370.123,379.12,1367.18" style="stroke:#181818;stroke-width:1.0;"/></g><!--MD5=[441c03a8871b2301c4e2f0f31ab574b4]
link coordinator to UC16--><g id="link_coordinator_UC16"><path d="M145.9,1326.44 C214.55,1318.42 328.63,1305.08 417.7,1294.67 " fill="none" id="coordinator-to-UC16" style="stroke:#181818;stroke-width:1.0;"/><polygon fill="#181818" points="422.72,1294.08,413.3128,1291.1637,417.7545,1294.6667,414.2515,1299.1084,422.72,1294.08" style="stroke:#181818;stroke-width:1.0;"/></g><!--MD5=[ab5c08cbc12cecfadf101c6b421cf747]
link coordinator to UC15--><g id="link_coordinator_UC15"><path d="M126.66,1294.36 C152.36,1272.25 187.26,1246.17 223,1231.5 C284.05,1206.44 356.4,1194.64 417.27,1189.24 " fill="none" id="coordinator-to-UC15" style="stroke:#181818;stroke-width:1.0;"/><polygon fill="#181818" points="422.37,1188.8,413.0605,1185.5855,417.3884,1189.2282,413.7456,1193.5561,422.37,1188.8" style="stroke:#181818;stroke-width:1.0;"/></g><!--MD5=[ceedcd86907d982e68a98fcbde707650]
link coordinator to UC18--><g id="link_coordinator_UC18"><path d="M121.61,1372.53 C147.33,1397.71 184.11,1428.78 223,1445.5 C288.1,1473.49 366.8,1484.18 430.4,1487.78 " fill="none" id="coordinator-to-UC18" style="stroke:#181818;stroke-width:1.0;"/><polygon fill="#181818" points="435.73,1488.06,426.9608,1483.5767,430.7374,1487.7882,426.5259,1491.5648,435.73,1488.06" style="stroke:#181818;stroke-width:1.0;"/></g><!--MD5=[c4e12529aca786f124e361015c10d713]
link timer to UC6--><g id="link_timer_UC6"><path d="M163.09,73.5 C179.67,73.5 198.19,73.5 217.87,73.5 " fill="none" id="timer-to-UC6" style="stroke:#181818;stroke-width:1.0;"/><polygon fill="#181818" points="222.9,73.5,213.9,69.5,217.9,73.5,213.9,77.5,222.9,73.5" style="stroke:#181818;stroke-width:1.0;"/></g><!--MD5=[44b0218b78fa6c2883fd6eb71b2cf1b2]
@startuml
left to right direction

actor :SNS User: as user
actor :Nurse: as nurse
actor :Center Coordinator: as coordinator
actor :Receptionist: as receptionist
actor :Administrator: as administrator
actor :<<Automatic>> Clock/Timer: as timer #A9DCDF

usecase UC1 as "UC1: Schedule vaccination"
usecase UC2 as "UC2: Schedule vaccination"
usecase UC3 as "UC3: As a receptionist, I want to register a SNS user"
usecase UC4 as "UC4: Register the arrival of a SNS user to take the vaccine"
usecase UC5 as "UC5: Consult the users in the waiting room of a vaccination center"
usecase UC6 as "UC6: Generate for each vaccination center a daily report with the total number of people vaccinated" #A9DCDF
usecase UC7 as "UC7: Record adverse reactions of a SNS user"
usecase UC8 as "UC8: Record the administration of a vaccine to a SNS user" #A9DCDF
usecase UC9 as "UC9: As a administrator, I want to register a vaccination center to respond to certain pandemic"
usecase UC10 as "UC10: Register a Employee"
usecase UC11 as "UC11: Get a list of Employees with a given function/role"
usecase UC12 as "UC12: Specify a new vaccine type"
usecase UC13 as "UC13: Specify a new vaccine and its administration process"
usecase UC14 as "UC14: Load a set of users from a CSV file"
usecase UC15 as "UC15: Export Vaccination Statistics" #A9DCDF
usecase UC16 as "UC16: Analyse Performance of a Center" #A9DCDF
usecase UC17 as "UC17: Import data from a legacy system used in the past" #A9DCDF
usecase UC18 as "UC18: get a list of all vaccines"



user - -> UC1


receptionist - -> UC4
receptionist - -> UC3
receptionist - -> UC2

nurse - -> UC7
nurse - -> UC8
nurse - -> UC5

administrator - -> UC9
administrator - -> UC10
administrator - -> UC11
administrator - -> UC12
administrator - -> UC13
administrator - -> UC14

coordinator - -> UC17
coordinator - -> UC16
coordinator - -> UC15
coordinator - -> UC18

timer - -> UC6

@enduml

PlantUML version 1.2022.4(Sat Apr 09 14:29:17 BST 2022)
(GPL source distribution)
Java Runtime: OpenJDK Runtime Environment
JVM: OpenJDK 64-Bit Server VM
Default Encoding: Cp1252
Language: en
Country: US
--></g></svg>