<?xml version="1.0" encoding="UTF-8" standalone="no"?><svg xmlns="http://www.w3.org/2000/svg" xmlns:xlink="http://www.w3.org/1999/xlink" contentScriptType="application/ecmascript" contentStyleType="text/css" height="2059px" preserveAspectRatio="none" style="width:639px;height:2059px;background:#FFFFFF;" version="1.1" viewBox="0 0 639 2059" width="639px" zoomAndPan="magnify"><defs><filter height="300%" id="f6n8mqddbtc8j" width="300%" x="-1" y="-1"><feGaussianBlur result="blurOut" stdDeviation="2.0"/><feColorMatrix in="blurOut" result="blurOut2" type="matrix" values="0 0 0 0 0 0 0 0 0 0 0 0 0 0 0 0 0 0 .4 0"/><feOffset dx="4.0" dy="4.0" in="blurOut2" result="blurOut3"/><feBlend in="SourceGraphic" in2="blurOut3" mode="normal"/></filter></defs><g><!--MD5=[8fc3522a43f8c7199df5e09e5bb0188e]
entity user--><ellipse cx="67" cy="1868" fill="#D3D3D3" filter="url(#f6n8mqddbtc8j)" rx="8" ry="8" style="stroke:#2F4F4F;stroke-width:1.5;"/><path d="M67,1876 L67,1903 M54,1884 L80,1884 M67,1903 L54,1918 M67,1903 L80,1918 " fill="none" filter="url(#f6n8mqddbtc8j)" style="stroke:#2F4F4F;stroke-width:1.5;"/><text fill="#000000" font-family="sans-serif" font-size="14" lengthAdjust="spacing" textLength="60" x="37" y="1938.0332">SNS User</text><!--MD5=[87d66015e0fe95d70bf3fa68103252e8]
entity nurse--><ellipse cx="67" cy="1382" fill="#D3D3D3" filter="url(#f6n8mqddbtc8j)" rx="8" ry="8" style="stroke:#2F4F4F;stroke-width:1.5;"/><path d="M67,1390 L67,1417 M54,1398 L80,1398 M67,1417 L54,1432 M67,1417 L80,1432 " fill="none" filter="url(#f6n8mqddbtc8j)" style="stroke:#2F4F4F;stroke-width:1.5;"/><text fill="#000000" font-family="sans-serif" font-size="14" lengthAdjust="spacing" textLength="37" x="48.5" y="1452.0332">Nurse</text><!--MD5=[1338fe95e08bbaddb976cf8cbfe4c54f]
entity nurseHCC--><ellipse cx="67" cy="987" fill="#D3D3D3" filter="url(#f6n8mqddbtc8j)" rx="8" ry="8" style="stroke:#2F4F4F;stroke-width:1.5;"/><path d="M67,995 L67,1022 M54,1003 L80,1003 M67,1022 L54,1037 M67,1022 L80,1037 " fill="none" filter="url(#f6n8mqddbtc8j)" style="stroke:#2F4F4F;stroke-width:1.5;"/><text fill="#000000" font-family="sans-serif" font-size="14" lengthAdjust="spacing" textLength="66" x="34" y="1057.0332">NurseHCC</text><!--MD5=[4d302acd527bc9f790d99ea65b823e73]
entity coordinator--><ellipse cx="67" cy="761" fill="#D3D3D3" filter="url(#f6n8mqddbtc8j)" rx="8" ry="8" style="stroke:#2F4F4F;stroke-width:1.5;"/><path d="M67,769 L67,796 M54,777 L80,777 M67,796 L54,811 M67,796 L80,811 " fill="none" filter="url(#f6n8mqddbtc8j)" style="stroke:#2F4F4F;stroke-width:1.5;"/><text fill="#000000" font-family="sans-serif" font-size="14" lengthAdjust="spacing" textLength="122" x="6" y="831.0332">Center Coordinator</text><!--MD5=[8df531fd36edad519192f49b4d80bdb0]
entity receptionist--><ellipse cx="67" cy="500" fill="#D3D3D3" filter="url(#f6n8mqddbtc8j)" rx="8" ry="8" style="stroke:#2F4F4F;stroke-width:1.5;"/><path d="M67,508 L67,535 M54,516 L80,516 M67,535 L54,550 M67,535 L80,550 " fill="none" filter="url(#f6n8mqddbtc8j)" style="stroke:#2F4F4F;stroke-width:1.5;"/><text fill="#000000" font-family="sans-serif" font-size="14" lengthAdjust="spacing" textLength="78" x="28" y="570.0332">Receptionist</text><!--MD5=[578893d18dfa70dd9e4d1fbf971ea48a]
entity receptionistHCC--><ellipse cx="67" cy="327" fill="#D3D3D3" filter="url(#f6n8mqddbtc8j)" rx="8" ry="8" style="stroke:#2F4F4F;stroke-width:1.5;"/><path d="M67,335 L67,362 M54,343 L80,343 M67,362 L54,377 M67,362 L80,377 " fill="none" filter="url(#f6n8mqddbtc8j)" style="stroke:#2F4F4F;stroke-width:1.5;"/><text fill="#000000" font-family="sans-serif" font-size="14" lengthAdjust="spacing" textLength="107" x="13.5" y="397.0332">ReceptionistHCC</text><!--MD5=[65a041cd1922b3dee6e64063a2213939]
entity administrator--><ellipse cx="67" cy="109" fill="#D3D3D3" filter="url(#f6n8mqddbtc8j)" rx="8" ry="8" style="stroke:#2F4F4F;stroke-width:1.5;"/><path d="M67,117 L67,144 M54,125 L80,125 M67,144 L54,159 M67,144 L80,159 " fill="none" filter="url(#f6n8mqddbtc8j)" style="stroke:#2F4F4F;stroke-width:1.5;"/><text fill="#000000" font-family="sans-serif" font-size="14" lengthAdjust="spacing" textLength="83" x="25.5" y="179.0332">Administrator</text><ellipse cx="407.2512" cy="1807.8502" fill="#F5F5F5" filter="url(#f6n8mqddbtc8j)" rx="107.2512" ry="23.8502" style="stroke:#2F4F4F;stroke-width:1.5;"/><text fill="#000000" font-family="sans-serif" font-size="14" lengthAdjust="spacing" textLength="177" x="318.7512" y="1811.5788">UC01: Schedule vaccination</text><ellipse cx="407.5791" cy="1900.1158" fill="#F5F5F5" filter="url(#f6n8mqddbtc8j)" rx="153.5791" ry="33.1158" style="stroke:#2F4F4F;stroke-width:1.5;"/><text fill="#000000" font-family="sans-serif" font-size="14" lengthAdjust="spacing" textLength="276" x="269.5791" y="1903.8443">UC02: Request EU COVID Digital Certificate</text><ellipse cx="407.3133" cy="2007.7627" fill="#F5F5F5" filter="url(#f6n8mqddbtc8j)" rx="184.3133" ry="39.2627" style="stroke:#2F4F4F;stroke-width:1.5;"/><text fill="#000000" font-family="sans-serif" font-size="14" lengthAdjust="spacing" textLength="305" x="254.8133" y="2002.6865">UC03: Authorize the DGS to send SMS message</text><text fill="#000000" font-family="sans-serif" font-size="14" lengthAdjust="spacing" textLength="220" x="297.3133" y="2020.2959">with information about appointment</text><ellipse cx="407.4199" cy="465.884" fill="#F5F5F5" filter="url(#f6n8mqddbtc8j)" rx="202.4199" ry="42.884" style="stroke:#2F4F4F;stroke-width:1.5;"/><text fill="#000000" font-family="sans-serif" font-size="14" lengthAdjust="spacing" textLength="377" x="218.9199" y="469.6125">UC04: Register the arrival of a SNS user to take the vaccine</text><ellipse cx="407.7297" cy="358.8459" fill="#F5F5F5" filter="url(#f6n8mqddbtc8j)" rx="132.2297" ry="28.8459" style="stroke:#2F4F4F;stroke-width:1.5;"/><text fill="#000000" font-family="sans-serif" font-size="14" lengthAdjust="spacing" textLength="231" x="292.2297" y="362.5745">UC05: Schedule a vaccine for a user</text><ellipse cx="407.3954" cy="587.0791" fill="#F5F5F5" filter="url(#f6n8mqddbtc8j)" rx="203.3954" ry="43.0791" style="stroke:#2F4F4F;stroke-width:1.5;"/><text fill="#000000" font-family="sans-serif" font-size="14" lengthAdjust="spacing" textLength="379" x="217.8954" y="590.8076">UC06: Confirm that the SNS user has the vaccine scheduled</text><ellipse cx="407.6497" cy="1133.1299" fill="#F5F5F5" filter="url(#f6n8mqddbtc8j)" rx="163.6497" ry="35.1299" style="stroke:#2F4F4F;stroke-width:1.5;"/><text fill="#000000" font-family="sans-serif" font-size="14" lengthAdjust="spacing" textLength="297" x="259.1497" y="1136.8584">UC07: Record adverse reactions of a SNS user</text><ellipse cx="407.4323" cy="1245.7865" fill="#F5F5F5" filter="url(#f6n8mqddbtc8j)" rx="201.9323" ry="42.7865" style="stroke:#2F4F4F;stroke-width:1.5;"/><text fill="#000000" font-family="sans-serif" font-size="14" lengthAdjust="spacing" textLength="376" x="219.4323" y="1249.515">UC08: Record the administration of a vaccine to a SNS user</text><ellipse cx="407.4621" cy="1359.9924" fill="#F5F5F5" filter="url(#f6n8mqddbtc8j)" rx="167.9621" ry="35.9924" style="stroke:#2F4F4F;stroke-width:1.5;"/><text fill="#000000" font-family="sans-serif" font-size="14" lengthAdjust="spacing" textLength="267" x="273.9621" y="1354.9163">UC09: Check the list of SNS users that are</text><text fill="#000000" font-family="sans-serif" font-size="14" lengthAdjust="spacing" textLength="206" x="304.4621" y="1372.5256">present in the vaccination center</text><ellipse cx="407.3577" cy="1468.1715" fill="#F5F5F5" filter="url(#f6n8mqddbtc8j)" rx="171.3577" ry="36.6715" style="stroke:#2F4F4F;stroke-width:1.5;"/><text fill="#000000" font-family="sans-serif" font-size="14" lengthAdjust="spacing" textLength="313" x="250.8577" y="1471.9001">UC010: Check the user info and health conditions</text><ellipse cx="407.359" cy="1018.8718" fill="#F5F5F5" filter="url(#f6n8mqddbtc8j)" rx="204.859" ry="43.3718" style="stroke:#2F4F4F;stroke-width:1.5;"/><text fill="#000000" font-family="sans-serif" font-size="14" lengthAdjust="spacing" textLength="382" x="216.359" y="1022.6003">UC011: Issue and deliver vaccination certificate for SNS user</text><ellipse cx="407.5404" cy="33.9081" fill="#F5F5F5" filter="url(#f6n8mqddbtc8j)" rx="127.5404" ry="27.9081" style="stroke:#2F4F4F;stroke-width:1.5;"/><text fill="#000000" font-family="sans-serif" font-size="14" lengthAdjust="spacing" textLength="221" x="297.0404" y="37.6366">UC012: Specify a new vaccine type</text><ellipse cx="407.359" cy="140.8718" fill="#F5F5F5" filter="url(#f6n8mqddbtc8j)" rx="204.859" ry="43.3718" style="stroke:#2F4F4F;stroke-width:1.5;"/><text fill="#000000" font-family="sans-serif" font-size="14" lengthAdjust="spacing" textLength="382" x="216.359" y="144.6003">UC013: Specify a new vaccine and its administration process</text><ellipse cx="407.5701" cy="257.114" fill="#F5F5F5" filter="url(#f6n8mqddbtc8j)" rx="176.0701" ry="37.614" style="stroke:#2F4F4F;stroke-width:1.5;"/><text fill="#000000" font-family="sans-serif" font-size="14" lengthAdjust="spacing" textLength="233" x="291.0701" y="252.0378">UC014: Register centers, SNS users,</text><text fill="#000000" font-family="sans-serif" font-size="14" lengthAdjust="spacing" textLength="286" x="264.5701" y="269.6472">center coordinators, receptionists and nurses</text><ellipse cx="407.5227" cy="1585.8045" fill="#F5F5F5" filter="url(#f6n8mqddbtc8j)" rx="219.5227" ry="46.3045" style="stroke:#2F4F4F;stroke-width:1.5;"/><text fill="#000000" font-family="sans-serif" font-size="14" lengthAdjust="spacing" textLength="412" x="201.5227" y="1589.533">UC015: Get instructions regarding the vaccine to be administered</text><ellipse cx="407.707" cy="1708.2414" fill="#F5F5F5" filter="url(#f6n8mqddbtc8j)" rx="191.707" ry="40.7414" style="stroke:#2F4F4F;stroke-width:1.5;"/><text fill="#000000" font-family="sans-serif" font-size="14" lengthAdjust="spacing" textLength="355" x="230.207" y="1711.9699">UC016: Register the vaccine type, brand and lot number</text><ellipse cx="407.6734" cy="696.2347" fill="#F5F5F5" filter="url(#f6n8mqddbtc8j)" rx="141.6734" ry="30.7347" style="stroke:#2F4F4F;stroke-width:1.5;"/><text fill="#000000" font-family="sans-serif" font-size="14" lengthAdjust="spacing" textLength="251" x="282.1734" y="699.9632">UC017: Monitor the vaccination process</text><ellipse cx="407.3934" cy="793.1787" fill="#F5F5F5" filter="url(#f6n8mqddbtc8j)" rx="146.3934" ry="31.6787" style="stroke:#2F4F4F;stroke-width:1.5;"/><text fill="#000000" font-family="sans-serif" font-size="14" lengthAdjust="spacing" textLength="214" x="297.3934" y="788.8906">UC018: Evaluate the performance</text><text fill="#000000" font-family="sans-serif" font-size="14" lengthAdjust="spacing" textLength="165" x="321.8934" y="806.5">of the vaccination process</text><ellipse cx="407.7347" cy="900.0469" fill="#F5F5F5" filter="url(#f6n8mqddbtc8j)" rx="190.7347" ry="40.5469" style="stroke:#2F4F4F;stroke-width:1.5;"/><text fill="#000000" font-family="sans-serif" font-size="14" lengthAdjust="spacing" textLength="353" x="231.2347" y="903.7755">UC019: Analyse reports concerning vaccination process</text><!--MD5=[140266ba44ac8b87f85e725624a55779]
link user to UC01--><path d="M97.46,1885.73 C121.38,1874.63 156.23,1859.56 188,1850 C227.83,1838.01 272.8,1828.68 311.55,1821.89 " fill="none" id="user-to-UC01" style="stroke:#2F4F4F;stroke-width:1.0;"/><polygon fill="#2F4F4F" points="316.73,1820.99,307.1777,1818.5912,311.8039,1821.8467,308.5485,1826.4729,316.73,1820.99" style="stroke:#2F4F4F;stroke-width:1.0;"/><!--MD5=[c01662b9893b7f9ffe638de90c98fa3a]
link user to UC02--><path d="M97.15,1900 C131.4,1900 190.9,1900 248.62,1900 " fill="none" id="user-to-UC02" style="stroke:#2F4F4F;stroke-width:1.0;"/><polygon fill="#2F4F4F" points="253.84,1900,244.84,1896,248.84,1900,244.84,1904,253.84,1900" style="stroke:#2F4F4F;stroke-width:1.0;"/><!--MD5=[d45f68acb0e16575127de88cf4e8a428]
link user to UC03--><path d="M97.12,1913.8 C121.14,1924.83 156.29,1940.19 188,1951 C216.5,1960.72 247.57,1969.73 277.1,1977.59 " fill="none" id="user-to-UC03" style="stroke:#2F4F4F;stroke-width:1.0;"/><polygon fill="#2F4F4F" points="282.2,1978.95,274.5323,1972.7689,277.3684,1977.6635,272.4738,1980.4996,282.2,1978.95" style="stroke:#2F4F4F;stroke-width:1.0;"/><!--MD5=[64a58fe06a961f0e4cc62188e9e56cd7]
link receptionist to UC04--><path d="M106.17,524.56 C142.1,517.55 198.34,506.59 252.47,496.03 " fill="none" id="receptionist-to-UC04" style="stroke:#2F4F4F;stroke-width:1.0;"/><polygon fill="#2F4F4F" points="257.71,495.01,248.1113,492.8044,252.8022,495.9659,249.6407,500.6568,257.71,495.01" style="stroke:#2F4F4F;stroke-width:1.0;"/><!--MD5=[82fa8b9135fa5057c2e31b1d20f75235]
link receptionist to UC06--><path d="M106.17,538.2 C139.44,543.61 190.11,551.84 240.41,560.01 " fill="none" id="receptionist-to-UC06" style="stroke:#2F4F4F;stroke-width:1.0;"/><polygon fill="#2F4F4F" points="245.59,560.85,237.3472,555.4597,240.6546,560.0489,236.0654,563.3563,245.59,560.85" style="stroke:#2F4F4F;stroke-width:1.0;"/><!--MD5=[0f521602c329eedaa76e42c880e36dc9]
link receptionistHCC to UC05--><path d="M120.52,359 C160.55,359 217.56,359 270.16,359 " fill="none" id="receptionistHCC-to-UC05" style="stroke:#2F4F4F;stroke-width:1.0;"/><polygon fill="#2F4F4F" points="275.23,359,266.23,355,270.23,359,266.23,363,275.23,359" style="stroke:#2F4F4F;stroke-width:1.0;"/><!--MD5=[281c5965a45307b972b9fafd7dc9d075]
link nurse to UC07--><path d="M78.55,1372.2 C93.82,1320.47 127.14,1233.44 188,1186 C208.42,1170.08 232.93,1158.86 258.03,1150.96 " fill="none" id="nurse-to-UC07" style="stroke:#2F4F4F;stroke-width:1.0;"/><polygon fill="#2F4F4F" points="263.06,1149.42,253.2809,1148.2498,258.282,1150.8934,255.6384,1155.8946,263.06,1149.42" style="stroke:#2F4F4F;stroke-width:1.0;"/><!--MD5=[5306f834103bd019928d2c56277b17a1]
link nurse to UC08--><path d="M85.82,1393.16 C107.57,1369.01 146.61,1329.62 188,1307 C209.63,1295.18 233.74,1285.49 257.82,1277.6 " fill="none" id="nurse-to-UC08" style="stroke:#2F4F4F;stroke-width:1.0;"/><polygon fill="#2F4F4F" points="262.64,1276.05,252.845,1275.0217,257.8839,1277.5925,255.313,1282.6314,262.64,1276.05" style="stroke:#2F4F4F;stroke-width:1.0;"/><!--MD5=[ba10721c796bf8e05da1d4cf00621405]
link nurse to UC09--><path d="M85.72,1411.17 C119.73,1405.75 197.01,1393.42 267.19,1382.22 " fill="none" id="nurse-to-UC09" style="stroke:#2F4F4F;stroke-width:1.0;"/><polygon fill="#2F4F4F" points="272.23,1381.42,262.7136,1378.8825,267.292,1382.2049,263.9696,1386.7833,272.23,1381.42" style="stroke:#2F4F4F;stroke-width:1.0;"/><!--MD5=[c88182125f23877e0f98de7d9143271b]
link nurse to UC010--><path d="M85.72,1416.83 C119.33,1422.19 195.2,1434.29 264.72,1445.38 " fill="none" id="nurse-to-UC010" style="stroke:#2F4F4F;stroke-width:1.0;"/><polygon fill="#2F4F4F" points="269.71,1446.18,261.4496,1440.8167,264.772,1445.3951,260.1936,1448.7175,269.71,1446.18" style="stroke:#2F4F4F;stroke-width:1.0;"/><!--MD5=[9cefc10e58638cc5aa03294134d15b67]
link nurseHCC to UC011--><path d="M100.15,1019 C124.16,1019 159.25,1019 197.2,1019 " fill="none" id="nurseHCC-to-UC011" style="stroke:#2F4F4F;stroke-width:1.0;"/><polygon fill="#2F4F4F" points="202.32,1019,193.32,1015,197.32,1019,193.32,1023,202.32,1019" style="stroke:#2F4F4F;stroke-width:1.0;"/><!--MD5=[fc2c2b77e9843a67e3dce703779a1782]
link administrator to UC012--><path d="M108.74,116.91 C131.43,104.36 160.56,89.67 188,80 C222.85,67.72 262.03,58.2 297.5,51.1 " fill="none" id="administrator-to-UC012" style="stroke:#2F4F4F;stroke-width:1.0;"/><polygon fill="#2F4F4F" points="302.7,50.07,293.0952,47.8912,297.7949,51.0396,294.6465,55.7394,302.7,50.07" style="stroke:#2F4F4F;stroke-width:1.0;"/><!--MD5=[192596a73a46d716c66beaeb0cd4fab9]
link administrator to UC013--><path d="M108.83,141 C132.2,141 163.49,141 197.02,141 " fill="none" id="administrator-to-UC013" style="stroke:#2F4F4F;stroke-width:1.0;"/><polygon fill="#2F4F4F" points="202.41,141,193.41,137,197.41,141,193.41,145,202.41,141" style="stroke:#2F4F4F;stroke-width:1.0;"/><!--MD5=[370d69b1ade34811a96dd1b2d294d806]
link administrator to UC014--><path d="M108.62,164.52 C131.39,176.97 160.64,191.75 188,202 C216.14,212.54 247.06,221.71 276.56,229.37 " fill="none" id="administrator-to-UC014" style="stroke:#2F4F4F;stroke-width:1.0;"/><polygon fill="#2F4F4F" points="281.66,230.69,273.9368,224.5783,276.8169,229.4471,271.9482,232.3272,281.66,230.69" style="stroke:#2F4F4F;stroke-width:1.0;"/><!--MD5=[06ce0fd6c3284c0f87643ab2724465c8]
link nurse to UC015--><path d="M85.83,1434.95 C107.59,1459.25 146.63,1498.92 188,1522 C207.98,1533.15 230.1,1542.53 252.36,1550.36 " fill="none" id="nurse-to-UC015" style="stroke:#2F4F4F;stroke-width:1.0;"/><polygon fill="#2F4F4F" points="257.11,1552.01,249.9031,1545.2973,252.3825,1550.3818,247.298,1552.8612,257.11,1552.01" style="stroke:#2F4F4F;stroke-width:1.0;"/><!--MD5=[5dec1f667f1a08a44cb14ba2d3d7e36f]
link nurse to UC016--><path d="M77.91,1455.65 C92.72,1508.76 125.81,1599.71 188,1650 C205.24,1663.94 225.5,1674.55 246.62,1682.62 " fill="none" id="nurse-to-UC016" style="stroke:#2F4F4F;stroke-width:1.0;"/><polygon fill="#2F4F4F" points="251.43,1684.41,244.3891,1677.5234,246.7437,1682.6669,241.6001,1685.0215,251.43,1684.41" style="stroke:#2F4F4F;stroke-width:1.0;"/><!--MD5=[b20430ab2d4509796f9de88434d81b71]
link coordinator to UC017--><path d="M128,766.14 C146.95,758.3 168.13,750.19 188,744 C222.11,733.38 259.91,724.19 294.35,716.78 " fill="none" id="coordinator-to-UC017" style="stroke:#2F4F4F;stroke-width:1.0;"/><polygon fill="#2F4F4F" points="299.41,715.7,289.7745,713.6611,294.5195,716.7408,291.4398,721.4859,299.41,715.7" style="stroke:#2F4F4F;stroke-width:1.0;"/><!--MD5=[94dce7a6f0c992ec0fe27336d0f04931]
link coordinator to UC018--><path d="M128.13,793 C163.71,793 210.5,793 255.55,793 " fill="none" id="coordinator-to-UC018" style="stroke:#2F4F4F;stroke-width:1.0;"/><polygon fill="#2F4F4F" points="260.75,793,251.75,789,255.75,793,251.75,797,260.75,793" style="stroke:#2F4F4F;stroke-width:1.0;"/><!--MD5=[7ee2e7e2bf408c3767a538045a1caa0b]
link coordinator to UC019--><path d="M128.17,819.33 C147.12,827.15 168.26,835.38 188,842 C216.23,851.47 246.91,860.42 276.12,868.32 " fill="none" id="coordinator-to-UC019" style="stroke:#2F4F4F;stroke-width:1.0;"/><polygon fill="#2F4F4F" points="281.18,869.68,273.5294,863.4778,276.3519,868.3801,271.4496,871.2027,281.18,869.68" style="stroke:#2F4F4F;stroke-width:1.0;"/><!--MD5=[0589ca926e7042e4b9d05c898d0be049]
@startuml
left to right direction


skinparam actorBackgroundColor LightGray
skinparam actorBorderColor DarkSlateGray
skinparam usecaseBackgroundColor WhiteSmoke
skinparam usecaseBorderColor DarkSlateGray
skinparam usecaseArrowColor DarkSlateGray

actor :SNS User: as user
actor :Nurse: as nurse
actor :NurseHCC: as nurseHCC
actor :Center Coordinator: as coordinator
actor :Receptionist: as receptionist
actor :ReceptionistHCC: as receptionistHCC
actor :Administrator: as administrator

usecase (UC01: Schedule vaccination) as UC01
usecase (UC02: Request EU COVID Digital Certificate) as UC02
usecase UC03 as "UC03: Authorize the DGS to send SMS message
with information about appointment"
usecase (UC04: Register the arrival of a SNS user to take the vaccine) as UC04
usecase (UC05: Schedule a vaccine for a user) as UC05
usecase (UC06: Confirm that the SNS user has the vaccine scheduled) as UC06
usecase (UC07: Record adverse reactions of a SNS user) as UC07
usecase (UC08: Record the administration of a vaccine to a SNS user) as UC08
usecase UC09 as "UC09: Check the list of SNS users that are
present in the vaccination center"
usecase (UC010: Check the user info and health conditions) as UC010
usecase (UC011: Issue and deliver vaccination certificate for SNS user) as UC011
usecase (UC012: Specify a new vaccine type) as UC012
usecase (UC013: Specify a new vaccine and its administration process) as UC013
usecase UC014 as "UC014: Register centers, SNS users,
center coordinators, receptionists and nurses"
usecase (UC015: Get instructions regarding the vaccine to be administered) as UC015
usecase (UC016: Register the vaccine type, brand and lot number) as UC016
usecase (UC017: Monitor the vaccination process) as UC017
usecase UC018 as "UC018: Evaluate the performance
                  of the vaccination process"
usecase UC019 as "UC019: Analyse reports concerning vaccination process"

user - -> UC01
user - -> UC02
user - -> UC03

receptionist - -> UC04
receptionist - -> UC06
receptionistHCC - -> UC05

nurse - -> UC07
nurse - -> UC08
nurse - -> UC09
nurse - -> UC010
nurseHCC - -> UC011

administrator - -> UC012
administrator - -> UC013
administrator - -> UC014

nurse - -> UC015
nurse - -> UC016

coordinator - -> UC017
coordinator - -> UC018
coordinator - -> UC019

@enduml

PlantUML version 1.2022.1(Tue Feb 01 18:19:58 GMT 2022)
(GPL source distribution)
Java Runtime: OpenJDK Runtime Environment
JVM: OpenJDK 64-Bit Server VM
Default Encoding: Cp1252
Language: en
Country: US
--></g></svg>