<?xml version="1.0" encoding="UTF-8" standalone="no"?><svg xmlns="http://www.w3.org/2000/svg" xmlns:xlink="http://www.w3.org/1999/xlink" contentStyleType="text/css" height="1078px" preserveAspectRatio="none" style="width:1166px;height:1078px;background:#FFFFFF;" version="1.1" viewBox="0 0 1166 1078" width="1166px" zoomAndPan="magnify"><defs/><g><!--MD5=[fee4ad4ea2539826ceb4e9da56de0cdc]
class ExportVaccinationStatisticsUI--><g id="elem_ExportVaccinationStatisticsUI"><rect codeLine="6" fill="#F1F1F1" height="83.2188" id="ExportVaccinationStatisticsUI" rx="2.5" ry="2.5" style="stroke:#181818;stroke-width:0.5;" width="328" x="145.5" y="7"/><ellipse cx="214.75" cy="23" fill="#ADD1B2" rx="11" ry="11" style="stroke:#181818;stroke-width:1.0;"/><path d="M216.75,19.5 Q216.9531,19 217.1875,18.75 Q217.4219,18.5 217.6875,18.5 Q218.1563,18.5 218.4531,18.7813 Q218.75,19.0625 218.75,19.7188 L218.75,21.2813 Q218.75,21.9375 218.4688,22.2188 Q218.1875,22.5 217.75,22.5 Q217.3594,22.5 217.1094,22.3281 Q216.8594,22.1563 216.75,21.7031 Q216.7031,21.3906 216.5313,21.2188 Q216.2188,20.8906 215.6563,20.7031 Q215.0938,20.5 214.5313,20.5 Q213.8281,20.5 213.2344,20.7813 Q212.6563,21.0625 212.2031,21.6875 Q211.75,22.3125 211.75,23.1719 L211.75,24.0938 Q211.75,25.125 212.5938,25.8125 Q213.4375,26.5 214.9375,26.5 Q215.8281,26.5 216.4531,26.2969 Q216.8125,26.1875 217.2188,25.8281 Q217.4844,25.625 217.625,25.5625 Q217.7656,25.5 217.9375,25.5 Q218.2656,25.5 218.5,25.7656 Q218.75,26.0156 218.75,26.375 Q218.75,26.7188 218.4063,27.125 Q217.9063,27.7188 217.1094,28.0469 Q216.0625,28.5 214.7813,28.5 Q213.2813,28.5 212.0781,27.9063 Q211.1094,27.4375 210.4219,26.4219 Q209.75,25.4063 209.75,24.2031 L209.75,23.1094 Q209.75,21.8594 210.3438,20.7656 Q210.9531,19.6719 212,19.0938 Q213.0625,18.5 214.25,18.5 Q214.9688,18.5 215.5938,18.75 Q216.2188,19 216.75,19.5 Z " fill="#000000"/><text fill="#000000" font-family="sans-serif" font-size="14" lengthAdjust="spacing" textLength="181" x="235.25" y="28.7285">ExportVaccinationStatisticsUI</text><line style="stroke:#181818;stroke-width:0.5;" x1="146.5" x2="472.5" y1="39" y2="39"/><rect fill="none" height="6" style="stroke:#C82930;stroke-width:1.0;" width="6" x="153.5" y="47"/><text fill="#000000" font-family="sans-serif" font-size="14" lengthAdjust="spacing" textLength="302" x="165.5" y="57.5332">controller : ExportVaccinationStatisticsController</text><line style="stroke:#181818;stroke-width:0.5;" x1="146.5" x2="472.5" y1="64.6094" y2="64.6094"/><ellipse cx="156.5" cy="75.6094" fill="#84BE84" rx="3" ry="3" style="stroke:#038048;stroke-width:1.0;"/><text fill="#000000" font-family="sans-serif" font-size="14" lengthAdjust="spacing" textLength="31" x="165.5" y="83.1426">run()</text></g><!--MD5=[526d7920cc1a9eb754bcafb4f73bbd3b]
class ExportVaccinationStatisticsController--><g id="elem_ExportVaccinationStatisticsController"><rect codeLine="12" fill="#F1F1F1" height="136.0469" id="ExportVaccinationStatisticsController" rx="2.5" ry="2.5" style="stroke:#181818;stroke-width:0.5;" width="605" x="7" y="168"/><ellipse cx="189.75" cy="184" fill="#ADD1B2" rx="11" ry="11" style="stroke:#181818;stroke-width:1.0;"/><path d="M191.75,180.5 Q191.9531,180 192.1875,179.75 Q192.4219,179.5 192.6875,179.5 Q193.1563,179.5 193.4531,179.7813 Q193.75,180.0625 193.75,180.7188 L193.75,182.2813 Q193.75,182.9375 193.4688,183.2188 Q193.1875,183.5 192.75,183.5 Q192.3594,183.5 192.1094,183.3281 Q191.8594,183.1563 191.75,182.7031 Q191.7031,182.3906 191.5313,182.2188 Q191.2188,181.8906 190.6563,181.7031 Q190.0938,181.5 189.5313,181.5 Q188.8281,181.5 188.2344,181.7813 Q187.6563,182.0625 187.2031,182.6875 Q186.75,183.3125 186.75,184.1719 L186.75,185.0938 Q186.75,186.125 187.5938,186.8125 Q188.4375,187.5 189.9375,187.5 Q190.8281,187.5 191.4531,187.2969 Q191.8125,187.1875 192.2188,186.8281 Q192.4844,186.625 192.625,186.5625 Q192.7656,186.5 192.9375,186.5 Q193.2656,186.5 193.5,186.7656 Q193.75,187.0156 193.75,187.375 Q193.75,187.7188 193.4063,188.125 Q192.9063,188.7188 192.1094,189.0469 Q191.0625,189.5 189.7813,189.5 Q188.2813,189.5 187.0781,188.9063 Q186.1094,188.4375 185.4219,187.4219 Q184.75,186.4063 184.75,185.2031 L184.75,184.1094 Q184.75,182.8594 185.3438,181.7656 Q185.9531,180.6719 187,180.0938 Q188.0625,179.5 189.25,179.5 Q189.9688,179.5 190.5938,179.75 Q191.2188,180 191.75,180.5 Z " fill="#000000"/><text fill="#000000" font-family="sans-serif" font-size="14" lengthAdjust="spacing" textLength="231" x="210.25" y="189.7285">ExportVaccinationStatisticsController</text><line style="stroke:#181818;stroke-width:0.5;" x1="8" x2="611" y1="200" y2="200"/><rect fill="none" height="6" style="stroke:#C82930;stroke-width:1.0;" width="6" x="15" y="208"/><text fill="#000000" font-family="sans-serif" font-size="14" lengthAdjust="spacing" textLength="129" x="27" y="218.5332">company : Company</text><rect fill="none" height="6" style="stroke:#C82930;stroke-width:1.0;" width="6" x="15" y="225.6094"/><text fill="#000000" font-family="sans-serif" font-size="14" lengthAdjust="spacing" textLength="356" x="27" y="236.1426">vaccineAdministrationStore : VaccineAdministrationStore</text><rect fill="none" height="6" style="stroke:#C82930;stroke-width:1.0;" width="6" x="15" y="243.2188"/><text fill="#000000" font-family="sans-serif" font-size="14" lengthAdjust="spacing" textLength="579" x="27" y="253.752">csvStatisticsExportToExternalSourceAdapter : CSVStatisticsExportToExternalSourceAdapter</text><line style="stroke:#181818;stroke-width:0.5;" x1="8" x2="611" y1="260.8281" y2="260.8281"/><ellipse cx="18" cy="271.8281" fill="#84BE84" rx="3" ry="3" style="stroke:#038048;stroke-width:1.0;"/><text fill="#000000" font-family="sans-serif" font-size="14" lengthAdjust="spacing" textLength="504" x="27" y="279.3613">getListOfFullyVaccinatedUsersByDate(startDate,endDate) : List&lt;VaccineTypes&gt;</text><ellipse cx="18" cy="289.4375" fill="#84BE84" rx="3" ry="3" style="stroke:#038048;stroke-width:1.0;"/><text fill="#000000" font-family="sans-serif" font-size="14" lengthAdjust="spacing" textLength="383" x="27" y="296.9707">printListOfUsers(listOfFullyVaccinatedUsersByDate,fileName)</text></g><!--MD5=[02e4b9b7573f1156f41e60aa5b4e25a4]
class Company--><g id="elem_Company"><rect codeLine="21" fill="#F1F1F1" height="118.4375" id="Company" rx="2.5" ry="2.5" style="stroke:#181818;stroke-width:0.5;" width="412" x="103.5" y="382"/><ellipse cx="275.25" cy="398" fill="#ADD1B2" rx="11" ry="11" style="stroke:#181818;stroke-width:1.0;"/><path d="M277.25,394.5 Q277.4531,394 277.6875,393.75 Q277.9219,393.5 278.1875,393.5 Q278.6563,393.5 278.9531,393.7813 Q279.25,394.0625 279.25,394.7188 L279.25,396.2813 Q279.25,396.9375 278.9688,397.2188 Q278.6875,397.5 278.25,397.5 Q277.8594,397.5 277.6094,397.3281 Q277.3594,397.1563 277.25,396.7031 Q277.2031,396.3906 277.0313,396.2188 Q276.7188,395.8906 276.1563,395.7031 Q275.5938,395.5 275.0313,395.5 Q274.3281,395.5 273.7344,395.7813 Q273.1563,396.0625 272.7031,396.6875 Q272.25,397.3125 272.25,398.1719 L272.25,399.0938 Q272.25,400.125 273.0938,400.8125 Q273.9375,401.5 275.4375,401.5 Q276.3281,401.5 276.9531,401.2969 Q277.3125,401.1875 277.7188,400.8281 Q277.9844,400.625 278.125,400.5625 Q278.2656,400.5 278.4375,400.5 Q278.7656,400.5 279,400.7656 Q279.25,401.0156 279.25,401.375 Q279.25,401.7188 278.9063,402.125 Q278.4063,402.7188 277.6094,403.0469 Q276.5625,403.5 275.2813,403.5 Q273.7813,403.5 272.5781,402.9063 Q271.6094,402.4375 270.9219,401.4219 Q270.25,400.4063 270.25,399.2031 L270.25,398.1094 Q270.25,396.8594 270.8438,395.7656 Q271.4531,394.6719 272.5,394.0938 Q273.5625,393.5 274.75,393.5 Q275.4688,393.5 276.0938,393.75 Q276.7188,394 277.25,394.5 Z " fill="#000000"/><text fill="#000000" font-family="sans-serif" font-size="14" lengthAdjust="spacing" textLength="60" x="295.75" y="403.7285">Company</text><line style="stroke:#181818;stroke-width:0.5;" x1="104.5" x2="514.5" y1="414" y2="414"/><rect fill="none" height="6" style="stroke:#C82930;stroke-width:1.0;" width="6" x="111.5" y="422"/><text fill="#000000" font-family="sans-serif" font-size="14" lengthAdjust="spacing" textLength="122" x="123.5" y="432.5332">designation : String</text><rect fill="none" height="6" style="stroke:#C82930;stroke-width:1.0;" width="6" x="111.5" y="439.6094"/><text fill="#000000" font-family="sans-serif" font-size="14" lengthAdjust="spacing" textLength="356" x="123.5" y="450.1426">vaccineAdministrationStore : VaccineAdministrationStore</text><line style="stroke:#181818;stroke-width:0.5;" x1="104.5" x2="514.5" y1="457.2188" y2="457.2188"/><ellipse cx="114.5" cy="468.2188" fill="#84BE84" rx="3" ry="3" style="stroke:#038048;stroke-width:1.0;"/><text fill="#000000" font-family="sans-serif" font-size="14" lengthAdjust="spacing" textLength="386" x="123.5" y="475.752">getvaccineAdministrationStore() : VaccineAdministrationStore</text><ellipse cx="114.5" cy="485.8281" fill="#84BE84" rx="3" ry="3" style="stroke:#038048;stroke-width:1.0;"/><text fill="#000000" font-family="sans-serif" font-size="14" lengthAdjust="spacing" textLength="22" x="123.5" y="493.3613">...()</text></g><!--MD5=[5ddb3901a3b177819463bfb72cbada42]
class VaccineAdministrationStore--><g id="elem_VaccineAdministrationStore"><rect codeLine="29" fill="#F1F1F1" height="83.2188" id="VaccineAdministrationStore" rx="2.5" ry="2.5" style="stroke:#181818;stroke-width:0.5;" width="550" x="34.5" y="578"/><ellipse cx="218.75" cy="594" fill="#ADD1B2" rx="11" ry="11" style="stroke:#181818;stroke-width:1.0;"/><path d="M220.75,590.5 Q220.9531,590 221.1875,589.75 Q221.4219,589.5 221.6875,589.5 Q222.1563,589.5 222.4531,589.7813 Q222.75,590.0625 222.75,590.7188 L222.75,592.2813 Q222.75,592.9375 222.4688,593.2188 Q222.1875,593.5 221.75,593.5 Q221.3594,593.5 221.1094,593.3281 Q220.8594,593.1563 220.75,592.7031 Q220.7031,592.3906 220.5313,592.2188 Q220.2188,591.8906 219.6563,591.7031 Q219.0938,591.5 218.5313,591.5 Q217.8281,591.5 217.2344,591.7813 Q216.6563,592.0625 216.2031,592.6875 Q215.75,593.3125 215.75,594.1719 L215.75,595.0938 Q215.75,596.125 216.5938,596.8125 Q217.4375,597.5 218.9375,597.5 Q219.8281,597.5 220.4531,597.2969 Q220.8125,597.1875 221.2188,596.8281 Q221.4844,596.625 221.625,596.5625 Q221.7656,596.5 221.9375,596.5 Q222.2656,596.5 222.5,596.7656 Q222.75,597.0156 222.75,597.375 Q222.75,597.7188 222.4063,598.125 Q221.9063,598.7188 221.1094,599.0469 Q220.0625,599.5 218.7813,599.5 Q217.2813,599.5 216.0781,598.9063 Q215.1094,598.4375 214.4219,597.4219 Q213.75,596.4063 213.75,595.2031 L213.75,594.1094 Q213.75,592.8594 214.3438,591.7656 Q214.9531,590.6719 216,590.0938 Q217.0625,589.5 218.25,589.5 Q218.9688,589.5 219.5938,589.75 Q220.2188,590 220.75,590.5 Z " fill="#000000"/><text fill="#000000" font-family="sans-serif" font-size="14" lengthAdjust="spacing" textLength="173" x="239.25" y="599.7285">VaccineAdministrationStore</text><line style="stroke:#181818;stroke-width:0.5;" x1="35.5" x2="583.5" y1="610" y2="610"/><rect fill="none" height="6" style="stroke:#C82930;stroke-width:1.0;" width="6" x="42.5" y="618"/><text fill="#000000" font-family="sans-serif" font-size="14" lengthAdjust="spacing" textLength="348" x="54.5" y="628.5332">vaccineAdministrationList : List&lt;VaccineAdministration&gt;</text><line style="stroke:#181818;stroke-width:0.5;" x1="35.5" x2="583.5" y1="635.6094" y2="635.6094"/><ellipse cx="45.5" cy="646.6094" fill="#84BE84" rx="3" ry="3" style="stroke:#038048;stroke-width:1.0;"/><text fill="#000000" font-family="sans-serif" font-size="14" lengthAdjust="spacing" textLength="524" x="54.5" y="654.1426">getListFullyVaccinatedUsersBetweenDatesOfUserCenter(startDate, endDate) : void</text></g><!--MD5=[107cfa23aa516ff83d0cf17a6f9fe7ba]
class VaccineAdministration--><g id="elem_VaccineAdministration"><rect codeLine="35" fill="#F1F1F1" height="188.875" id="VaccineAdministration" rx="2.5" ry="2.5" style="stroke:#181818;stroke-width:0.5;" width="380" x="119.5" y="739"/><ellipse cx="235.75" cy="755" fill="#ADD1B2" rx="11" ry="11" style="stroke:#181818;stroke-width:1.0;"/><path d="M237.75,751.5 Q237.9531,751 238.1875,750.75 Q238.4219,750.5 238.6875,750.5 Q239.1563,750.5 239.4531,750.7813 Q239.75,751.0625 239.75,751.7188 L239.75,753.2813 Q239.75,753.9375 239.4688,754.2188 Q239.1875,754.5 238.75,754.5 Q238.3594,754.5 238.1094,754.3281 Q237.8594,754.1563 237.75,753.7031 Q237.7031,753.3906 237.5313,753.2188 Q237.2188,752.8906 236.6563,752.7031 Q236.0938,752.5 235.5313,752.5 Q234.8281,752.5 234.2344,752.7813 Q233.6563,753.0625 233.2031,753.6875 Q232.75,754.3125 232.75,755.1719 L232.75,756.0938 Q232.75,757.125 233.5938,757.8125 Q234.4375,758.5 235.9375,758.5 Q236.8281,758.5 237.4531,758.2969 Q237.8125,758.1875 238.2188,757.8281 Q238.4844,757.625 238.625,757.5625 Q238.7656,757.5 238.9375,757.5 Q239.2656,757.5 239.5,757.7656 Q239.75,758.0156 239.75,758.375 Q239.75,758.7188 239.4063,759.125 Q238.9063,759.7188 238.1094,760.0469 Q237.0625,760.5 235.7813,760.5 Q234.2813,760.5 233.0781,759.9063 Q232.1094,759.4375 231.4219,758.4219 Q230.75,757.4063 230.75,756.2031 L230.75,755.1094 Q230.75,753.8594 231.3438,752.7656 Q231.9531,751.6719 233,751.0938 Q234.0625,750.5 235.25,750.5 Q235.9688,750.5 236.5938,750.75 Q237.2188,751 237.75,751.5 Z " fill="#000000"/><text fill="#000000" font-family="sans-serif" font-size="14" lengthAdjust="spacing" textLength="139" x="256.25" y="760.7285">VaccineAdministration</text><line style="stroke:#181818;stroke-width:0.5;" x1="120.5" x2="498.5" y1="771" y2="771"/><rect fill="none" height="6" style="stroke:#C82930;stroke-width:1.0;" width="6" x="127.5" y="779"/><text fill="#000000" font-family="sans-serif" font-size="14" lengthAdjust="spacing" textLength="196" x="139.5" y="789.5332">snsUserArrival : SnsUserArrival</text><rect fill="none" height="6" style="stroke:#C82930;stroke-width:1.0;" width="6" x="127.5" y="796.6094"/><text fill="#000000" font-family="sans-serif" font-size="14" lengthAdjust="spacing" textLength="125" x="139.5" y="807.1426">snsUser : SnsUserA</text><rect fill="none" height="6" style="stroke:#C82930;stroke-width:1.0;" width="6" x="127.5" y="814.2188"/><text fill="#000000" font-family="sans-serif" font-size="14" lengthAdjust="spacing" textLength="110" x="139.5" y="824.752">vaccine : Vaccine</text><rect fill="none" height="6" style="stroke:#C82930;stroke-width:1.0;" width="6" x="127.5" y="831.8281"/><text fill="#000000" font-family="sans-serif" font-size="14" lengthAdjust="spacing" textLength="107" x="139.5" y="842.3613">doseNumber : int</text><rect fill="none" height="6" style="stroke:#C82930;stroke-width:1.0;" width="6" x="127.5" y="849.4375"/><text fill="#000000" font-family="sans-serif" font-size="14" lengthAdjust="spacing" textLength="113" x="139.5" y="859.9707">lotNumber : String</text><rect fill="none" height="6" style="stroke:#C82930;stroke-width:1.0;" width="6" x="127.5" y="867.0469"/><text fill="#000000" font-family="sans-serif" font-size="14" lengthAdjust="spacing" textLength="225" x="139.5" y="877.5801">administrationDate : LocalDateTime</text><rect fill="none" height="6" style="stroke:#C82930;stroke-width:1.0;" width="6" x="127.5" y="884.6563"/><text fill="#000000" font-family="sans-serif" font-size="14" lengthAdjust="spacing" textLength="182" x="139.5" y="895.1895">leavingDate : LocalDateTime</text><rect fill="none" height="6" style="stroke:#C82930;stroke-width:1.0;" width="6" x="127.5" y="902.2656"/><text fill="#000000" font-family="sans-serif" font-size="14" lengthAdjust="spacing" textLength="354" x="139.5" y="912.7988">vaccineAdministrationState : VaccineAdministrationState</text><line style="stroke:#181818;stroke-width:0.5;" x1="120.5" x2="498.5" y1="919.875" y2="919.875"/></g><!--MD5=[4f04165da5aa77fff23471537a3ba2c7]
class state--><g id="elem_state"><rect codeLine="47" fill="#F1F1F1" height="65.6094" id="state" rx="2.5" ry="2.5" style="stroke:#181818;stroke-width:0.5;" width="108" x="255.5" y="1006"/><ellipse cx="290.75" cy="1022" fill="#EB937F" rx="11" ry="11" style="stroke:#181818;stroke-width:1.0;"/><path d="M289.25,1023 L289.25,1025 L293.25,1025 L293.25,1024 L293.25,1023.5156 L293.875,1023 L294.25,1023 L294.625,1023 L295.25,1023.5156 L295.25,1024 L295.25,1027 L287.25,1027 L286.7656,1027 L286.25,1026.375 L286.25,1026 L286.25,1025.625 L286.7656,1025 L287.25,1025 L287.25,1025 L287.25,1019 L287.25,1019 L286.7656,1019 L286.25,1018.375 L286.25,1018 L286.25,1017.625 L286.7656,1017 L287.25,1017 L295.25,1017 L295.25,1020 L295.25,1020.4844 L294.625,1021 L294.25,1021 L293.875,1021 L293.25,1020.4844 L293.25,1020 L293.25,1019 L289.25,1019 L289.25,1021 L290.25,1021 L290.25,1020.5156 L290.25,1020.5156 L290.875,1020 L291.25,1020 L291.625,1020 L292.25,1020.5156 L292.25,1021 L292.25,1023 L292.25,1023.4844 L291.625,1024 L291.625,1024 L291.25,1024 L290.875,1024 L290.25,1023.4844 L290.25,1023.4844 L290.25,1023 L289.25,1023 Z " fill="#000000"/><text fill="#000000" font-family="sans-serif" font-size="14" lengthAdjust="spacing" textLength="31" x="309.25" y="1027.7285">state</text><line style="stroke:#181818;stroke-width:0.5;" x1="256.5" x2="362.5" y1="1038" y2="1038"/><rect fill="none" height="6" style="stroke:#C82930;stroke-width:1.0;" width="6" x="263.5" y="1046"/><text fill="#000000" font-family="sans-serif" font-size="14" lengthAdjust="spacing" textLength="82" x="275.5" y="1056.5332">State : String</text><line style="stroke:#181818;stroke-width:0.5;" x1="256.5" x2="362.5" y1="1063.6094" y2="1063.6094"/></g><!--MD5=[ffdd84f4210ded2fd126e0f607c9c5a8]
class IExportStatisticsToExternalSource--><g id="elem_IExportStatisticsToExternalSource"><rect codeLine="52" fill="#F1F1F1" height="65.6094" id="IExportStatisticsToExternalSource" rx="2.5" ry="2.5" style="stroke:#181818;stroke-width:0.5;" width="460" x="699.5" y="586.5"/><ellipse cx="818.75" cy="602.5" fill="#B4A7E5" rx="11" ry="11" style="stroke:#181818;stroke-width:1.0;"/><path d="M819.75,599.5 L819.75,605.5 L821.75,605.5 L822.2344,605.5 L822.75,606.125 L822.75,606.5 L822.75,606.875 L822.2344,607.5 L821.75,607.5 L815.75,607.5 L815.2656,607.5 L814.75,606.875 L814.75,606.5 L814.75,606.125 L815.2656,605.5 L815.75,605.5 L817.75,605.5 L817.75,599.5 L815.75,599.5 L815.2656,599.5 L814.75,598.875 L814.75,598.5 L814.75,598.125 L815.2656,597.5 L815.75,597.5 L821.75,597.5 L822.2344,597.5 L822.75,598.125 L822.75,598.5 L822.75,598.875 L822.2344,599.5 L821.75,599.5 L819.75,599.5 Z " fill="#000000"/><text fill="#000000" font-family="sans-serif" font-size="14" font-style="italic" lengthAdjust="spacing" textLength="213" x="839.25" y="608.2285">IExportStatisticsToExternalSource</text><line style="stroke:#181818;stroke-width:0.5;" x1="700.5" x2="1158.5" y1="618.5" y2="618.5"/><line style="stroke:#181818;stroke-width:0.5;" x1="700.5" x2="1158.5" y1="626.5" y2="626.5"/><ellipse cx="710.5" cy="637.5" fill="#84BE84" rx="3" ry="3" style="stroke:#038048;stroke-width:1.0;"/><text fill="#000000" font-family="sans-serif" font-size="14" lengthAdjust="spacing" textLength="434" x="719.5" y="645.0332">exportStatistics(listOfFullyVaccinatedUsersByDate,nameOfFile) : void</text></g><!--MD5=[dc0fac6d657b637aadbf71df93b52f6e]
class CSVStatisticsExportToExternalSourceAdapter--><g id="elem_CSVStatisticsExportToExternalSourceAdapter"><rect codeLine="57" fill="#F1F1F1" height="65.6094" id="CSVStatisticsExportToExternalSourceAdapter" rx="2.5" ry="2.5" style="stroke:#181818;stroke-width:0.5;" width="460" x="699.5" y="800.5"/><ellipse cx="781.75" cy="816.5" fill="#ADD1B2" rx="11" ry="11" style="stroke:#181818;stroke-width:1.0;"/><path d="M783.75,813 Q783.9531,812.5 784.1875,812.25 Q784.4219,812 784.6875,812 Q785.1563,812 785.4531,812.2813 Q785.75,812.5625 785.75,813.2188 L785.75,814.7813 Q785.75,815.4375 785.4688,815.7188 Q785.1875,816 784.75,816 Q784.3594,816 784.1094,815.8281 Q783.8594,815.6563 783.75,815.2031 Q783.7031,814.8906 783.5313,814.7188 Q783.2188,814.3906 782.6563,814.2031 Q782.0938,814 781.5313,814 Q780.8281,814 780.2344,814.2813 Q779.6563,814.5625 779.2031,815.1875 Q778.75,815.8125 778.75,816.6719 L778.75,817.5938 Q778.75,818.625 779.5938,819.3125 Q780.4375,820 781.9375,820 Q782.8281,820 783.4531,819.7969 Q783.8125,819.6875 784.2188,819.3281 Q784.4844,819.125 784.625,819.0625 Q784.7656,819 784.9375,819 Q785.2656,819 785.5,819.2656 Q785.75,819.5156 785.75,819.875 Q785.75,820.2188 785.4063,820.625 Q784.9063,821.2188 784.1094,821.5469 Q783.0625,822 781.7813,822 Q780.2813,822 779.0781,821.4063 Q778.1094,820.9375 777.4219,819.9219 Q776.75,818.9063 776.75,817.7031 L776.75,816.6094 Q776.75,815.3594 777.3438,814.2656 Q777.9531,813.1719 779,812.5938 Q780.0625,812 781.25,812 Q781.9688,812 782.5938,812.25 Q783.2188,812.5 783.75,813 Z " fill="#000000"/><text fill="#000000" font-family="sans-serif" font-size="14" lengthAdjust="spacing" textLength="287" x="802.25" y="822.2285">CSVStatisticsExportToExternalSourceAdapter</text><line style="stroke:#181818;stroke-width:0.5;" x1="700.5" x2="1158.5" y1="832.5" y2="832.5"/><line style="stroke:#181818;stroke-width:0.5;" x1="700.5" x2="1158.5" y1="840.5" y2="840.5"/><ellipse cx="710.5" cy="851.5" fill="#84BE84" rx="3" ry="3" style="stroke:#038048;stroke-width:1.0;"/><text fill="#000000" font-family="sans-serif" font-size="14" lengthAdjust="spacing" textLength="434" x="719.5" y="859.0332">exportStatistics(listOfFullyVaccinatedUsersByDate,nameOfFile) : void</text></g><!--MD5=[fef719cadc2b7800a2d36e2d34a3eebe]
link ExportVaccinationStatisticsUI to ExportVaccinationStatisticsController--><g id="link_ExportVaccinationStatisticsUI_ExportVaccinationStatisticsController"><path codeLine="63" d="M309.5,90.21 C309.5,111.42 309.5,137.99 309.5,162.57 " fill="none" id="ExportVaccinationStatisticsUI-to-ExportVaccinationStatisticsController" style="stroke:#181818;stroke-width:1.0;stroke-dasharray:7.0,7.0;"/><polygon fill="#181818" points="309.5,167.78,313.5,158.78,309.5,162.78,305.5,158.78,309.5,167.78" style="stroke:#181818;stroke-width:1.0;"/><text fill="#000000" font-family="sans-serif" font-size="13" lengthAdjust="spacing" textLength="28" x="310.5" y="134.4951">uses</text></g><!--MD5=[e2561f6d5ee872122cbd51390dae307a]
link ExportVaccinationStatisticsController to Company--><g id="link_ExportVaccinationStatisticsController_Company"><path codeLine="66" d="M309.5,304.03 C309.5,327.44 309.5,353.62 309.5,376.71 " fill="none" id="ExportVaccinationStatisticsController-to-Company" style="stroke:#181818;stroke-width:1.0;stroke-dasharray:7.0,7.0;"/><polygon fill="#181818" points="309.5,381.89,313.5,372.89,309.5,376.89,305.5,372.89,309.5,381.89" style="stroke:#181818;stroke-width:1.0;"/><text fill="#000000" font-family="sans-serif" font-size="13" lengthAdjust="spacing" textLength="28" x="310.5" y="348.4951">uses</text></g><!--MD5=[30ef39b2ee092a2de45b8d9be2f78c33]
link Company to VaccineAdministrationStore--><g id="link_Company_VaccineAdministrationStore"><path codeLine="69" d="M309.5,500.28 C309.5,523.8 309.5,550.54 309.5,572.63 " fill="none" id="Company-to-VaccineAdministrationStore" style="stroke:#181818;stroke-width:1.0;"/><polygon fill="#181818" points="309.5,577.85,313.5,568.85,309.5,572.85,305.5,568.85,309.5,577.85" style="stroke:#181818;stroke-width:1.0;"/><text fill="#000000" font-family="sans-serif" font-size="13" lengthAdjust="spacing" textLength="28" x="310.5" y="544.4951">uses</text><text fill="#000000" font-family="sans-serif" font-size="13" lengthAdjust="spacing" textLength="7" x="302.0734" y="521.9696">1</text><text fill="#000000" font-family="sans-serif" font-size="13" lengthAdjust="spacing" textLength="7" x="301.9203" y="567.1328">1</text></g><!--MD5=[4d37f9c6e5f8ac9ca00d84f7f9887997]
link VaccineAdministrationStore to IExportStatisticsToExternalSource--><g id="link_VaccineAdministrationStore_IExportStatisticsToExternalSource"><path codeLine="71" d="M584.6,619.5 C621.16,619.5 658.37,619.5 694.17,619.5 " fill="none" id="VaccineAdministrationStore-to-IExportStatisticsToExternalSource" style="stroke:#181818;stroke-width:1.0;"/><polygon fill="#181818" points="699.44,619.5,690.44,615.5,694.44,619.5,690.44,623.5,699.44,619.5" style="stroke:#181818;stroke-width:1.0;"/><text fill="#000000" font-family="sans-serif" font-size="13" lengthAdjust="spacing" textLength="78" x="603" y="612.9951">makes use of</text><text fill="#000000" font-family="sans-serif" font-size="13" lengthAdjust="spacing" textLength="7" x="592.8709" y="616.7596">1</text><text fill="#000000" font-family="sans-serif" font-size="13" lengthAdjust="spacing" textLength="7" x="684.7763" y="616.7448">1</text></g><!--MD5=[ed389c7523bc925a69eb5d2b98a4a5f2]
link VaccineAdministrationStore to VaccineAdministration--><g id="link_VaccineAdministrationStore_VaccineAdministration"><path codeLine="73" d="M309.5,661.38 C309.5,682.02 309.5,708.04 309.5,733.52 " fill="none" id="VaccineAdministrationStore-to-VaccineAdministration" style="stroke:#181818;stroke-width:1.0;"/><polygon fill="#181818" points="309.5,738.61,313.5,729.61,309.5,733.61,305.5,729.61,309.5,738.61" style="stroke:#181818;stroke-width:1.0;"/><text fill="#000000" font-family="sans-serif" font-size="13" lengthAdjust="spacing" textLength="21" x="310.5" y="705.4951">has</text><text fill="#000000" font-family="sans-serif" font-size="13" lengthAdjust="spacing" textLength="7" x="301.9422" y="682.8353">1</text><text fill="#000000" font-family="sans-serif" font-size="13" lengthAdjust="spacing" textLength="5" x="304.3086" y="728.2458">*</text></g><!--MD5=[f4ce8b517524a1a94b99cc4d517405a4]
reverse link IExportStatisticsToExternalSource to CSVStatisticsExportToExternalSourceAdapter--><g id="link_IExportStatisticsToExternalSource_CSVStatisticsExportToExternalSourceAdapter"><path codeLine="75" d="M929.5,672.7 C929.5,712.66 929.5,766.49 929.5,800.35 " fill="none" id="IExportStatisticsToExternalSource-backto-CSVStatisticsExportToExternalSourceAdapter" style="stroke:#181818;stroke-width:1.0;stroke-dasharray:7.0,7.0;"/><polygon fill="none" points="922.5,672.7,929.5,652.7,936.5,672.7,922.5,672.7" style="stroke:#181818;stroke-width:1.0;"/><text fill="#000000" font-family="sans-serif" font-size="13" lengthAdjust="spacing" textLength="67" x="930.5" y="705.4951">implements</text><text fill="#000000" font-family="sans-serif" font-size="13" lengthAdjust="spacing" textLength="7" x="921.8766" y="673.6">1</text><text fill="#000000" font-family="sans-serif" font-size="13" lengthAdjust="spacing" textLength="7" x="921.7781" y="789.4345">1</text></g><!--MD5=[b1521ffd31e6f0c32c2914744a951200]
reverse link VaccineAdministration to state--><g id="link_VaccineAdministration_state"><path codeLine="77" d="M309.5,941.24 C309.5,964.69 309.5,987.79 309.5,1005.54 " fill="none" id="VaccineAdministration-backto-state" style="stroke:#181818;stroke-width:1.0;"/><polygon fill="none" points="309.5,928.21,305.5,934.21,309.5,940.21,313.5,934.21,309.5,928.21" style="stroke:#181818;stroke-width:1.0;"/><text fill="#000000" font-family="sans-serif" font-size="13" lengthAdjust="spacing" textLength="21" x="310.5" y="972.4951">has</text></g><!--MD5=[aa14bedb1f66a9fe566c8f9aa6e73cef]
@startuml
'left to right direction
'skinparam classAttributeIconSize 0
'hide empty members
'hide @unlinked

class ExportVaccinationStatisticsUI
{
-controller : ExportVaccinationStatisticsController
+run()
}

class ExportVaccinationStatisticsController
{
-company : Company
-vaccineAdministrationStore : VaccineAdministrationStore
-csvStatisticsExportToExternalSourceAdapter : CSVStatisticsExportToExternalSourceAdapter
+getListOfFullyVaccinatedUsersByDate(startDate,endDate) : List<VaccineTypes>
+printListOfUsers(listOfFullyVaccinatedUsersByDate,fileName)
}

class Company
{
-designation : String
-vaccineAdministrationStore : VaccineAdministrationStore
+getvaccineAdministrationStore() : VaccineAdministrationStore
+...()
}

class VaccineAdministrationStore
{
-vaccineAdministrationList : List<VaccineAdministration>
+getListFullyVaccinatedUsersBetweenDatesOfUserCenter(startDate, endDate) : void
}

class VaccineAdministration
{
-snsUserArrival : SnsUserArrival
-snsUser : SnsUserA
-vaccine : Vaccine
-doseNumber : int
-lotNumber : String
-administrationDate : LocalDateTime
-leavingDate : LocalDateTime
-vaccineAdministrationState : VaccineAdministrationState
}

Enum state
{
-State : String
}

interface IExportStatisticsToExternalSource
{
+exportStatistics(listOfFullyVaccinatedUsersByDate,nameOfFile) : void
}

class CSVStatisticsExportToExternalSourceAdapter
{
+exportStatistics(listOfFullyVaccinatedUsersByDate,nameOfFile) : void
}

'UI
ExportVaccinationStatisticsUI ..>  ExportVaccinationStatisticsController : uses

'Controller
ExportVaccinationStatisticsController ..> Company : uses

'Company
Company "1" - -> "1" VaccineAdministrationStore : uses

VaccineAdministrationStore "1" -> "1" IExportStatisticsToExternalSource: makes use of

VaccineAdministrationStore "1" - -> "*" VaccineAdministration : has

CSVStatisticsExportToExternalSourceAdapter "1" .u.|> "1" IExportStatisticsToExternalSource : implements

VaccineAdministration o- - state : has

@enduml

@startuml

class ExportVaccinationStatisticsUI
{
-controller : ExportVaccinationStatisticsController
+run()
}

class ExportVaccinationStatisticsController
{
-company : Company
-vaccineAdministrationStore : VaccineAdministrationStore
-csvStatisticsExportToExternalSourceAdapter : CSVStatisticsExportToExternalSourceAdapter
+getListOfFullyVaccinatedUsersByDate(startDate,endDate) : List<VaccineTypes>
+printListOfUsers(listOfFullyVaccinatedUsersByDate,fileName)
}

class Company
{
-designation : String
-vaccineAdministrationStore : VaccineAdministrationStore
+getvaccineAdministrationStore() : VaccineAdministrationStore
+...()
}

class VaccineAdministrationStore
{
-vaccineAdministrationList : List<VaccineAdministration>
+getListFullyVaccinatedUsersBetweenDatesOfUserCenter(startDate, endDate) : void
}

class VaccineAdministration
{
-snsUserArrival : SnsUserArrival
-snsUser : SnsUserA
-vaccine : Vaccine
-doseNumber : int
-lotNumber : String
-administrationDate : LocalDateTime
-leavingDate : LocalDateTime
-vaccineAdministrationState : VaccineAdministrationState
}

Enum state
{
-State : String
}

interface IExportStatisticsToExternalSource
{
+exportStatistics(listOfFullyVaccinatedUsersByDate,nameOfFile) : void
}

class CSVStatisticsExportToExternalSourceAdapter
{
+exportStatistics(listOfFullyVaccinatedUsersByDate,nameOfFile) : void
}

ExportVaccinationStatisticsUI ..>  ExportVaccinationStatisticsController : uses

ExportVaccinationStatisticsController ..> Company : uses

Company "1" - -> "1" VaccineAdministrationStore : uses

VaccineAdministrationStore "1" -> "1" IExportStatisticsToExternalSource: makes use of

VaccineAdministrationStore "1" - -> "*" VaccineAdministration : has

CSVStatisticsExportToExternalSourceAdapter "1" .u.|> "1" IExportStatisticsToExternalSource : implements

VaccineAdministration o- - state : has

@enduml

PlantUML version 1.2022.5(Sat Apr 30 11:55:52 BST 2022)
(GPL source distribution)
Java Runtime: OpenJDK Runtime Environment
JVM: OpenJDK 64-Bit Server VM
Default Encoding: Cp1252
Language: en
Country: GB
--></g></svg>