<?xml version="1.0" encoding="UTF-8" standalone="no"?><svg xmlns="http://www.w3.org/2000/svg" xmlns:xlink="http://www.w3.org/1999/xlink" contentStyleType="text/css" height="1354px" preserveAspectRatio="none" style="width:2356px;height:1354px;background:#FFFFFF;" version="1.1" viewBox="0 0 2356 1354" width="2356px" zoomAndPan="magnify"><defs/><g><rect fill="#FFFFFF" height="1171.2656" style="stroke:#181818;stroke-width:1.0;" width="10" x="44.5" y="92.6094"/><rect fill="#FFFFFF" height="181.4063" style="stroke:#181818;stroke-width:1.0;" width="10" x="511.5" y="114.9609"/><rect fill="#FFFFFF" height="30.3516" style="stroke:#181818;stroke-width:1.0;" width="10" x="511.5" y="326.7188"/><rect fill="#FFFFFF" height="151.2734" style="stroke:#181818;stroke-width:1.0;" width="10" x="511.5" y="387.4219"/><rect fill="#FFFFFF" height="685.8281" style="stroke:#181818;stroke-width:1.0;" width="10" x="511.5" y="569.0469"/><rect fill="#FFFFFF" height="120.7031" style="stroke:#181818;stroke-width:1.0;" width="10" x="1013.5" y="145.3125"/><rect fill="#FFFFFF" height="60.7031" style="stroke:#181818;stroke-width:1.0;" width="10" x="1013.5" y="417.7734"/><rect fill="#FFFFFF" height="618.125" style="stroke:#181818;stroke-width:1.0;" width="10" x="1013.5" y="599.3984"/><rect fill="#FFFFFF" height="30" style="stroke:#181818;stroke-width:1.0;" width="10" x="1232.5" y="175.6641"/><rect fill="#FFFFFF" height="30" style="stroke:#181818;stroke-width:1.0;" width="10" x="1555.5" y="236.0156"/><rect fill="#FFFFFF" height="30.3516" style="stroke:#181818;stroke-width:1.0;" width="10" x="1555.5" y="448.125"/><rect fill="#FFFFFF" height="587.7734" style="stroke:#181818;stroke-width:1.0;" width="10" x="1555.5" y="629.75"/><rect fill="#FFFFFF" height="65.3516" style="stroke:#181818;stroke-width:1.0;" width="10" x="1560.5" y="668.1016"/><rect fill="#FFFFFF" height="28" style="stroke:#181818;stroke-width:1.0;" width="10" x="1560.5" y="1116.1719"/><rect fill="#FFFFFF" height="28" style="stroke:#181818;stroke-width:1.0;" width="10" x="1560.5" y="1189.5234"/><rect fill="#FFFFFF" height="30" style="stroke:#181818;stroke-width:1.0;" width="10" x="2046.5" y="866.7656"/><rect fill="#FFFFFF" height="30" style="stroke:#181818;stroke-width:1.0;" width="10" x="2046.5" y="927.1172"/><rect fill="#FFFFFF" height="30" style="stroke:#181818;stroke-width:1.0;" width="10" x="2046.5" y="987.4688"/><rect fill="#FFFFFF" height="30" style="stroke:#181818;stroke-width:1.0;" width="10" x="2168.5" y="806.4141"/><rect fill="#FFFFFF" height="30" style="stroke:#181818;stroke-width:1.0;" width="10" x="2298" y="703.4531"/><rect fill="#FFFFFF" height="30" style="stroke:#181818;stroke-width:1.0;" width="10" x="2298" y="1047.8203"/><line style="stroke:#181818;stroke-width:0.5;stroke-dasharray:5.0,5.0;" x1="49" x2="49" y1="82.6094" y2="1272.875"/><line style="stroke:#181818;stroke-width:0.5;stroke-dasharray:5.0,5.0;" x1="516" x2="516" y1="82.6094" y2="1272.875"/><line style="stroke:#181818;stroke-width:0.5;stroke-dasharray:5.0,5.0;" x1="1018" x2="1018" y1="82.6094" y2="1272.875"/><line style="stroke:#181818;stroke-width:0.5;stroke-dasharray:5.0,5.0;" x1="1237.5" x2="1237.5" y1="82.6094" y2="1272.875"/><line style="stroke:#181818;stroke-width:0.5;stroke-dasharray:5.0,5.0;" x1="1560.5" x2="1560.5" y1="82.6094" y2="1272.875"/><line style="stroke:#181818;stroke-width:0.5;stroke-dasharray:5.0,5.0;" x1="2051.5" x2="2051.5" y1="496.2344" y2="1272.875"/><line style="stroke:#181818;stroke-width:0.5;stroke-dasharray:5.0,5.0;" x1="2173.5" x2="2173.5" y1="772.7578" y2="1272.875"/><line style="stroke:#181818;stroke-width:0.5;stroke-dasharray:5.0,5.0;" x1="2302.5" x2="2302.5" y1="82.6094" y2="1272.875"/><text fill="#000000" font-family="sans-serif" font-size="14" lengthAdjust="spacing" textLength="83" x="5" y="79.5332">Administrator</text><ellipse cx="49.5" cy="13.5" fill="#E2E2F0" rx="8" ry="8" style="stroke:#181818;stroke-width:0.5;"/><path d="M49.5,21.5 L49.5,48.5 M36.5,29.5 L62.5,29.5 M49.5,48.5 L36.5,63.5 M49.5,48.5 L62.5,63.5 " fill="none" style="stroke:#181818;stroke-width:0.5;"/><text fill="#000000" font-family="sans-serif" font-size="14" lengthAdjust="spacing" textLength="83" x="5" y="1286.4082">Administrator</text><ellipse cx="49.5" cy="1297.9844" fill="#E2E2F0" rx="8" ry="8" style="stroke:#181818;stroke-width:0.5;"/><path d="M49.5,1305.9844 L49.5,1332.9844 M36.5,1313.9844 L62.5,1313.9844 M49.5,1332.9844 L36.5,1347.9844 M49.5,1332.9844 L62.5,1347.9844 " fill="none" style="stroke:#181818;stroke-width:0.5;"/><rect fill="#E2E2F0" height="31.6094" rx="2.5" ry="2.5" style="stroke:#181818;stroke-width:0.5;" width="145" x="444" y="50"/><text fill="#000000" font-family="sans-serif" font-size="14" lengthAdjust="spacing" textLength="131" x="451" y="71.5332">:RegisterEmployeeUI</text><rect fill="#E2E2F0" height="31.6094" rx="2.5" ry="2.5" style="stroke:#181818;stroke-width:0.5;" width="145" x="444" y="1271.875"/><text fill="#000000" font-family="sans-serif" font-size="14" lengthAdjust="spacing" textLength="131" x="451" y="1293.4082">:RegisterEmployeeUI</text><rect fill="#E2E2F0" height="31.6094" rx="2.5" ry="2.5" style="stroke:#181818;stroke-width:0.5;" width="195" x="921" y="50"/><text fill="#000000" font-family="sans-serif" font-size="14" lengthAdjust="spacing" textLength="181" x="928" y="71.5332">:RegisterEmployeeController</text><rect fill="#E2E2F0" height="31.6094" rx="2.5" ry="2.5" style="stroke:#181818;stroke-width:0.5;" width="195" x="921" y="1271.875"/><text fill="#000000" font-family="sans-serif" font-size="14" lengthAdjust="spacing" textLength="181" x="928" y="1293.4082">:RegisterEmployeeController</text><rect fill="#E2E2F0" height="31.6094" rx="2.5" ry="2.5" style="stroke:#181818;stroke-width:0.5;" width="78" x="1198.5" y="50"/><text fill="#000000" font-family="sans-serif" font-size="14" lengthAdjust="spacing" textLength="64" x="1205.5" y="71.5332">:Company</text><rect fill="#E2E2F0" height="31.6094" rx="2.5" ry="2.5" style="stroke:#181818;stroke-width:0.5;" width="78" x="1198.5" y="1271.875"/><text fill="#000000" font-family="sans-serif" font-size="14" lengthAdjust="spacing" textLength="64" x="1205.5" y="1293.4082">:Company</text><rect fill="#E2E2F0" height="49.2188" rx="2.5" ry="2.5" style="stroke:#181818;stroke-width:0.5;" width="114" x="1503.5" y="32.3906"/><text fill="#000000" font-family="sans-serif" font-size="14" lengthAdjust="spacing" textLength="61" x="1530" y="53.9238">empStore</text><text fill="#000000" font-family="sans-serif" font-size="14" lengthAdjust="spacing" textLength="100" x="1510.5" y="71.5332">:EmployeeStore</text><rect fill="#E2E2F0" height="49.2188" rx="2.5" ry="2.5" style="stroke:#181818;stroke-width:0.5;" width="114" x="1503.5" y="1271.875"/><text fill="#000000" font-family="sans-serif" font-size="14" lengthAdjust="spacing" textLength="61" x="1530" y="1293.4082">empStore</text><text fill="#000000" font-family="sans-serif" font-size="14" lengthAdjust="spacing" textLength="100" x="1510.5" y="1311.0176">:EmployeeStore</text><rect fill="#E2E2F0" height="49.2188" rx="2.5" ry="2.5" style="stroke:#181818;stroke-width:0.5;" width="80" x="2011.5" y="1271.875"/><text fill="#000000" font-family="sans-serif" font-size="14" lengthAdjust="spacing" textLength="27" x="2038" y="1293.4082">emp</text><text fill="#000000" font-family="sans-serif" font-size="14" lengthAdjust="spacing" textLength="66" x="2018.5" y="1311.0176">:Employee</text><rect fill="#E2E2F0" height="31.6094" rx="2.5" ry="2.5" style="stroke:#181818;stroke-width:0.5;" width="144" x="2101.5" y="1271.875"/><text fill="#000000" font-family="sans-serif" font-size="14" lengthAdjust="spacing" textLength="130" x="2108.5" y="1293.4082">:PasswordGenerator</text><rect fill="#E2E2F0" height="31.6094" rx="2.5" ry="2.5" style="stroke:#181818;stroke-width:0.5;" width="95" x="2255.5" y="50"/><text fill="#000000" font-family="sans-serif" font-size="14" lengthAdjust="spacing" textLength="81" x="2262.5" y="71.5332">:AuthFacade</text><rect fill="#E2E2F0" height="31.6094" rx="2.5" ry="2.5" style="stroke:#181818;stroke-width:0.5;" width="95" x="2255.5" y="1271.875"/><text fill="#000000" font-family="sans-serif" font-size="14" lengthAdjust="spacing" textLength="81" x="2262.5" y="1293.4082">:AuthFacade</text><rect fill="#FFFFFF" height="1171.2656" style="stroke:#181818;stroke-width:1.0;" width="10" x="44.5" y="92.6094"/><rect fill="#FFFFFF" height="181.4063" style="stroke:#181818;stroke-width:1.0;" width="10" x="511.5" y="114.9609"/><rect fill="#FFFFFF" height="30.3516" style="stroke:#181818;stroke-width:1.0;" width="10" x="511.5" y="326.7188"/><rect fill="#FFFFFF" height="151.2734" style="stroke:#181818;stroke-width:1.0;" width="10" x="511.5" y="387.4219"/><rect fill="#FFFFFF" height="685.8281" style="stroke:#181818;stroke-width:1.0;" width="10" x="511.5" y="569.0469"/><rect fill="#FFFFFF" height="120.7031" style="stroke:#181818;stroke-width:1.0;" width="10" x="1013.5" y="145.3125"/><rect fill="#FFFFFF" height="60.7031" style="stroke:#181818;stroke-width:1.0;" width="10" x="1013.5" y="417.7734"/><rect fill="#FFFFFF" height="618.125" style="stroke:#181818;stroke-width:1.0;" width="10" x="1013.5" y="599.3984"/><rect fill="#FFFFFF" height="30" style="stroke:#181818;stroke-width:1.0;" width="10" x="1232.5" y="175.6641"/><rect fill="#FFFFFF" height="30" style="stroke:#181818;stroke-width:1.0;" width="10" x="1555.5" y="236.0156"/><rect fill="#FFFFFF" height="30.3516" style="stroke:#181818;stroke-width:1.0;" width="10" x="1555.5" y="448.125"/><rect fill="#FFFFFF" height="587.7734" style="stroke:#181818;stroke-width:1.0;" width="10" x="1555.5" y="629.75"/><rect fill="#FFFFFF" height="65.3516" style="stroke:#181818;stroke-width:1.0;" width="10" x="1560.5" y="668.1016"/><rect fill="#FFFFFF" height="28" style="stroke:#181818;stroke-width:1.0;" width="10" x="1560.5" y="1116.1719"/><rect fill="#FFFFFF" height="28" style="stroke:#181818;stroke-width:1.0;" width="10" x="1560.5" y="1189.5234"/><rect fill="#FFFFFF" height="30" style="stroke:#181818;stroke-width:1.0;" width="10" x="2046.5" y="866.7656"/><rect fill="#FFFFFF" height="30" style="stroke:#181818;stroke-width:1.0;" width="10" x="2046.5" y="927.1172"/><rect fill="#FFFFFF" height="30" style="stroke:#181818;stroke-width:1.0;" width="10" x="2046.5" y="987.4688"/><rect fill="#FFFFFF" height="30" style="stroke:#181818;stroke-width:1.0;" width="10" x="2168.5" y="806.4141"/><rect fill="#FFFFFF" height="30" style="stroke:#181818;stroke-width:1.0;" width="10" x="2298" y="703.4531"/><rect fill="#FFFFFF" height="30" style="stroke:#181818;stroke-width:1.0;" width="10" x="2298" y="1047.8203"/><polygon fill="#181818" points="499.5,110.9609,509.5,114.9609,499.5,118.9609,503.5,114.9609" style="stroke:#181818;stroke-width:1.0;"/><line style="stroke:#181818;stroke-width:1.0;" x1="54.5" x2="505.5" y1="114.9609" y2="114.9609"/><text fill="#000000" font-family="sans-serif" font-size="13" font-weight="bold" lengthAdjust="spacing" textLength="7" x="61.5" y="110.1045">1</text><text fill="#000000" font-family="sans-serif" font-size="13" lengthAdjust="spacing" textLength="195" x="72.5" y="110.1045">starts registering a new employee</text><polygon fill="#181818" points="1001.5,141.3125,1011.5,145.3125,1001.5,149.3125,1005.5,145.3125" style="stroke:#181818;stroke-width:1.0;"/><line style="stroke:#181818;stroke-width:1.0;" x1="521.5" x2="1007.5" y1="145.3125" y2="145.3125"/><text fill="#000000" font-family="sans-serif" font-size="13" font-weight="bold" lengthAdjust="spacing" textLength="7" x="528.5" y="140.4561">2</text><text fill="#000000" font-family="sans-serif" font-size="13" lengthAdjust="spacing" textLength="73" x="539.5" y="140.4561">getRoleList()</text><polygon fill="#181818" points="1220.5,171.6641,1230.5,175.6641,1220.5,179.6641,1224.5,175.6641" style="stroke:#181818;stroke-width:1.0;"/><line style="stroke:#181818;stroke-width:1.0;" x1="1023.5" x2="1226.5" y1="175.6641" y2="175.6641"/><text fill="#000000" font-family="sans-serif" font-size="13" font-weight="bold" lengthAdjust="spacing" textLength="7" x="1030.5" y="170.8076">3</text><text fill="#000000" font-family="sans-serif" font-size="13" lengthAdjust="spacing" textLength="179" x="1041.5" y="170.8076">empStore=getEmployeeStore()</text><polygon fill="#181818" points="1543.5,232.0156,1553.5,236.0156,1543.5,240.0156,1547.5,236.0156" style="stroke:#181818;stroke-width:1.0;"/><line style="stroke:#181818;stroke-width:1.0;" x1="1023.5" x2="1549.5" y1="236.0156" y2="236.0156"/><text fill="#000000" font-family="sans-serif" font-size="13" font-weight="bold" lengthAdjust="spacing" textLength="7" x="1030.5" y="231.1592">4</text><text fill="#000000" font-family="sans-serif" font-size="13" lengthAdjust="spacing" textLength="131" x="1041.5" y="231.1592">roleList = getRoleList()</text><polygon fill="#181818" points="65.5,292.3672,55.5,296.3672,65.5,300.3672,61.5,296.3672" style="stroke:#181818;stroke-width:1.0;"/><line style="stroke:#181818;stroke-width:1.0;stroke-dasharray:2.0,2.0;" x1="59.5" x2="515.5" y1="296.3672" y2="296.3672"/><text fill="#000000" font-family="sans-serif" font-size="13" font-weight="bold" lengthAdjust="spacing" textLength="7" x="71.5" y="291.5107">5</text><text fill="#000000" font-family="sans-serif" font-size="13" lengthAdjust="spacing" textLength="332" x="82.5" y="291.5107">shows list of employee roles and requests selection (role)</text><polygon fill="#181818" points="499.5,322.7188,509.5,326.7188,499.5,330.7188,503.5,326.7188" style="stroke:#181818;stroke-width:1.0;"/><line style="stroke:#181818;stroke-width:1.0;" x1="54.5" x2="505.5" y1="326.7188" y2="326.7188"/><text fill="#000000" font-family="sans-serif" font-size="13" font-weight="bold" lengthAdjust="spacing" textLength="7" x="61.5" y="321.8623">6</text><text fill="#000000" font-family="sans-serif" font-size="13" lengthAdjust="spacing" textLength="145" x="72.5" y="321.8623">selects an employee role</text><polygon fill="#181818" points="65.5,353.0703,55.5,357.0703,65.5,361.0703,61.5,357.0703" style="stroke:#181818;stroke-width:1.0;"/><line style="stroke:#181818;stroke-width:1.0;stroke-dasharray:2.0,2.0;" x1="59.5" x2="515.5" y1="357.0703" y2="357.0703"/><text fill="#000000" font-family="sans-serif" font-size="13" font-weight="bold" lengthAdjust="spacing" textLength="7" x="71.5" y="352.2139">7</text><text fill="#000000" font-family="sans-serif" font-size="13" lengthAdjust="spacing" textLength="422" x="82.5" y="352.2139">requests data (name, address, phoneNumber, email, citizenCardNumber)</text><polygon fill="#181818" points="499.5,383.4219,509.5,387.4219,499.5,391.4219,503.5,387.4219" style="stroke:#181818;stroke-width:1.0;"/><line style="stroke:#181818;stroke-width:1.0;" x1="54.5" x2="505.5" y1="387.4219" y2="387.4219"/><text fill="#000000" font-family="sans-serif" font-size="13" font-weight="bold" lengthAdjust="spacing" textLength="7" x="61.5" y="382.5654">8</text><text fill="#000000" font-family="sans-serif" font-size="13" lengthAdjust="spacing" textLength="122" x="72.5" y="382.5654">types requested data</text><polygon fill="#181818" points="1001.5,413.7734,1011.5,417.7734,1001.5,421.7734,1005.5,417.7734" style="stroke:#181818;stroke-width:1.0;"/><line style="stroke:#181818;stroke-width:1.0;" x1="521.5" x2="1007.5" y1="417.7734" y2="417.7734"/><text fill="#000000" font-family="sans-serif" font-size="13" font-weight="bold" lengthAdjust="spacing" textLength="7" x="528.5" y="412.917">9</text><text fill="#000000" font-family="sans-serif" font-size="13" lengthAdjust="spacing" textLength="462" x="539.5" y="412.917">createEmployee(name, address, phoneNumber, email, citizenCardNumber, role)</text><polygon fill="#181818" points="1543.5,444.125,1553.5,448.125,1543.5,452.125,1547.5,448.125" style="stroke:#181818;stroke-width:1.0;"/><line style="stroke:#181818;stroke-width:1.0;" x1="1023.5" x2="1549.5" y1="448.125" y2="448.125"/><text fill="#000000" font-family="sans-serif" font-size="13" font-weight="bold" lengthAdjust="spacing" textLength="14" x="1030.5" y="443.2686">10</text><text fill="#000000" font-family="sans-serif" font-size="13" lengthAdjust="spacing" textLength="495" x="1048.5" y="443.2686">emp=createEmployee(name, address, phoneNumber, email, citizenCardNumber, role)</text><polygon fill="#181818" points="1999.5,474.4766,2009.5,478.4766,1999.5,482.4766,2003.5,478.4766" style="stroke:#181818;stroke-width:1.0;"/><line style="stroke:#181818;stroke-width:1.0;stroke-dasharray:2.0,2.0;" x1="1560.5" x2="2005.5" y1="478.4766" y2="478.4766"/><text fill="#000000" font-family="sans-serif" font-size="13" font-weight="bold" lengthAdjust="spacing" textLength="14" x="1567.5" y="473.6201">11</text><text fill="#000000" font-family="sans-serif" font-size="13" lengthAdjust="spacing" textLength="404" x="1585.5" y="473.6201">create(name, address, phoneNumber, email, citizenCardNumber, role)</text><rect fill="#E2E2F0" height="49.2188" rx="2.5" ry="2.5" style="stroke:#181818;stroke-width:0.5;" width="80" x="2011.5" y="456.125"/><text fill="#000000" font-family="sans-serif" font-size="14" lengthAdjust="spacing" textLength="27" x="2038" y="477.6582">emp</text><text fill="#000000" font-family="sans-serif" font-size="14" lengthAdjust="spacing" textLength="66" x="2018.5" y="495.2676">:Employee</text><polygon fill="#181818" points="65.5,534.6953,55.5,538.6953,65.5,542.6953,61.5,538.6953" style="stroke:#181818;stroke-width:1.0;"/><line style="stroke:#181818;stroke-width:1.0;stroke-dasharray:2.0,2.0;" x1="59.5" x2="515.5" y1="538.6953" y2="538.6953"/><text fill="#000000" font-family="sans-serif" font-size="13" font-weight="bold" lengthAdjust="spacing" textLength="14" x="71.5" y="533.8389">12</text><text fill="#000000" font-family="sans-serif" font-size="13" lengthAdjust="spacing" textLength="236" x="89.5" y="533.8389">shows all data and requests confirmation</text><polygon fill="#181818" points="499.5,565.0469,509.5,569.0469,499.5,573.0469,503.5,569.0469" style="stroke:#181818;stroke-width:1.0;"/><line style="stroke:#181818;stroke-width:1.0;" x1="54.5" x2="505.5" y1="569.0469" y2="569.0469"/><text fill="#000000" font-family="sans-serif" font-size="13" font-weight="bold" lengthAdjust="spacing" textLength="14" x="61.5" y="564.1904">13</text><text fill="#000000" font-family="sans-serif" font-size="13" lengthAdjust="spacing" textLength="100" x="79.5" y="564.1904">confirms the data</text><polygon fill="#181818" points="1001.5,595.3984,1011.5,599.3984,1001.5,603.3984,1005.5,599.3984" style="stroke:#181818;stroke-width:1.0;"/><line style="stroke:#181818;stroke-width:1.0;" x1="521.5" x2="1007.5" y1="599.3984" y2="599.3984"/><text fill="#000000" font-family="sans-serif" font-size="13" font-weight="bold" lengthAdjust="spacing" textLength="14" x="528.5" y="594.542">14</text><text fill="#000000" font-family="sans-serif" font-size="13" lengthAdjust="spacing" textLength="92" x="546.5" y="594.542">saveEmployee()</text><polygon fill="#181818" points="1543.5,625.75,1553.5,629.75,1543.5,633.75,1547.5,629.75" style="stroke:#181818;stroke-width:1.0;"/><line style="stroke:#181818;stroke-width:1.0;" x1="1023.5" x2="1549.5" y1="629.75" y2="629.75"/><text fill="#000000" font-family="sans-serif" font-size="13" font-weight="bold" lengthAdjust="spacing" textLength="14" x="1030.5" y="624.8936">15</text><text fill="#000000" font-family="sans-serif" font-size="13" lengthAdjust="spacing" textLength="117" x="1048.5" y="624.8936">saveEmployee(emp)</text><line style="stroke:#181818;stroke-width:1.0;" x1="1565.5" x2="1612.5" y1="655.1016" y2="655.1016"/><line style="stroke:#181818;stroke-width:1.0;" x1="1612.5" x2="1612.5" y1="655.1016" y2="668.1016"/><line style="stroke:#181818;stroke-width:1.0;" x1="1571.5" x2="1612.5" y1="668.1016" y2="668.1016"/><polygon fill="#181818" points="1581.5,664.1016,1571.5,668.1016,1581.5,672.1016,1577.5,668.1016" style="stroke:#181818;stroke-width:1.0;"/><text fill="#000000" font-family="sans-serif" font-size="13" font-weight="bold" lengthAdjust="spacing" textLength="14" x="1577.5" y="650.2451">16</text><text fill="#000000" font-family="sans-serif" font-size="13" lengthAdjust="spacing" textLength="134" x="1595.5" y="650.2451">validateEmployee(emp)</text><polygon fill="#181818" points="2286,699.4531,2296,703.4531,2286,707.4531,2290,703.4531" style="stroke:#181818;stroke-width:1.0;"/><line style="stroke:#181818;stroke-width:1.0;" x1="1570.5" x2="2292" y1="703.4531" y2="703.4531"/><text fill="#000000" font-family="sans-serif" font-size="13" font-weight="bold" lengthAdjust="spacing" textLength="14" x="1577.5" y="698.5967">17</text><text fill="#000000" font-family="sans-serif" font-size="13" lengthAdjust="spacing" textLength="124" x="1595.5" y="698.5967">s = existsUser(email)</text><polygon fill="#181818" points="2089.5,759.8047,2099.5,763.8047,2089.5,767.8047,2093.5,763.8047" style="stroke:#181818;stroke-width:1.0;"/><line style="stroke:#181818;stroke-width:1.0;stroke-dasharray:2.0,2.0;" x1="1565.5" x2="2095.5" y1="763.8047" y2="763.8047"/><text fill="#000000" font-family="sans-serif" font-size="13" font-weight="bold" lengthAdjust="spacing" textLength="14" x="1572.5" y="758.9482">18</text><text fill="#000000" font-family="sans-serif" font-size="13" lengthAdjust="spacing" textLength="44" x="1590.5" y="758.9482">create()</text><rect fill="#E2E2F0" height="31.6094" rx="2.5" ry="2.5" style="stroke:#181818;stroke-width:0.5;" width="144" x="2101.5" y="741.4531"/><text fill="#000000" font-family="sans-serif" font-size="14" lengthAdjust="spacing" textLength="130" x="2108.5" y="762.9863">:PasswordGenerator</text><polygon fill="#181818" points="2156.5,802.4141,2166.5,806.4141,2156.5,810.4141,2160.5,806.4141" style="stroke:#181818;stroke-width:1.0;"/><line style="stroke:#181818;stroke-width:1.0;" x1="1565.5" x2="2162.5" y1="806.4141" y2="806.4141"/><text fill="#000000" font-family="sans-serif" font-size="13" font-weight="bold" lengthAdjust="spacing" textLength="14" x="1572.5" y="801.5576">19</text><text fill="#000000" font-family="sans-serif" font-size="13" lengthAdjust="spacing" textLength="154" x="1590.5" y="801.5576">pwd = generatePassword()</text><polygon fill="#181818" points="2034.5,862.7656,2044.5,866.7656,2034.5,870.7656,2038.5,866.7656" style="stroke:#181818;stroke-width:1.0;"/><line style="stroke:#181818;stroke-width:1.0;" x1="1565.5" x2="2040.5" y1="866.7656" y2="866.7656"/><text fill="#000000" font-family="sans-serif" font-size="13" font-weight="bold" lengthAdjust="spacing" textLength="14" x="1572.5" y="861.9092">20</text><text fill="#000000" font-family="sans-serif" font-size="13" lengthAdjust="spacing" textLength="108" x="1590.5" y="861.9092">name = getName()</text><polygon fill="#181818" points="2034.5,923.1172,2044.5,927.1172,2034.5,931.1172,2038.5,927.1172" style="stroke:#181818;stroke-width:1.0;"/><line style="stroke:#181818;stroke-width:1.0;" x1="1565.5" x2="2040.5" y1="927.1172" y2="927.1172"/><text fill="#000000" font-family="sans-serif" font-size="13" font-weight="bold" lengthAdjust="spacing" textLength="14" x="1572.5" y="922.2607">21</text><text fill="#000000" font-family="sans-serif" font-size="13" lengthAdjust="spacing" textLength="106" x="1590.5" y="922.2607">email = getEmail()</text><polygon fill="#181818" points="2034.5,983.4688,2044.5,987.4688,2034.5,991.4688,2038.5,987.4688" style="stroke:#181818;stroke-width:1.0;"/><line style="stroke:#181818;stroke-width:1.0;" x1="1565.5" x2="2040.5" y1="987.4688" y2="987.4688"/><text fill="#000000" font-family="sans-serif" font-size="13" font-weight="bold" lengthAdjust="spacing" textLength="14" x="1572.5" y="982.6123">22</text><text fill="#000000" font-family="sans-serif" font-size="13" lengthAdjust="spacing" textLength="89" x="1590.5" y="982.6123">role = getRole()</text><polygon fill="#181818" points="2286,1043.8203,2296,1047.8203,2286,1051.8203,2290,1047.8203" style="stroke:#181818;stroke-width:1.0;"/><line style="stroke:#181818;stroke-width:1.0;" x1="1565.5" x2="2292" y1="1047.8203" y2="1047.8203"/><text fill="#000000" font-family="sans-serif" font-size="13" font-weight="bold" lengthAdjust="spacing" textLength="14" x="1572.5" y="1042.9639">23</text><text fill="#000000" font-family="sans-serif" font-size="13" lengthAdjust="spacing" textLength="263" x="1590.5" y="1042.9639">s = addUserWithRole(name, email, pwd, role)</text><line style="stroke:#181818;stroke-width:1.0;" x1="1570.5" x2="1612.5" y1="1108.1719" y2="1108.1719"/><line style="stroke:#181818;stroke-width:1.0;" x1="1612.5" x2="1612.5" y1="1108.1719" y2="1121.1719"/><line style="stroke:#181818;stroke-width:1.0;" x1="1571.5" x2="1612.5" y1="1121.1719" y2="1121.1719"/><polygon fill="#181818" points="1581.5,1117.1719,1571.5,1121.1719,1581.5,1125.1719,1577.5,1121.1719" style="stroke:#181818;stroke-width:1.0;"/><text fill="#000000" font-family="sans-serif" font-size="13" font-weight="bold" lengthAdjust="spacing" textLength="14" x="1577.5" y="1103.3154">24</text><text fill="#000000" font-family="sans-serif" font-size="13" lengthAdjust="spacing" textLength="112" x="1595.5" y="1103.3154">addEmployee(emp)</text><line style="stroke:#181818;stroke-width:1.0;" x1="1570.5" x2="1612.5" y1="1181.5234" y2="1181.5234"/><line style="stroke:#181818;stroke-width:1.0;" x1="1612.5" x2="1612.5" y1="1181.5234" y2="1194.5234"/><line style="stroke:#181818;stroke-width:1.0;" x1="1571.5" x2="1612.5" y1="1194.5234" y2="1194.5234"/><polygon fill="#181818" points="1581.5,1190.5234,1571.5,1194.5234,1581.5,1198.5234,1577.5,1194.5234" style="stroke:#181818;stroke-width:1.0;"/><text fill="#000000" font-family="sans-serif" font-size="13" font-weight="bold" lengthAdjust="spacing" textLength="14" x="1577.5" y="1176.667">25</text><text fill="#000000" font-family="sans-serif" font-size="13" lengthAdjust="spacing" textLength="125" x="1595.5" y="1176.667">sendEmail(emp, pwd)</text><polygon fill="#181818" points="65.5,1250.875,55.5,1254.875,65.5,1258.875,61.5,1254.875" style="stroke:#181818;stroke-width:1.0;"/><line style="stroke:#181818;stroke-width:1.0;stroke-dasharray:2.0,2.0;" x1="59.5" x2="515.5" y1="1254.875" y2="1254.875"/><text fill="#000000" font-family="sans-serif" font-size="13" font-weight="bold" lengthAdjust="spacing" textLength="14" x="71.5" y="1250.0186">26</text><text fill="#000000" font-family="sans-serif" font-size="13" lengthAdjust="spacing" textLength="152" x="89.5" y="1250.0186">informs operation success</text><!--MD5=[54059c167609f49a593caadc83251816]
@startuml
autonumber
scale 1
actor Administrator as ADMIN

participant ":RegisterEmployeeUI" as UI
participant ":RegisterEmployeeController" as CTRL
participant ":Company" as COMPANY
participant "empStore\n:EmployeeStore" as ESTORE
participant "emp\n:Employee" as EMP
participant ":PasswordGenerator" as PWD
participant ":AuthFacade" as AUTH

'1
activate ADMIN
ADMIN -> UI : starts registering a new employee

'2
activate UI
UI -> CTRL : getRoleList()

'3
activate CTRL
CTRL -> COMPANY : empStore=getEmployeeStore()
activate COMPANY
deactivate COMPANY

'4
CTRL -> ESTORE : roleList = getRoleList()
activate ESTORE
deactivate ESTORE
deactivate CTRL

'5
UI - -> ADMIN: shows list of employee roles and requests selection (role)
deactivate UI

'6
ADMIN -> UI : selects an employee role

'7
activate UI
UI - -> ADMIN : requests data (name, address, phoneNumber, email, citizenCardNumber)
deactivate UI

'8
ADMIN -> UI : types requested data

'9
activate UI
UI -> CTRL : createEmployee(name, address, phoneNumber, email, citizenCardNumber, role)

'10
activate CTRL
CTRL -> ESTORE : emp=createEmployee(name, address, phoneNumber, email, citizenCardNumber, role)

'11
activate ESTORE
ESTORE - -> EMP** : create(name, address, phoneNumber, email, citizenCardNumber, role)
deactivate ESTORE
deactivate CTRL

'12
UI - -> ADMIN : shows all data and requests confirmation
deactivate UI

'13
ADMIN -> UI : confirms the data

'14
activate UI
UI -> CTRL : saveEmployee()

'15
activate CTRL
CTRL -> ESTORE : saveEmployee(emp)

'16
activate ESTORE
ESTORE -> ESTORE : validateEmployee(emp)

'17
activate ESTORE
ESTORE -> AUTH : s = existsUser(email)
activate AUTH
deactivate AUTH
deactivate ESTORE

'18
ESTORE - -> PWD** : create()
ESTORE -> PWD : pwd = generatePassword()
activate PWD
deactivate PWD

'19
ESTORE -> EMP : name = getName()
activate EMP
deactivate EMP

'20
ESTORE -> EMP : email = getEmail()
activate EMP
deactivate EMP

'21
ESTORE -> EMP : role = getRole()
activate EMP
deactivate EMP

'22
ESTORE -> AUTH : s = addUserWithRole(name, email, pwd, role)
activate AUTH
deactivate AUTH

'23
ESTORE -> ESTORE : addEmployee(emp)
activate ESTORE
deactivate ESTORE

'24
ESTORE -> ESTORE : sendEmail(emp, pwd)
activate ESTORE
deactivate ESTORE
deactivate ESTORE
deactivate CTRL

'25
UI - -> ADMIN : informs operation success
deactivate UI

@enduml

@startuml
autonumber
scale 1
actor Administrator as ADMIN

participant ":RegisterEmployeeUI" as UI
participant ":RegisterEmployeeController" as CTRL
participant ":Company" as COMPANY
participant "empStore\n:EmployeeStore" as ESTORE
participant "emp\n:Employee" as EMP
participant ":PasswordGenerator" as PWD
participant ":AuthFacade" as AUTH

activate ADMIN
ADMIN -> UI : starts registering a new employee

activate UI
UI -> CTRL : getRoleList()

activate CTRL
CTRL -> COMPANY : empStore=getEmployeeStore()
activate COMPANY
deactivate COMPANY

CTRL -> ESTORE : roleList = getRoleList()
activate ESTORE
deactivate ESTORE
deactivate CTRL

UI - -> ADMIN: shows list of employee roles and requests selection (role)
deactivate UI

ADMIN -> UI : selects an employee role

activate UI
UI - -> ADMIN : requests data (name, address, phoneNumber, email, citizenCardNumber)
deactivate UI

ADMIN -> UI : types requested data

activate UI
UI -> CTRL : createEmployee(name, address, phoneNumber, email, citizenCardNumber, role)

activate CTRL
CTRL -> ESTORE : emp=createEmployee(name, address, phoneNumber, email, citizenCardNumber, role)

activate ESTORE
ESTORE - -> EMP** : create(name, address, phoneNumber, email, citizenCardNumber, role)
deactivate ESTORE
deactivate CTRL

UI - -> ADMIN : shows all data and requests confirmation
deactivate UI

ADMIN -> UI : confirms the data

activate UI
UI -> CTRL : saveEmployee()

activate CTRL
CTRL -> ESTORE : saveEmployee(emp)

activate ESTORE
ESTORE -> ESTORE : validateEmployee(emp)

activate ESTORE
ESTORE -> AUTH : s = existsUser(email)
activate AUTH
deactivate AUTH
deactivate ESTORE

ESTORE - -> PWD** : create()
ESTORE -> PWD : pwd = generatePassword()
activate PWD
deactivate PWD

ESTORE -> EMP : name = getName()
activate EMP
deactivate EMP

ESTORE -> EMP : email = getEmail()
activate EMP
deactivate EMP

ESTORE -> EMP : role = getRole()
activate EMP
deactivate EMP

ESTORE -> AUTH : s = addUserWithRole(name, email, pwd, role)
activate AUTH
deactivate AUTH

ESTORE -> ESTORE : addEmployee(emp)
activate ESTORE
deactivate ESTORE

ESTORE -> ESTORE : sendEmail(emp, pwd)
activate ESTORE
deactivate ESTORE
deactivate ESTORE
deactivate CTRL

UI - -> ADMIN : informs operation success
deactivate UI

@enduml

PlantUML version 1.2022.4(Sat Apr 09 14:29:17 BST 2022)
(GPL source distribution)
Java Runtime: OpenJDK Runtime Environment
JVM: OpenJDK 64-Bit Server VM
Default Encoding: Cp1252
Language: en
Country: GB
--></g></svg>