<?xml version="1.0" encoding="UTF-8" standalone="no"?><svg xmlns="http://www.w3.org/2000/svg" xmlns:xlink="http://www.w3.org/1999/xlink" contentStyleType="text/css" height="529px" preserveAspectRatio="none" style="width:1116px;height:529px;background:#FFFFFF;" version="1.1" viewBox="0 0 1116 529" width="1116px" zoomAndPan="magnify"><defs/><g><rect height="41.4453" style="stroke:#00000000;stroke-width:1.0;fill:none;" width="598" x="258" y="10"/><text fill="#000000" font-family="sans-serif" font-size="25" font-weight="bold" lengthAdjust="spacing" textLength="588" x="263" y="40.9521">US05_SD_VaccinationCenterMapper_ToDTO_List</text><rect fill="#FFFFFF" height="316.9766" style="stroke:#181818;stroke-width:1.0;" width="10" x="143" y="140.0156"/><rect fill="#FFFFFF" height="28" style="stroke:#181818;stroke-width:1.0;" width="10" x="148" y="324.2891"/><rect fill="#FFFFFF" height="30" style="stroke:#181818;stroke-width:1.0;" width="10" x="359" y="255.9375"/><rect fill="#FFFFFF" height="30" style="stroke:#181818;stroke-width:1.0;" width="10" x="585" y="389.6406"/><rect height="212.4063" style="stroke:#000000;stroke-width:1.5;fill:none;" width="712" x="18" y="215.2344"/><line style="stroke:#181818;stroke-width:0.5;fill:none;stroke-dasharray:5.0,5.0;" x1="148" x2="148" y1="107.6641" y2="474.9922"/><line style="stroke:#181818;stroke-width:0.5;fill:none;stroke-dasharray:5.0,5.0;" x1="364" x2="364" y1="107.6641" y2="474.9922"/><line style="stroke:#181818;stroke-width:0.5;fill:none;stroke-dasharray:5.0,5.0;" x1="590" x2="590" y1="188.125" y2="474.9922"/><line style="stroke:#181818;stroke-width:0.5;fill:none;stroke-dasharray:5.0,5.0;" x1="841" x2="841" y1="107.6641" y2="474.9922"/><line style="stroke:#181818;stroke-width:0.5;fill:none;stroke-dasharray:5.0,5.0;" x1="1036" x2="1036" y1="107.6641" y2="474.9922"/><rect fill="#E2E2F0" height="31.6094" rx="2.5" ry="2.5" style="stroke:#181818;stroke-width:0.5;" width="240" x="28" y="75.0547"/><text fill="#000000" font-family="sans-serif" font-size="14" lengthAdjust="spacing" textLength="226" x="35" y="96.5879">:VaccinationCenterSelectionMapper</text><rect fill="#E2E2F0" height="31.6094" rx="2.5" ry="2.5" style="stroke:#181818;stroke-width:0.5;" width="240" x="28" y="473.9922"/><text fill="#000000" font-family="sans-serif" font-size="14" lengthAdjust="spacing" textLength="226" x="35" y="495.5254">:VaccinationCenterSelectionMapper</text><rect fill="#E2E2F0" height="49.2188" rx="2.5" ry="2.5" style="stroke:#181818;stroke-width:0.5;" width="172" x="278" y="57.4453"/><text fill="#000000" font-family="sans-serif" font-size="14" lengthAdjust="spacing" textLength="36" x="346" y="78.9785">vcList</text><text fill="#000000" font-family="sans-serif" font-size="14" lengthAdjust="spacing" textLength="158" x="285" y="96.5879">:List&lt;VaccinationCenter&gt;</text><rect fill="#E2E2F0" height="49.2188" rx="2.5" ry="2.5" style="stroke:#181818;stroke-width:0.5;" width="172" x="278" y="473.9922"/><text fill="#000000" font-family="sans-serif" font-size="14" lengthAdjust="spacing" textLength="36" x="346" y="495.5254">vcList</text><text fill="#000000" font-family="sans-serif" font-size="14" lengthAdjust="spacing" textLength="158" x="285" y="513.1348">:List&lt;VaccinationCenter&gt;</text><rect fill="#E2E2F0" height="49.2188" rx="2.5" ry="2.5" style="stroke:#181818;stroke-width:0.5;" width="260" x="460" y="473.9922"/><text fill="#000000" font-family="sans-serif" font-size="14" lengthAdjust="spacing" textLength="124" x="528" y="495.5254">vcSelectionDTOList</text><text fill="#000000" font-family="sans-serif" font-size="14" lengthAdjust="spacing" textLength="246" x="467" y="513.1348">:List&lt;VaccinationCenterSelectionDTO&gt;</text><rect fill="#E2E2F0" height="49.2188" rx="2.5" ry="2.5" style="stroke:#181818;stroke-width:0.5;" width="222" x="730" y="57.4453"/><text fill="#000000" font-family="sans-serif" font-size="14" lengthAdjust="spacing" textLength="102" x="790" y="78.9785">vcSelectionDTO</text><text fill="#000000" font-family="sans-serif" font-size="14" lengthAdjust="spacing" textLength="208" x="737" y="96.5879">:VaccinationCenterSelectionDTO</text><rect fill="#E2E2F0" height="49.2188" rx="2.5" ry="2.5" style="stroke:#181818;stroke-width:0.5;" width="222" x="730" y="473.9922"/><text fill="#000000" font-family="sans-serif" font-size="14" lengthAdjust="spacing" textLength="102" x="790" y="495.5254">vcSelectionDTO</text><text fill="#000000" font-family="sans-serif" font-size="14" lengthAdjust="spacing" textLength="208" x="737" y="513.1348">:VaccinationCenterSelectionDTO</text><rect fill="#E2E2F0" height="31.6094" rx="2.5" ry="2.5" style="stroke:#181818;stroke-width:0.5;" width="148" x="962" y="75.0547"/><text fill="#000000" font-family="sans-serif" font-size="14" lengthAdjust="spacing" textLength="134" x="969" y="96.5879">vc:VaccinationCenter</text><rect fill="#E2E2F0" height="31.6094" rx="2.5" ry="2.5" style="stroke:#181818;stroke-width:0.5;" width="148" x="962" y="473.9922"/><text fill="#000000" font-family="sans-serif" font-size="14" lengthAdjust="spacing" textLength="134" x="969" y="495.5254">vc:VaccinationCenter</text><rect fill="#FFFFFF" height="316.9766" style="stroke:#181818;stroke-width:1.0;" width="10" x="143" y="140.0156"/><rect fill="#FFFFFF" height="28" style="stroke:#181818;stroke-width:1.0;" width="10" x="148" y="324.2891"/><rect fill="#FFFFFF" height="30" style="stroke:#181818;stroke-width:1.0;" width="10" x="359" y="255.9375"/><rect fill="#FFFFFF" height="30" style="stroke:#181818;stroke-width:1.0;" width="10" x="585" y="389.6406"/><ellipse cx="7.5" cy="139.2656" fill="none" rx="4" ry="4" style="stroke:#181818;stroke-width:1.5;"/><polygon fill="#181818" points="131,136.0156,141,140.0156,131,144.0156,135,140.0156" style="stroke:#181818;stroke-width:1.0;"/><line style="stroke:#181818;stroke-width:1.0;" x1="12" x2="137" y1="140.0156" y2="140.0156"/><text fill="#000000" font-family="sans-serif" font-size="13" font-weight="bold" lengthAdjust="spacing" textLength="7" x="15" y="135.1592">1</text><text fill="#000000" font-family="sans-serif" font-size="13" lengthAdjust="spacing" textLength="78" x="26" y="135.1592">toDTO(vcList)</text><polygon fill="#181818" points="448,166.3672,458,170.3672,448,174.3672,452,170.3672" style="stroke:#181818;stroke-width:1.0;"/><line style="stroke:#181818;stroke-width:1.0;stroke-dasharray:2.0,2.0;" x1="153" x2="454" y1="170.3672" y2="170.3672"/><text fill="#000000" font-family="sans-serif" font-size="13" font-weight="bold" lengthAdjust="spacing" textLength="7" x="160" y="165.5107">2</text><text fill="#000000" font-family="sans-serif" font-size="13" lengthAdjust="spacing" textLength="44" x="171" y="165.5107">create()</text><rect fill="#E2E2F0" height="49.2188" rx="2.5" ry="2.5" style="stroke:#181818;stroke-width:0.5;" width="260" x="460" y="148.0156"/><text fill="#000000" font-family="sans-serif" font-size="14" lengthAdjust="spacing" textLength="124" x="528" y="169.5488">vcSelectionDTOList</text><text fill="#000000" font-family="sans-serif" font-size="14" lengthAdjust="spacing" textLength="246" x="467" y="187.1582">:List&lt;VaccinationCenterSelectionDTO&gt;</text><path d="M18,215.2344 L91,215.2344 L91,223.5859 L81,233.5859 L18,233.5859 L18,215.2344 " fill="#EEEEEE" style="stroke:#000000;stroke-width:1.5;"/><rect fill="none" height="212.4063" style="stroke:#000000;stroke-width:1.5;" width="712" x="18" y="215.2344"/><text fill="#000000" font-family="sans-serif" font-size="13" font-weight="bold" lengthAdjust="spacing" textLength="28" x="33" y="229.7295">loop</text><text fill="#000000" font-family="sans-serif" font-size="11" font-weight="bold" lengthAdjust="spacing" textLength="243" x="106" y="228.6533">[for each VaccinationCenter object in vcList]</text><polygon fill="#181818" points="347,251.9375,357,255.9375,347,259.9375,351,255.9375" style="stroke:#181818;stroke-width:1.0;"/><line style="stroke:#181818;stroke-width:1.0;" x1="153" x2="353" y1="255.9375" y2="255.9375"/><text fill="#000000" font-family="sans-serif" font-size="13" font-weight="bold" lengthAdjust="spacing" textLength="7" x="160" y="251.0811">3</text><text fill="#000000" font-family="sans-serif" font-size="13" lengthAdjust="spacing" textLength="163" x="171" y="251.0811">vc = getVaccinationCenter(i)</text><line style="stroke:#181818;stroke-width:1.0;" x1="158" x2="200" y1="316.2891" y2="316.2891"/><line style="stroke:#181818;stroke-width:1.0;" x1="200" x2="200" y1="316.2891" y2="329.2891"/><line style="stroke:#181818;stroke-width:1.0;" x1="159" x2="200" y1="329.2891" y2="329.2891"/><polygon fill="#181818" points="169,325.2891,159,329.2891,169,333.2891,165,329.2891" style="stroke:#181818;stroke-width:1.0;"/><text fill="#000000" font-family="sans-serif" font-size="13" font-weight="bold" lengthAdjust="spacing" textLength="7" x="165" y="311.4326">4</text><text fill="#000000" font-family="sans-serif" font-size="13" lengthAdjust="spacing" textLength="165" x="176" y="311.4326">vcSelectionDTO = toDTO(vc)</text><polygon fill="#181818" points="573,385.6406,583,389.6406,573,393.6406,577,389.6406" style="stroke:#181818;stroke-width:1.0;"/><line style="stroke:#181818;stroke-width:1.0;" x1="153" x2="579" y1="389.6406" y2="389.6406"/><text fill="#000000" font-family="sans-serif" font-size="13" font-weight="bold" lengthAdjust="spacing" textLength="7" x="160" y="384.7842">5</text><text fill="#000000" font-family="sans-serif" font-size="13" lengthAdjust="spacing" textLength="121" x="171" y="384.7842">add(vcSelectionDTO)</text><polygon fill="#181818" points="11,452.9922,1,456.9922,11,460.9922,7,456.9922" style="stroke:#181818;stroke-width:1.0;"/><line style="stroke:#181818;stroke-width:1.0;stroke-dasharray:2.0,2.0;" x1="5" x2="147" y1="456.9922" y2="456.9922"/><text fill="#000000" font-family="sans-serif" font-size="13" font-weight="bold" lengthAdjust="spacing" textLength="7" x="17" y="452.1357">6</text><text fill="#000000" font-family="sans-serif" font-size="13" lengthAdjust="spacing" textLength="113" x="28" y="452.1357">vcSelectionDTOList</text><!--MD5=[7a0b875a42804f946d10ea508ca7fccc]
@startuml
autonumber
autoactivate on
scale 1
skinparam titleFontSize 25

title US05_SD_VaccinationCenterMapper_ToDTO_List

participant ":VaccinationCenterSelectionMapper" as MAPPER
participant "vcList\n:List<VaccinationCenter>" as VCLIST
participant "vcSelectionDTOList\n:List<VaccinationCenterSelectionDTO>" as VCLISTDTO
participant "vcSelectionDTO\n:VaccinationCenterSelectionDTO" as DTO
participant "vc:VaccinationCenter" as VC

[o-> MAPPER : toDTO(vcList)

MAPPER - -> VCLISTDTO** : create()
loop for each VaccinationCenter object in vcList
MAPPER -> VCLIST : vc = getVaccinationCenter(i)
deactivate VCLIST
MAPPER -> MAPPER : vcSelectionDTO = toDTO(vc)
deactivate MAPPER

MAPPER -> VCLISTDTO : add(vcSelectionDTO)
deactivate VCLISTDTO

end

[<- - MAPPER : vcSelectionDTOList



@enduml

PlantUML version 1.2022.4(Sat Apr 09 14:29:17 BST 2022)
(GPL source distribution)
Java Runtime: OpenJDK Runtime Environment
JVM: OpenJDK 64-Bit Server VM
Default Encoding: Cp1252
Language: en
Country: GB
--></g></svg>