<?xml version="1.0" encoding="UTF-8" standalone="no"?><svg xmlns="http://www.w3.org/2000/svg" xmlns:xlink="http://www.w3.org/1999/xlink" contentStyleType="text/css" height="724px" preserveAspectRatio="none" style="width:877px;height:724px;background:#FFFFFF;" version="1.1" viewBox="0 0 877 724" width="877px" zoomAndPan="magnify"><defs/><g><!--MD5=[02e4b9b7573f1156f41e60aa5b4e25a4]
class Company--><g id="elem_Company"><rect codeLine="5" fill="#F1F1F1" height="40" id="Company" rx="2.5" ry="2.5" style="stroke:#181818;stroke-width:0.5;" width="92" x="309.5" y="68.5"/><ellipse cx="324.5" cy="84.5" fill="#ADD1B2" rx="11" ry="11" style="stroke:#181818;stroke-width:1.0;"/><path d="M326.5,81 Q326.7031,80.5 326.9375,80.25 Q327.1719,80 327.4375,80 Q327.9063,80 328.2031,80.2813 Q328.5,80.5625 328.5,81.2188 L328.5,82.7813 Q328.5,83.4375 328.2188,83.7188 Q327.9375,84 327.5,84 Q327.1094,84 326.8594,83.8281 Q326.6094,83.6563 326.5,83.2031 Q326.4531,82.8906 326.2813,82.7188 Q325.9688,82.3906 325.4063,82.2031 Q324.8438,82 324.2813,82 Q323.5781,82 322.9844,82.2813 Q322.4063,82.5625 321.9531,83.1875 Q321.5,83.8125 321.5,84.6719 L321.5,85.5938 Q321.5,86.625 322.3438,87.3125 Q323.1875,88 324.6875,88 Q325.5781,88 326.2031,87.7969 Q326.5625,87.6875 326.9688,87.3281 Q327.2344,87.125 327.375,87.0625 Q327.5156,87 327.6875,87 Q328.0156,87 328.25,87.2656 Q328.5,87.5156 328.5,87.875 Q328.5,88.2188 328.1563,88.625 Q327.6563,89.2188 326.8594,89.5469 Q325.8125,90 324.5313,90 Q323.0313,90 321.8281,89.4063 Q320.8594,88.9375 320.1719,87.9219 Q319.5,86.9063 319.5,85.7031 L319.5,84.6094 Q319.5,83.3594 320.0938,82.2656 Q320.7031,81.1719 321.75,80.5938 Q322.8125,80 324,80 Q324.7188,80 325.3438,80.25 Q325.9688,80.5 326.5,81 Z " fill="#000000"/><text fill="#000000" font-family="sans-serif" font-size="14" lengthAdjust="spacing" textLength="60" x="338.5" y="90.2285">Company</text><line style="stroke:#181818;stroke-width:0.5;" x1="310.5" x2="400.5" y1="100.5" y2="100.5"/></g><!--MD5=[de60e6d4f424ae4d0522096f76a59010]
class VaccinationCenter--><g id="elem_VaccinationCenter"><rect codeLine="8" fill="#F1F1F1" height="198.4844" id="VaccinationCenter" rx="2.5" ry="2.5" style="stroke:#181818;stroke-width:0.5;" width="148" x="293.5" y="519"/><ellipse cx="308.5" cy="535" fill="#ADD1B2" rx="11" ry="11" style="stroke:#181818;stroke-width:1.0;"/><path d="M310.5,531.5 Q310.7031,531 310.9375,530.75 Q311.1719,530.5 311.4375,530.5 Q311.9063,530.5 312.2031,530.7813 Q312.5,531.0625 312.5,531.7188 L312.5,533.2813 Q312.5,533.9375 312.2188,534.2188 Q311.9375,534.5 311.5,534.5 Q311.1094,534.5 310.8594,534.3281 Q310.6094,534.1563 310.5,533.7031 Q310.4531,533.3906 310.2813,533.2188 Q309.9688,532.8906 309.4063,532.7031 Q308.8438,532.5 308.2813,532.5 Q307.5781,532.5 306.9844,532.7813 Q306.4063,533.0625 305.9531,533.6875 Q305.5,534.3125 305.5,535.1719 L305.5,536.0938 Q305.5,537.125 306.3438,537.8125 Q307.1875,538.5 308.6875,538.5 Q309.5781,538.5 310.2031,538.2969 Q310.5625,538.1875 310.9688,537.8281 Q311.2344,537.625 311.375,537.5625 Q311.5156,537.5 311.6875,537.5 Q312.0156,537.5 312.25,537.7656 Q312.5,538.0156 312.5,538.375 Q312.5,538.7188 312.1563,539.125 Q311.6563,539.7188 310.8594,540.0469 Q309.8125,540.5 308.5313,540.5 Q307.0313,540.5 305.8281,539.9063 Q304.8594,539.4375 304.1719,538.4219 Q303.5,537.4063 303.5,536.2031 L303.5,535.1094 Q303.5,533.8594 304.0938,532.7656 Q304.7031,531.6719 305.75,531.0938 Q306.8125,530.5 308,530.5 Q308.7188,530.5 309.3438,530.75 Q309.9688,531 310.5,531.5 Z " fill="#000000"/><text fill="#000000" font-family="sans-serif" font-size="14" lengthAdjust="spacing" textLength="116" x="322.5" y="540.7285">VaccinationCenter</text><line style="stroke:#181818;stroke-width:0.5;" x1="294.5" x2="440.5" y1="551" y2="551"/><rect fill="none" height="6" style="stroke:#C82930;stroke-width:1.0;" width="6" x="301.5" y="559"/><text fill="#000000" font-family="sans-serif" font-size="14" lengthAdjust="spacing" textLength="35" x="313.5" y="569.5332">name</text><rect fill="none" height="6" style="stroke:#C82930;stroke-width:1.0;" width="6" x="301.5" y="576.6094"/><text fill="#000000" font-family="sans-serif" font-size="14" lengthAdjust="spacing" textLength="89" x="313.5" y="587.1426">phoneNumber</text><rect fill="none" height="6" style="stroke:#C82930;stroke-width:1.0;" width="6" x="301.5" y="594.2188"/><text fill="#000000" font-family="sans-serif" font-size="14" lengthAdjust="spacing" textLength="85" x="313.5" y="604.752">emailAddress</text><rect fill="none" height="6" style="stroke:#C82930;stroke-width:1.0;" width="6" x="301.5" y="611.8281"/><text fill="#000000" font-family="sans-serif" font-size="14" lengthAdjust="spacing" textLength="67" x="313.5" y="622.3613">faxNumber</text><rect fill="none" height="6" style="stroke:#C82930;stroke-width:1.0;" width="6" x="301.5" y="629.4375"/><text fill="#000000" font-family="sans-serif" font-size="14" lengthAdjust="spacing" textLength="99" x="313.5" y="639.9707">websiteAddress</text><rect fill="none" height="6" style="stroke:#C82930;stroke-width:1.0;" width="6" x="301.5" y="647.0469"/><text fill="#000000" font-family="sans-serif" font-size="14" lengthAdjust="spacing" textLength="88" x="313.5" y="657.5801">openingHours</text><rect fill="none" height="6" style="stroke:#C82930;stroke-width:1.0;" width="6" x="301.5" y="664.6563"/><text fill="#000000" font-family="sans-serif" font-size="14" lengthAdjust="spacing" textLength="81" x="313.5" y="675.1895">closingHours</text><rect fill="none" height="6" style="stroke:#C82930;stroke-width:1.0;" width="6" x="301.5" y="682.2656"/><text fill="#000000" font-family="sans-serif" font-size="14" lengthAdjust="spacing" textLength="76" x="313.5" y="692.7988">slotDuration</text><rect fill="none" height="6" style="stroke:#C82930;stroke-width:1.0;" width="6" x="301.5" y="699.875"/><text fill="#000000" font-family="sans-serif" font-size="14" lengthAdjust="spacing" textLength="110" x="313.5" y="710.4082">maxNumVaccines</text></g><!--MD5=[7421f545a0d8420c5bec41e74b387d9c]
class Employee--><g id="elem_Employee"><rect codeLine="21" fill="#F1F1F1" height="163.2656" id="Employee" rx="2.5" ry="2.5" style="stroke:#181818;stroke-width:0.5;" width="180" x="500.5" y="7"/><ellipse cx="555.25" cy="23" fill="#ADD1B2" rx="11" ry="11" style="stroke:#181818;stroke-width:1.0;"/><path d="M557.25,19.5 Q557.4531,19 557.6875,18.75 Q557.9219,18.5 558.1875,18.5 Q558.6563,18.5 558.9531,18.7813 Q559.25,19.0625 559.25,19.7188 L559.25,21.2813 Q559.25,21.9375 558.9688,22.2188 Q558.6875,22.5 558.25,22.5 Q557.8594,22.5 557.6094,22.3281 Q557.3594,22.1563 557.25,21.7031 Q557.2031,21.3906 557.0313,21.2188 Q556.7188,20.8906 556.1563,20.7031 Q555.5938,20.5 555.0313,20.5 Q554.3281,20.5 553.7344,20.7813 Q553.1563,21.0625 552.7031,21.6875 Q552.25,22.3125 552.25,23.1719 L552.25,24.0938 Q552.25,25.125 553.0938,25.8125 Q553.9375,26.5 555.4375,26.5 Q556.3281,26.5 556.9531,26.2969 Q557.3125,26.1875 557.7188,25.8281 Q557.9844,25.625 558.125,25.5625 Q558.2656,25.5 558.4375,25.5 Q558.7656,25.5 559,25.7656 Q559.25,26.0156 559.25,26.375 Q559.25,26.7188 558.9063,27.125 Q558.4063,27.7188 557.6094,28.0469 Q556.5625,28.5 555.2813,28.5 Q553.7813,28.5 552.5781,27.9063 Q551.6094,27.4375 550.9219,26.4219 Q550.25,25.4063 550.25,24.2031 L550.25,23.1094 Q550.25,21.8594 550.8438,20.7656 Q551.4531,19.6719 552.5,19.0938 Q553.5625,18.5 554.75,18.5 Q555.4688,18.5 556.0938,18.75 Q556.7188,19 557.25,19.5 Z " fill="#000000"/><text fill="#000000" font-family="sans-serif" font-size="14" lengthAdjust="spacing" textLength="62" x="575.75" y="28.7285">Employee</text><line style="stroke:#181818;stroke-width:0.5;" x1="501.5" x2="679.5" y1="39" y2="39"/><rect fill="none" height="6" style="stroke:#C82930;stroke-width:1.0;" width="6" x="508.5" y="47"/><text fill="#000000" font-family="sans-serif" font-size="14" lengthAdjust="spacing" textLength="84" x="520.5" y="57.5332">name : String</text><rect fill="none" height="6" style="stroke:#C82930;stroke-width:1.0;" width="6" x="508.5" y="64.6094"/><text fill="#000000" font-family="sans-serif" font-size="14" lengthAdjust="spacing" textLength="82" x="520.5" y="75.1426">email : String</text><rect fill="none" height="6" style="stroke:#C82930;stroke-width:1.0;" width="6" x="508.5" y="82.2188"/><text fill="#000000" font-family="sans-serif" font-size="14" lengthAdjust="spacing" textLength="100" x="520.5" y="92.752">address : String</text><rect fill="none" height="6" style="stroke:#C82930;stroke-width:1.0;" width="6" x="508.5" y="99.8281"/><text fill="#000000" font-family="sans-serif" font-size="14" lengthAdjust="spacing" textLength="124" x="520.5" y="110.3613">phoneNumber: long</text><rect fill="none" height="6" style="stroke:#C82930;stroke-width:1.0;" width="6" x="508.5" y="117.4375"/><text fill="#000000" font-family="sans-serif" font-size="14" lengthAdjust="spacing" textLength="154" x="520.5" y="127.9707">citizenCardNumber: long</text><rect fill="none" height="6" style="stroke:#C82930;stroke-width:1.0;" width="6" x="508.5" y="135.0469"/><text fill="#000000" font-family="sans-serif" font-size="14" lengthAdjust="spacing" textLength="65" x="520.5" y="145.5801">role : Role</text><rect fill="none" height="6" style="stroke:#C82930;stroke-width:1.0;" width="6" x="508.5" y="152.6563"/><text fill="#000000" font-family="sans-serif" font-size="14" lengthAdjust="spacing" textLength="60" x="520.5" y="163.1895">id : String</text></g><!--MD5=[a059576e163b46f56762f12600c49258]
class Nurse--><g id="elem_Nurse"><rect codeLine="31" fill="#F1F1F1" height="40" id="Nurse" rx="2.5" ry="2.5" style="stroke:#181818;stroke-width:0.5;" width="69" x="673" y="248"/><ellipse cx="688" cy="264" fill="#ADD1B2" rx="11" ry="11" style="stroke:#181818;stroke-width:1.0;"/><path d="M690,260.5 Q690.2031,260 690.4375,259.75 Q690.6719,259.5 690.9375,259.5 Q691.4063,259.5 691.7031,259.7813 Q692,260.0625 692,260.7188 L692,262.2813 Q692,262.9375 691.7188,263.2188 Q691.4375,263.5 691,263.5 Q690.6094,263.5 690.3594,263.3281 Q690.1094,263.1563 690,262.7031 Q689.9531,262.3906 689.7813,262.2188 Q689.4688,261.8906 688.9063,261.7031 Q688.3438,261.5 687.7813,261.5 Q687.0781,261.5 686.4844,261.7813 Q685.9063,262.0625 685.4531,262.6875 Q685,263.3125 685,264.1719 L685,265.0938 Q685,266.125 685.8438,266.8125 Q686.6875,267.5 688.1875,267.5 Q689.0781,267.5 689.7031,267.2969 Q690.0625,267.1875 690.4688,266.8281 Q690.7344,266.625 690.875,266.5625 Q691.0156,266.5 691.1875,266.5 Q691.5156,266.5 691.75,266.7656 Q692,267.0156 692,267.375 Q692,267.7188 691.6563,268.125 Q691.1563,268.7188 690.3594,269.0469 Q689.3125,269.5 688.0313,269.5 Q686.5313,269.5 685.3281,268.9063 Q684.3594,268.4375 683.6719,267.4219 Q683,266.4063 683,265.2031 L683,264.1094 Q683,262.8594 683.5938,261.7656 Q684.2031,260.6719 685.25,260.0938 Q686.3125,259.5 687.5,259.5 Q688.2188,259.5 688.8438,259.75 Q689.4688,260 690,260.5 Z " fill="#000000"/><text fill="#000000" font-family="sans-serif" font-size="14" lengthAdjust="spacing" textLength="37" x="702" y="269.7285">Nurse</text><line style="stroke:#181818;stroke-width:0.5;" x1="674" x2="741" y1="280" y2="280"/></g><!--MD5=[cd4ce1c0d44638ff9f42448de30e6b92]
class VaccineSchedule--><g id="elem_VaccineSchedule"><rect codeLine="34" fill="#F1F1F1" height="75.2188" id="VaccineSchedule" rx="2.5" ry="2.5" style="stroke:#181818;stroke-width:0.5;" width="141" x="297" y="366"/><ellipse cx="312" cy="382" fill="#ADD1B2" rx="11" ry="11" style="stroke:#181818;stroke-width:1.0;"/><path d="M314,378.5 Q314.2031,378 314.4375,377.75 Q314.6719,377.5 314.9375,377.5 Q315.4063,377.5 315.7031,377.7813 Q316,378.0625 316,378.7188 L316,380.2813 Q316,380.9375 315.7188,381.2188 Q315.4375,381.5 315,381.5 Q314.6094,381.5 314.3594,381.3281 Q314.1094,381.1563 314,380.7031 Q313.9531,380.3906 313.7813,380.2188 Q313.4688,379.8906 312.9063,379.7031 Q312.3438,379.5 311.7813,379.5 Q311.0781,379.5 310.4844,379.7813 Q309.9063,380.0625 309.4531,380.6875 Q309,381.3125 309,382.1719 L309,383.0938 Q309,384.125 309.8438,384.8125 Q310.6875,385.5 312.1875,385.5 Q313.0781,385.5 313.7031,385.2969 Q314.0625,385.1875 314.4688,384.8281 Q314.7344,384.625 314.875,384.5625 Q315.0156,384.5 315.1875,384.5 Q315.5156,384.5 315.75,384.7656 Q316,385.0156 316,385.375 Q316,385.7188 315.6563,386.125 Q315.1563,386.7188 314.3594,387.0469 Q313.3125,387.5 312.0313,387.5 Q310.5313,387.5 309.3281,386.9063 Q308.3594,386.4375 307.6719,385.4219 Q307,384.4063 307,383.2031 L307,382.1094 Q307,380.8594 307.5938,379.7656 Q308.2031,378.6719 309.25,378.0938 Q310.3125,377.5 311.5,377.5 Q312.2188,377.5 312.8438,377.75 Q313.4688,378 314,378.5 Z " fill="#000000"/><text fill="#000000" font-family="sans-serif" font-size="14" lengthAdjust="spacing" textLength="109" x="326" y="387.7285">VaccineSchedule</text><line style="stroke:#181818;stroke-width:0.5;" x1="298" x2="437" y1="398" y2="398"/><rect fill="none" height="6" style="stroke:#C82930;stroke-width:1.0;" width="6" x="305" y="406"/><text fill="#000000" font-family="sans-serif" font-size="14" lengthAdjust="spacing" textLength="28" x="317" y="416.5332">date</text><rect fill="none" height="6" style="stroke:#C82930;stroke-width:1.0;" width="6" x="305" y="423.6094"/><text fill="#000000" font-family="sans-serif" font-size="14" lengthAdjust="spacing" textLength="26" x="317" y="434.1426">time</text></g><!--MD5=[0b1ce5251ebf137e6b3550dd84e6af65]
class HealthcareCenter--><g id="elem_HealthcareCenter"><rect codeLine="39" fill="#F1F1F1" height="40" id="HealthcareCenter" rx="2.5" ry="2.5" style="stroke:#181818;stroke-width:0.5;" width="143" x="47" y="383.5"/><ellipse cx="62" cy="399.5" fill="#ADD1B2" rx="11" ry="11" style="stroke:#181818;stroke-width:1.0;"/><path d="M64,396 Q64.2031,395.5 64.4375,395.25 Q64.6719,395 64.9375,395 Q65.4063,395 65.7031,395.2813 Q66,395.5625 66,396.2188 L66,397.7813 Q66,398.4375 65.7188,398.7188 Q65.4375,399 65,399 Q64.6094,399 64.3594,398.8281 Q64.1094,398.6563 64,398.2031 Q63.9531,397.8906 63.7813,397.7188 Q63.4688,397.3906 62.9063,397.2031 Q62.3438,397 61.7813,397 Q61.0781,397 60.4844,397.2813 Q59.9063,397.5625 59.4531,398.1875 Q59,398.8125 59,399.6719 L59,400.5938 Q59,401.625 59.8438,402.3125 Q60.6875,403 62.1875,403 Q63.0781,403 63.7031,402.7969 Q64.0625,402.6875 64.4688,402.3281 Q64.7344,402.125 64.875,402.0625 Q65.0156,402 65.1875,402 Q65.5156,402 65.75,402.2656 Q66,402.5156 66,402.875 Q66,403.2188 65.6563,403.625 Q65.1563,404.2188 64.3594,404.5469 Q63.3125,405 62.0313,405 Q60.5313,405 59.3281,404.4063 Q58.3594,403.9375 57.6719,402.9219 Q57,401.9063 57,400.7031 L57,399.6094 Q57,398.3594 57.5938,397.2656 Q58.2031,396.1719 59.25,395.5938 Q60.3125,395 61.5,395 Q62.2188,395 62.8438,395.25 Q63.4688,395.5 64,396 Z " fill="#000000"/><text fill="#000000" font-family="sans-serif" font-size="14" lengthAdjust="spacing" textLength="111" x="76" y="405.2285">HealthcareCenter</text><line style="stroke:#181818;stroke-width:0.5;" x1="48" x2="189" y1="415.5" y2="415.5"/></g><!--MD5=[56872536300a053cf9fd13853ad6ab1e]
class CommunityMassVaccinationCenter--><g id="elem_CommunityMassVaccinationCenter"><rect codeLine="41" fill="#F1F1F1" height="40" id="CommunityMassVaccinationCenter" rx="2.5" ry="2.5" style="stroke:#181818;stroke-width:0.5;" width="251" x="7" y="598"/><ellipse cx="22" cy="614" fill="#ADD1B2" rx="11" ry="11" style="stroke:#181818;stroke-width:1.0;"/><path d="M24,610.5 Q24.2031,610 24.4375,609.75 Q24.6719,609.5 24.9375,609.5 Q25.4063,609.5 25.7031,609.7813 Q26,610.0625 26,610.7188 L26,612.2813 Q26,612.9375 25.7188,613.2188 Q25.4375,613.5 25,613.5 Q24.6094,613.5 24.3594,613.3281 Q24.1094,613.1563 24,612.7031 Q23.9531,612.3906 23.7813,612.2188 Q23.4688,611.8906 22.9063,611.7031 Q22.3438,611.5 21.7813,611.5 Q21.0781,611.5 20.4844,611.7813 Q19.9063,612.0625 19.4531,612.6875 Q19,613.3125 19,614.1719 L19,615.0938 Q19,616.125 19.8438,616.8125 Q20.6875,617.5 22.1875,617.5 Q23.0781,617.5 23.7031,617.2969 Q24.0625,617.1875 24.4688,616.8281 Q24.7344,616.625 24.875,616.5625 Q25.0156,616.5 25.1875,616.5 Q25.5156,616.5 25.75,616.7656 Q26,617.0156 26,617.375 Q26,617.7188 25.6563,618.125 Q25.1563,618.7188 24.3594,619.0469 Q23.3125,619.5 22.0313,619.5 Q20.5313,619.5 19.3281,618.9063 Q18.3594,618.4375 17.6719,617.4219 Q17,616.4063 17,615.2031 L17,614.1094 Q17,612.8594 17.5938,611.7656 Q18.2031,610.6719 19.25,610.0938 Q20.3125,609.5 21.5,609.5 Q22.2188,609.5 22.8438,609.75 Q23.4688,610 24,610.5 Z " fill="#000000"/><text fill="#000000" font-family="sans-serif" font-size="14" lengthAdjust="spacing" textLength="219" x="36" y="619.7285">CommunityMassVaccinationCenter</text><line style="stroke:#181818;stroke-width:0.5;" x1="8" x2="257" y1="630" y2="630"/></g><!--MD5=[72be06cc7ae02ccc98efe28a50e62246]
class SNSUser--><g id="elem_SNSUser"><rect codeLine="43" fill="#F1F1F1" height="40" id="SNSUser" rx="2.5" ry="2.5" style="stroke:#181818;stroke-width:0.5;" width="88" x="601.5" y="383.5"/><ellipse cx="616.5" cy="399.5" fill="#ADD1B2" rx="11" ry="11" style="stroke:#181818;stroke-width:1.0;"/><path d="M618.5,396 Q618.7031,395.5 618.9375,395.25 Q619.1719,395 619.4375,395 Q619.9063,395 620.2031,395.2813 Q620.5,395.5625 620.5,396.2188 L620.5,397.7813 Q620.5,398.4375 620.2188,398.7188 Q619.9375,399 619.5,399 Q619.1094,399 618.8594,398.8281 Q618.6094,398.6563 618.5,398.2031 Q618.4531,397.8906 618.2813,397.7188 Q617.9688,397.3906 617.4063,397.2031 Q616.8438,397 616.2813,397 Q615.5781,397 614.9844,397.2813 Q614.4063,397.5625 613.9531,398.1875 Q613.5,398.8125 613.5,399.6719 L613.5,400.5938 Q613.5,401.625 614.3438,402.3125 Q615.1875,403 616.6875,403 Q617.5781,403 618.2031,402.7969 Q618.5625,402.6875 618.9688,402.3281 Q619.2344,402.125 619.375,402.0625 Q619.5156,402 619.6875,402 Q620.0156,402 620.25,402.2656 Q620.5,402.5156 620.5,402.875 Q620.5,403.2188 620.1563,403.625 Q619.6563,404.2188 618.8594,404.5469 Q617.8125,405 616.5313,405 Q615.0313,405 613.8281,404.4063 Q612.8594,403.9375 612.1719,402.9219 Q611.5,401.9063 611.5,400.7031 L611.5,399.6094 Q611.5,398.3594 612.0938,397.2656 Q612.7031,396.1719 613.75,395.5938 Q614.8125,395 616,395 Q616.7188,395 617.3438,395.25 Q617.9688,395.5 618.5,396 Z " fill="#000000"/><text fill="#000000" font-family="sans-serif" font-size="14" lengthAdjust="spacing" textLength="56" x="630.5" y="405.2285">SNSUser</text><line style="stroke:#181818;stroke-width:0.5;" x1="602.5" x2="688.5" y1="415.5" y2="415.5"/></g><!--MD5=[aaa7e27c4ec43917c82a021675d2c87a]
class WaitingRoom--><g id="elem_WaitingRoom"><rect codeLine="45" fill="#F1F1F1" height="40" id="WaitingRoom" rx="2.5" ry="2.5" style="stroke:#181818;stroke-width:0.5;" width="116" x="587.5" y="598"/><ellipse cx="602.5" cy="614" fill="#ADD1B2" rx="11" ry="11" style="stroke:#181818;stroke-width:1.0;"/><path d="M604.5,610.5 Q604.7031,610 604.9375,609.75 Q605.1719,609.5 605.4375,609.5 Q605.9063,609.5 606.2031,609.7813 Q606.5,610.0625 606.5,610.7188 L606.5,612.2813 Q606.5,612.9375 606.2188,613.2188 Q605.9375,613.5 605.5,613.5 Q605.1094,613.5 604.8594,613.3281 Q604.6094,613.1563 604.5,612.7031 Q604.4531,612.3906 604.2813,612.2188 Q603.9688,611.8906 603.4063,611.7031 Q602.8438,611.5 602.2813,611.5 Q601.5781,611.5 600.9844,611.7813 Q600.4063,612.0625 599.9531,612.6875 Q599.5,613.3125 599.5,614.1719 L599.5,615.0938 Q599.5,616.125 600.3438,616.8125 Q601.1875,617.5 602.6875,617.5 Q603.5781,617.5 604.2031,617.2969 Q604.5625,617.1875 604.9688,616.8281 Q605.2344,616.625 605.375,616.5625 Q605.5156,616.5 605.6875,616.5 Q606.0156,616.5 606.25,616.7656 Q606.5,617.0156 606.5,617.375 Q606.5,617.7188 606.1563,618.125 Q605.6563,618.7188 604.8594,619.0469 Q603.8125,619.5 602.5313,619.5 Q601.0313,619.5 599.8281,618.9063 Q598.8594,618.4375 598.1719,617.4219 Q597.5,616.4063 597.5,615.2031 L597.5,614.1094 Q597.5,612.8594 598.0938,611.7656 Q598.7031,610.6719 599.75,610.0938 Q600.8125,609.5 602,609.5 Q602.7188,609.5 603.3438,609.75 Q603.9688,610 604.5,610.5 Z " fill="#000000"/><text fill="#000000" font-family="sans-serif" font-size="14" lengthAdjust="spacing" textLength="84" x="616.5" y="619.7285">WaitingRoom</text><line style="stroke:#181818;stroke-width:0.5;" x1="588.5" x2="702.5" y1="630" y2="630"/></g><!--MD5=[3fd616f346a44cd59a91eb10b19e157c]
class User--><g id="elem_User"><rect codeLine="47" fill="#F1F1F1" height="110.4375" id="User" rx="2.5" ry="2.5" style="stroke:#181818;stroke-width:0.5;" width="86" x="784.5" y="33.5"/><ellipse cx="810.75" cy="49.5" fill="#ADD1B2" rx="11" ry="11" style="stroke:#181818;stroke-width:1.0;"/><path d="M812.75,46 Q812.9531,45.5 813.1875,45.25 Q813.4219,45 813.6875,45 Q814.1563,45 814.4531,45.2813 Q814.75,45.5625 814.75,46.2188 L814.75,47.7813 Q814.75,48.4375 814.4688,48.7188 Q814.1875,49 813.75,49 Q813.3594,49 813.1094,48.8281 Q812.8594,48.6563 812.75,48.2031 Q812.7031,47.8906 812.5313,47.7188 Q812.2188,47.3906 811.6563,47.2031 Q811.0938,47 810.5313,47 Q809.8281,47 809.2344,47.2813 Q808.6563,47.5625 808.2031,48.1875 Q807.75,48.8125 807.75,49.6719 L807.75,50.5938 Q807.75,51.625 808.5938,52.3125 Q809.4375,53 810.9375,53 Q811.8281,53 812.4531,52.7969 Q812.8125,52.6875 813.2188,52.3281 Q813.4844,52.125 813.625,52.0625 Q813.7656,52 813.9375,52 Q814.2656,52 814.5,52.2656 Q814.75,52.5156 814.75,52.875 Q814.75,53.2188 814.4063,53.625 Q813.9063,54.2188 813.1094,54.5469 Q812.0625,55 810.7813,55 Q809.2813,55 808.0781,54.4063 Q807.1094,53.9375 806.4219,52.9219 Q805.75,51.9063 805.75,50.7031 L805.75,49.6094 Q805.75,48.3594 806.3438,47.2656 Q806.9531,46.1719 808,45.5938 Q809.0625,45 810.25,45 Q810.9688,45 811.5938,45.25 Q812.2188,45.5 812.75,46 Z " fill="#000000"/><text fill="#000000" font-family="sans-serif" font-size="14" lengthAdjust="spacing" textLength="29" x="827.25" y="55.2285">User</text><line style="stroke:#181818;stroke-width:0.5;" x1="785.5" x2="869.5" y1="65.5" y2="65.5"/><rect fill="none" height="6" style="stroke:#C82930;stroke-width:1.0;" width="6" x="792.5" y="73.5"/><text fill="#000000" font-family="sans-serif" font-size="14" lengthAdjust="spacing" textLength="35" x="804.5" y="84.0332">name</text><rect fill="none" height="6" style="stroke:#C82930;stroke-width:1.0;" width="6" x="792.5" y="91.1094"/><text fill="#000000" font-family="sans-serif" font-size="14" lengthAdjust="spacing" textLength="33" x="804.5" y="101.6426">email</text><rect fill="none" height="6" style="stroke:#C82930;stroke-width:1.0;" width="6" x="792.5" y="108.7188"/><text fill="#000000" font-family="sans-serif" font-size="14" lengthAdjust="spacing" textLength="60" x="804.5" y="119.252">password</text><rect fill="none" height="6" style="stroke:#C82930;stroke-width:1.0;" width="6" x="792.5" y="126.3281"/><text fill="#000000" font-family="sans-serif" font-size="14" lengthAdjust="spacing" textLength="24" x="804.5" y="136.8613">role</text></g><!--MD5=[03960189e81aa2c066c762ffabbee709]
class Receptionist--><g id="elem_Receptionist"><rect fill="#F1F1F1" height="40" id="Receptionist" rx="2.5" ry="2.5" style="stroke:#181818;stroke-width:0.5;" width="110" x="312.5" y="248"/><ellipse cx="327.5" cy="264" fill="#ADD1B2" rx="11" ry="11" style="stroke:#181818;stroke-width:1.0;"/><path d="M329.5,260.5 Q329.7031,260 329.9375,259.75 Q330.1719,259.5 330.4375,259.5 Q330.9063,259.5 331.2031,259.7813 Q331.5,260.0625 331.5,260.7188 L331.5,262.2813 Q331.5,262.9375 331.2188,263.2188 Q330.9375,263.5 330.5,263.5 Q330.1094,263.5 329.8594,263.3281 Q329.6094,263.1563 329.5,262.7031 Q329.4531,262.3906 329.2813,262.2188 Q328.9688,261.8906 328.4063,261.7031 Q327.8438,261.5 327.2813,261.5 Q326.5781,261.5 325.9844,261.7813 Q325.4063,262.0625 324.9531,262.6875 Q324.5,263.3125 324.5,264.1719 L324.5,265.0938 Q324.5,266.125 325.3438,266.8125 Q326.1875,267.5 327.6875,267.5 Q328.5781,267.5 329.2031,267.2969 Q329.5625,267.1875 329.9688,266.8281 Q330.2344,266.625 330.375,266.5625 Q330.5156,266.5 330.6875,266.5 Q331.0156,266.5 331.25,266.7656 Q331.5,267.0156 331.5,267.375 Q331.5,267.7188 331.1563,268.125 Q330.6563,268.7188 329.8594,269.0469 Q328.8125,269.5 327.5313,269.5 Q326.0313,269.5 324.8281,268.9063 Q323.8594,268.4375 323.1719,267.4219 Q322.5,266.4063 322.5,265.2031 L322.5,264.1094 Q322.5,262.8594 323.0938,261.7656 Q323.7031,260.6719 324.75,260.0938 Q325.8125,259.5 327,259.5 Q327.7188,259.5 328.3438,259.75 Q328.9688,260 329.5,260.5 Z " fill="#000000"/><text fill="#000000" font-family="sans-serif" font-size="14" lengthAdjust="spacing" textLength="78" x="341.5" y="269.7285">Receptionist</text><line style="stroke:#181818;stroke-width:0.5;" x1="313.5" x2="421.5" y1="280" y2="280"/></g><!--MD5=[eebe9b198877275d05dd12630ed9e401]
link Company to VaccinationCenter--><g id="link_Company_VaccinationCenter"><path codeLine="54" d="M345.34,108.61 C318.48,161.56 249.66,314.61 279.5,441 C285.7,467.27 296.45,494.08 308.36,518.61 " fill="none" id="Company-VaccinationCenter" style="stroke:#181818;stroke-width:1.0;"/><polygon fill="#000000" points="280.0508,332.1556,283.7904,323.4111,277.9363,322.883,280.0508,332.1556" style="stroke:#000000;stroke-width:1.0;"/><text fill="#000000" font-family="sans-serif" font-size="13" lengthAdjust="spacing" textLength="21" x="289.5" y="332.4951">has</text><text fill="#000000" font-family="sans-serif" font-size="13" lengthAdjust="spacing" textLength="7" x="334.4981" y="130.0605">1</text><text fill="#000000" font-family="sans-serif" font-size="13" lengthAdjust="spacing" textLength="5" x="298.8333" y="508.2138">*</text></g><!--MD5=[09366576ee87d48d594df10cacc83f45]
link Company to Employee--><g id="link_Company_Employee"><path codeLine="55" d="M401.65,88.5 C429.72,88.5 466.53,88.5 500.2,88.5 " fill="none" id="Company-Employee" style="stroke:#181818;stroke-width:1.0;"/><polygon fill="#000000" points="429,76.6758,419.9549,73.7369,419.9549,79.6147,429,76.6758" style="stroke:#000000;stroke-width:1.0;"/><text fill="#000000" font-family="sans-serif" font-size="13" lengthAdjust="spacing" textLength="49" x="433" y="81.9951">employs</text><text fill="#000000" font-family="sans-serif" font-size="13" lengthAdjust="spacing" textLength="7" x="409.563" y="84.7481">1</text><text fill="#000000" font-family="sans-serif" font-size="13" lengthAdjust="spacing" textLength="5" x="487.515" y="85.3362">*</text></g><!--MD5=[1a8aa2b864b87f860d28abceaa28b7a5]
link Company to SNSUser--><g id="link_Company_SNSUser"><path codeLine="56" d="M376.42,108.5 C399.9,130.09 438.87,166.65 470.5,200 C532.06,264.89 599.99,346.69 629.9,383.28 " fill="none" id="Company-SNSUser" style="stroke:#181818;stroke-width:1.0;"/><polygon fill="#000000" points="557.8902,271.8509,553.9174,263.2098,549.5971,267.1953,557.8902,271.8509" style="stroke:#000000;stroke-width:1.0;"/><text fill="#000000" font-family="sans-serif" font-size="13" lengthAdjust="spacing" textLength="30" x="563.5" y="273.4951">owns</text><text fill="#000000" font-family="sans-serif" font-size="13" lengthAdjust="spacing" textLength="7" x="374.3194" y="129.9196">1</text><text fill="#000000" font-family="sans-serif" font-size="13" lengthAdjust="spacing" textLength="5" x="619.5831" y="372.5371">*</text></g><!--MD5=[b71b66caf67976638439c0d1a3790473]
link Employee to Nurse--><g id="link_Employee_Nurse"><path codeLine="58" d="M643.69,170.2 C662.65,198.96 682.35,228.85 694.76,247.67 " fill="none" id="Employee-Nurse" style="stroke:#181818;stroke-width:1.0;"/><polygon fill="#000000" points="680.252,213.3503,677.7274,204.181,672.8199,207.4161,680.252,213.3503" style="stroke:#000000;stroke-width:1.0;"/><text fill="#000000" font-family="sans-serif" font-size="13" lengthAdjust="spacing" textLength="57" x="686.5" y="214.4951">has a role</text><text fill="#000000" font-family="sans-serif" font-size="13" lengthAdjust="spacing" textLength="5" x="643.2046" y="191.6879">*</text><text fill="#000000" font-family="sans-serif" font-size="13" lengthAdjust="spacing" textLength="7" x="683.1925" y="237.2467">1</text></g><!--MD5=[1da12df22706e73e1def33b218b7f412]
link Employee to Receptionist--><g id="link_Employee_Receptionist"><path codeLine="59" d="M500.44,161.18 C461.03,192.55 417.91,226.87 391.78,247.67 " fill="none" id="Employee-Receptionist" style="stroke:#181818;stroke-width:1.0;"/><polygon fill="#000000" points="446.588,212.2896,455.4952,208.9561,451.8346,204.3572,446.588,212.2896" style="stroke:#000000;stroke-width:1.0;"/><text fill="#000000" font-family="sans-serif" font-size="13" lengthAdjust="spacing" textLength="57" x="459.5" y="214.4951">has a role</text><text fill="#000000" font-family="sans-serif" font-size="13" lengthAdjust="spacing" textLength="5" x="487.4856" y="164.2372">*</text><text fill="#000000" font-family="sans-serif" font-size="13" lengthAdjust="spacing" textLength="7" x="390.6244" y="237.2467">1</text></g><!--MD5=[7454cd36f47ee2c1597ee5b79ae5e9ce]
link Employee to VaccinationCenter--><g id="link_Employee_VaccinationCenter"><path codeLine="60" d="M599.92,170.1 C600.26,209.32 593.84,255 568.5,288 C546.13,317.13 515.1,289.86 491.5,318 C441.71,377.38 488,417.77 457.5,489 C453.01,499.49 447.57,509.98 441.61,520.19 " fill="none" id="Employee-VaccinationCenter" style="stroke:#181818;stroke-width:1.0;"/><polygon fill="#000000" points="494.4399,331.7316,500.8446,324.7009,495.4888,322.2791,494.4399,331.7316" style="stroke:#000000;stroke-width:1.0;"/><text fill="#000000" font-family="sans-serif" font-size="13" lengthAdjust="spacing" textLength="52" x="505.5" y="332.4951">works on</text><text fill="#000000" font-family="sans-serif" font-size="13" lengthAdjust="spacing" textLength="20" x="579.8665" y="191.8591">1..*</text><text fill="#000000" font-family="sans-serif" font-size="13" lengthAdjust="spacing" textLength="7" x="448.5221" y="508.2555">1</text></g><!--MD5=[22fb9506fac029fc1d2ae00f0eb8d606]
link Employee to User--><g id="link_Employee_User"><path codeLine="61" d="M680.78,88.5 C716.36,88.5 755.54,88.5 784.46,88.5 " fill="none" id="Employee-User" style="stroke:#181818;stroke-width:1.0;"/><polygon fill="#000000" points="708,76.6758,698.9549,73.7369,698.9549,79.6147,708,76.6758" style="stroke:#000000;stroke-width:1.0;"/><text fill="#000000" font-family="sans-serif" font-size="13" lengthAdjust="spacing" textLength="54" x="712" y="81.9951">relates to</text><text fill="#000000" font-family="sans-serif" font-size="13" lengthAdjust="spacing" textLength="20" x="688.4577" y="102.6109">0..*</text><text fill="#000000" font-family="sans-serif" font-size="13" lengthAdjust="spacing" textLength="7" x="769.4609" y="84.6127">1</text></g><!--MD5=[4b1cbd5f2b82fe473c8138e32680fa60]
link Receptionist to VaccineSchedule--><g id="link_Receptionist_VaccineSchedule"><path codeLine="64" d="M367.5,288.13 C367.5,308.31 367.5,340.63 367.5,365.77 " fill="none" id="Receptionist-VaccineSchedule" style="stroke:#181818;stroke-width:1.0;"/><polygon fill="#000000" points="372.5,332.1758,375.4389,323.1307,369.5611,323.1307,372.5,332.1758" style="stroke:#000000;stroke-width:1.0;"/><text fill="#000000" font-family="sans-serif" font-size="13" lengthAdjust="spacing" textLength="49" x="381.5" y="332.4951">confirms</text><text fill="#000000" font-family="sans-serif" font-size="13" lengthAdjust="spacing" textLength="7" x="359.5156" y="309.5861">1</text><text fill="#000000" font-family="sans-serif" font-size="13" lengthAdjust="spacing" textLength="20" x="345.7188" y="355.1313">1..*</text></g><!--MD5=[2ca22bd8a754609e49e7920ac627679b]
link HealthcareCenter to VaccinationCenter--><g id="link_HealthcareCenter_VaccinationCenter"><path codeLine="66" d="M138.26,423.76 C157.49,441.91 188.06,469.2 217.5,489 C241.58,505.19 252.35,501.5 275.5,519 C276.35,519.64 277.2,520.29 278.05,520.95 " fill="none" id="HealthcareCenter-to-VaccinationCenter" style="stroke:#181818;stroke-width:1.0;"/><polygon fill="none" points="282.55,515.6,293.41,533.79,273.57,526.34,282.55,515.6" style="stroke:#181818;stroke-width:1.0;"/></g><!--MD5=[8333063a69905134c8a7f249aa9d629e]
link CommunityMassVaccinationCenter to VaccinationCenter--><g id="link_CommunityMassVaccinationCenter_VaccinationCenter"><path codeLine="67" d="M258.26,618 C263.18,618 268.1,618 273.02,618 " fill="none" id="CommunityMassVaccinationCenter-to-VaccinationCenter" style="stroke:#181818;stroke-width:1.0;"/><polygon fill="none" points="273.25,611,293.25,618,273.25,625,273.25,611" style="stroke:#181818;stroke-width:1.0;"/></g><!--MD5=[8e51fd2526d7ed1449c2aa4f1c32bf49]
link VaccineSchedule to SNSUser--><g id="link_VaccineSchedule_SNSUser"><path codeLine="69" d="M438.01,403.5 C489.32,403.5 557.24,403.5 601.15,403.5 " fill="none" id="VaccineSchedule-SNSUser" style="stroke:#181818;stroke-width:1.0;"/><polygon fill="#000000" points="491.75,391.6758,482.7049,388.7369,482.7049,394.6147,491.75,391.6758" style="stroke:#000000;stroke-width:1.0;"/><text fill="#000000" font-family="sans-serif" font-size="13" lengthAdjust="spacing" textLength="61" x="495.75" y="396.9951">created for</text><text fill="#000000" font-family="sans-serif" font-size="13" lengthAdjust="spacing" textLength="20" x="445.9352" y="400.2142">1..*</text><text fill="#000000" font-family="sans-serif" font-size="13" lengthAdjust="spacing" textLength="20" x="573.507" y="399.8948">1..*</text></g><!--MD5=[18968283628c2f508e56f30aee4bc691]
link VaccineSchedule to VaccinationCenter--><g id="link_VaccineSchedule_VaccinationCenter"><path codeLine="70" d="M367.5,441.03 C367.5,462.63 367.5,491.11 367.5,518.84 " fill="none" id="VaccineSchedule-VaccinationCenter" style="stroke:#181818;stroke-width:1.0;"/><polygon fill="#000000" points="372.5,485.1758,375.4389,476.1307,369.5611,476.1307,372.5,485.1758" style="stroke:#000000;stroke-width:1.0;"/><text fill="#000000" font-family="sans-serif" font-size="13" lengthAdjust="spacing" textLength="67" x="381.5" y="485.4951">allocated to</text><text fill="#000000" font-family="sans-serif" font-size="13" lengthAdjust="spacing" textLength="20" x="345.7188" y="462.647">1..*</text><text fill="#000000" font-family="sans-serif" font-size="13" lengthAdjust="spacing" textLength="7" x="360.232" y="508.1256">1</text></g><!--MD5=[caf5296180bfac063f712c0c7ef40853]
link Nurse to VaccineSchedule--><g id="link_Nurse_VaccineSchedule"><path codeLine="72" d="M672.97,286.85 C644.74,301.09 603.58,321.06 566.5,336 C524.6,352.88 476.61,369.01 438.25,381.16 " fill="none" id="Nurse-VaccineSchedule" style="stroke:#181818;stroke-width:1.0;"/><polygon fill="#000000" points="605.8605,329.0399,615.3492,328.3947,613.1577,322.9406,605.8605,329.0399" style="stroke:#000000;stroke-width:1.0;"/><text fill="#000000" font-family="sans-serif" font-size="13" lengthAdjust="spacing" textLength="42" x="619.5" y="332.4951">checks</text><text fill="#000000" font-family="sans-serif" font-size="13" lengthAdjust="spacing" textLength="7" x="658.1263" y="286.6192">1</text><text fill="#000000" font-family="sans-serif" font-size="13" lengthAdjust="spacing" textLength="20" x="445.9465" y="375.7697">1..*</text></g><!--MD5=[44ce67b9ae4b4a4a3bd0ed01886d6243]
link Nurse to SNSUser--><g id="link_Nurse_SNSUser"><path codeLine="73" d="M707.22,288.19 C706.42,301.99 704.05,320.76 697.5,336 C689.86,353.77 676.27,370.9 664.91,383.32 " fill="none" id="Nurse-SNSUser" style="stroke:#181818;stroke-width:1.0;"/><polygon fill="#000000" points="705.4681,331.7443,711.8291,324.6741,706.4585,322.2855,705.4681,331.7443" style="stroke:#000000;stroke-width:1.0;"/><text fill="#000000" font-family="sans-serif" font-size="13" lengthAdjust="spacing" textLength="42" x="716.5" y="332.4951">checks</text><text fill="#000000" font-family="sans-serif" font-size="13" lengthAdjust="spacing" textLength="7" x="699.1569" y="309.663">1</text><text fill="#000000" font-family="sans-serif" font-size="13" lengthAdjust="spacing" textLength="20" x="647.6742" y="372.5889">1..*</text></g><!--MD5=[aa988044c6ccb0a3eab3a4065e30c3e5]
link Nurse to WaitingRoom--><g id="link_Nurse_WaitingRoom"><path codeLine="74" d="M741.08,288.11 C751.53,295.92 761.79,305.97 767.5,318 C770.93,325.23 768.78,328.1 767.5,336 C750.42,441.26 685.26,554.01 657.81,597.95 " fill="none" id="Nurse-WaitingRoom" style="stroke:#181818;stroke-width:1.0;"/><polygon fill="#000000" points="764.2023,408.5044,769.3881,400.5321,763.7117,399.0065,764.2023,408.5044" style="stroke:#000000;stroke-width:1.0;"/><text fill="#000000" font-family="sans-serif" font-size="13" lengthAdjust="spacing" textLength="42" x="774.5" y="408.9951">checks</text><text fill="#000000" font-family="sans-serif" font-size="13" lengthAdjust="spacing" textLength="20" x="727.7119" y="309.5605">1..*</text><text fill="#000000" font-family="sans-serif" font-size="13" lengthAdjust="spacing" textLength="7" x="653.3979" y="587.2571">1</text></g><!--MD5=[de78e1efbcb885042a1719c3cec87a53]
link VaccinationCenter to WaitingRoom--><g id="link_VaccinationCenter_WaitingRoom"><path codeLine="76" d="M441.63,618 C487.31,618 545.04,618 587.4,618 " fill="none" id="VaccinationCenter-WaitingRoom" style="stroke:#181818;stroke-width:1.0;"/><polygon fill="#000000" points="506.5,606.1758,497.4549,603.2369,497.4549,609.1147,506.5,606.1758" style="stroke:#000000;stroke-width:1.0;"/><text fill="#000000" font-family="sans-serif" font-size="13" lengthAdjust="spacing" textLength="21" x="510.5" y="611.4951">has</text><text fill="#000000" font-family="sans-serif" font-size="13" lengthAdjust="spacing" textLength="7" x="449.6356" y="614.6633">1</text><text fill="#000000" font-family="sans-serif" font-size="13" lengthAdjust="spacing" textLength="7" x="572.5075" y="614.4926">1</text></g><!--MD5=[5a65fdea6fc2ed701157a1143872ce6a]
link SNSUser to WaitingRoom--><g id="link_SNSUser_WaitingRoom"><path codeLine="77" d="M645.5,423.73 C645.5,464.19 645.5,557.68 645.5,597.96 " fill="none" id="SNSUser-WaitingRoom" style="stroke:#181818;stroke-width:1.0;"/><polygon fill="#000000" points="650.5,485.1758,653.4389,476.1307,647.5611,476.1307,650.5,485.1758" style="stroke:#000000;stroke-width:1.0;"/><text fill="#000000" font-family="sans-serif" font-size="13" lengthAdjust="spacing" textLength="48" x="659.5" y="485.4951">waits on</text><text fill="#000000" font-family="sans-serif" font-size="13" lengthAdjust="spacing" textLength="20" x="622.8125" y="444.8592">0..*</text><text fill="#000000" font-family="sans-serif" font-size="13" lengthAdjust="spacing" textLength="7" x="637.4719" y="587.27">1</text></g><!--MD5=[f9465fa93bdb9e6a763fe848115fe764]
@startuml
hide methods
'left to right direction
scale 1

class Company {
}

class VaccinationCenter {
    -name
    -phoneNumber
    -emailAddress
    -faxNumber
    -websiteAddress
    -openingHours
    -closingHours
    -slotDuration
    -maxNumVaccines
}


class Employee {
    -name : String
    -email : String
    -address : String
    -phoneNumber: long
    -citizenCardNumber: long
    -role : Role
    -id : String
}

class Nurse {
}

class VaccineSchedule {
    -date
    -time
}

class HealthcareCenter{}

class CommunityMassVaccinationCenter{}

class SNSUser {}

class WaitingRoom {}

class User {
 -name
 -email
 -password
 -role
}

Company "1" - "*" VaccinationCenter : has >
Company "1" - "*" Employee : employs >
Company "1" - "*" SNSUser : owns >

Employee "*" - - "1" Nurse : > has a role
Employee "*" - - "1" Receptionist : > has a role
Employee "1..*" - "1" VaccinationCenter : works on >
Employee "0..*" - "1" User : relates to >


Receptionist "1" - - "1..*" VaccineSchedule : > confirms

HealthcareCenter - -|> VaccinationCenter
CommunityMassVaccinationCenter -|> VaccinationCenter

VaccineSchedule "1..*" - "1..*" SNSUser : > created for
VaccineSchedule "1..*" - - "1" VaccinationCenter : > allocated to

Nurse "1" - - "1..*" VaccineSchedule : > checks
Nurse "1" - - "1..*" SNSUser : > checks
Nurse "1..*" - - "1" WaitingRoom : checks >

VaccinationCenter "1" - "1" WaitingRoom : has >
SNSUser "0..*" - - "1" WaitingRoom : waits on >




@enduml

@startuml
hide methods
scale 1

class Company {
}

class VaccinationCenter {
    -name
    -phoneNumber
    -emailAddress
    -faxNumber
    -websiteAddress
    -openingHours
    -closingHours
    -slotDuration
    -maxNumVaccines
}


class Employee {
    -name : String
    -email : String
    -address : String
    -phoneNumber: long
    -citizenCardNumber: long
    -role : Role
    -id : String
}

class Nurse {
}

class VaccineSchedule {
    -date
    -time
}

class HealthcareCenter{}

class CommunityMassVaccinationCenter{}

class SNSUser {}

class WaitingRoom {}

class User {
 -name
 -email
 -password
 -role
}

Company "1" - "*" VaccinationCenter : has >
Company "1" - "*" Employee : employs >
Company "1" - "*" SNSUser : owns >

Employee "*" - - "1" Nurse : > has a role
Employee "*" - - "1" Receptionist : > has a role
Employee "1..*" - "1" VaccinationCenter : works on >
Employee "0..*" - "1" User : relates to >


Receptionist "1" - - "1..*" VaccineSchedule : > confirms

HealthcareCenter - -|> VaccinationCenter
CommunityMassVaccinationCenter -|> VaccinationCenter

VaccineSchedule "1..*" - "1..*" SNSUser : > created for
VaccineSchedule "1..*" - - "1" VaccinationCenter : > allocated to

Nurse "1" - - "1..*" VaccineSchedule : > checks
Nurse "1" - - "1..*" SNSUser : > checks
Nurse "1..*" - - "1" WaitingRoom : checks >

VaccinationCenter "1" - "1" WaitingRoom : has >
SNSUser "0..*" - - "1" WaitingRoom : waits on >




@enduml

PlantUML version 1.2022.4(Sat Apr 09 14:29:17 BST 2022)
(GPL source distribution)
Java Runtime: OpenJDK Runtime Environment
JVM: OpenJDK 64-Bit Server VM
Default Encoding: Cp1252
Language: en
Country: GB
--></g></svg>