<?xml version="1.0" encoding="UTF-8" standalone="no"?><svg xmlns="http://www.w3.org/2000/svg" xmlns:xlink="http://www.w3.org/1999/xlink" contentStyleType="text/css" height="879px" preserveAspectRatio="none" style="width:2041px;height:879px;background:#FFFFFF;" version="1.1" viewBox="0 0 2041 879" width="2041px" zoomAndPan="magnify"><defs/><g><rect height="41.4453" style="stroke:#00000000;stroke-width:1.0;fill:none;" width="443" x="798.25" y="10"/><text fill="#000000" font-family="sans-serif" font-size="25" font-weight="bold" lengthAdjust="spacing" textLength="433" x="803.25" y="40.9521">US05_SD_Select_VaccinationCenter</text><rect fill="#FFFFFF" height="197.4063" style="stroke:#181818;stroke-width:1.0;" width="10" x="36.5" y="590.625"/><rect fill="#FFFFFF" height="642.9766" style="stroke:#181818;stroke-width:1.0;" width="10" x="101.5" y="145.0547"/><rect fill="#FFFFFF" height="344.2578" style="stroke:#181818;stroke-width:1.0;" width="10" x="428.5" y="246.3672"/><rect fill="#FFFFFF" height="90.7031" style="stroke:#181818;stroke-width:1.0;" width="10" x="428.5" y="620.9766"/><rect fill="#FFFFFF" height="30" style="stroke:#181818;stroke-width:1.0;" width="10" x="428.5" y="749.0313"/><rect fill="#FFFFFF" height="258.2031" style="stroke:#181818;stroke-width:1.0;" width="10" x="777.5" y="276.7188"/><rect fill="#FFFFFF" height="60.3516" style="stroke:#181818;stroke-width:1.0;" width="10" x="777.5" y="651.3281"/><rect fill="#FFFFFF" height="30" style="stroke:#181818;stroke-width:1.0;" width="10" x="1039.5" y="307.0703"/><rect fill="#FFFFFF" height="30" style="stroke:#181818;stroke-width:1.0;" width="10" x="1172.5" y="367.4219"/><rect fill="#FFFFFF" height="30" style="stroke:#181818;stroke-width:1.0;" width="10" x="1172.5" y="681.6797"/><rect fill="#FFFFFF" height="76.7969" style="stroke:#181818;stroke-width:1.0;" width="10" x="1386.5" y="427.7734"/><rect height="169.7578" style="stroke:#000000;stroke-width:1.5;fill:none;" width="1261.5" x="10" y="549.9219"/><line style="stroke:#181818;stroke-width:0.5;fill:none;stroke-dasharray:5.0,5.0;" x1="41" x2="41" y1="135.0547" y2="797.0313"/><line style="stroke:#181818;stroke-width:0.5;fill:none;stroke-dasharray:5.0,5.0;" x1="106" x2="106" y1="135.0547" y2="797.0313"/><line style="stroke:#181818;stroke-width:0.5;fill:none;stroke-dasharray:5.0,5.0;" x1="433" x2="433" y1="212.7109" y2="797.0313"/><line style="stroke:#181818;stroke-width:0.5;fill:none;stroke-dasharray:5.0,5.0;" x1="782" x2="782" y1="135.0547" y2="797.0313"/><line style="stroke:#181818;stroke-width:0.5;fill:none;stroke-dasharray:5.0,5.0;" x1="1044.5" x2="1044.5" y1="135.0547" y2="797.0313"/><line style="stroke:#181818;stroke-width:0.5;fill:none;stroke-dasharray:5.0,5.0;" x1="1177.5" x2="1177.5" y1="135.0547" y2="797.0313"/><line style="stroke:#181818;stroke-width:0.5;fill:none;stroke-dasharray:5.0,5.0;" x1="1391.5" x2="1391.5" y1="135.0547" y2="797.0313"/><line style="stroke:#181818;stroke-width:0.5;fill:none;stroke-dasharray:5.0,5.0;" x1="1607.5" x2="1607.5" y1="135.0547" y2="797.0313"/><line style="stroke:#181818;stroke-width:0.5;fill:none;stroke-dasharray:5.0,5.0;" x1="1833.5" x2="1833.5" y1="135.0547" y2="797.0313"/><line style="stroke:#181818;stroke-width:0.5;fill:none;stroke-dasharray:5.0,5.0;" x1="2004.5" x2="2004.5" y1="135.0547" y2="797.0313"/><text fill="#000000" font-family="sans-serif" font-size="14" lengthAdjust="spacing" textLength="37" x="20" y="131.9785">Nurse</text><ellipse cx="41.5" cy="65.9453" fill="#E2E2F0" rx="8" ry="8" style="stroke:#181818;stroke-width:0.5;"/><path d="M41.5,73.9453 L41.5,100.9453 M28.5,81.9453 L54.5,81.9453 M41.5,100.9453 L28.5,115.9453 M41.5,100.9453 L54.5,115.9453 " fill="none" style="stroke:#181818;stroke-width:0.5;"/><text fill="#000000" font-family="sans-serif" font-size="14" lengthAdjust="spacing" textLength="37" x="20" y="810.5645">Nurse</text><ellipse cx="41.5" cy="822.1406" fill="#E2E2F0" rx="8" ry="8" style="stroke:#181818;stroke-width:0.5;"/><path d="M41.5,830.1406 L41.5,857.1406 M28.5,838.1406 L54.5,838.1406 M41.5,857.1406 L28.5,872.1406 M41.5,857.1406 L54.5,872.1406 " fill="none" style="stroke:#181818;stroke-width:0.5;"/><rect fill="#E2E2F0" height="31.6094" rx="2.5" ry="2.5" style="stroke:#181818;stroke-width:0.5;" width="67" x="73" y="102.4453"/><text fill="#000000" font-family="sans-serif" font-size="14" lengthAdjust="spacing" textLength="53" x="80" y="123.9785">:NurseUI</text><rect fill="#E2E2F0" height="31.6094" rx="2.5" ry="2.5" style="stroke:#181818;stroke-width:0.5;" width="67" x="73" y="796.0313"/><text fill="#000000" font-family="sans-serif" font-size="14" lengthAdjust="spacing" textLength="53" x="80" y="817.5645">:NurseUI</text><rect fill="#E2E2F0" height="31.6094" rx="2.5" ry="2.5" style="stroke:#181818;stroke-width:0.5;" width="185" x="341" y="796.0313"/><text fill="#000000" font-family="sans-serif" font-size="14" lengthAdjust="spacing" textLength="171" x="348" y="817.5645">:SelectVaccinationCenterUI</text><rect fill="#E2E2F0" height="31.6094" rx="2.5" ry="2.5" style="stroke:#181818;stroke-width:0.5;" width="235" x="665" y="102.4453"/><text fill="#000000" font-family="sans-serif" font-size="14" lengthAdjust="spacing" textLength="221" x="672" y="123.9785">:SelectVaccinationCenterController</text><rect fill="#E2E2F0" height="31.6094" rx="2.5" ry="2.5" style="stroke:#181818;stroke-width:0.5;" width="235" x="665" y="796.0313"/><text fill="#000000" font-family="sans-serif" font-size="14" lengthAdjust="spacing" textLength="221" x="672" y="817.5645">:SelectVaccinationCenterController</text><rect fill="#E2E2F0" height="31.6094" rx="2.5" ry="2.5" style="stroke:#181818;stroke-width:0.5;" width="78" x="1005.5" y="102.4453"/><text fill="#000000" font-family="sans-serif" font-size="14" lengthAdjust="spacing" textLength="64" x="1012.5" y="123.9785">:Company</text><rect fill="#E2E2F0" height="31.6094" rx="2.5" ry="2.5" style="stroke:#181818;stroke-width:0.5;" width="78" x="1005.5" y="796.0313"/><text fill="#000000" font-family="sans-serif" font-size="14" lengthAdjust="spacing" textLength="64" x="1012.5" y="817.5645">:Company</text><rect fill="#E2E2F0" height="49.2188" rx="2.5" ry="2.5" style="stroke:#181818;stroke-width:0.5;" width="168" x="1093.5" y="84.8359"/><text fill="#000000" font-family="sans-serif" font-size="14" lengthAdjust="spacing" textLength="48" x="1153.5" y="106.3691">vcStore</text><text fill="#000000" font-family="sans-serif" font-size="14" lengthAdjust="spacing" textLength="154" x="1100.5" y="123.9785">:VaccinationCenterStore</text><rect fill="#E2E2F0" height="49.2188" rx="2.5" ry="2.5" style="stroke:#181818;stroke-width:0.5;" width="168" x="1093.5" y="796.0313"/><text fill="#000000" font-family="sans-serif" font-size="14" lengthAdjust="spacing" textLength="48" x="1153.5" y="817.5645">vcStore</text><text fill="#000000" font-family="sans-serif" font-size="14" lengthAdjust="spacing" textLength="154" x="1100.5" y="835.1738">:VaccinationCenterStore</text><rect fill="#E2E2F0" height="31.6094" rx="2.5" ry="2.5" style="stroke:#181818;stroke-width:0.5;" width="240" x="1271.5" y="102.4453"/><text fill="#000000" font-family="sans-serif" font-size="14" lengthAdjust="spacing" textLength="226" x="1278.5" y="123.9785">:VaccinationCenterSelectionMapper</text><rect fill="#E2E2F0" height="31.6094" rx="2.5" ry="2.5" style="stroke:#181818;stroke-width:0.5;" width="240" x="1271.5" y="796.0313"/><text fill="#000000" font-family="sans-serif" font-size="14" lengthAdjust="spacing" textLength="226" x="1278.5" y="817.5645">:VaccinationCenterSelectionMapper</text><rect fill="#E2E2F0" height="49.2188" rx="2.5" ry="2.5" style="stroke:#181818;stroke-width:0.5;" width="172" x="1521.5" y="84.8359"/><text fill="#000000" font-family="sans-serif" font-size="14" lengthAdjust="spacing" textLength="36" x="1589.5" y="106.3691">vcList</text><text fill="#000000" font-family="sans-serif" font-size="14" lengthAdjust="spacing" textLength="158" x="1528.5" y="123.9785">:List&lt;VaccinationCenter&gt;</text><rect fill="#E2E2F0" height="49.2188" rx="2.5" ry="2.5" style="stroke:#181818;stroke-width:0.5;" width="172" x="1521.5" y="796.0313"/><text fill="#000000" font-family="sans-serif" font-size="14" lengthAdjust="spacing" textLength="36" x="1589.5" y="817.5645">vcList</text><text fill="#000000" font-family="sans-serif" font-size="14" lengthAdjust="spacing" textLength="158" x="1528.5" y="835.1738">:List&lt;VaccinationCenter&gt;</text><rect fill="#E2E2F0" height="49.2188" rx="2.5" ry="2.5" style="stroke:#181818;stroke-width:0.5;" width="260" x="1703.5" y="84.8359"/><text fill="#000000" font-family="sans-serif" font-size="14" lengthAdjust="spacing" textLength="124" x="1771.5" y="106.3691">vcSelectionDTOList</text><text fill="#000000" font-family="sans-serif" font-size="14" lengthAdjust="spacing" textLength="246" x="1710.5" y="123.9785">:List&lt;VaccinationCenterSelectionDTO&gt;</text><rect fill="#E2E2F0" height="49.2188" rx="2.5" ry="2.5" style="stroke:#181818;stroke-width:0.5;" width="260" x="1703.5" y="796.0313"/><text fill="#000000" font-family="sans-serif" font-size="14" lengthAdjust="spacing" textLength="124" x="1771.5" y="817.5645">vcSelectionDTOList</text><text fill="#000000" font-family="sans-serif" font-size="14" lengthAdjust="spacing" textLength="246" x="1710.5" y="835.1738">:List&lt;VaccinationCenterSelectionDTO&gt;</text><rect fill="#E2E2F0" height="49.2188" rx="2.5" ry="2.5" style="stroke:#181818;stroke-width:0.5;" width="62" x="1973.5" y="84.8359"/><text fill="#000000" font-family="sans-serif" font-size="14" lengthAdjust="spacing" textLength="48" x="1980.5" y="106.3691">vcEmail</text><text fill="#000000" font-family="sans-serif" font-size="14" lengthAdjust="spacing" textLength="38" x="1985.5" y="123.9785">:Email</text><rect fill="#E2E2F0" height="49.2188" rx="2.5" ry="2.5" style="stroke:#181818;stroke-width:0.5;" width="62" x="1973.5" y="796.0313"/><text fill="#000000" font-family="sans-serif" font-size="14" lengthAdjust="spacing" textLength="48" x="1980.5" y="817.5645">vcEmail</text><text fill="#000000" font-family="sans-serif" font-size="14" lengthAdjust="spacing" textLength="38" x="1985.5" y="835.1738">:Email</text><rect fill="#FFFFFF" height="197.4063" style="stroke:#181818;stroke-width:1.0;" width="10" x="36.5" y="590.625"/><rect fill="#FFFFFF" height="642.9766" style="stroke:#181818;stroke-width:1.0;" width="10" x="101.5" y="145.0547"/><rect fill="#FFFFFF" height="344.2578" style="stroke:#181818;stroke-width:1.0;" width="10" x="428.5" y="246.3672"/><rect fill="#FFFFFF" height="90.7031" style="stroke:#181818;stroke-width:1.0;" width="10" x="428.5" y="620.9766"/><rect fill="#FFFFFF" height="30" style="stroke:#181818;stroke-width:1.0;" width="10" x="428.5" y="749.0313"/><rect fill="#FFFFFF" height="258.2031" style="stroke:#181818;stroke-width:1.0;" width="10" x="777.5" y="276.7188"/><rect fill="#FFFFFF" height="60.3516" style="stroke:#181818;stroke-width:1.0;" width="10" x="777.5" y="651.3281"/><rect fill="#FFFFFF" height="30" style="stroke:#181818;stroke-width:1.0;" width="10" x="1039.5" y="307.0703"/><rect fill="#FFFFFF" height="30" style="stroke:#181818;stroke-width:1.0;" width="10" x="1172.5" y="367.4219"/><rect fill="#FFFFFF" height="30" style="stroke:#181818;stroke-width:1.0;" width="10" x="1172.5" y="681.6797"/><rect fill="#FFFFFF" height="76.7969" style="stroke:#181818;stroke-width:1.0;" width="10" x="1386.5" y="427.7734"/><path d="M35,150.0547 L35,176.0547 L178,176.0547 L178,160.0547 L168,150.0547 L35,150.0547 " fill="#FEFFDD" style="stroke:#181818;stroke-width:0.5;"/><path d="M168,150.0547 L168,160.0547 L178,160.0547 L168,150.0547 " fill="#FEFFDD" style="stroke:#181818;stroke-width:0.5;"/><text fill="#000000" font-family="sans-serif" font-size="13" lengthAdjust="spacing" textLength="122" x="41" y="168.5498">after successful login</text><polygon fill="#181818" points="329,199.7578,339,203.7578,329,207.7578,333,203.7578" style="stroke:#181818;stroke-width:1.0;"/><line style="stroke:#181818;stroke-width:1.0;stroke-dasharray:2.0,2.0;" x1="111.5" x2="335" y1="203.7578" y2="203.7578"/><text fill="#000000" font-family="sans-serif" font-size="13" font-weight="bold" lengthAdjust="spacing" textLength="7" x="118.5" y="198.9014">1</text><text fill="#000000" font-family="sans-serif" font-size="13" lengthAdjust="spacing" textLength="44" x="129.5" y="198.9014">create()</text><rect fill="#E2E2F0" height="31.6094" rx="2.5" ry="2.5" style="stroke:#181818;stroke-width:0.5;" width="185" x="341" y="181.4063"/><text fill="#000000" font-family="sans-serif" font-size="14" lengthAdjust="spacing" textLength="171" x="348" y="202.9395">:SelectVaccinationCenterUI</text><polygon fill="#181818" points="416.5,242.3672,426.5,246.3672,416.5,250.3672,420.5,246.3672" style="stroke:#181818;stroke-width:1.0;"/><line style="stroke:#181818;stroke-width:1.0;" x1="111.5" x2="422.5" y1="246.3672" y2="246.3672"/><text fill="#000000" font-family="sans-serif" font-size="13" font-weight="bold" lengthAdjust="spacing" textLength="7" x="118.5" y="241.5107">2</text><text fill="#000000" font-family="sans-serif" font-size="13" lengthAdjust="spacing" textLength="26" x="129.5" y="241.5107">run()</text><polygon fill="#181818" points="765.5,272.7188,775.5,276.7188,765.5,280.7188,769.5,276.7188" style="stroke:#181818;stroke-width:1.0;"/><line style="stroke:#181818;stroke-width:1.0;" x1="438.5" x2="771.5" y1="276.7188" y2="276.7188"/><text fill="#000000" font-family="sans-serif" font-size="13" font-weight="bold" lengthAdjust="spacing" textLength="7" x="445.5" y="271.8623">3</text><text fill="#000000" font-family="sans-serif" font-size="13" lengthAdjust="spacing" textLength="153" x="456.5" y="271.8623">getVaccinationCenterList()</text><polygon fill="#181818" points="1027.5,303.0703,1037.5,307.0703,1027.5,311.0703,1031.5,307.0703" style="stroke:#181818;stroke-width:1.0;"/><line style="stroke:#181818;stroke-width:1.0;" x1="787.5" x2="1033.5" y1="307.0703" y2="307.0703"/><text fill="#000000" font-family="sans-serif" font-size="13" font-weight="bold" lengthAdjust="spacing" textLength="7" x="794.5" y="302.2139">4</text><text fill="#000000" font-family="sans-serif" font-size="13" lengthAdjust="spacing" textLength="222" x="805.5" y="302.2139">vcStore = getVaccinationCenterStore()</text><polygon fill="#181818" points="1160.5,363.4219,1170.5,367.4219,1160.5,371.4219,1164.5,367.4219" style="stroke:#181818;stroke-width:1.0;"/><line style="stroke:#181818;stroke-width:1.0;" x1="787.5" x2="1166.5" y1="367.4219" y2="367.4219"/><text fill="#000000" font-family="sans-serif" font-size="13" font-weight="bold" lengthAdjust="spacing" textLength="7" x="794.5" y="362.5654">5</text><text fill="#000000" font-family="sans-serif" font-size="13" lengthAdjust="spacing" textLength="202" x="805.5" y="362.5654">vcList = getVaccinationCenterList()</text><polygon fill="#181818" points="1374.5,423.7734,1384.5,427.7734,1374.5,431.7734,1378.5,427.7734" style="stroke:#181818;stroke-width:1.0;"/><line style="stroke:#181818;stroke-width:1.0;" x1="787.5" x2="1380.5" y1="427.7734" y2="427.7734"/><text fill="#000000" font-family="sans-serif" font-size="13" font-weight="bold" lengthAdjust="spacing" textLength="7" x="794.5" y="422.917">6</text><text fill="#000000" font-family="sans-serif" font-size="13" lengthAdjust="spacing" textLength="78" x="805.5" y="422.917">toDTO(vcList)</text><rect fill="#FFFFFF" height="41.4453" style="stroke:#000000;stroke-width:1.5;" width="335" x="1268.5" y="435.7734"/><path d="M1268.5,435.7734 L1330.5,435.7734 L1330.5,443.7734 L1320.5,453.7734 L1268.5,453.7734 L1268.5,435.7734 " fill="#EEEEEE" style="stroke:#000000;stroke-width:2.0;"/><text fill="#000000" font-family="sans-serif" font-size="13" font-weight="bold" lengthAdjust="spacing" textLength="17" x="1281.5" y="451.2686">ref</text><text fill="#000000" font-family="sans-serif" font-size="12" lengthAdjust="spacing" textLength="327" x="1272.5" y="470.2305">US05_SD_VaccinationCenterSelectionMapper_ToDTO_List</text><polygon fill="#181818" points="798.5,500.5703,788.5,504.5703,798.5,508.5703,794.5,504.5703" style="stroke:#181818;stroke-width:1.0;"/><line style="stroke:#181818;stroke-width:1.0;stroke-dasharray:2.0,2.0;" x1="792.5" x2="1390.5" y1="504.5703" y2="504.5703"/><text fill="#000000" font-family="sans-serif" font-size="13" font-weight="bold" lengthAdjust="spacing" textLength="7" x="804.5" y="499.7139">7</text><text fill="#000000" font-family="sans-serif" font-size="13" lengthAdjust="spacing" textLength="113" x="815.5" y="499.7139">vcSelectionDTOList</text><polygon fill="#181818" points="449.5,530.9219,439.5,534.9219,449.5,538.9219,445.5,534.9219" style="stroke:#181818;stroke-width:1.0;"/><line style="stroke:#181818;stroke-width:1.0;stroke-dasharray:2.0,2.0;" x1="443.5" x2="781.5" y1="534.9219" y2="534.9219"/><text fill="#000000" font-family="sans-serif" font-size="13" font-weight="bold" lengthAdjust="spacing" textLength="7" x="455.5" y="530.0654">8</text><text fill="#000000" font-family="sans-serif" font-size="13" lengthAdjust="spacing" textLength="113" x="466.5" y="530.0654">vcSelectionDTOList</text><path d="M10,549.9219 L87,549.9219 L87,558.2734 L77,568.2734 L10,568.2734 L10,549.9219 " fill="#EEEEEE" style="stroke:#000000;stroke-width:1.5;"/><rect fill="none" height="169.7578" style="stroke:#000000;stroke-width:1.5;" width="1261.5" x="10" y="549.9219"/><text fill="#000000" font-family="sans-serif" font-size="13" font-weight="bold" lengthAdjust="spacing" textLength="28" x="25" y="564.417">loop</text><text fill="#000000" font-family="sans-serif" font-size="11" font-weight="bold" lengthAdjust="spacing" textLength="289" x="102" y="563.3408">[while an existing vaccination center is not selected]</text><polygon fill="#181818" points="57.5,586.625,47.5,590.625,57.5,594.625,53.5,590.625" style="stroke:#181818;stroke-width:1.0;"/><line style="stroke:#181818;stroke-width:1.0;stroke-dasharray:2.0,2.0;" x1="51.5" x2="432.5" y1="590.625" y2="590.625"/><text fill="#000000" font-family="sans-serif" font-size="13" font-weight="bold" lengthAdjust="spacing" textLength="7" x="63.5" y="585.7686">9</text><text fill="#000000" font-family="sans-serif" font-size="13" lengthAdjust="spacing" textLength="323" x="74.5" y="585.7686">shows list of vaccination centers and asks to select one</text><polygon fill="#181818" points="416.5,616.9766,426.5,620.9766,416.5,624.9766,420.5,620.9766" style="stroke:#181818;stroke-width:1.0;"/><line style="stroke:#181818;stroke-width:1.0;" x1="46.5" x2="422.5" y1="620.9766" y2="620.9766"/><text fill="#000000" font-family="sans-serif" font-size="13" font-weight="bold" lengthAdjust="spacing" textLength="14" x="53.5" y="616.1201">10</text><text fill="#000000" font-family="sans-serif" font-size="13" lengthAdjust="spacing" textLength="150" x="71.5" y="616.1201">selects vaccination center</text><polygon fill="#181818" points="765.5,647.3281,775.5,651.3281,765.5,655.3281,769.5,651.3281" style="stroke:#181818;stroke-width:1.0;"/><line style="stroke:#181818;stroke-width:1.0;" x1="438.5" x2="771.5" y1="651.3281" y2="651.3281"/><text fill="#000000" font-family="sans-serif" font-size="13" font-weight="bold" lengthAdjust="spacing" textLength="14" x="445.5" y="646.4717">11</text><text fill="#000000" font-family="sans-serif" font-size="13" lengthAdjust="spacing" textLength="302" x="463.5" y="646.4717">vcExists = checkIfVaccinationCenterExists(vcEmail)</text><polygon fill="#181818" points="1160.5,677.6797,1170.5,681.6797,1160.5,685.6797,1164.5,681.6797" style="stroke:#181818;stroke-width:1.0;"/><line style="stroke:#181818;stroke-width:1.0;" x1="787.5" x2="1166.5" y1="681.6797" y2="681.6797"/><text fill="#000000" font-family="sans-serif" font-size="13" font-weight="bold" lengthAdjust="spacing" textLength="14" x="794.5" y="676.8232">12</text><text fill="#000000" font-family="sans-serif" font-size="13" lengthAdjust="spacing" textLength="153" x="812.5" y="676.8232">vcExists = exists(vcEmail)</text><polygon fill="#181818" points="416.5,745.0313,426.5,749.0313,416.5,753.0313,420.5,749.0313" style="stroke:#181818;stroke-width:1.0;"/><line style="stroke:#181818;stroke-width:1.0;" x1="111.5" x2="422.5" y1="749.0313" y2="749.0313"/><text fill="#000000" font-family="sans-serif" font-size="13" font-weight="bold" lengthAdjust="spacing" textLength="14" x="118.5" y="744.1748">13</text><text fill="#000000" font-family="sans-serif" font-size="13" lengthAdjust="spacing" textLength="280" x="136.5" y="744.1748">vcEmail = getVaccinationCenterSelectionEmail()</text><!--MD5=[4e52843b937f26e0e7a1d0df174d7b5d]
@startuml
autonumber
autoactivate on
scale 1
skinparam titleFontSize 25
skinparam sequenceReferenceBackgroundColor white

actor Nurse as NURSE

participant ":NurseUI" as NUI
participant ":SelectVaccinationCenterUI" as UI
participant ":SelectVaccinationCenterController" as CTRL
participant ":Company" as COMPANY
participant "vcStore\n:VaccinationCenterStore" as VCSTORE
participant ":VaccinationCenterSelectionMapper" as MAPPER
participant "vcList\n:List<VaccinationCenter>" as VCLIST
participant "vcSelectionDTOList\n:List<VaccinationCenterSelectionDTO>" as VCLISTDTO
participant "vcEmail\n:Email"

title US05_SD_Select_VaccinationCenter

activate NUI
note over NUI: after successful login
NUI - -> UI** : create()

NUI -> UI : run()

UI -> CTRL : getVaccinationCenterList()

'3
CTRL -> COMPANY : vcStore = getVaccinationCenterStore()
deactivate COMPANY

'4
CTRL -> VCSTORE : vcList = getVaccinationCenterList()
deactivate VCSTORE

CTRL -> MAPPER : toDTO(vcList)
ref over MAPPER
US05_SD_VaccinationCenterSelectionMapper_ToDTO_List
end
return vcSelectionDTOList
return vcSelectionDTOList

' Select vaccination center loop
group loop [while an existing vaccination center is not selected]
    UI - -> NURSE : shows list of vaccination centers and asks to select one
    activate NURSE
    NURSE -> UI : selects vaccination center

    UI -> CTRL : vcExists = checkIfVaccinationCenterExists(vcEmail)
    CTRL -> VCSTORE : vcExists = exists(vcEmail)
    deactivate VCSTORE
    deactivate CTRL
    deactivate UI
end

NUI -> UI : vcEmail = getVaccinationCenterSelectionEmail()
deactivate UI

@enduml

@startuml
autonumber
autoactivate on
scale 1
skinparam titleFontSize 25
skinparam sequenceReferenceBackgroundColor white

actor Nurse as NURSE

participant ":NurseUI" as NUI
participant ":SelectVaccinationCenterUI" as UI
participant ":SelectVaccinationCenterController" as CTRL
participant ":Company" as COMPANY
participant "vcStore\n:VaccinationCenterStore" as VCSTORE
participant ":VaccinationCenterSelectionMapper" as MAPPER
participant "vcList\n:List<VaccinationCenter>" as VCLIST
participant "vcSelectionDTOList\n:List<VaccinationCenterSelectionDTO>" as VCLISTDTO
participant "vcEmail\n:Email"

title US05_SD_Select_VaccinationCenter

activate NUI
note over NUI: after successful login
NUI - -> UI** : create()

NUI -> UI : run()

UI -> CTRL : getVaccinationCenterList()

CTRL -> COMPANY : vcStore = getVaccinationCenterStore()
deactivate COMPANY

CTRL -> VCSTORE : vcList = getVaccinationCenterList()
deactivate VCSTORE

CTRL -> MAPPER : toDTO(vcList)
ref over MAPPER
US05_SD_VaccinationCenterSelectionMapper_ToDTO_List
end
return vcSelectionDTOList
return vcSelectionDTOList

group loop [while an existing vaccination center is not selected]
    UI - -> NURSE : shows list of vaccination centers and asks to select one
    activate NURSE
    NURSE -> UI : selects vaccination center

    UI -> CTRL : vcExists = checkIfVaccinationCenterExists(vcEmail)
    CTRL -> VCSTORE : vcExists = exists(vcEmail)
    deactivate VCSTORE
    deactivate CTRL
    deactivate UI
end

NUI -> UI : vcEmail = getVaccinationCenterSelectionEmail()
deactivate UI

@enduml

PlantUML version 1.2022.4(Sat Apr 09 14:29:17 BST 2022)
(GPL source distribution)
Java Runtime: OpenJDK Runtime Environment
JVM: OpenJDK 64-Bit Server VM
Default Encoding: Cp1252
Language: en
Country: GB
--></g></svg>