<?xml version="1.0" encoding="UTF-8" standalone="no"?><svg xmlns="http://www.w3.org/2000/svg" xmlns:xlink="http://www.w3.org/1999/xlink" contentStyleType="text/css" height="529px" preserveAspectRatio="none" style="width:1028px;height:529px;background:#FFFFFF;" version="1.1" viewBox="0 0 1028 529" width="1028px" zoomAndPan="magnify"><defs/><g><rect height="41.4453" style="stroke:#00000000;stroke-width:1.0;fill:none;" width="481" x="272.75" y="10"/><text fill="#000000" font-family="sans-serif" font-size="25" font-weight="bold" lengthAdjust="spacing" textLength="471" x="277.75" y="40.9521">US05_SD_SnsUserMapper_ToDTO_List</text><rect fill="#FFFFFF" height="316.9766" style="stroke:#181818;stroke-width:1.0;" width="10" x="194" y="140.0156"/><rect fill="#FFFFFF" height="28" style="stroke:#181818;stroke-width:1.0;" width="10" x="199" y="324.2891"/><rect fill="#FFFFFF" height="30" style="stroke:#181818;stroke-width:1.0;" width="10" x="482" y="255.9375"/><rect fill="#FFFFFF" height="30" style="stroke:#181818;stroke-width:1.0;" width="10" x="656" y="389.6406"/><rect height="212.4063" style="stroke:#000000;stroke-width:1.5;fill:none;" width="631" x="129.5" y="215.2344"/><line style="stroke:#181818;stroke-width:0.5;fill:none;stroke-dasharray:5.0,5.0;" x1="198.5" x2="198.5" y1="107.6641" y2="474.9922"/><line style="stroke:#181818;stroke-width:0.5;fill:none;stroke-dasharray:5.0,5.0;" x1="486.5" x2="486.5" y1="107.6641" y2="474.9922"/><line style="stroke:#181818;stroke-width:0.5;fill:none;stroke-dasharray:5.0,5.0;" x1="660.5" x2="660.5" y1="188.125" y2="474.9922"/><line style="stroke:#181818;stroke-width:0.5;fill:none;stroke-dasharray:5.0,5.0;" x1="815.5" x2="815.5" y1="107.6641" y2="474.9922"/><line style="stroke:#181818;stroke-width:0.5;fill:none;stroke-dasharray:5.0,5.0;" x1="951.5" x2="951.5" y1="107.6641" y2="474.9922"/><rect fill="#E2E2F0" height="31.6094" rx="2.5" ry="2.5" style="stroke:#181818;stroke-width:0.5;" width="119" x="139.5" y="75.0547"/><text fill="#000000" font-family="sans-serif" font-size="14" lengthAdjust="spacing" textLength="105" x="146.5" y="96.5879">:SnsUserMapper</text><rect fill="#E2E2F0" height="31.6094" rx="2.5" ry="2.5" style="stroke:#181818;stroke-width:0.5;" width="119" x="139.5" y="473.9922"/><text fill="#000000" font-family="sans-serif" font-size="14" lengthAdjust="spacing" textLength="105" x="146.5" y="495.5254">:SnsUserMapper</text><rect fill="#E2E2F0" height="49.2188" rx="2.5" ry="2.5" style="stroke:#181818;stroke-width:0.5;" width="149" x="412.5" y="57.4453"/><text fill="#000000" font-family="sans-serif" font-size="14" lengthAdjust="spacing" textLength="120" x="427" y="78.9785">snsUserArrivalsList</text><text fill="#000000" font-family="sans-serif" font-size="14" lengthAdjust="spacing" textLength="135" x="419.5" y="96.5879">:List&lt;SnsUserArrival&gt;</text><rect fill="#E2E2F0" height="49.2188" rx="2.5" ry="2.5" style="stroke:#181818;stroke-width:0.5;" width="149" x="412.5" y="473.9922"/><text fill="#000000" font-family="sans-serif" font-size="14" lengthAdjust="spacing" textLength="120" x="427" y="495.5254">snsUserArrivalsList</text><text fill="#000000" font-family="sans-serif" font-size="14" lengthAdjust="spacing" textLength="135" x="419.5" y="513.1348">:List&lt;SnsUserArrival&gt;</text><rect fill="#E2E2F0" height="49.2188" rx="2.5" ry="2.5" style="stroke:#181818;stroke-width:0.5;" width="179" x="571.5" y="473.9922"/><text fill="#000000" font-family="sans-serif" font-size="14" lengthAdjust="spacing" textLength="150" x="586" y="495.5254">snsUserArrivalsDTOList</text><text fill="#000000" font-family="sans-serif" font-size="14" lengthAdjust="spacing" textLength="165" x="578.5" y="513.1348">:List&lt;SnsUserArrivalDTO&gt;</text><rect fill="#E2E2F0" height="49.2188" rx="2.5" ry="2.5" style="stroke:#181818;stroke-width:0.5;" width="111" x="760.5" y="57.4453"/><text fill="#000000" font-family="sans-serif" font-size="14" lengthAdjust="spacing" textLength="91" x="770.5" y="78.9785">snsUserArrival</text><text fill="#000000" font-family="sans-serif" font-size="14" lengthAdjust="spacing" textLength="97" x="767.5" y="96.5879">:SnsUserArrival</text><rect fill="#E2E2F0" height="49.2188" rx="2.5" ry="2.5" style="stroke:#181818;stroke-width:0.5;" width="111" x="760.5" y="473.9922"/><text fill="#000000" font-family="sans-serif" font-size="14" lengthAdjust="spacing" textLength="91" x="770.5" y="495.5254">snsUserArrival</text><text fill="#000000" font-family="sans-serif" font-size="14" lengthAdjust="spacing" textLength="97" x="767.5" y="513.1348">:SnsUserArrival</text><rect fill="#E2E2F0" height="49.2188" rx="2.5" ry="2.5" style="stroke:#181818;stroke-width:0.5;" width="141" x="881.5" y="57.4453"/><text fill="#000000" font-family="sans-serif" font-size="14" lengthAdjust="spacing" textLength="121" x="891.5" y="78.9785">snsUserArrivalDTO</text><text fill="#000000" font-family="sans-serif" font-size="14" lengthAdjust="spacing" textLength="127" x="888.5" y="96.5879">:SnsUserArrivalDTO</text><rect fill="#E2E2F0" height="49.2188" rx="2.5" ry="2.5" style="stroke:#181818;stroke-width:0.5;" width="141" x="881.5" y="473.9922"/><text fill="#000000" font-family="sans-serif" font-size="14" lengthAdjust="spacing" textLength="121" x="891.5" y="495.5254">snsUserArrivalDTO</text><text fill="#000000" font-family="sans-serif" font-size="14" lengthAdjust="spacing" textLength="127" x="888.5" y="513.1348">:SnsUserArrivalDTO</text><rect fill="#FFFFFF" height="316.9766" style="stroke:#181818;stroke-width:1.0;" width="10" x="194" y="140.0156"/><rect fill="#FFFFFF" height="28" style="stroke:#181818;stroke-width:1.0;" width="10" x="199" y="324.2891"/><rect fill="#FFFFFF" height="30" style="stroke:#181818;stroke-width:1.0;" width="10" x="482" y="255.9375"/><rect fill="#FFFFFF" height="30" style="stroke:#181818;stroke-width:1.0;" width="10" x="656" y="389.6406"/><ellipse cx="7.5" cy="139.2656" fill="none" rx="4" ry="4" style="stroke:#181818;stroke-width:1.5;"/><polygon fill="#181818" points="182,136.0156,192,140.0156,182,144.0156,186,140.0156" style="stroke:#181818;stroke-width:1.0;"/><line style="stroke:#181818;stroke-width:1.0;" x1="12" x2="188" y1="140.0156" y2="140.0156"/><text fill="#000000" font-family="sans-serif" font-size="13" font-weight="bold" lengthAdjust="spacing" textLength="7" x="15" y="135.1592">1</text><text fill="#000000" font-family="sans-serif" font-size="13" lengthAdjust="spacing" textLength="156" x="26" y="135.1592">toDTO(snsUserArrivalsList)</text><polygon fill="#181818" points="559.5,166.3672,569.5,170.3672,559.5,174.3672,563.5,170.3672" style="stroke:#181818;stroke-width:1.0;"/><line style="stroke:#181818;stroke-width:1.0;stroke-dasharray:2.0,2.0;" x1="204" x2="565.5" y1="170.3672" y2="170.3672"/><text fill="#000000" font-family="sans-serif" font-size="13" font-weight="bold" lengthAdjust="spacing" textLength="7" x="211" y="165.5107">2</text><text fill="#000000" font-family="sans-serif" font-size="13" lengthAdjust="spacing" textLength="44" x="222" y="165.5107">create()</text><rect fill="#E2E2F0" height="49.2188" rx="2.5" ry="2.5" style="stroke:#181818;stroke-width:0.5;" width="179" x="571.5" y="148.0156"/><text fill="#000000" font-family="sans-serif" font-size="14" lengthAdjust="spacing" textLength="150" x="586" y="169.5488">snsUserArrivalsDTOList</text><text fill="#000000" font-family="sans-serif" font-size="14" lengthAdjust="spacing" textLength="165" x="578.5" y="187.1582">:List&lt;SnsUserArrivalDTO&gt;</text><path d="M129.5,215.2344 L202.5,215.2344 L202.5,223.5859 L192.5,233.5859 L129.5,233.5859 L129.5,215.2344 " fill="#EEEEEE" style="stroke:#000000;stroke-width:1.5;"/><rect fill="none" height="212.4063" style="stroke:#000000;stroke-width:1.5;" width="631" x="129.5" y="215.2344"/><text fill="#000000" font-family="sans-serif" font-size="13" font-weight="bold" lengthAdjust="spacing" textLength="28" x="144.5" y="229.7295">loop</text><text fill="#000000" font-family="sans-serif" font-size="11" font-weight="bold" lengthAdjust="spacing" textLength="303" x="217.5" y="228.6533">[for each SnsUserArrival object in snsUserArrivalsList]</text><polygon fill="#181818" points="470,251.9375,480,255.9375,470,259.9375,474,255.9375" style="stroke:#181818;stroke-width:1.0;"/><line style="stroke:#181818;stroke-width:1.0;" x1="204" x2="476" y1="255.9375" y2="255.9375"/><text fill="#000000" font-family="sans-serif" font-size="13" font-weight="bold" lengthAdjust="spacing" textLength="7" x="211" y="251.0811">3</text><text fill="#000000" font-family="sans-serif" font-size="13" lengthAdjust="spacing" textLength="128" x="222" y="251.0811">snsUserArrival = get(i)</text><line style="stroke:#181818;stroke-width:1.0;" x1="209" x2="251" y1="316.2891" y2="316.2891"/><line style="stroke:#181818;stroke-width:1.0;" x1="251" x2="251" y1="316.2891" y2="329.2891"/><line style="stroke:#181818;stroke-width:1.0;" x1="210" x2="251" y1="329.2891" y2="329.2891"/><polygon fill="#181818" points="220,325.2891,210,329.2891,220,333.2891,216,329.2891" style="stroke:#181818;stroke-width:1.0;"/><text fill="#000000" font-family="sans-serif" font-size="13" font-weight="bold" lengthAdjust="spacing" textLength="7" x="216" y="311.4326">4</text><text fill="#000000" font-family="sans-serif" font-size="13" lengthAdjust="spacing" textLength="253" x="227" y="311.4326">snsUserArrivalDTO = toDTO(snsUserArrival)</text><polygon fill="#181818" points="644,385.6406,654,389.6406,644,393.6406,648,389.6406" style="stroke:#181818;stroke-width:1.0;"/><line style="stroke:#181818;stroke-width:1.0;" x1="204" x2="650" y1="389.6406" y2="389.6406"/><text fill="#000000" font-family="sans-serif" font-size="13" font-weight="bold" lengthAdjust="spacing" textLength="7" x="211" y="384.7842">5</text><text fill="#000000" font-family="sans-serif" font-size="13" lengthAdjust="spacing" textLength="138" x="222" y="384.7842">add(snsUserArrivalDTO)</text><polygon fill="#181818" points="11,452.9922,1,456.9922,11,460.9922,7,456.9922" style="stroke:#181818;stroke-width:1.0;"/><line style="stroke:#181818;stroke-width:1.0;stroke-dasharray:2.0,2.0;" x1="5" x2="198" y1="456.9922" y2="456.9922"/><text fill="#000000" font-family="sans-serif" font-size="13" font-weight="bold" lengthAdjust="spacing" textLength="7" x="17" y="452.1357">6</text><text fill="#000000" font-family="sans-serif" font-size="13" lengthAdjust="spacing" textLength="137" x="28" y="452.1357">snsUserArrivalsDTOList</text><!--MD5=[280e25a8ca176413965134ee948b9841]
@startuml
autonumber
autoactivate on
scale 1
skinparam titleFontSize 25

title US05_SD_SnsUserMapper_ToDTO_List

participant ":SnsUserMapper" as MAPPER
participant "snsUserArrivalsList\n:List<SnsUserArrival>" as LSU
participant "snsUserArrivalsDTOList\n:List<SnsUserArrivalDTO>" as LSUDTO
participant "snsUserArrival\n:SnsUserArrival" as USR
participant "snsUserArrivalDTO\n:SnsUserArrivalDTO" as DTO

[o-> MAPPER : toDTO(snsUserArrivalsList)

MAPPER - -> LSUDTO** : create()
loop for each SnsUserArrival object in snsUserArrivalsList
MAPPER -> LSU : snsUserArrival = get(i)
deactivate LSU
MAPPER -> MAPPER : snsUserArrivalDTO = toDTO(snsUserArrival)
deactivate MAPPER

MAPPER -> LSUDTO : add(snsUserArrivalDTO)
deactivate LSUDTO

end

[<- - MAPPER : snsUserArrivalsDTOList


@enduml

PlantUML version 1.2022.4(Sat Apr 09 14:29:17 BST 2022)
(GPL source distribution)
Java Runtime: OpenJDK Runtime Environment
JVM: OpenJDK 64-Bit Server VM
Default Encoding: Cp1252
Language: en
Country: GB
--></g></svg>